<svg width="259" height="124" viewBox="0 0 259 124" fill="none" xmlns="http://www.w3.org/2000/svg">
<path d="M0 51.6087C0.832148 51.4531 1.67744 51.4951 2.51667 51.4511C5.39228 51.3007 8.26891 51.1595 11.1425 51.5043C12.2972 51.6435 13.4337 51.8665 14.5378 52.241C18.9958 53.7514 19.6429 58.0737 18.646 60.9644C17.9847 62.884 16.6915 64.2266 14.8816 65.1659C15.3305 65.4125 15.7512 65.6356 16.1657 65.8709C18.6713 67.2943 19.921 69.8033 19.5712 72.7033C19.0737 76.8281 16.7137 79.4149 12.6298 80.3532C10.4782 80.8475 8.29621 80.9436 6.10613 80.9048C4.07075 80.8689 2.03335 80.8925 0 80.7625V51.6087ZM5.40037 72.0474H5.40947C5.40947 73.2743 5.41554 74.5022 5.40441 75.7291C5.40239 76.0105 5.4489 76.166 5.77752 76.1783C6.28105 76.1977 6.78155 76.296 7.28509 76.3164C8.67537 76.3737 10.0475 76.2642 11.3356 75.6748C12.9686 74.9279 13.7148 73.6048 13.645 71.6289C13.5924 70.1298 12.6834 68.9858 11.0616 68.3902C9.3053 67.7445 7.49945 67.7548 5.6764 67.9799C5.37307 68.0177 5.39734 68.2091 5.39734 68.4179C5.40037 69.6273 5.40037 70.8379 5.40037 72.0474ZM5.59552 59.9299H5.43475C5.43475 61.0033 5.44486 62.0756 5.42767 63.148C5.42363 63.4366 5.47317 63.5614 5.79369 63.6003C6.4307 63.676 7.0677 63.7159 7.70774 63.7108C9.07173 63.6996 10.3953 63.498 11.5722 62.7408C12.8715 61.9048 13.374 60.6635 13.2123 59.1512C13.0485 57.6163 12.1304 56.7158 10.7006 56.3014C9.14251 55.8491 7.57326 55.9545 5.99491 56.1724C5.65113 56.2195 5.58945 56.3648 5.59147 56.6595C5.60057 57.7503 5.59552 58.8401 5.59552 59.9299ZM245.988 20C246.626 20.2118 247.3 20.178 247.955 20.2783C248.912 20.4236 249.636 20.8882 250.078 21.7416C250.905 23.3389 251.66 24.972 252.258 26.6727C252.512 27.3941 252.276 27.7021 251.418 27.7594C250.443 27.8249 249.466 27.8362 248.489 27.8689C243.063 28.0531 237.678 28.622 232.316 29.4765C227.341 30.2695 222.457 31.4432 217.611 32.8103C217.143 32.9423 216.663 33.0497 216.181 33.105C215.088 33.2308 214.563 32.9238 214.093 31.9098C213.67 30.9991 213.397 30.0321 213.088 29.0805C212.805 28.2086 212.518 27.3368 212.275 26.4527C212.005 25.4724 212.275 24.8452 213.169 24.3745C214.28 23.7892 215.499 23.5037 216.698 23.1803C221 22.0199 225.39 21.3497 229.801 20.8012C232.041 20.5229 234.281 20.2568 236.532 20.1003C236.603 20.0952 236.663 20.0798 236.686 20.002H239.113C239.854 20.1719 240.596 20.1709 241.337 20.002H243.663C244.202 20.1688 244.742 20.1688 245.281 20.002C245.516 20 245.752 20 245.988 20Z" fill="#23307D"/>
<path d="M205.315 41.5521C205.277 40.4654 205.755 39.6867 206.668 39.1556C207.872 38.4547 209.194 38.0423 210.497 37.59C216.787 35.4064 223.187 33.6341 229.729 32.4021C234.827 31.4412 239.947 30.6451 245.122 30.2686C247.708 30.0803 250.301 29.9585 252.896 30.1202C254.555 30.2235 255.191 30.6656 255.714 32.2476C256.28 33.9605 257.005 35.608 257.654 37.2871C258.199 38.6982 257.949 39.1863 256.482 39.5629C254.718 40.0152 252.911 40.2372 251.12 40.535C246.919 41.2318 242.751 42.0903 238.602 43.0502C232.784 44.3958 226.979 45.7997 221.252 47.5116C217.946 48.5001 214.684 49.6236 211.457 50.8485C210.858 51.0765 210.238 51.2414 209.606 51.3407C208.542 51.5064 207.855 51.1626 207.405 50.1578C206.979 49.2082 206.788 48.1808 206.527 47.179C206.112 45.5838 205.649 43.9998 205.404 42.3636C205.364 42.0934 205.344 41.8223 205.315 41.5521Z" fill="#FEC803"/>
<path d="M229.615 63.5884C228.494 63.6334 227.768 63.0522 227.3 62.0852C226.826 61.1029 226.539 60.05 226.247 59.0032C225.602 56.6885 224.511 54.5417 223.789 52.2568C223.749 52.1268 223.697 52.0009 223.656 51.872C223.154 50.3034 223.674 49.1532 225.226 48.662C226.684 48.2005 228.179 47.8547 229.658 47.4638C234.408 46.2072 239.164 44.9783 243.957 43.8998C246.928 43.2316 249.919 42.6534 252.901 42.0415C253.214 41.977 253.535 41.9484 253.855 41.932C254.854 41.8788 255.562 42.3219 256.006 43.2285C256.592 44.4216 256.978 45.6915 257.392 46.9481C257.795 48.1729 258.247 49.3845 258.538 50.6461C258.846 51.9805 258.587 52.5852 257.362 53.1542C255.284 54.1201 253.105 54.8323 250.975 55.6704C244.976 58.03 238.97 60.3692 232.965 62.7104C231.883 63.1331 230.793 63.5413 229.615 63.5884Z" fill="#E9241D"/>
<path d="M141.133 61.9193C141.708 61.246 142.183 60.6934 142.655 60.1378C144.333 58.1619 146.511 57.5315 148.999 57.6707C151.147 57.7914 152.613 58.8904 153.577 60.7773C153.73 61.0751 153.839 61.4036 154.132 61.6164C154.353 61.7781 154.502 61.8364 154.679 61.5407C154.878 61.2071 155.137 60.9104 155.376 60.6024C156.679 58.9252 158.415 58.081 160.483 57.8447C161.476 57.7311 162.462 57.6615 163.445 57.8938C165.758 58.4392 167.23 60.0437 167.633 62.4463C168.052 64.9431 168.118 67.4654 168.12 69.9867C168.123 73.4464 168.053 76.906 168.029 80.3667C168.027 80.7208 167.914 80.8303 167.577 80.8559C165.931 80.9834 164.277 80.9841 162.63 80.8579C162.288 80.8323 162.178 80.73 162.197 80.3667C162.423 76.0752 162.447 71.7805 162.373 67.4848C162.359 66.6672 162.321 65.8486 162.253 65.0341C162.106 63.2935 160.856 62.345 159.164 62.6919C157.999 62.9303 157.044 63.489 156.387 64.5481C155.37 66.1894 154.785 67.9474 154.786 69.8946C154.787 73.3553 154.777 76.815 154.795 80.2757C154.797 80.7044 154.685 80.8139 154.267 80.8067C152.751 80.7801 151.235 80.7811 149.719 80.8067C149.293 80.8139 149.146 80.73 149.151 80.2552C149.194 76.0281 149.11 71.801 149.222 67.5749C149.248 66.568 149.202 65.5631 148.951 64.5829C148.512 62.8771 147.381 62.2273 145.707 62.7103C144.411 63.0838 143.543 63.9832 142.896 65.1262C142.145 66.4554 141.83 67.9105 141.761 69.426C141.596 73.0371 141.545 76.6492 141.746 80.2603C141.772 80.7116 141.649 80.8477 141.214 80.8579C139.562 80.8958 137.912 80.8599 136.262 80.7985C135.935 80.7863 135.926 80.6266 135.927 80.38C135.933 78.7438 135.931 77.1076 135.932 75.4714C135.935 70.307 135.941 65.1416 135.93 59.9771C135.929 59.62 136.016 59.4379 136.369 59.3151C137.836 58.8035 139.319 58.3808 140.878 58.2693C141.274 58.2407 141.36 58.3553 141.328 58.741C141.243 59.751 141.2 60.7661 141.133 61.9193ZM176.269 62.0012C176.461 61.9602 176.522 61.8047 176.605 61.687C178.929 58.3972 184.091 57.9808 187.07 60.4478C188.193 61.378 188.882 62.6407 189.303 64.0303C190.384 67.5954 190.332 71.1665 189.078 74.6641C187.83 78.1452 185.156 80.0485 181.705 80.8139C178.528 81.5189 175.315 81.4585 172.14 80.6676C170.812 80.3371 170.816 80.3237 170.817 78.972C170.823 69.6818 170.832 60.3916 170.825 51.1013C170.825 50.6787 170.952 50.47 171.33 50.3083C172.884 49.6452 174.529 49.4017 176.179 49.1694C176.492 49.1254 176.45 49.3331 176.463 49.5081C176.61 51.3786 176.657 53.2522 176.576 55.1279C176.477 57.4077 176.373 59.6886 176.269 62.0012ZM184.404 69.7391C184.354 68.2809 184.2 66.7972 183.609 65.3933C183.095 64.1725 181.978 63.4716 180.684 63.5575C179.022 63.6691 177.333 65.16 176.953 66.963C176.341 69.8783 176.207 72.8345 176.34 75.8081C176.365 76.3709 176.548 76.6717 177.144 76.6871C177.578 76.6983 178.01 76.8088 178.446 76.8436C180.956 77.0462 182.918 75.7805 183.811 73.3952C184.246 72.2318 184.374 71.0182 184.404 69.7391ZM112.162 70.0543C112.198 67.5442 112.636 64.9963 114.076 62.7297C116.025 59.664 118.833 58.0452 122.423 57.8447C124.269 57.7413 126.092 57.9132 127.829 58.6152C130.454 59.6763 132.184 61.6133 132.988 64.327C134.141 68.2195 133.935 72.0527 132.027 75.6699C130.311 78.9229 127.494 80.6512 123.932 81.1761C121.846 81.4831 119.81 81.2549 117.826 80.5049C115.359 79.5727 113.731 77.8567 112.928 75.3179C112.398 73.6459 112.169 71.936 112.162 70.0543ZM127.808 69.5355C127.806 67.9289 127.624 66.655 127.078 65.4608C126.48 64.151 125.597 63.138 124.121 62.8576C122.292 62.5107 119.467 63.2209 118.515 66.1341C117.669 68.722 117.869 71.3088 118.895 73.8086C119.372 74.9711 120.232 75.805 121.482 76.1294C123.332 76.6103 125.274 75.891 126.374 74.3039C127.426 72.7864 127.773 71.054 127.808 69.5355ZM80.5466 70.6222C80.5911 68.5337 80.8176 66.4749 81.6022 64.5215C83.4778 59.8533 87.7761 57.4323 92.588 57.8037C94.8953 57.9818 96.9974 58.6776 98.773 60.2432C100.585 61.8415 101.435 63.9259 101.748 66.2712C102.191 69.5979 101.78 72.8089 100.196 75.7845C98.4181 79.1235 95.5586 80.8313 91.862 81.1884C90.0622 81.3624 88.2887 81.2508 86.584 80.6246C83.2432 79.3956 81.4879 76.8334 80.7893 73.4188C80.6012 72.4968 80.5385 71.5615 80.5466 70.6222ZM96.1067 69.3216C96.1067 69.1517 96.1127 68.9809 96.1056 68.811C96.0379 67.182 95.7073 65.6348 94.6608 64.3311C93.1815 62.4882 90.7174 62.1894 88.8428 63.6179C87.9106 64.3291 87.2958 65.2777 86.951 66.3889C86.1977 68.8171 86.3534 71.2331 87.1937 73.6019C87.5233 74.531 88.1199 75.3016 88.9803 75.8183C90.8317 76.9316 93.1724 76.419 94.5708 74.6047C95.77 73.0494 96.0773 71.2249 96.1067 69.3216ZM34.0777 77.5579C33.2102 79.0078 31.9473 79.9308 30.4761 80.598C28.4084 81.5353 26.3043 81.4903 24.2436 80.6451C21.2356 79.411 19.9929 75.8807 21.3953 72.7035C22.4196 70.3837 24.281 68.9952 26.5429 68.0814C28.5914 67.2536 30.7411 67.0008 32.9261 67.0172C33.3548 67.0203 33.5328 66.9384 33.4792 66.4667C33.4296 66.0287 33.4458 65.5846 33.3811 65.1436C33.1465 63.5627 32.286 62.6847 30.7279 62.4483C28.7987 62.1567 26.9403 62.4534 25.1253 63.1247C24.4317 63.3815 23.7361 63.6333 23.0384 63.8799C22.8109 63.9597 22.6562 63.9771 22.6319 63.62C22.5389 62.2099 22.4095 60.8009 22.2831 59.3929C22.2659 59.1974 22.2821 59.0726 22.4914 59.0071C26.2163 57.8303 29.9918 57.1836 33.8765 58.0462C36.834 58.7032 38.4973 60.586 38.926 63.6138C39.0383 64.4079 39.0949 65.206 39.106 66.0072C39.1738 70.7624 39.2334 75.5175 39.3153 80.2716C39.3224 80.7013 39.2071 80.8129 38.7906 80.8057C37.3083 80.7801 35.826 80.7822 34.3437 80.8057C33.9463 80.8119 33.8705 80.6921 33.9059 80.3115C33.9898 79.3967 34.0242 78.4768 34.0777 77.5579ZM26.2608 74.3018C26.2578 75.584 26.8341 76.4312 27.827 76.6328C29.4145 76.9541 30.8594 76.5336 31.9726 75.3527C33.0494 74.2097 33.3922 72.7281 33.4741 71.1788C33.4903 70.877 33.3558 70.8442 33.1172 70.8606C32.5803 70.8985 32.0414 70.8995 31.5065 70.9537C30.2304 71.0837 28.9767 71.3241 27.8513 71.9903C26.8948 72.5561 26.2962 73.3707 26.2608 74.3018ZM202.12 63.9372C201.987 62.3859 201.858 60.8602 201.719 59.3345C201.701 59.1319 201.787 59.0664 201.954 59.0245C205.305 58.1721 208.654 57.3034 212.161 57.8477C213.096 57.993 214.01 58.2171 214.879 58.5957C217.273 59.6395 218.25 61.6307 218.489 64.1214C218.698 66.2999 218.505 68.4835 218.581 70.6621C218.693 73.8649 218.742 77.0687 218.762 80.2726C218.765 80.6839 218.678 80.8282 218.243 80.82C216.745 80.7924 215.244 80.7996 213.745 80.817C213.407 80.8211 213.317 80.7198 213.344 80.3831C213.419 79.4837 213.46 78.5811 213.518 77.5906C213.209 78.0091 213.004 78.4154 212.672 78.7172C210.118 81.0441 207.167 81.788 203.869 80.8252C201.835 80.2317 200.33 78.1278 200.274 75.9851C200.188 72.7301 201.595 70.3285 204.404 68.7609C206.103 67.8123 207.954 67.4245 209.865 67.2628C210.755 67.1881 211.644 67.1062 212.535 67.05C212.829 67.0315 212.945 66.9446 212.93 66.6253C212.899 65.9776 212.869 65.3339 212.733 64.6975C212.486 63.5463 211.791 62.831 210.673 62.564C208.553 62.0574 206.498 62.3542 204.485 63.1237C203.719 63.4194 202.969 63.7735 202.12 63.9372ZM211.129 70.8319C209.867 70.8493 208.104 71.2822 206.591 72.4589C205.302 73.4617 205.321 75.1481 206.585 76.1846C207.643 77.0524 209.073 77.1117 210.356 76.288C211.861 75.322 212.657 73.9048 212.853 72.1192C212.997 70.8197 213.013 70.8207 211.129 70.8319ZM47.6297 61.8344C47.8876 61.5212 48.1626 61.2204 48.4012 60.8919C49.7571 59.0306 51.6368 58.1424 53.8491 57.8447C54.842 57.7106 55.8299 57.6666 56.8096 57.903C59.2697 58.4965 60.7156 60.2115 61.0654 62.9211C61.5012 66.2948 61.4911 69.6869 61.4658 73.078C61.4476 75.498 61.391 77.9181 61.3688 80.3391C61.3657 80.6798 61.296 80.8108 60.9269 80.8057C59.3435 80.7852 57.7591 80.7873 56.1757 80.8047C55.8268 80.8088 55.7187 80.7116 55.7217 80.3504C55.7621 76.1744 55.6651 71.9974 55.7864 67.8225C55.8137 66.8668 55.7783 65.9141 55.6125 64.9707C55.2667 62.9988 54.021 62.1894 52.0989 62.7011C50.8319 63.0388 49.9502 63.8594 49.3385 65.0034C48.5721 66.4401 48.291 68.0098 48.1242 69.6081C47.8218 72.5009 47.9877 75.3978 48.0665 78.2926C48.0857 79.0078 48.0938 79.7241 48.1231 80.4394C48.1333 80.6891 48.0847 80.8047 47.7996 80.8026C46.0807 80.7904 44.3628 80.7924 42.6439 80.8016C42.3861 80.8026 42.2617 80.7269 42.2941 80.4537C42.3042 80.3698 42.2951 80.2838 42.2951 80.1979C42.2951 73.4136 42.2991 66.6294 42.2819 59.8441C42.2809 59.4041 42.4235 59.225 42.8168 59.1033C44.1727 58.6858 45.5428 58.3594 46.9634 58.2683C47.3769 58.2417 47.5539 58.3072 47.5306 58.7973C47.4841 59.795 47.5165 60.7958 47.5165 61.7945C47.5559 61.8078 47.5933 61.8211 47.6297 61.8344ZM74.3303 57.9306C75.8358 57.9163 77.3151 58.1639 78.7974 58.3931C79.0623 58.4341 79.2109 58.5016 79.1664 58.8372C78.9773 60.2892 78.8105 61.7443 78.6497 63.2004C78.6184 63.4839 78.492 63.5422 78.2493 63.4788C77.5496 63.2956 76.8388 63.1482 76.1513 62.9262C73.2221 61.9807 70.761 63.9484 70.0189 66.0891C69.2059 68.4344 69.1897 70.7613 69.9946 73.0934C70.6943 75.1235 72.1655 76.0833 74.2554 76.1427C75.2918 76.1724 76.2989 76.0158 77.2868 75.6965C78.7134 75.235 78.7296 75.2432 78.8924 76.7311C79.0057 77.7635 79.0785 78.8011 79.1644 79.8367C79.1786 80.0147 79.2291 80.1918 78.948 80.2613C76.8237 80.7934 74.7044 81.3491 72.488 81.3081C68.1412 81.2273 65.1604 79.015 63.9421 74.8022C62.7975 70.8473 63.123 66.9722 65.0068 63.2966C66.7742 59.8472 69.6589 58.124 73.4708 57.9449C73.673 57.9357 73.8753 57.9347 74.0775 57.9306C74.1614 57.9286 74.2453 57.9306 74.3303 57.9306ZM109.88 65.1017C109.88 70.1474 109.874 75.1931 109.89 80.2388C109.891 80.6798 109.801 80.818 109.343 80.8088C107.794 80.7771 106.243 80.7863 104.693 80.8047C104.345 80.8088 104.24 80.7157 104.241 80.3534C104.251 70.5516 104.249 60.7487 104.249 50.9468C104.249 50.7452 104.225 50.5662 104.486 50.4557C105.987 49.8243 107.516 49.3434 109.166 49.329C109.583 49.326 109.699 49.4324 109.698 49.8611C109.683 54.9406 109.688 60.0211 109.688 65.1006C109.752 65.1017 109.816 65.1017 109.88 65.1017ZM198.291 69.4536C198.291 73.0657 198.286 76.6789 198.299 80.291C198.3 80.6747 198.226 80.8139 197.811 80.8078C196.11 80.7822 194.409 80.7893 192.708 80.8037C192.389 80.8067 192.279 80.7331 192.28 80.3862C192.29 73.1445 192.289 65.9018 192.282 58.6602C192.282 58.3624 192.345 58.2652 192.662 58.2407C194.376 58.1107 196.092 58.0677 197.81 58.0503C198.223 58.0462 198.301 58.1793 198.3 58.565C198.286 62.1946 198.291 65.8241 198.291 69.4536ZM198.973 51.7859C198.972 53.8314 197.43 55.3489 195.349 55.352C193.455 55.3551 191.922 53.7311 191.934 51.7368C191.946 49.7895 193.498 48.3334 195.545 48.3488C197.534 48.3631 198.974 49.8069 198.973 51.7859Z" fill="#23307D"/>
<path d="M184.404 69.7386C184.374 71.0166 184.246 72.2313 183.811 73.3947C182.918 75.781 180.956 77.0467 178.446 76.8431C178.01 76.8083 177.579 76.6978 177.144 76.6866C176.547 76.6712 176.364 76.3704 176.34 75.8076C176.207 72.834 176.341 69.8778 176.953 66.9625C177.333 65.1585 179.022 63.6676 180.684 63.557C181.979 63.4701 183.095 64.172 183.609 65.3928C184.199 66.7967 184.354 68.2815 184.404 69.7386Z" fill="#FDFDFD"/>
</svg>
