<svg width="47" height="73" viewBox="0 0 47 73" fill="none" xmlns="http://www.w3.org/2000/svg">
<path d="M31 8.97632C31 13.3946 34.5817 16.9763 39 16.9763C43.4183 16.9763 47 13.3946 47 8.97632C47 4.55804 43.4183 0.976318 39 0.976318C34.5817 0.976318 31 4.55804 31 8.97632ZM0.545074 64.3496C0.545074 68.7679 4.1268 72.3496 8.54507 72.3496C12.9634 72.3496 16.5451 68.7679 16.5451 64.3496C16.5451 59.9313 12.9634 56.3496 8.54507 56.3496C4.1268 56.3496 0.545074 59.9313 0.545074 64.3496ZM10.0451 64.3496L10.0451 61.7351H7.04507L7.04507 64.3496H10.0451ZM10.0451 56.5063L10.0451 51.2774L7.04507 51.2774L7.04507 56.5063L10.0451 56.5063ZM10.0451 46.0485L10.0451 40.8196L7.04506 40.8196L7.04506 46.0485L10.0451 46.0485ZM10.0451 35.5908L10.0451 32.9763L7.04506 32.9763L7.04506 35.5908L10.0451 35.5908ZM10.0451 32.9763C10.0451 31.979 10.1099 30.9975 10.2353 30.0357L7.26051 29.6477C7.11832 30.7378 7.04506 31.8489 7.04506 32.9763L10.0451 32.9763ZM11.7518 24.364C12.51 22.5356 13.5027 20.8282 14.6928 19.2795L12.3141 17.4515C10.966 19.2057 9.84061 21.1409 8.9806 23.2148L11.7518 24.364ZM18.8482 15.1241C20.397 13.934 22.1044 12.9412 23.9327 12.183L22.7836 9.41186C20.7097 10.2719 18.7745 11.3973 17.0202 12.7454L18.8482 15.1241ZM29.6045 10.6666C30.5662 10.5411 31.5477 10.4763 32.5451 10.4763V7.47632C31.4176 7.47632 30.3065 7.54958 29.2164 7.69177L29.6045 10.6666ZM32.5451 10.4763H34.1588V7.47632H32.5451V10.4763ZM37.3863 10.4763H39V7.47632H37.3863V10.4763Z" fill="#FA2080"/>
</svg>
