<svg width="184" height="90" viewBox="0 0 184 90" fill="none" xmlns="http://www.w3.org/2000/svg">
<path d="M168 8.97632C168 13.3946 171.582 16.9763 176 16.9763C180.418 16.9763 184 13.3946 184 8.97632C184 4.55804 180.418 0.976318 176 0.976318C171.582 0.976318 168 4.55804 168 8.97632ZM0.348633 81.5604C0.348633 85.9787 3.93035 89.5604 8.34863 89.5604C12.7669 89.5604 16.3486 85.9787 16.3486 81.5604C16.3486 77.1421 12.7669 73.5604 8.34863 73.5604C3.93035 73.5604 0.348633 77.1421 0.348633 81.5604ZM9.84863 81.5604V78.6703H6.84863V81.5604H9.84863ZM9.84863 72.8901V70H6.84863V72.8901H9.84863ZM9.84863 70C9.84863 69.0026 9.91343 68.0211 10.0389 67.0594L7.06409 66.6713C6.9219 67.7614 6.84863 68.8725 6.84863 70H9.84863ZM11.5554 61.3877C12.3135 59.5593 13.3063 57.8519 14.4964 56.3032L12.1177 54.4752C10.7696 56.2294 9.64418 58.1646 8.78417 60.2385L11.5554 61.3877ZM18.6518 52.1478C20.2005 50.9576 21.9079 49.9649 23.7363 49.2067L22.5871 46.4355C20.5132 47.2955 18.578 48.421 16.8238 49.769L18.6518 52.1478ZM29.408 47.6902C30.3698 47.5648 31.3512 47.5 32.3486 47.5V44.5C31.2211 44.5 30.1101 44.5732 29.02 44.7154L29.408 47.6902ZM32.3486 47.5H35.175V44.5H32.3486V47.5ZM40.8278 47.5H46.4806V44.5H40.8278V47.5ZM52.1335 47.5H57.7863V44.5H52.1335V47.5ZM63.4391 47.5H69.0919V44.5H63.4391V47.5ZM74.7447 47.5H80.3975V44.5H74.7447V47.5ZM86.0504 47.5H91.7032V44.5H86.0504V47.5ZM97.356 47.5H103.009V44.5H97.356V47.5ZM108.662 47.5H111.488V44.5H108.662V47.5ZM111.488 47.5C112.823 47.5 114.128 47.3691 115.392 47.1191L114.81 44.1761C113.737 44.3884 112.626 44.5 111.488 44.5V47.5ZM122.608 44.1284C124.79 42.6678 126.668 40.7898 128.128 38.6081L125.635 36.9391C124.393 38.7949 122.795 40.3931 120.939 41.6355L122.608 44.1284ZM131.119 31.3921C131.369 30.1282 131.5 28.8227 131.5 27.4882H128.5C128.5 28.6262 128.388 29.7367 128.176 30.8099L131.119 31.3921ZM131.5 27.4882C131.5 26.3501 131.611 25.2396 131.824 24.1664L128.881 23.5842C128.631 24.8481 128.5 26.1536 128.5 27.4882H131.5ZM134.364 18.0372C135.607 16.1814 137.205 14.5832 139.061 13.3408L137.392 10.8479C135.21 12.3085 133.332 14.1865 131.871 16.3682L134.364 18.0372ZM145.19 10.8002C146.263 10.5879 147.374 10.4763 148.512 10.4763V7.47632C147.177 7.47632 145.872 7.60717 144.608 7.85719L145.19 10.8002ZM148.512 10.4763H151.948V7.47632H148.512V10.4763ZM158.82 10.4763H165.692V7.47632H158.82V10.4763ZM172.564 10.4763H176V7.47632H172.564V10.4763Z" fill="#FA2080"/>
</svg>
