<svg width="210" height="84" viewBox="0 0 210 84" fill="none" xmlns="http://www.w3.org/2000/svg">
<g filter="url(#filter0_d_909_343)">
<rect x="13" y="8" width="177.862" height="51.9527" rx="11.3229" fill="white"/>
<path d="M23.9526 22.9527C23.9526 20.7436 25.7435 18.9527 27.9526 18.9527H38.0526V48.9527H27.9526C25.7435 48.9527 23.9526 47.1618 23.9526 44.9527V22.9527Z" fill="#EC1C24"/>
<rect x="38" y="19" width="14.1" height="30" fill="white"/>
<g clip-path="url(#clip0_909_343)">
<path fill-rule="evenodd" clip-rule="evenodd" d="M45 39.0265H45.1988L45.135 36.4509L45.3175 36.2974C46.1427 36.3934 46.8816 36.4803 47.7056 36.5787L47.4969 35.8746C47.4633 35.7506 47.5107 35.616 47.6044 35.5406L50.0002 33.549L49.5036 33.3098C49.286 33.2301 49.3473 33.1051 49.4249 32.803L49.7899 31.4418L48.3997 31.7411C48.2633 31.7622 48.1731 31.6737 48.1533 31.5901L47.9733 30.9496L46.8732 32.2107C46.7169 32.4128 46.4005 32.4128 46.4992 31.9456L46.9693 29.3909L46.339 29.7256C46.1615 29.8262 45.9854 29.843 45.885 29.6625L45 28L44.1147 29.6621C44.0161 29.8427 43.8386 29.8264 43.6621 29.7256L43.0319 29.3909L43.5023 31.9453C43.5997 32.4129 43.2833 32.4129 43.127 32.2107L42.0269 30.9496L41.8479 31.5901C41.8265 31.6737 41.738 31.7622 41.6015 31.7414L40.2101 31.4418L40.5751 32.8027C40.6539 33.1046 40.7152 33.2301 40.4976 33.3102L40 33.549L42.3958 35.5402C42.4908 35.6154 42.5394 35.751 42.5056 35.8746L42.2955 36.5787C43.1196 36.4804 43.8584 36.394 44.6836 36.2974L44.8662 36.4509L44.8027 39.0265H45.0002H45Z" fill="#EC1C24"/>
</g>
<path d="M52.1526 18.9527H62.2526C64.4617 18.9527 66.2526 20.7436 66.2526 22.9527V44.9527C66.2526 47.1618 64.4617 48.9527 62.2526 48.9527H52.1526V18.9527Z" fill="#EC1C24"/>
<path d="M84.194 40.1101C83.3023 40.1101 82.4775 39.9652 81.7196 39.6754C80.9728 39.3744 80.3207 38.9564 79.7634 38.4214C79.2173 37.8753 78.7881 37.2399 78.476 36.5154C78.164 35.7909 78.0079 34.994 78.0079 34.1246C78.0079 33.2552 78.164 32.4582 78.476 31.7337C78.7881 31.0092 79.2228 30.3795 79.7801 29.8445C80.3375 29.2983 80.9895 28.8803 81.7363 28.5905C82.4942 28.2896 83.3191 28.1391 84.2107 28.1391C85.1136 28.1391 85.944 28.2951 86.7019 28.6072C87.471 28.9082 88.123 29.3596 88.6581 29.9615L87.5713 31.0148C87.1255 30.5467 86.6239 30.2011 86.0666 29.9782C85.5093 29.7441 84.913 29.6271 84.2776 29.6271C83.62 29.6271 83.007 29.7386 82.4385 29.9615C81.8812 30.1844 81.3963 30.4965 80.9839 30.8978C80.5715 31.299 80.2483 31.7783 80.0142 32.3356C79.7913 32.8818 79.6798 33.4781 79.6798 34.1246C79.6798 34.7711 79.7913 35.373 80.0142 35.9303C80.2483 36.4764 80.5715 36.9501 80.9839 37.3514C81.3963 37.7527 81.8812 38.0648 82.4385 38.2877C83.007 38.5106 83.62 38.6221 84.2776 38.6221C84.913 38.6221 85.5093 38.5106 86.0666 38.2877C86.6239 38.0536 87.1255 37.6969 87.5713 37.2176L88.6581 38.271C88.123 38.8728 87.471 39.3298 86.7019 39.6419C85.944 39.954 85.108 40.1101 84.194 40.1101ZM96.1954 39.9763V38.1038L96.1118 37.7527V34.5593C96.1118 33.8794 95.9112 33.3555 95.5099 32.9877C95.1198 32.6087 94.5291 32.4192 93.7377 32.4192C93.2138 32.4192 92.7011 32.5084 92.1995 32.6867C91.698 32.8539 91.2744 33.0824 90.9289 33.3722L90.2601 32.1684C90.7171 31.8006 91.2633 31.522 91.8986 31.3325C92.5451 31.1318 93.2194 31.0315 93.9216 31.0315C95.1366 31.0315 96.0728 31.3269 96.7305 31.9176C97.3881 32.5084 97.7169 33.4112 97.7169 34.6262V39.9763H96.1954ZM93.2863 40.0766C92.6287 40.0766 92.0491 39.9652 91.5475 39.7422C91.0571 39.5193 90.6781 39.2128 90.4106 38.8227C90.1431 38.4214 90.0093 37.97 90.0093 37.4684C90.0093 36.9891 90.1208 36.5544 90.3437 36.1643C90.5778 35.7742 90.9512 35.4621 91.4639 35.2281C91.9878 34.994 92.69 34.8769 93.5705 34.8769H96.3793V36.0306H93.6374C92.8349 36.0306 92.2943 36.1643 92.0156 36.4318C91.737 36.6993 91.5976 37.0226 91.5976 37.4016C91.5976 37.8363 91.7704 38.1874 92.1159 38.4549C92.4615 38.7112 92.9408 38.8394 93.5538 38.8394C94.1557 38.8394 94.6796 38.7057 95.1254 38.4381C95.5824 38.1706 95.9112 37.7805 96.1118 37.2678L96.4295 38.3713C96.2177 38.8951 95.8443 39.3131 95.3093 39.6252C94.7743 39.9262 94.1 40.0766 93.2863 40.0766ZM105.419 31.0315C106.143 31.0315 106.779 31.1709 107.325 31.4495C107.882 31.7282 108.317 32.1517 108.629 32.7202C108.941 33.2886 109.097 34.0075 109.097 34.8769V39.9763H107.492V35.0609C107.492 34.2026 107.28 33.5561 106.857 33.1214C106.444 32.6867 105.859 32.4694 105.101 32.4694C104.533 32.4694 104.037 32.5808 103.613 32.8038C103.189 33.0267 102.861 33.3555 102.627 33.7902C102.404 34.2249 102.292 34.7655 102.292 35.412V39.9763H100.687V31.1151H102.225V33.506L101.975 32.8706C102.264 32.291 102.71 31.8396 103.312 31.5164C103.914 31.1931 104.616 31.0315 105.419 31.0315ZM117.568 39.9763V38.1038L117.484 37.7527V34.5593C117.484 33.8794 117.284 33.3555 116.882 32.9877C116.492 32.6087 115.902 32.4192 115.11 32.4192C114.586 32.4192 114.074 32.5084 113.572 32.6867C113.071 32.8539 112.647 33.0824 112.301 33.3722L111.633 32.1684C112.09 31.8006 112.636 31.522 113.271 31.3325C113.918 31.1318 114.592 31.0315 115.294 31.0315C116.509 31.0315 117.445 31.3269 118.103 31.9176C118.761 32.5084 119.089 33.4112 119.089 34.6262V39.9763H117.568ZM114.659 40.0766C114.001 40.0766 113.422 39.9652 112.92 39.7422C112.43 39.5193 112.051 39.2128 111.783 38.8227C111.516 38.4214 111.382 37.97 111.382 37.4684C111.382 36.9891 111.493 36.5544 111.716 36.1643C111.95 35.7742 112.324 35.4621 112.836 35.2281C113.36 34.994 114.063 34.8769 114.943 34.8769H117.752V36.0306H115.01C114.207 36.0306 113.667 36.1643 113.388 36.4318C113.11 36.6993 112.97 37.0226 112.97 37.4016C112.97 37.8363 113.143 38.1874 113.488 38.4549C113.834 38.7112 114.313 38.8394 114.926 38.8394C115.528 38.8394 116.052 38.7057 116.498 38.4381C116.955 38.1706 117.284 37.7805 117.484 37.2678L117.802 38.3713C117.59 38.8951 117.217 39.3131 116.682 39.6252C116.147 39.9262 115.473 40.0766 114.659 40.0766ZM125.721 40.0766C124.863 40.0766 124.094 39.8871 123.414 39.5082C122.745 39.1292 122.216 38.5998 121.826 37.9199C121.436 37.2399 121.24 36.4486 121.24 35.5457C121.24 34.6429 121.436 33.8571 121.826 33.1883C122.216 32.5084 122.745 31.9789 123.414 31.6C124.094 31.221 124.863 31.0315 125.721 31.0315C126.468 31.0315 127.142 31.1987 127.744 31.5331C128.346 31.8675 128.825 32.3691 129.182 33.0378C129.55 33.7066 129.734 34.5426 129.734 35.5457C129.734 36.5489 129.556 37.3848 129.199 38.0536C128.853 38.7224 128.38 39.2295 127.778 39.5751C127.176 39.9094 126.49 40.0766 125.721 40.0766ZM125.855 38.6722C126.412 38.6722 126.914 38.544 127.36 38.2877C127.817 38.0313 128.173 37.6691 128.43 37.2009C128.697 36.7216 128.831 36.1699 128.831 35.5457C128.831 34.9104 128.697 34.3642 128.43 33.9072C128.173 33.4391 127.817 33.0768 127.36 32.8205C126.914 32.5641 126.412 32.4359 125.855 32.4359C125.287 32.4359 124.779 32.5641 124.334 32.8205C123.888 33.0768 123.531 33.4391 123.263 33.9072C122.996 34.3642 122.862 34.9104 122.862 35.5457C122.862 36.1699 122.996 36.7216 123.263 37.2009C123.531 37.6691 123.888 38.0313 124.334 38.2877C124.779 38.544 125.287 38.6722 125.855 38.6722ZM128.881 39.9763V37.5855L128.981 35.529L128.814 33.4725V27.5706H130.419V39.9763H128.881ZM138.957 39.9763V38.1038L138.873 37.7527V34.5593C138.873 33.8794 138.673 33.3555 138.271 32.9877C137.881 32.6087 137.291 32.4192 136.499 32.4192C135.975 32.4192 135.463 32.5084 134.961 32.6867C134.459 32.8539 134.036 33.0824 133.69 33.3722L133.022 32.1684C133.479 31.8006 134.025 31.522 134.66 31.3325C135.306 31.1318 135.981 31.0315 136.683 31.0315C137.898 31.0315 138.834 31.3269 139.492 31.9176C140.149 32.5084 140.478 33.4112 140.478 34.6262V39.9763H138.957ZM136.048 40.0766C135.39 40.0766 134.81 39.9652 134.309 39.7422C133.818 39.5193 133.44 39.2128 133.172 38.8227C132.904 38.4214 132.771 37.97 132.771 37.4684C132.771 36.9891 132.882 36.5544 133.105 36.1643C133.339 35.7742 133.713 35.4621 134.225 35.2281C134.749 34.994 135.451 34.8769 136.332 34.8769H139.141V36.0306H136.399C135.596 36.0306 135.056 36.1643 134.777 36.4318C134.498 36.6993 134.359 37.0226 134.359 37.4016C134.359 37.8363 134.532 38.1874 134.877 38.4549C135.223 38.7112 135.702 38.8394 136.315 38.8394C136.917 38.8394 137.441 38.7057 137.887 38.4381C138.344 38.1706 138.673 37.7805 138.873 37.2678L139.191 38.3713C138.979 38.8951 138.606 39.3131 138.071 39.6252C137.536 39.9262 136.861 40.0766 136.048 40.0766ZM135.546 29.8277L137.82 27.6542H139.86L137.051 29.8277H135.546Z" fill="#142032"/>
<circle cx="166.533" cy="33.9763" r="13.3754" fill="#FA2080"/>
</g>
<defs>
<filter id="filter0_d_909_343" x="0" y="0" width="209.862" height="83.9527" filterUnits="userSpaceOnUse" color-interpolation-filters="sRGB">
<feFlood flood-opacity="0" result="BackgroundImageFix"/>
<feColorMatrix in="SourceAlpha" type="matrix" values="0 0 0 0 0 0 0 0 0 0 0 0 0 0 0 0 0 0 127 0" result="hardAlpha"/>
<feOffset dx="3" dy="8"/>
<feGaussianBlur stdDeviation="8"/>
<feColorMatrix type="matrix" values="0 0 0 0 0.282353 0 0 0 0 0 0 0 0 0 0.584314 0 0 0 0.15 0"/>
<feBlend mode="normal" in2="BackgroundImageFix" result="effect1_dropShadow_909_343"/>
<feBlend mode="normal" in="SourceGraphic" in2="effect1_dropShadow_909_343" result="shape"/>
</filter>
<clipPath id="clip0_909_343">
<rect width="10" height="11.0265" fill="white" transform="translate(40 28)"/>
</clipPath>
</defs>
</svg>
