<svg width="230" height="38" viewBox="0 0 230 38" fill="none" xmlns="http://www.w3.org/2000/svg">
<path d="M0.936646 29.5371C0.936646 33.9553 4.51837 37.5371 8.93665 37.5371C13.3549 37.5371 16.9366 33.9553 16.9366 29.5371C16.9366 25.1188 13.3549 21.5371 8.93665 21.5371C4.51837 21.5371 0.936646 25.1188 0.936646 29.5371ZM8.93665 31.0371H11.9459V28.0371H8.93665V31.0371ZM17.9643 31.0371H23.9827V28.0371H17.9643V31.0371ZM30.0012 31.0371H36.0196V28.0371H30.0012V31.0371ZM42.038 31.0371H48.0565V28.0371H42.038V31.0371ZM54.0749 31.0371H60.0933V28.0371H54.0749V31.0371ZM66.1118 31.0371H72.1302V28.0371H66.1118V31.0371ZM78.1486 31.0371H84.167V28.0371H78.1486V31.0371ZM90.1855 31.0371H96.2039V28.0371H90.1855V31.0371ZM102.222 31.0371H105.232V28.0371H102.222V31.0371ZM105.232 31.0371C106.35 31.0371 107.42 30.8142 108.397 30.4091L107.248 27.6379C106.629 27.8946 105.949 28.0371 105.232 28.0371V31.0371ZM112.872 25.934C113.277 24.957 113.5 23.8869 113.5 22.7685H110.5C110.5 23.4857 110.358 24.1658 110.101 24.7849L112.872 25.934ZM113.5 22.7685C113.5 22.0514 113.643 21.3713 113.899 20.7522L111.128 19.6031C110.723 20.5801 110.5 21.6502 110.5 22.7685H113.5ZM116.752 17.8992C117.371 17.6425 118.051 17.5 118.769 17.5V14.5C117.65 14.5 116.58 14.7229 115.603 15.128L116.752 17.8992ZM118.769 17.5H121.913V14.5H118.769V17.5ZM128.201 17.5H134.489V14.5H128.201V17.5ZM140.777 17.5H147.065V14.5H140.777V17.5ZM153.353 17.5H159.641V14.5H153.353V17.5ZM165.928 17.5H172.216V14.5H165.928V17.5ZM178.504 17.5H184.792V14.5H178.504V17.5ZM191.08 17.5H197.368V14.5H191.08V17.5ZM203.656 17.5H209.944V14.5H203.656V17.5ZM216.232 17.5H219.376V14.5H216.232V17.5ZM219.376 17.5C220.522 17.5 221.618 17.2717 222.619 16.8567L221.47 14.0855C220.827 14.3521 220.121 14.5 219.376 14.5V17.5ZM227.203 12.2725C227.618 11.2717 227.847 10.1755 227.847 9.02974H224.847C224.847 9.77423 224.699 10.4804 224.432 11.1233L227.203 12.2725ZM227.847 9.02974V8.0451H224.847V9.02974H227.847ZM227.847 6.07582V5.09119H224.847V6.07582H227.847ZM227.847 5.09119C227.847 4.88073 227.888 4.68378 227.962 4.50525L225.191 3.35609C224.969 3.8925 224.847 4.47949 224.847 5.09119H227.847ZM228.792 3.67509C228.971 3.60106 229.168 3.55945 229.378 3.55945V0.559448C228.767 0.559448 228.18 0.68147 227.643 0.903909L228.792 3.67509Z" fill="#FF943F"/>
</svg>
