<svg width="134" height="96" viewBox="0 0 134 96" fill="none" xmlns="http://www.w3.org/2000/svg">
<path d="M117.113 26.4252C117.113 30.8434 120.694 34.4252 125.113 34.4252C129.531 34.4252 133.113 30.8434 133.113 26.4252C133.113 22.0069 129.531 18.4252 125.113 18.4252C120.694 18.4252 117.113 22.0069 117.113 26.4252ZM0.0114746 87.9527C0.0114746 92.371 3.5932 95.9527 8.01147 95.9527C12.4298 95.9527 16.0115 92.371 16.0115 87.9527C16.0115 83.5344 12.4298 79.9527 8.01147 79.9527C3.5932 79.9527 0.0114746 83.5344 0.0114746 87.9527ZM8.01147 89.4527H10.9396V86.4527H8.01147V89.4527ZM16.796 89.4527H22.6523V86.4527H16.796V89.4527ZM28.5086 89.4527H34.3649V86.4527H28.5086V89.4527ZM40.2212 89.4527H46.0776V86.4527H40.2212V89.4527ZM51.9339 89.4527H57.7902V86.4527H51.9339V89.4527ZM63.6465 89.4527H69.5028V86.4527H63.6465V89.4527ZM75.3592 89.4527H81.2155V86.4527H75.3592V89.4527ZM87.0718 89.4527H90V86.4527H87.0718V89.4527ZM90 89.4527C91.1274 89.4527 92.2385 89.3794 93.3286 89.2372L92.9406 86.2624C91.9788 86.3879 90.9973 86.4527 90 86.4527V89.4527ZM99.7614 87.5171C101.835 86.6571 103.771 85.5317 105.525 84.1837L103.697 81.8049C102.148 82.995 100.441 83.9878 98.6123 84.746L99.7614 87.5171ZM110.231 79.4775C111.579 77.7233 112.704 75.7881 113.564 73.7142L110.793 72.565C110.035 74.3934 109.042 76.1008 107.852 77.6495L110.231 79.4775ZM115.284 67.2813C115.427 66.1913 115.5 65.0802 115.5 63.9527H112.5C112.5 64.9501 112.435 65.9315 112.31 66.8933L115.284 67.2813ZM115.5 63.9527V61.1541H112.5V63.9527H115.5ZM115.5 55.557V49.9599H112.5V55.557H115.5ZM115.5 44.3628V38.7657H112.5V44.3628H115.5ZM115.5 33.1686V27.5714H112.5V33.1686H115.5ZM115.5 21.9743V16.3772H112.5V21.9743H115.5ZM115.5 10.7801V7.98154H112.5V10.7801H115.5ZM115.5 7.98154C115.5 7.42876 115.61 6.9054 115.807 6.42921L113.036 5.28005C112.69 6.11413 112.5 7.02752 112.5 7.98154H115.5ZM118.004 4.23238C118.48 4.03491 119.004 3.92517 119.556 3.92517V0.925171C118.602 0.925171 117.689 1.11532 116.855 1.4612L118.004 4.23238ZM119.556 3.92517C120.109 3.92517 120.632 4.03491 121.109 4.23238L122.258 1.4612C121.424 1.11532 120.51 0.925171 119.556 0.925171V3.92517ZM123.305 6.42921C123.503 6.9054 123.613 7.42876 123.613 7.98154H126.613C126.613 7.02752 126.423 6.11413 126.077 5.28005L123.305 6.42921ZM123.613 7.98154V10.287H126.613V7.98154H123.613ZM123.613 14.8979V19.5088H126.613V14.8979H123.613ZM123.613 24.1197V26.4252H126.613V24.1197H123.613Z" fill="#FF943F"/>
</svg>
