<svg width="190" height="85" viewBox="0 0 190 85" fill="none" xmlns="http://www.w3.org/2000/svg">
<g filter="url(#filter0_d_38_2253)">
<rect x="13.925" y="8.58435" width="157.012" height="51.9054" rx="11.3229" fill="white"/>
<path d="M24.8777 23.537C24.8777 21.3279 26.6685 19.537 28.8777 19.537H39.8777V34.537H24.8777V23.537Z" fill="#0039A6"/>
<path fill-rule="evenodd" clip-rule="evenodd" d="M33.1888 26.2629L32.3781 23.737L31.5673 26.2629L28.9277 26.2583L31.0658 27.8145L30.2459 30.337L32.3781 28.7729L34.5103 30.337L33.6896 27.8145L35.8277 26.2583L33.1888 26.2629Z" fill="white"/>
<path d="M39.8777 19.537H63.3277C65.5368 19.537 67.3277 21.3279 67.3277 23.537V34.537H39.8777V19.537Z" fill="white"/>
<path d="M24.8777 34.537H67.3277V45.537C67.3277 47.7462 65.5368 49.537 63.3277 49.537H28.8777C26.6686 49.537 24.8777 47.7462 24.8777 45.537V34.537Z" fill="#D72B1F"/>
<path d="M85.269 40.6708C84.3773 40.6708 83.5525 40.5259 82.7946 40.2361C82.0478 39.9351 81.3957 39.5172 80.8384 38.9821C80.2923 38.436 79.8632 37.8007 79.5511 37.0761C79.239 36.3516 79.0829 35.5547 79.0829 34.6853C79.0829 33.8159 79.239 33.0189 79.5511 32.2944C79.8632 31.5699 80.2979 30.9402 80.8552 30.4052C81.4125 29.859 82.0645 29.441 82.8113 29.1512C83.5692 28.8503 84.3941 28.6998 85.2858 28.6998C86.1886 28.6998 87.019 28.8559 87.7769 29.1679C88.546 29.4689 89.1981 29.9203 89.7331 30.5222L88.6463 31.5755C88.2005 31.1074 87.6989 30.7618 87.1416 30.5389C86.5843 30.3049 85.988 30.1878 85.3526 30.1878C84.695 30.1878 84.082 30.2993 83.5135 30.5222C82.9562 30.7451 82.4714 31.0572 82.0589 31.4585C81.6465 31.8597 81.3233 32.339 81.0892 32.8963C80.8663 33.4425 80.7548 34.0388 80.7548 34.6853C80.7548 35.3318 80.8663 35.9337 81.0892 36.491C81.3233 37.0371 81.6465 37.5109 82.0589 37.9121C82.4714 38.3134 82.9562 38.6255 83.5135 38.8484C84.082 39.0713 84.695 39.1828 85.3526 39.1828C85.988 39.1828 86.5843 39.0713 87.1416 38.8484C87.6989 38.6143 88.2005 38.2576 88.6463 37.7784L89.7331 38.8317C89.1981 39.4336 88.546 39.8906 87.7769 40.2026C87.019 40.5147 86.183 40.6708 85.269 40.6708ZM96.6157 31.5922C97.3402 31.5922 97.9755 31.7316 98.5217 32.0102C99.079 32.2889 99.5137 32.7124 99.8258 33.2809C100.138 33.8493 100.294 34.5683 100.294 35.4377V40.537H98.6888V35.6216C98.6888 34.7633 98.4771 34.1168 98.0535 33.6821C97.6411 33.2474 97.0559 33.0301 96.298 33.0301C95.7295 33.0301 95.2335 33.1416 94.81 33.3645C94.3864 33.5874 94.0576 33.9162 93.8235 34.3509C93.6006 34.7856 93.4892 35.3262 93.4892 35.9727V40.537H91.8841V28.1314H93.4892V34.0667L93.1715 33.4314C93.4613 32.8518 93.9071 32.4003 94.509 32.0771C95.1109 31.7539 95.8131 31.5922 96.6157 31.5922ZM103.264 40.537V31.6758H104.869V40.537H103.264ZM104.067 29.9705C103.755 29.9705 103.493 29.8702 103.281 29.6695C103.08 29.4689 102.98 29.2237 102.98 28.9339C102.98 28.6329 103.08 28.3821 103.281 28.1815C103.493 27.9809 103.755 27.8806 104.067 27.8806C104.379 27.8806 104.635 27.9809 104.836 28.1815C105.048 28.371 105.154 28.6106 105.154 28.9004C105.154 29.2014 105.053 29.4577 104.853 29.6695C104.652 29.8702 104.39 29.9705 104.067 29.9705ZM107.934 40.537V28.1314H109.539V40.537H107.934ZM116.549 40.6373C115.602 40.6373 114.766 40.4423 114.041 40.0522C113.328 39.6621 112.771 39.127 112.369 38.4471C111.979 37.7672 111.784 36.987 111.784 36.1064C111.784 35.2259 111.974 34.4457 112.353 33.7657C112.743 33.0858 113.272 32.5564 113.941 32.1774C114.621 31.7873 115.385 31.5922 116.232 31.5922C117.09 31.5922 117.848 31.7817 118.505 32.1607C119.163 32.5397 119.676 33.0747 120.044 33.7657C120.423 34.4457 120.612 35.2426 120.612 36.1566C120.612 36.2235 120.607 36.3015 120.595 36.3907C120.595 36.4798 120.59 36.5634 120.579 36.6414H113.038V35.4878H119.743L119.091 35.8891C119.102 35.3206 118.985 34.8135 118.74 34.3676C118.494 33.9218 118.154 33.5763 117.72 33.331C117.296 33.0747 116.8 32.9465 116.232 32.9465C115.674 32.9465 115.178 33.0747 114.744 33.331C114.309 33.5763 113.969 33.9274 113.724 34.3844C113.479 34.8302 113.356 35.3429 113.356 35.9225V36.19C113.356 36.7808 113.49 37.3102 113.757 37.7784C114.036 38.2354 114.42 38.592 114.911 38.8484C115.401 39.1048 115.964 39.2329 116.599 39.2329C117.123 39.2329 117.597 39.1438 118.021 38.9654C118.455 38.7871 118.834 38.5196 119.158 38.1629L120.044 39.1995C119.642 39.6676 119.141 40.0243 118.539 40.2695C117.948 40.5147 117.285 40.6373 116.549 40.6373Z" fill="#142032"/>
<circle cx="146.609" cy="34.537" r="13.3754" fill="#FF943F"/>
</g>
<defs>
<filter id="filter0_d_38_2253" x="0.925049" y="0.584351" width="189.011" height="83.9054" filterUnits="userSpaceOnUse" color-interpolation-filters="sRGB">
<feFlood flood-opacity="0" result="BackgroundImageFix"/>
<feColorMatrix in="SourceAlpha" type="matrix" values="0 0 0 0 0 0 0 0 0 0 0 0 0 0 0 0 0 0 127 0" result="hardAlpha"/>
<feOffset dx="3" dy="8"/>
<feGaussianBlur stdDeviation="8"/>
<feColorMatrix type="matrix" values="0 0 0 0 0.282353 0 0 0 0 0 0 0 0 0 0.584314 0 0 0 0.15 0"/>
<feBlend mode="normal" in2="BackgroundImageFix" result="effect1_dropShadow_38_2253"/>
<feBlend mode="normal" in="SourceGraphic" in2="effect1_dropShadow_38_2253" result="shape"/>
</filter>
</defs>
</svg>
