<svg width="207" height="36" viewBox="0 0 207 36" fill="none" xmlns="http://www.w3.org/2000/svg">
<path d="M0.936523 27.9527C0.936523 32.371 4.51825 35.9527 8.93652 35.9527C13.3548 35.9527 16.9365 32.371 16.9365 27.9527C16.9365 23.5344 13.3548 19.9527 8.93652 19.9527C4.51825 19.9527 0.936523 23.5344 0.936523 27.9527ZM8.93652 29.4527H12.1513V26.4527H8.93652V29.4527ZM18.5808 29.4527H25.0103V26.4527H18.5808V29.4527ZM31.4397 29.4527H37.8692V26.4527H31.4397V29.4527ZM44.2987 29.4527H50.7282V26.4527H44.2987V29.4527ZM57.1577 29.4527H63.5872V26.4527H57.1577V29.4527ZM70.0167 29.4527H73.2315V26.4527H70.0167V29.4527ZM73.2315 29.4527C74.1825 29.4527 75.1132 29.3594 76.0145 29.1811L75.4323 26.2382C74.7217 26.3787 73.9859 26.4527 73.2315 26.4527V29.4527ZM81.1603 27.0485C82.7157 26.0072 84.0545 24.6684 85.0958 23.113L82.6029 21.4441C81.7797 22.6736 80.7209 23.7324 79.4914 24.5556L81.1603 27.0485ZM87.2284 17.9672C87.4067 17.0659 87.5 16.1352 87.5 15.1842H84.5C84.5 15.9387 84.426 16.6744 84.2855 17.385L87.2284 17.9672ZM87.5 15.1842C87.5 14.4297 87.5739 13.6939 87.7145 12.9833L84.7715 12.4011C84.5932 13.3024 84.5 14.2332 84.5 15.1842H87.5ZM89.3971 8.92426C90.2202 7.69476 91.2791 6.63589 92.5086 5.81276L90.8396 3.31985C89.2843 4.36114 87.9455 5.69994 86.9042 7.2553L89.3971 8.92426ZM96.5677 4.13017C97.2783 3.98959 98.014 3.91565 98.7685 3.91565V0.915649C97.8175 0.915649 96.8868 1.0089 95.9855 1.1872L96.5677 4.13017ZM98.7685 3.91565H101.724V0.915649H98.7685V3.91565ZM107.634 3.91565H113.544V0.915649H107.634V3.91565ZM119.454 3.91565H125.365V0.915649H119.454V3.91565ZM131.275 3.91565H137.185V0.915649H131.275V3.91565ZM143.096 3.91565H149.006V0.915649H143.096V3.91565ZM154.916 3.91565H160.826V0.915649H154.916V3.91565ZM166.737 3.91565H172.647V0.915649H166.737V3.91565ZM178.557 3.91565H184.468V0.915649H178.557V3.91565ZM190.378 3.91565H196.288V0.915649H190.378V3.91565ZM202.199 3.91565H205.154V0.915649H202.199V3.91565ZM205.154 3.91565C204.982 3.91565 204.814 3.88112 204.66 3.81719L205.809 1.04601C205.605 0.961529 205.383 0.915649 205.154 0.915649V3.91565ZM203.962 3.11996C203.898 2.9658 203.864 2.79797 203.864 2.62585H206.864C206.864 2.39674 206.818 2.17455 206.734 1.97083L203.962 3.11996Z" fill="#AD1AC7"/>
</svg>
