<svg width="228" height="84" viewBox="0 0 228 84" fill="none" xmlns="http://www.w3.org/2000/svg">
<g filter="url(#filter0_d_38_735)">
<rect x="13.925" y="8" width="195.012" height="51.9054" rx="11.3229" fill="white"/>
<path d="M24.8777 22.9527C24.8777 20.7435 26.6685 18.9527 28.8777 18.9527H63.3277C65.5368 18.9527 67.3277 20.7435 67.3277 22.9527V33.9527H24.8777V22.9527Z" fill="#F0F540"/>
<rect x="24.8777" y="33.9527" width="42.45" height="7.5" fill="#313F8D"/>
<path d="M24.8777 41.4527H67.3277V44.9527C67.3277 47.1618 65.5368 48.9527 63.3277 48.9527H28.8777C26.6686 48.9527 24.8777 47.1618 24.8777 44.9527V41.4527Z" fill="#DE2117"/>
<path d="M85.269 40.0864C84.3773 40.0864 83.5525 39.9415 82.7946 39.6517C82.0478 39.3508 81.3957 38.9328 80.8384 38.3978C80.2923 37.8516 79.8632 37.2163 79.5511 36.4918C79.239 35.7673 79.0829 34.9703 79.0829 34.1009C79.0829 33.2315 79.239 32.4346 79.5511 31.7101C79.8632 30.9856 80.2979 30.3558 80.8552 29.8208C81.4125 29.2747 82.0645 28.8567 82.8113 28.5669C83.5692 28.2659 84.3941 28.1155 85.2858 28.1155C86.1886 28.1155 87.019 28.2715 87.7769 28.5836C88.546 28.8845 89.1981 29.336 89.7331 29.9379L88.6463 30.9912C88.2005 30.523 87.6989 30.1775 87.1416 29.9546C86.5843 29.7205 85.988 29.6035 85.3526 29.6035C84.695 29.6035 84.082 29.7149 83.5135 29.9379C82.9562 30.1608 82.4714 30.4729 82.0589 30.8741C81.6465 31.2754 81.3233 31.7547 81.0892 32.312C80.8663 32.8582 80.7548 33.4545 80.7548 34.1009C80.7548 34.7474 80.8663 35.3493 81.0892 35.9066C81.3233 36.4528 81.6465 36.9265 82.0589 37.3278C82.4714 37.729 82.9562 38.0411 83.5135 38.264C84.082 38.487 84.695 38.5984 85.3526 38.5984C85.988 38.5984 86.5843 38.487 87.1416 38.264C87.6989 38.03 88.2005 37.6733 88.6463 37.194L89.7331 38.2473C89.1981 38.8492 88.546 39.3062 87.7769 39.6183C87.019 39.9304 86.183 40.0864 85.269 40.0864ZM95.3038 40.053C94.4122 40.053 93.6208 39.8579 92.9297 39.4678C92.2387 39.0777 91.6925 38.5427 91.2912 37.8628C90.89 37.1717 90.6893 36.3915 90.6893 35.5221C90.6893 34.6415 90.89 33.8613 91.2912 33.1814C91.6925 32.5015 92.2387 31.972 92.9297 31.5931C93.6208 31.2029 94.4122 31.0079 95.3038 31.0079C96.1844 31.0079 96.9702 31.2029 97.6613 31.5931C98.3635 31.972 98.9096 32.5015 99.2997 33.1814C99.701 33.8502 99.9016 34.6304 99.9016 35.5221C99.9016 36.4026 99.701 37.1829 99.2997 37.8628C98.9096 38.5427 98.3635 39.0777 97.6613 39.4678C96.9702 39.8579 96.1844 40.053 95.3038 40.053ZM95.3038 38.6486C95.8723 38.6486 96.3795 38.5204 96.8253 38.264C97.2823 38.0077 97.639 37.6454 97.8953 37.1773C98.1517 36.698 98.2799 36.1463 98.2799 35.5221C98.2799 34.8868 98.1517 34.3406 97.8953 33.8836C97.639 33.4155 97.2823 33.0532 96.8253 32.7968C96.3795 32.5405 95.8723 32.4123 95.3038 32.4123C94.7354 32.4123 94.2282 32.5405 93.7824 32.7968C93.3366 33.0532 92.9799 33.4155 92.7124 33.8836C92.4449 34.3406 92.3111 34.8868 92.3111 35.5221C92.3111 36.1463 92.4449 36.698 92.7124 37.1773C92.9799 37.6454 93.3366 38.0077 93.7824 38.264C94.2282 38.5204 94.7354 38.6486 95.3038 38.6486ZM102.121 39.9527V27.547H103.726V39.9527H102.121ZM110.586 40.053C109.695 40.053 108.903 39.8579 108.212 39.4678C107.521 39.0777 106.975 38.5427 106.574 37.8628C106.172 37.1717 105.972 36.3915 105.972 35.5221C105.972 34.6415 106.172 33.8613 106.574 33.1814C106.975 32.5015 107.521 31.972 108.212 31.5931C108.903 31.2029 109.695 31.0079 110.586 31.0079C111.467 31.0079 112.253 31.2029 112.944 31.5931C113.646 31.972 114.192 32.5015 114.582 33.1814C114.983 33.8502 115.184 34.6304 115.184 35.5221C115.184 36.4026 114.983 37.1829 114.582 37.8628C114.192 38.5427 113.646 39.0777 112.944 39.4678C112.253 39.8579 111.467 40.053 110.586 40.053ZM110.586 38.6486C111.155 38.6486 111.662 38.5204 112.108 38.264C112.565 38.0077 112.921 37.6454 113.178 37.1773C113.434 36.698 113.562 36.1463 113.562 35.5221C113.562 34.8868 113.434 34.3406 113.178 33.8836C112.921 33.4155 112.565 33.0532 112.108 32.7968C111.662 32.5405 111.155 32.4123 110.586 32.4123C110.018 32.4123 109.511 32.5405 109.065 32.7968C108.619 33.0532 108.262 33.4155 107.995 33.8836C107.727 34.3406 107.594 34.8868 107.594 35.5221C107.594 36.1463 107.727 36.698 107.995 37.1773C108.262 37.6454 108.619 38.0077 109.065 38.264C109.511 38.5204 110.018 38.6486 110.586 38.6486ZM128.489 31.0079C129.202 31.0079 129.832 31.1472 130.378 31.4259C130.924 31.7045 131.348 32.1281 131.649 32.6965C131.961 33.265 132.117 33.9839 132.117 34.8533V39.9527H130.512V35.0372C130.512 34.179 130.311 33.5325 129.91 33.0978C129.509 32.6631 128.946 32.4457 128.221 32.4457C127.686 32.4457 127.218 32.5572 126.817 32.7801C126.415 33.0031 126.103 33.3319 125.88 33.7666C125.669 34.2013 125.563 34.7419 125.563 35.3883V39.9527H123.958V35.0372C123.958 34.179 123.757 33.5325 123.356 33.0978C122.966 32.6631 122.403 32.4457 121.667 32.4457C121.143 32.4457 120.681 32.5572 120.28 32.7801C119.878 33.0031 119.566 33.3319 119.343 33.7666C119.12 34.2013 119.009 34.7419 119.009 35.3883V39.9527H117.404V31.0915H118.942V33.4489L118.691 32.847C118.97 32.2674 119.399 31.816 119.979 31.4927C120.558 31.1695 121.233 31.0079 122.002 31.0079C122.849 31.0079 123.579 31.2197 124.192 31.6432C124.805 32.0556 125.206 32.6854 125.396 33.5325L124.744 33.265C125.011 32.5851 125.479 32.0389 126.148 31.6265C126.817 31.2141 127.597 31.0079 128.489 31.0079ZM139.768 40.053C139.01 40.053 138.325 39.8858 137.712 39.5514C137.11 39.2059 136.631 38.6987 136.274 38.03C135.928 37.3612 135.756 36.5252 135.756 35.5221C135.756 34.5189 135.934 33.683 136.291 33.0142C136.658 32.3454 137.143 31.8438 137.745 31.5095C138.358 31.1751 139.033 31.0079 139.768 31.0079C140.638 31.0079 141.407 31.1974 142.075 31.5763C142.744 31.9553 143.274 32.4848 143.664 33.1647C144.054 33.8334 144.249 34.6192 144.249 35.5221C144.249 36.4249 144.054 37.2163 143.664 37.8962C143.274 38.5761 142.744 39.1056 142.075 39.4845C141.407 39.8635 140.638 40.053 139.768 40.053ZM135.07 39.9527V27.547H136.675V33.4489L136.508 35.5054L136.608 37.5618V39.9527H135.07ZM139.634 38.6486C140.203 38.6486 140.71 38.5204 141.156 38.264C141.613 38.0077 141.97 37.6454 142.226 37.1773C142.493 36.698 142.627 36.1463 142.627 35.5221C142.627 34.8868 142.493 34.3406 142.226 33.8836C141.97 33.4155 141.613 33.0532 141.156 32.7968C140.71 32.5405 140.203 32.4123 139.634 32.4123C139.077 32.4123 138.57 32.5405 138.113 32.7968C137.667 33.0532 137.31 33.4155 137.043 33.8836C136.787 34.3406 136.658 34.8868 136.658 35.5221C136.658 36.1463 136.787 36.698 137.043 37.1773C137.31 37.6454 137.667 38.0077 138.113 38.264C138.57 38.5204 139.077 38.6486 139.634 38.6486ZM146.467 39.9527V31.0915H148.072V39.9527H146.467ZM147.269 29.3861C146.957 29.3861 146.695 29.2858 146.483 29.0852C146.283 28.8845 146.182 28.6393 146.182 28.3495C146.182 28.0486 146.283 27.7978 146.483 27.5972C146.695 27.3965 146.957 27.2962 147.269 27.2962C147.581 27.2962 147.838 27.3965 148.038 27.5972C148.25 27.7866 148.356 28.0263 148.356 28.3161C148.356 28.617 148.256 28.8734 148.055 29.0852C147.854 29.2858 147.592 29.3861 147.269 29.3861ZM156.637 39.9527V38.0801L156.553 37.729V34.5356C156.553 33.8557 156.353 33.3319 155.951 32.964C155.561 32.5851 154.97 32.3956 154.179 32.3956C153.655 32.3956 153.142 32.4848 152.641 32.6631C152.139 32.8303 151.716 33.0588 151.37 33.3486L150.701 32.1448C151.158 31.777 151.705 31.4983 152.34 31.3088C152.986 31.1082 153.661 31.0079 154.363 31.0079C155.578 31.0079 156.514 31.3033 157.172 31.894C157.829 32.4848 158.158 33.3876 158.158 34.6025V39.9527H156.637ZM153.728 40.053C153.07 40.053 152.49 39.9415 151.989 39.7186C151.498 39.4957 151.119 39.1892 150.852 38.7991C150.584 38.3978 150.451 37.9464 150.451 37.4448C150.451 36.9655 150.562 36.5308 150.785 36.1407C151.019 35.7506 151.393 35.4385 151.905 35.2044C152.429 34.9703 153.131 34.8533 154.012 34.8533H156.821V36.0069H154.079C153.276 36.0069 152.736 36.1407 152.457 36.4082C152.178 36.6757 152.039 36.9989 152.039 37.3779C152.039 37.8126 152.212 38.1637 152.557 38.4312C152.903 38.6876 153.382 38.8158 153.995 38.8158C154.597 38.8158 155.121 38.682 155.567 38.4145C156.024 38.147 156.353 37.7569 156.553 37.2442L156.871 38.3476C156.659 38.8715 156.286 39.2895 155.751 39.6016C155.216 39.9025 154.541 40.053 153.728 40.053Z" fill="#142032"/>
<circle cx="184.608" cy="33.9527" r="13.3754" fill="#AD1AC7"/>
</g>
<defs>
<filter id="filter0_d_38_735" x="0.925049" y="0" width="227.011" height="83.9054" filterUnits="userSpaceOnUse" color-interpolation-filters="sRGB">
<feFlood flood-opacity="0" result="BackgroundImageFix"/>
<feColorMatrix in="SourceAlpha" type="matrix" values="0 0 0 0 0 0 0 0 0 0 0 0 0 0 0 0 0 0 127 0" result="hardAlpha"/>
<feOffset dx="3" dy="8"/>
<feGaussianBlur stdDeviation="8"/>
<feColorMatrix type="matrix" values="0 0 0 0 0.282353 0 0 0 0 0 0 0 0 0 0.584314 0 0 0 0.15 0"/>
<feBlend mode="normal" in2="BackgroundImageFix" result="effect1_dropShadow_38_735"/>
<feBlend mode="normal" in="SourceGraphic" in2="effect1_dropShadow_38_735" result="shape"/>
</filter>
</defs>
</svg>
