<svg width="91" height="17" viewBox="0 0 91 17" fill="none" xmlns="http://www.w3.org/2000/svg">
<path d="M74.0328 8.91846C74.0328 13.3367 77.6146 16.9185 82.0328 16.9185C86.4511 16.9185 90.0328 13.3367 90.0328 8.91846C90.0328 4.50018 86.4511 0.918457 82.0328 0.918457C77.6146 0.918457 74.0328 4.50018 74.0328 8.91846ZM0.0114746 8.91846C0.0114746 13.3367 3.5932 16.9185 8.01147 16.9185C12.4298 16.9185 16.0115 13.3367 16.0115 8.91846C16.0115 4.50018 12.4298 0.918457 8.01147 0.918457C3.5932 0.918457 0.0114746 4.50018 0.0114746 8.91846ZM8.01147 10.4185H11.0957V7.41846H8.01147V10.4185ZM17.2641 10.4185H23.4326V7.41846H17.2641V10.4185ZM29.601 10.4185H35.7695V7.41846H29.601V10.4185ZM41.9379 10.4185H48.1064V7.41846H41.9379V10.4185ZM54.2748 10.4185H60.4433V7.41846H54.2748V10.4185ZM66.6117 10.4185H72.7802V7.41846H66.6117V10.4185ZM78.9486 10.4185H82.0328V7.41846H78.9486V10.4185Z" fill="#AD1AC7"/>
</svg>
