<svg width="186" height="84" viewBox="0 0 186 84" fill="none" xmlns="http://www.w3.org/2000/svg">
<g filter="url(#filter0_d_1306_2921)">
<rect x="13" y="8" width="153.862" height="51.9054" rx="11.3229" fill="white"/>
<path d="M23.9526 22.9527C23.9526 20.7436 25.7435 18.9527 27.9526 18.9527H38.0526V48.9527H27.9526C25.7435 48.9527 23.9526 47.1618 23.9526 44.9527V22.9527Z" fill="#D91023"/>
<rect x="38.0527" y="18.9527" width="14.1" height="30" fill="white"/>
<path d="M52.1526 18.9527H62.2526C64.4617 18.9527 66.2526 20.7436 66.2526 22.9527V44.9527C66.2526 47.1618 64.4617 48.9527 62.2526 48.9527H52.1526V18.9527Z" fill="#D91023"/>
<path d="M78.9608 39.9527V28.2492H83.5252C84.5506 28.2492 85.4256 28.4108 86.1501 28.7341C86.8746 29.0573 87.4319 29.5255 87.822 30.1385C88.2122 30.7515 88.4072 31.4816 88.4072 32.3287C88.4072 33.1758 88.2122 33.9059 87.822 34.5189C87.4319 35.1208 86.8746 35.589 86.1501 35.9234C85.4256 36.2466 84.5506 36.4082 83.5252 36.4082H79.8804L80.6328 35.6224V39.9527H78.9608ZM80.6328 35.7896L79.8804 34.9536H83.475C84.5451 34.9536 85.3532 34.7251 85.8993 34.2682C86.4566 33.8112 86.7353 33.1647 86.7353 32.3287C86.7353 31.4928 86.4566 30.8463 85.8993 30.3893C85.3532 29.9323 84.5451 29.7038 83.475 29.7038H79.8804L80.6328 28.8678V35.7896ZM94.5425 40.053C93.5951 40.053 92.7591 39.858 92.0346 39.4678C91.3213 39.0777 90.764 38.5427 90.3627 37.8628C89.9726 37.1829 89.7775 36.4026 89.7775 35.5221C89.7775 34.6416 89.967 33.8613 90.346 33.1814C90.7361 32.5015 91.2656 31.972 91.9343 31.5931C92.6142 31.203 93.3777 31.0079 94.2249 31.0079C95.0831 31.0079 95.8411 31.1974 96.4987 31.5764C97.1563 31.9553 97.669 32.4903 98.0368 33.1814C98.4158 33.8613 98.6053 34.6583 98.6053 35.5723C98.6053 35.6391 98.5997 35.7172 98.5886 35.8063C98.5886 35.8955 98.583 35.9791 98.5719 36.0571H91.0315V34.9035H97.7359L97.0838 35.3047C97.095 34.7363 96.978 34.2291 96.7327 33.7833C96.4875 33.3375 96.1476 32.9919 95.7129 32.7467C95.2893 32.4903 94.7933 32.3622 94.2249 32.3622C93.6675 32.3622 93.1715 32.4903 92.7368 32.7467C92.3021 32.9919 91.9622 33.343 91.717 33.8C91.4718 34.2459 91.3491 34.7586 91.3491 35.3382V35.6057C91.3491 36.1964 91.4829 36.7259 91.7504 37.194C92.0291 37.651 92.4136 38.0077 92.904 38.2641C93.3945 38.5204 93.9573 38.6486 94.5927 38.6486C95.1166 38.6486 95.5903 38.5594 96.0138 38.3811C96.4485 38.2028 96.8275 37.9352 97.1507 37.5786L98.0368 38.6152C97.6356 39.0833 97.134 39.44 96.5321 39.6852C95.9414 39.9304 95.2782 40.053 94.5425 40.053ZM100.834 39.9527V31.0915H102.372V33.4991L102.222 32.8972C102.467 32.2841 102.879 31.816 103.459 31.4928C104.039 31.1695 104.752 31.0079 105.599 31.0079V32.5628C105.532 32.5516 105.465 32.5461 105.398 32.5461C105.343 32.5461 105.287 32.5461 105.231 32.5461C104.373 32.5461 103.693 32.8024 103.191 33.3152C102.69 33.8279 102.439 34.5691 102.439 35.5388V39.9527H100.834ZM111.42 40.053C110.662 40.053 109.993 39.9137 109.414 39.635C108.845 39.3564 108.399 38.9328 108.076 38.3644C107.764 37.7848 107.608 37.0603 107.608 36.1909V31.0915H109.213V36.007C109.213 36.8764 109.419 37.5284 109.832 37.9631C110.255 38.3978 110.846 38.6152 111.604 38.6152C112.161 38.6152 112.646 38.5037 113.058 38.2808C113.471 38.0467 113.789 37.7123 114.011 37.2776C114.234 36.8318 114.346 36.2968 114.346 35.6726V31.0915H115.951V39.9527H114.429V37.5618L114.68 38.1972C114.39 38.7879 113.956 39.2449 113.376 39.5682C112.796 39.8914 112.144 40.053 111.42 40.053Z" fill="#142032"/>
<circle cx="142.533" cy="33.9527" r="13.3754" fill="#FA2080"/>
</g>
<defs>
<filter id="filter0_d_1306_2921" x="0" y="0" width="185.862" height="83.9054" filterUnits="userSpaceOnUse" color-interpolation-filters="sRGB">
<feFlood flood-opacity="0" result="BackgroundImageFix"/>
<feColorMatrix in="SourceAlpha" type="matrix" values="0 0 0 0 0 0 0 0 0 0 0 0 0 0 0 0 0 0 127 0" result="hardAlpha"/>
<feOffset dx="3" dy="8"/>
<feGaussianBlur stdDeviation="8"/>
<feColorMatrix type="matrix" values="0 0 0 0 0.282353 0 0 0 0 0 0 0 0 0 0.584314 0 0 0 0.15 0"/>
<feBlend mode="normal" in2="BackgroundImageFix" result="effect1_dropShadow_1306_2921"/>
<feBlend mode="normal" in="SourceGraphic" in2="effect1_dropShadow_1306_2921" result="shape"/>
</filter>
</defs>
</svg>
