<svg width="228" height="84" viewBox="0 0 228 84" fill="none" xmlns="http://www.w3.org/2000/svg">
<g filter="url(#filter0_d_1306_2987)">
<rect x="13" y="8" width="195.012" height="51.9054" rx="11.3229" fill="white"/>
<path d="M25.1694 22.926C25.1694 20.7169 26.9603 18.926 29.1694 18.926H64.1694C66.3786 18.926 68.1694 20.7169 68.1694 22.926V28.926H25.1694V22.926Z" fill="black"/>
<rect x="25.1528" y="28.9379" width="43" height="10" fill="#DD0000"/>
<path d="M25.2026 38.9792H68.2026V44.9792C68.2026 47.1884 66.4118 48.9792 64.2026 48.9792H29.2026C26.9935 48.9792 25.2026 47.1884 25.2026 44.9792V38.9792Z" fill="#FFCE00"/>
<path d="M86.1941 40.0864C85.2912 40.0864 84.4608 39.9415 83.7029 39.6517C82.945 39.3507 82.2873 38.9328 81.73 38.3977C81.1727 37.8516 80.738 37.2163 80.4259 36.4918C80.1138 35.7673 79.9578 34.9703 79.9578 34.1009C79.9578 33.2315 80.1138 32.4346 80.4259 31.71C80.738 30.9855 81.1727 30.3558 81.73 29.8208C82.2985 29.2746 82.9617 28.8566 83.7196 28.5668C84.4776 28.2659 85.3135 28.1154 86.2275 28.1154C87.1526 28.1154 87.9998 28.2659 88.7688 28.5668C89.5379 28.8678 90.19 29.3192 90.725 29.9211L89.6884 30.9577C89.2091 30.4895 88.6852 30.1496 88.1168 29.9378C87.5595 29.7149 86.952 29.6034 86.2944 29.6034C85.6256 29.6034 85.0014 29.7149 84.4218 29.9378C83.8534 30.1607 83.3574 30.4728 82.9338 30.8741C82.5214 31.2753 82.1982 31.7546 81.9641 32.3119C81.7412 32.8581 81.6297 33.4544 81.6297 34.1009C81.6297 34.7362 81.7412 35.3326 81.9641 35.8899C82.1982 36.436 82.5214 36.9153 82.9338 37.3277C83.3574 37.729 83.8534 38.0411 84.4218 38.264C84.9903 38.4869 85.6089 38.5984 86.2777 38.5984C86.9019 38.5984 87.4982 38.5036 88.0666 38.3142C88.6462 38.1135 89.1812 37.7847 89.6717 37.3277L90.6247 38.5984C90.0451 39.0888 89.3652 39.4622 88.5849 39.7186C87.8158 39.9638 87.0189 40.0864 86.1941 40.0864ZM89.0196 38.381V34.034H90.6247V38.5984L89.0196 38.381ZM97.5374 40.053C96.59 40.053 95.754 39.8579 95.0295 39.4678C94.3162 39.0777 93.7589 38.5426 93.3576 37.8627C92.9675 37.1828 92.7724 36.4026 92.7724 35.522C92.7724 34.6415 92.9619 33.8613 93.3409 33.1813C93.731 32.5014 94.2605 31.972 94.9292 31.593C95.6091 31.2029 96.3727 31.0078 97.2198 31.0078C98.078 31.0078 98.836 31.1973 99.4936 31.5763C100.151 31.9553 100.664 32.4903 101.032 33.1813C101.411 33.8613 101.6 34.6582 101.6 35.5722C101.6 35.6391 101.595 35.7171 101.583 35.8063C101.583 35.8954 101.578 35.979 101.567 36.0571H94.0264V34.9034H100.731L100.079 35.3047C100.09 34.7362 99.9729 34.2291 99.7276 33.7832C99.4824 33.3374 99.1425 32.9919 98.7078 32.7466C98.2842 32.4903 97.7882 32.3621 97.2198 32.3621C96.6625 32.3621 96.1664 32.4903 95.7317 32.7466C95.297 32.9919 94.9571 33.343 94.7119 33.8C94.4667 34.2458 94.3441 34.7585 94.3441 35.3381V35.6056C94.3441 36.1964 94.4778 36.7258 94.7453 37.194C95.024 37.651 95.4085 38.0076 95.8989 38.264C96.3894 38.5204 96.9523 38.6485 97.5876 38.6485C98.1115 38.6485 98.5852 38.5594 99.0087 38.381C99.4434 38.2027 99.8224 37.9352 100.146 37.5785L101.032 38.6151C100.63 39.0832 100.129 39.4399 99.527 39.6851C98.9363 39.9303 98.2731 40.053 97.5374 40.053ZM103.829 39.9526V31.0914H105.367V33.499L105.217 32.8971C105.462 32.2841 105.874 31.8159 106.454 31.4927C107.033 31.1695 107.747 31.0078 108.594 31.0078V32.5627C108.527 32.5516 108.46 32.546 108.393 32.546C108.338 32.546 108.282 32.546 108.226 32.546C107.368 32.546 106.688 32.8024 106.186 33.3151C105.685 33.8278 105.434 34.569 105.434 35.5388V39.9526H103.829ZM121.657 31.0078C122.37 31.0078 123 31.1472 123.546 31.4258C124.092 31.7045 124.516 32.128 124.817 32.6965C125.129 33.2649 125.285 33.9839 125.285 34.8533V39.9526H123.68V35.0372C123.68 34.1789 123.479 33.5324 123.078 33.0977C122.677 32.663 122.114 32.4457 121.39 32.4457C120.855 32.4457 120.386 32.5572 119.985 32.7801C119.584 33.003 119.272 33.3318 119.049 33.7665C118.837 34.2012 118.731 34.7418 118.731 35.3883V39.9526H117.126V35.0372C117.126 34.1789 116.925 33.5324 116.524 33.0977C116.134 32.663 115.571 32.4457 114.836 32.4457C114.312 32.4457 113.849 32.5572 113.448 32.7801C113.047 33.003 112.735 33.3318 112.512 33.7665C112.289 34.2012 112.177 34.7418 112.177 35.3883V39.9526H110.572V31.0914H112.11V33.4489L111.86 32.847C112.138 32.2674 112.567 31.8159 113.147 31.4927C113.727 31.1695 114.401 31.0078 115.17 31.0078C116.017 31.0078 116.747 31.2196 117.36 31.6432C117.973 32.0556 118.374 32.6853 118.564 33.5324L117.912 33.2649C118.179 32.585 118.648 32.0389 119.316 31.6265C119.985 31.214 120.765 31.0078 121.657 31.0078ZM133.739 39.9526V38.0801L133.655 37.729V34.5356C133.655 33.8557 133.455 33.3318 133.054 32.964C132.663 32.585 132.073 32.3955 131.281 32.3955C130.757 32.3955 130.245 32.4847 129.743 32.663C129.242 32.8302 128.818 33.0587 128.472 33.3485L127.804 32.1448C128.261 31.7769 128.807 31.4983 129.442 31.3088C130.089 31.1082 130.763 31.0078 131.465 31.0078C132.68 31.0078 133.616 31.3032 134.274 31.894C134.932 32.4847 135.26 33.3875 135.26 34.6025V39.9526H133.739ZM130.83 40.053C130.172 40.053 129.593 39.9415 129.091 39.7186C128.601 39.4956 128.222 39.1891 127.954 38.799C127.687 38.3977 127.553 37.9463 127.553 37.4448C127.553 36.9655 127.664 36.5308 127.887 36.1406C128.121 35.7505 128.495 35.4384 129.007 35.2044C129.531 34.9703 130.234 34.8533 131.114 34.8533H133.923V36.0069H131.181C130.378 36.0069 129.838 36.1406 129.559 36.4082C129.281 36.6757 129.141 36.9989 129.141 37.3779C129.141 37.8126 129.314 38.1637 129.66 38.4312C130.005 38.6875 130.484 38.8157 131.097 38.8157C131.699 38.8157 132.223 38.682 132.669 38.4145C133.126 38.147 133.455 37.7568 133.655 37.2441L133.973 38.3476C133.761 38.8715 133.388 39.2894 132.853 39.6015C132.318 39.9025 131.644 40.053 130.83 40.053ZM142.962 31.0078C143.687 31.0078 144.322 31.1472 144.868 31.4258C145.426 31.7045 145.86 32.128 146.172 32.6965C146.484 33.2649 146.641 33.9839 146.641 34.8533V39.9526H145.035V35.0372C145.035 34.1789 144.824 33.5324 144.4 33.0977C143.988 32.663 143.403 32.4457 142.645 32.4457C142.076 32.4457 141.58 32.5572 141.157 32.7801C140.733 33.003 140.404 33.3318 140.17 33.7665C139.947 34.2012 139.836 34.7418 139.836 35.3883V39.9526H138.231V31.0914H139.769V33.4823L139.518 32.847C139.808 32.2674 140.254 31.8159 140.856 31.4927C141.458 31.1695 142.16 31.0078 142.962 31.0078ZM149.832 43.2965C149.409 43.2965 148.996 43.224 148.595 43.0791C148.194 42.9454 147.848 42.7448 147.558 42.4772L148.244 41.2735C148.467 41.4852 148.712 41.6469 148.98 41.7583C149.247 41.8698 149.531 41.9255 149.832 41.9255C150.222 41.9255 150.546 41.8252 150.802 41.6246C151.058 41.4239 151.298 41.0673 151.521 40.5545L152.073 39.334L152.24 39.1334L155.717 31.0914H157.289L152.992 40.8388C152.736 41.4629 152.446 41.9534 152.123 42.31C151.811 42.6667 151.465 42.9175 151.086 43.0624C150.707 43.2185 150.289 43.2965 149.832 43.2965ZM151.939 40.2369L147.893 31.0914H149.565L153.009 38.9829L151.939 40.2369Z" fill="#142032"/>
<circle cx="182.483" cy="33.9527" r="13.3754" fill="#AD1AC7"/>
</g>
<defs>
<filter id="filter0_d_1306_2987" x="0" y="0" width="227.011" height="83.9054" filterUnits="userSpaceOnUse" color-interpolation-filters="sRGB">
<feFlood flood-opacity="0" result="BackgroundImageFix"/>
<feColorMatrix in="SourceAlpha" type="matrix" values="0 0 0 0 0 0 0 0 0 0 0 0 0 0 0 0 0 0 127 0" result="hardAlpha"/>
<feOffset dx="3" dy="8"/>
<feGaussianBlur stdDeviation="8"/>
<feColorMatrix type="matrix" values="0 0 0 0 0.282353 0 0 0 0 0 0 0 0 0 0.584314 0 0 0 0.15 0"/>
<feBlend mode="normal" in2="BackgroundImageFix" result="effect1_dropShadow_1306_2987"/>
<feBlend mode="normal" in="SourceGraphic" in2="effect1_dropShadow_1306_2987" result="shape"/>
</filter>
</defs>
</svg>
