<svg width="222" height="84" viewBox="0 0 222 84" fill="none" xmlns="http://www.w3.org/2000/svg">
<g filter="url(#filter0_d_1306_2896)">
<rect x="13" y="8" width="189.862" height="51.9054" rx="11.3229" fill="white"/>
<path d="M23.9526 22.9526C23.9526 20.7435 25.7435 18.9526 27.9526 18.9526H38.0526V48.9526H27.9526C25.7435 48.9526 23.9526 47.1618 23.9526 44.9526V22.9526Z" fill="#002B7F"/>
<rect x="38.0527" y="18.9526" width="14.1" height="30" fill="#FCD116"/>
<path d="M52.1526 18.9526H62.2526C64.4617 18.9526 66.2526 20.7435 66.2526 22.9526V44.9526C66.2526 47.1618 64.4617 48.9526 62.2526 48.9526H52.1526V18.9526Z" fill="#CE1126"/>
<path d="M78.9608 39.9526V28.2492H83.5252C84.5506 28.2492 85.4256 28.4108 86.1501 28.734C86.8746 29.0573 87.4319 29.5254 87.822 30.1384C88.2122 30.7515 88.4072 31.4816 88.4072 32.3287C88.4072 33.1758 88.2122 33.9058 87.822 34.5189C87.4319 35.1208 86.8746 35.5833 86.1501 35.9066C85.4256 36.2298 84.5506 36.3914 83.5252 36.3914H79.8804L80.6328 35.6224V39.9526H78.9608ZM86.7854 39.9526L83.8094 35.7059H85.5984L88.6078 39.9526H86.7854ZM80.6328 35.7895L79.8804 34.9703H83.475C84.5451 34.9703 85.3532 34.7418 85.8993 34.2848C86.4566 33.8167 86.7353 33.1646 86.7353 32.3287C86.7353 31.4927 86.4566 30.8462 85.8993 30.3892C85.3532 29.9322 84.5451 29.7037 83.475 29.7037H79.8804L80.6328 28.8678V35.7895ZM94.6696 40.053C93.7779 40.053 92.9865 39.8579 92.2955 39.4678C91.6044 39.0777 91.0583 38.5426 90.657 37.8627C90.2557 37.1717 90.0551 36.3914 90.0551 35.522C90.0551 34.6415 90.2557 33.8613 90.657 33.1813C91.0583 32.5014 91.6044 31.972 92.2955 31.593C92.9865 31.2029 93.7779 31.0078 94.6696 31.0078C95.5502 31.0078 96.336 31.2029 97.027 31.593C97.7292 31.972 98.2754 32.5014 98.6655 33.1813C99.0668 33.8501 99.2674 34.6303 99.2674 35.522C99.2674 36.4026 99.0668 37.1828 98.6655 37.8627C98.2754 38.5426 97.7292 39.0777 97.027 39.4678C96.336 39.8579 95.5502 40.053 94.6696 40.053ZM94.6696 38.6485C95.2381 38.6485 95.7452 38.5204 96.1911 38.264C96.6481 38.0076 97.0047 37.6454 97.2611 37.1772C97.5175 36.698 97.6456 36.1462 97.6456 35.522C97.6456 34.8867 97.5175 34.3405 97.2611 33.8836C97.0047 33.4154 96.6481 33.0532 96.1911 32.7968C95.7452 32.5404 95.2381 32.4123 94.6696 32.4123C94.1012 32.4123 93.594 32.5404 93.1482 32.7968C92.7023 33.0532 92.3456 33.4154 92.0781 33.8836C91.8106 34.3405 91.6769 34.8867 91.6769 35.522C91.6769 36.1462 91.8106 36.698 92.0781 37.1772C92.3456 37.6454 92.7023 38.0076 93.1482 38.264C93.594 38.5204 94.1012 38.6485 94.6696 38.6485ZM112.572 31.0078C113.285 31.0078 113.915 31.1472 114.461 31.4258C115.007 31.7045 115.431 32.128 115.732 32.6965C116.044 33.2649 116.2 33.9839 116.2 34.8533V39.9526H114.595V35.0372C114.595 34.1789 114.394 33.5324 113.993 33.0977C113.592 32.663 113.029 32.4457 112.304 32.4457C111.769 32.4457 111.301 32.5572 110.9 32.7801C110.499 33.003 110.187 33.3318 109.964 33.7665C109.752 34.2012 109.646 34.7418 109.646 35.3883V39.9526H108.041V35.0372C108.041 34.1789 107.84 33.5324 107.439 33.0977C107.049 32.663 106.486 32.4457 105.751 32.4457C105.227 32.4457 104.764 32.5572 104.363 32.7801C103.962 33.003 103.65 33.3318 103.427 33.7665C103.204 34.2012 103.092 34.7418 103.092 35.3883V39.9526H101.487V31.0914H103.025V33.4489L102.775 32.847C103.053 32.2674 103.482 31.8159 104.062 31.4927C104.642 31.1695 105.316 31.0078 106.085 31.0078C106.932 31.0078 107.662 31.2196 108.275 31.6432C108.888 32.0556 109.289 32.6853 109.479 33.5324L108.827 33.2649C109.094 32.585 109.563 32.0389 110.231 31.6265C110.9 31.214 111.68 31.0078 112.572 31.0078ZM124.654 39.9526V38.0801L124.57 37.729V34.5356C124.57 33.8557 124.37 33.3318 123.969 32.964C123.578 32.585 122.988 32.3955 122.196 32.3955C121.672 32.3955 121.16 32.4847 120.658 32.663C120.157 32.8302 119.733 33.0587 119.387 33.3485L118.719 32.1448C119.176 31.7769 119.722 31.4983 120.357 31.3088C121.004 31.1082 121.678 31.0078 122.38 31.0078C123.595 31.0078 124.531 31.3032 125.189 31.894C125.847 32.4847 126.175 33.3875 126.175 34.6025V39.9526H124.654ZM121.745 40.053C121.087 40.053 120.508 39.9415 120.006 39.7186C119.516 39.4956 119.137 39.1891 118.869 38.799C118.602 38.3977 118.468 37.9463 118.468 37.4448C118.468 36.9655 118.579 36.5308 118.802 36.1406C119.036 35.7505 119.41 35.4384 119.922 35.2044C120.446 34.9703 121.149 34.8533 122.029 34.8533H124.838V36.0069H122.096C121.293 36.0069 120.753 36.1406 120.474 36.4082C120.196 36.6757 120.056 36.9989 120.056 37.3779C120.056 37.8126 120.229 38.1637 120.575 38.4312C120.92 38.6875 121.399 38.8157 122.012 38.8157C122.614 38.8157 123.138 38.682 123.584 38.4145C124.041 38.147 124.37 37.7568 124.57 37.2441L124.888 38.3476C124.676 38.8715 124.303 39.2894 123.768 39.6015C123.233 39.9025 122.559 40.053 121.745 40.053ZM133.877 31.0078C134.602 31.0078 135.237 31.1472 135.783 31.4258C136.341 31.7045 136.775 32.128 137.087 32.6965C137.399 33.2649 137.556 33.9839 137.556 34.8533V39.9526H135.95V35.0372C135.95 34.1789 135.739 33.5324 135.315 33.0977C134.903 32.663 134.318 32.4457 133.56 32.4457C132.991 32.4457 132.495 32.5572 132.072 32.7801C131.648 33.003 131.319 33.3318 131.085 33.7665C130.862 34.2012 130.751 34.7418 130.751 35.3883V39.9526H129.146V31.0914H130.684V33.4823L130.433 32.847C130.723 32.2674 131.169 31.8159 131.771 31.4927C132.373 31.1695 133.075 31.0078 133.877 31.0078ZM140.526 39.9526V31.0914H142.131V39.9526H140.526ZM141.328 29.3861C141.016 29.3861 140.754 29.2858 140.543 29.0851C140.342 28.8845 140.242 28.6393 140.242 28.3495C140.242 28.0485 140.342 27.7977 140.543 27.5971C140.754 27.3965 141.016 27.2962 141.328 27.2962C141.641 27.2962 141.897 27.3965 142.098 27.5971C142.309 27.7866 142.415 28.0262 142.415 28.316C142.415 28.617 142.315 28.8734 142.114 29.0851C141.914 29.2858 141.652 29.3861 141.328 29.3861ZM150.696 39.9526V38.0801L150.613 37.729V34.5356C150.613 33.8557 150.412 33.3318 150.011 32.964C149.621 32.585 149.03 32.3955 148.238 32.3955C147.715 32.3955 147.202 32.4847 146.7 32.663C146.199 32.8302 145.775 33.0587 145.43 33.3485L144.761 32.1448C145.218 31.7769 145.764 31.4983 146.399 31.3088C147.046 31.1082 147.72 31.0078 148.422 31.0078C149.637 31.0078 150.574 31.3032 151.231 31.894C151.889 32.4847 152.218 33.3875 152.218 34.6025V39.9526H150.696ZM147.787 40.053C147.129 40.053 146.55 39.9415 146.048 39.7186C145.558 39.4956 145.179 39.1891 144.911 38.799C144.644 38.3977 144.51 37.9463 144.51 37.4448C144.51 36.9655 144.622 36.5308 144.844 36.1406C145.079 35.7505 145.452 35.4384 145.965 35.2044C146.489 34.9703 147.191 34.8533 148.071 34.8533H150.88V36.0069H148.138C147.336 36.0069 146.795 36.1406 146.516 36.4082C146.238 36.6757 146.098 36.9989 146.098 37.3779C146.098 37.8126 146.271 38.1637 146.617 38.4312C146.962 38.6875 147.442 38.8157 148.055 38.8157C148.656 38.8157 149.18 38.682 149.626 38.4145C150.083 38.147 150.412 37.7568 150.613 37.2441L150.93 38.3476C150.718 38.8715 150.345 39.2894 149.81 39.6015C149.275 39.9025 148.601 40.053 147.787 40.053Z" fill="#142032"/>
<circle cx="178.533" cy="33.9527" r="13.3754" fill="#FA2080"/>
</g>
<defs>
<filter id="filter0_d_1306_2896" x="0" y="0" width="221.862" height="83.9054" filterUnits="userSpaceOnUse" color-interpolation-filters="sRGB">
<feFlood flood-opacity="0" result="BackgroundImageFix"/>
<feColorMatrix in="SourceAlpha" type="matrix" values="0 0 0 0 0 0 0 0 0 0 0 0 0 0 0 0 0 0 127 0" result="hardAlpha"/>
<feOffset dx="3" dy="8"/>
<feGaussianBlur stdDeviation="8"/>
<feColorMatrix type="matrix" values="0 0 0 0 0.282353 0 0 0 0 0 0 0 0 0 0.584314 0 0 0 0.15 0"/>
<feBlend mode="normal" in2="BackgroundImageFix" result="effect1_dropShadow_1306_2896"/>
<feBlend mode="normal" in="SourceGraphic" in2="effect1_dropShadow_1306_2896" result="shape"/>
</filter>
</defs>
</svg>
