<svg width="192" height="210" viewBox="0 0 192 210" fill="none" xmlns="http://www.w3.org/2000/svg">
<path d="M175.246 8.97705C175.246 13.3953 178.828 16.9771 183.246 16.9771C187.665 16.9771 191.246 13.3953 191.246 8.97705C191.246 4.55877 187.665 0.977051 183.246 0.977051C178.828 0.977051 175.246 4.55877 175.246 8.97705ZM0.990234 201.953C0.990234 206.371 4.57196 209.953 8.99023 209.953C13.4085 209.953 16.9902 206.371 16.9902 201.953C16.9902 197.534 13.4085 193.953 8.99023 193.953C4.57196 193.953 0.990234 197.534 0.990234 201.953ZM8.99023 203.453H12.1155V200.453H8.99023V203.453ZM18.366 203.453H24.6165V200.453H18.366V203.453ZM30.867 203.453H37.1175V200.453H30.867V203.453ZM43.368 203.453H49.6185V200.453H43.368V203.453ZM55.869 203.453H62.1195V200.453H55.869V203.453ZM68.3701 203.453H74.6206V200.453H68.3701V203.453ZM80.8711 203.453H87.1216V200.453H80.8711V203.453ZM93.3721 203.453H99.6226V200.453H93.3721V203.453ZM105.873 203.453H112.124V200.453H105.873V203.453ZM118.374 203.453H124.625V200.453H118.374V203.453ZM130.875 203.453H134V200.453H130.875V203.453ZM134 203.453C135.128 203.453 136.239 203.379 137.329 203.237L136.941 200.262C135.979 200.388 134.998 200.453 134 200.453V203.453ZM143.762 201.517C145.836 200.657 147.771 199.532 149.525 198.184L147.697 195.805C146.148 196.995 144.441 197.988 142.613 198.746L143.762 201.517ZM154.231 193.477C155.579 191.723 156.705 189.788 157.565 187.714L154.794 186.565C154.035 188.393 153.043 190.101 151.853 191.65L154.231 193.477ZM159.285 181.281C159.427 180.191 159.5 179.08 159.5 177.953H156.5C156.5 178.95 156.436 179.932 156.31 180.893L159.285 181.281ZM159.5 177.953V174.932H156.5V177.953H159.5ZM159.5 168.892V162.851H156.5V168.892H159.5ZM159.5 156.81V150.77H156.5V156.81H159.5ZM159.5 144.729V138.688H156.5V144.729H159.5ZM159.5 132.648V126.607H156.5V132.648H159.5ZM159.5 120.567V114.526H156.5V120.567H159.5ZM159.5 108.485V102.445H156.5V108.485H159.5ZM159.5 96.4039V90.3633H156.5V96.4039H159.5ZM159.5 84.3226V78.282H156.5V84.3226H159.5ZM159.5 72.2413V66.2007H156.5V72.2413H159.5ZM159.5 60.16V54.1194H156.5V60.16H159.5ZM159.5 48.0787V42.0381H156.5V48.0787H159.5ZM159.5 35.9974V32.9771H156.5V35.9974H159.5ZM159.5 32.9771C159.5 31.9797 159.565 30.9982 159.691 30.0364L156.716 29.6484C156.574 30.7385 156.5 31.8496 156.5 32.9771H159.5ZM161.207 24.3647C161.965 22.5363 162.958 20.829 164.148 19.2802L161.769 17.4522C160.421 19.2065 159.296 21.1417 158.436 23.2156L161.207 24.3647ZM168.304 15.1248C169.852 13.9347 171.56 12.942 173.388 12.1838L172.239 9.4126C170.165 10.2726 168.23 11.398 166.476 12.7461L168.304 15.1248ZM179.06 10.6673C180.022 10.5419 181.003 10.4771 182 10.4771V7.47705C180.873 7.47705 179.762 7.55031 178.672 7.69251L179.06 10.6673ZM182 10.4771L182.312 10.4771V7.47705L182 7.47705V10.4771ZM182.935 10.4771L183.246 10.4771V7.47705L182.935 7.47705V10.4771Z" fill="#480095"/>
</svg>
