<svg width="172" height="86" viewBox="0 0 172 86" fill="none" xmlns="http://www.w3.org/2000/svg">
<path d="M155.378 8.77002C155.378 13.1883 158.96 16.77 163.378 16.77C167.796 16.77 171.378 13.1883 171.378 8.77002C171.378 4.35174 167.796 0.77002 163.378 0.77002C158.96 0.77002 155.378 4.35174 155.378 8.77002ZM0.98999 77.9527C0.98999 82.371 4.57171 85.9527 8.98999 85.9527C13.4083 85.9527 16.99 82.371 16.99 77.9527C16.99 73.5344 13.4083 69.9527 8.98999 69.9527C4.57171 69.9527 0.98999 73.5344 0.98999 77.9527ZM163.378 53.9527L161.878 53.9527L163.378 53.9527ZM8.98999 79.4527H11.9533V76.4527H8.98999V79.4527ZM17.8801 79.4527H23.8068V76.4527H17.8801V79.4527ZM29.7335 79.4527H35.6602V76.4527H29.7335V79.4527ZM41.5869 79.4527H47.5137V76.4527H41.5869V79.4527ZM53.4404 79.4527H59.3671V76.4527H53.4404V79.4527ZM65.2938 79.4527H71.2205V76.4527H65.2938V79.4527ZM77.1473 79.4527H83.074V76.4527H77.1473V79.4527ZM89.0007 79.4527H94.9274V76.4527H89.0007V79.4527ZM100.854 79.4527H106.781V76.4527H100.854V79.4527ZM112.708 79.4527H118.634V76.4527H112.708V79.4527ZM124.561 79.4527H130.488V76.4527H124.561V79.4527ZM136.414 79.4527H139.378V76.4527H136.414V79.4527ZM139.378 79.4527C140.505 79.4527 141.616 79.3794 142.706 79.2372L142.318 76.2624C141.357 76.3879 140.375 76.4527 139.378 76.4527V79.4527ZM149.139 77.5171C151.213 76.6571 153.148 75.5317 154.903 74.1836L153.075 71.8049C151.526 72.995 149.818 73.9878 147.99 74.746L149.139 77.5171ZM159.609 69.4775C160.957 67.7233 162.082 65.7881 162.942 63.7142L160.171 62.565C159.413 64.3934 158.42 66.1008 157.23 67.6495L159.609 69.4775ZM164.662 57.2813C164.805 56.1912 164.878 55.0802 164.878 53.9527L161.878 53.9527C161.878 54.9501 161.813 55.9315 161.688 56.8933L164.662 57.2813ZM164.878 53.9527L164.878 51.1288L161.878 51.1288L161.878 53.9527L164.878 53.9527ZM164.878 45.4809L164.878 39.8331L161.878 39.8331L161.878 45.4809L164.878 45.4809ZM164.878 34.1853L164.878 28.5374L161.878 28.5374L161.878 34.1853L164.878 34.1853ZM164.878 22.8896L164.878 17.2418L161.878 17.2418L161.878 22.8896L164.878 22.8896ZM164.878 11.5939L164.878 8.77002L161.878 8.77002L161.878 11.5939L164.878 11.5939Z" fill="#480095"/>
</svg>
