<svg width="273" height="84" viewBox="0 0 273 84" fill="none" xmlns="http://www.w3.org/2000/svg">
<g filter="url(#filter0_d_20_1538)">
<rect x="13" y="8" width="240.99" height="51.9054" rx="11.3229" fill="white"/>
<rect x="23.9526" y="19.667" width="40.4286" height="28.5714" rx="4" fill="#B22234"/>
<path d="M23.9526 23.667C23.9526 21.4578 25.7435 19.667 27.9526 19.667H43.0955V35.2384H23.9526V23.667Z" fill="#3C3B6E"/>
<path fill-rule="evenodd" clip-rule="evenodd" d="M26.125 21.8398L26.3097 21.2384L26.4943 21.8398L27.0955 21.8387L26.6085 22.2092L26.7953 22.8098L26.3097 22.4374L25.8241 22.8098L26.011 22.2092L25.524 21.8387L26.125 21.8398Z" fill="white"/>
<path fill-rule="evenodd" clip-rule="evenodd" d="M26.125 24.1255L26.3097 23.5241L26.4943 24.1255L27.0955 24.1244L26.6085 24.4949L26.7953 25.0955L26.3097 24.7231L25.8241 25.0955L26.011 24.4949L25.524 24.1244L26.125 24.1255Z" fill="white"/>
<path fill-rule="evenodd" clip-rule="evenodd" d="M26.125 26.4112L26.3097 25.8098L26.4943 26.4112L27.0955 26.4101L26.6085 26.7806L26.7953 27.3813L26.3097 27.0088L25.8241 27.3813L26.011 26.7806L25.524 26.4101L26.125 26.4112Z" fill="white"/>
<path fill-rule="evenodd" clip-rule="evenodd" d="M26.125 28.6969L26.3097 28.0955L26.4943 28.6969L27.0955 28.6958L26.6085 29.0664L26.7953 29.667L26.3097 29.2946L25.8241 29.667L26.011 29.0664L25.524 28.6958L26.125 28.6969Z" fill="white"/>
<path fill-rule="evenodd" clip-rule="evenodd" d="M26.125 30.9827L26.3097 30.3813L26.4943 30.9827L27.0955 30.9816L26.6085 31.3521L26.7953 31.9527L26.3097 31.5803L25.8241 31.9527L26.011 31.3521L25.524 30.9816L26.125 30.9827Z" fill="white"/>
<path fill-rule="evenodd" clip-rule="evenodd" d="M26.125 33.2684L26.3097 32.667L26.4943 33.2684L27.0955 33.2673L26.6085 33.6378L26.7953 34.2384L26.3097 33.866L25.8241 34.2384L26.011 33.6378L25.524 33.2673L26.125 33.2684Z" fill="white"/>
<path fill-rule="evenodd" clip-rule="evenodd" d="M29.125 21.8398L29.3097 21.2384L29.4943 21.8398L30.0955 21.8387L29.6085 22.2092L29.7953 22.8098L29.3097 22.4374L28.8241 22.8098L29.011 22.2092L28.524 21.8387L29.125 21.8398Z" fill="white"/>
<path fill-rule="evenodd" clip-rule="evenodd" d="M29.125 24.1255L29.3097 23.5241L29.4943 24.1255L30.0955 24.1244L29.6085 24.4949L29.7953 25.0955L29.3097 24.7231L28.8241 25.0955L29.011 24.4949L28.524 24.1244L29.125 24.1255Z" fill="white"/>
<path fill-rule="evenodd" clip-rule="evenodd" d="M29.125 26.4112L29.3097 25.8098L29.4943 26.4112L30.0955 26.4101L29.6085 26.7806L29.7953 27.3813L29.3097 27.0088L28.8241 27.3813L29.011 26.7806L28.524 26.4101L29.125 26.4112Z" fill="white"/>
<path fill-rule="evenodd" clip-rule="evenodd" d="M29.125 28.6969L29.3097 28.0955L29.4943 28.6969L30.0955 28.6958L29.6085 29.0664L29.7953 29.667L29.3097 29.2946L28.8241 29.667L29.011 29.0664L28.524 28.6958L29.125 28.6969Z" fill="white"/>
<path fill-rule="evenodd" clip-rule="evenodd" d="M29.125 30.9827L29.3097 30.3813L29.4943 30.9827L30.0955 30.9816L29.6085 31.3521L29.7953 31.9527L29.3097 31.5803L28.8241 31.9527L29.011 31.3521L28.524 30.9816L29.125 30.9827Z" fill="white"/>
<path fill-rule="evenodd" clip-rule="evenodd" d="M29.125 33.2684L29.3097 32.667L29.4943 33.2684L30.0955 33.2673L29.6085 33.6378L29.7953 34.2384L29.3097 33.866L28.8241 34.2384L29.011 33.6378L28.524 33.2673L29.125 33.2684Z" fill="white"/>
<path fill-rule="evenodd" clip-rule="evenodd" d="M32.125 21.8398L32.3097 21.2384L32.4943 21.8398L33.0955 21.8387L32.6085 22.2092L32.7953 22.8098L32.3097 22.4374L31.8241 22.8098L32.011 22.2092L31.524 21.8387L32.125 21.8398Z" fill="white"/>
<path fill-rule="evenodd" clip-rule="evenodd" d="M32.125 24.1255L32.3097 23.5241L32.4943 24.1255L33.0955 24.1244L32.6085 24.4949L32.7953 25.0955L32.3097 24.7231L31.8241 25.0955L32.011 24.4949L31.524 24.1244L32.125 24.1255Z" fill="white"/>
<path fill-rule="evenodd" clip-rule="evenodd" d="M32.125 26.4112L32.3097 25.8098L32.4943 26.4112L33.0955 26.4101L32.6085 26.7806L32.7953 27.3813L32.3097 27.0088L31.8241 27.3813L32.011 26.7806L31.524 26.4101L32.125 26.4112Z" fill="white"/>
<path fill-rule="evenodd" clip-rule="evenodd" d="M32.125 28.6969L32.3097 28.0955L32.4943 28.6969L33.0955 28.6958L32.6085 29.0664L32.7953 29.667L32.3097 29.2946L31.8241 29.667L32.011 29.0664L31.524 28.6958L32.125 28.6969Z" fill="white"/>
<path fill-rule="evenodd" clip-rule="evenodd" d="M32.125 30.9827L32.3097 30.3813L32.4943 30.9827L33.0955 30.9816L32.6085 31.3521L32.7953 31.9527L32.3097 31.5803L31.8241 31.9527L32.011 31.3521L31.524 30.9816L32.125 30.9827Z" fill="white"/>
<path fill-rule="evenodd" clip-rule="evenodd" d="M32.125 33.2684L32.3097 32.667L32.4943 33.2684L33.0955 33.2673L32.6085 33.6378L32.7953 34.2384L32.3097 33.866L31.8241 34.2384L32.011 33.6378L31.524 33.2673L32.125 33.2684Z" fill="white"/>
<path fill-rule="evenodd" clip-rule="evenodd" d="M35.125 21.8398L35.3097 21.2384L35.4943 21.8398L36.0955 21.8387L35.6085 22.2092L35.7953 22.8098L35.3097 22.4374L34.8241 22.8098L35.011 22.2092L34.524 21.8387L35.125 21.8398Z" fill="white"/>
<path fill-rule="evenodd" clip-rule="evenodd" d="M35.125 24.1255L35.3097 23.5241L35.4943 24.1255L36.0955 24.1244L35.6085 24.4949L35.7953 25.0955L35.3097 24.7231L34.8241 25.0955L35.011 24.4949L34.524 24.1244L35.125 24.1255Z" fill="white"/>
<path fill-rule="evenodd" clip-rule="evenodd" d="M35.125 26.4112L35.3097 25.8098L35.4943 26.4112L36.0955 26.4101L35.6085 26.7806L35.7953 27.3813L35.3097 27.0088L34.8241 27.3813L35.011 26.7806L34.524 26.4101L35.125 26.4112Z" fill="white"/>
<path fill-rule="evenodd" clip-rule="evenodd" d="M35.125 28.6969L35.3097 28.0955L35.4943 28.6969L36.0955 28.6958L35.6085 29.0664L35.7953 29.667L35.3097 29.2946L34.8241 29.667L35.011 29.0664L34.524 28.6958L35.125 28.6969Z" fill="white"/>
<path fill-rule="evenodd" clip-rule="evenodd" d="M35.125 30.9827L35.3097 30.3813L35.4943 30.9827L36.0955 30.9816L35.6085 31.3521L35.7953 31.9527L35.3097 31.5803L34.8241 31.9527L35.011 31.3521L34.524 30.9816L35.125 30.9827Z" fill="white"/>
<path fill-rule="evenodd" clip-rule="evenodd" d="M35.125 33.2684L35.3097 32.667L35.4943 33.2684L36.0955 33.2673L35.6085 33.6378L35.7953 34.2384L35.3097 33.866L34.8241 34.2384L35.011 33.6378L34.524 33.2673L35.125 33.2684Z" fill="white"/>
<path fill-rule="evenodd" clip-rule="evenodd" d="M38.125 21.8398L38.3097 21.2384L38.4943 21.8398L39.0955 21.8387L38.6085 22.2092L38.7953 22.8098L38.3097 22.4374L37.8241 22.8098L38.011 22.2092L37.524 21.8387L38.125 21.8398Z" fill="white"/>
<path fill-rule="evenodd" clip-rule="evenodd" d="M38.125 24.1255L38.3097 23.5241L38.4943 24.1255L39.0955 24.1244L38.6085 24.4949L38.7953 25.0955L38.3097 24.7231L37.8241 25.0955L38.011 24.4949L37.524 24.1244L38.125 24.1255Z" fill="white"/>
<path fill-rule="evenodd" clip-rule="evenodd" d="M38.125 26.4112L38.3097 25.8098L38.4943 26.4112L39.0955 26.4101L38.6085 26.7806L38.7953 27.3813L38.3097 27.0088L37.8241 27.3813L38.011 26.7806L37.524 26.4101L38.125 26.4112Z" fill="white"/>
<path fill-rule="evenodd" clip-rule="evenodd" d="M38.125 28.6969L38.3097 28.0955L38.4943 28.6969L39.0955 28.6958L38.6085 29.0664L38.7953 29.667L38.3097 29.2946L37.8241 29.667L38.011 29.0664L37.524 28.6958L38.125 28.6969Z" fill="white"/>
<path fill-rule="evenodd" clip-rule="evenodd" d="M38.125 30.9827L38.3097 30.3813L38.4943 30.9827L39.0955 30.9816L38.6085 31.3521L38.7953 31.9527L38.3097 31.5803L37.8241 31.9527L38.011 31.3521L37.524 30.9816L38.125 30.9827Z" fill="white"/>
<path fill-rule="evenodd" clip-rule="evenodd" d="M38.125 33.2684L38.3097 32.667L38.4943 33.2684L39.0955 33.2673L38.6085 33.6378L38.7953 34.2384L38.3097 33.866L37.8241 34.2384L38.011 33.6378L37.524 33.2673L38.125 33.2684Z" fill="white"/>
<path fill-rule="evenodd" clip-rule="evenodd" d="M41.125 21.8398L41.3097 21.2384L41.4943 21.8398L42.0955 21.8387L41.6085 22.2092L41.7953 22.8098L41.3097 22.4374L40.8241 22.8098L41.011 22.2092L40.524 21.8387L41.125 21.8398Z" fill="white"/>
<path fill-rule="evenodd" clip-rule="evenodd" d="M41.125 24.1255L41.3097 23.5241L41.4943 24.1255L42.0955 24.1244L41.6085 24.4949L41.7953 25.0955L41.3097 24.7231L40.8241 25.0955L41.011 24.4949L40.524 24.1244L41.125 24.1255Z" fill="white"/>
<path fill-rule="evenodd" clip-rule="evenodd" d="M41.125 26.4112L41.3097 25.8098L41.4943 26.4112L42.0955 26.4101L41.6085 26.7806L41.7953 27.3813L41.3097 27.0088L40.8241 27.3813L41.011 26.7806L40.524 26.4101L41.125 26.4112Z" fill="white"/>
<path fill-rule="evenodd" clip-rule="evenodd" d="M41.125 28.6969L41.3097 28.0955L41.4943 28.6969L42.0955 28.6958L41.6085 29.0664L41.7953 29.667L41.3097 29.2946L40.8241 29.667L41.011 29.0664L40.524 28.6958L41.125 28.6969Z" fill="white"/>
<path fill-rule="evenodd" clip-rule="evenodd" d="M41.125 30.9827L41.3097 30.3813L41.4943 30.9827L42.0955 30.9816L41.6085 31.3521L41.7953 31.9527L41.3097 31.5803L40.8241 31.9527L41.011 31.3521L40.524 30.9816L41.125 30.9827Z" fill="white"/>
<path fill-rule="evenodd" clip-rule="evenodd" d="M41.125 33.2684L41.3097 32.667L41.4943 33.2684L42.0955 33.2673L41.6085 33.6378L41.7953 34.2384L41.3097 33.866L40.8241 34.2384L41.011 33.6378L40.524 33.2673L41.125 33.2684Z" fill="white"/>
<mask id="mask0_20_1538" style="mask-type:alpha" maskUnits="userSpaceOnUse" x="23" y="19" width="42" height="30">
<rect x="23.9526" y="19.667" width="40.4286" height="28.5714" rx="4" fill="#B22234"/>
</mask>
<g mask="url(#mask0_20_1538)">
<rect x="43.0955" y="22.3812" width="21.2857" height="1.85714" fill="white"/>
<rect x="43.0955" y="26.667" width="21.2857" height="1.85714" fill="white"/>
<rect x="43.0955" y="30.9527" width="21.2857" height="1.85714" fill="white"/>
<rect x="23.9526" y="35.2384" width="40.4286" height="1.85714" fill="white"/>
<rect x="23.9526" y="39.5241" width="40.4286" height="1.85714" fill="white"/>
<rect x="23.9526" y="43.8098" width="40.4286" height="1.85714" fill="white"/>
</g>
<path d="M78.611 33.2984H84.6299V34.7196H78.611V33.2984ZM78.7614 38.4981H85.5829V39.9527H77.0895V28.2492H85.3488V29.7038H78.7614V38.4981ZM90.4831 40.053C89.7474 40.053 89.0452 39.9527 88.3764 39.7521C87.7188 39.5514 87.2005 39.3062 86.8215 39.0164L87.4903 37.7457C87.8693 38.0021 88.3374 38.2195 88.8947 38.3978C89.452 38.5761 90.0205 38.6653 90.6001 38.6653C91.3469 38.6653 91.8819 38.5594 92.2051 38.3476C92.5395 38.1359 92.7067 37.8405 92.7067 37.4615C92.7067 37.1829 92.6064 36.9655 92.4058 36.8095C92.2051 36.6534 91.9376 36.5364 91.6032 36.4584C91.28 36.3803 90.9178 36.3135 90.5165 36.2577C90.1152 36.1909 89.714 36.1128 89.3127 36.0237C88.9114 35.9233 88.5436 35.7896 88.2092 35.6224C87.8749 35.4441 87.6073 35.2044 87.4067 34.9035C87.2061 34.5914 87.1058 34.179 87.1058 33.6662C87.1058 33.1312 87.2562 32.6631 87.5572 32.2618C87.8581 31.8606 88.2817 31.554 88.8278 31.3423C89.3852 31.1193 90.0428 31.0079 90.8007 31.0079C91.3803 31.0079 91.9655 31.0803 92.5562 31.2252C93.1581 31.359 93.6486 31.554 94.0275 31.8104L93.342 33.0811C92.9408 32.8136 92.5228 32.6297 92.0881 32.5293C91.6534 32.429 91.2187 32.3789 90.784 32.3789C90.0818 32.3789 89.5579 32.4959 89.2124 32.73C88.8669 32.9529 88.6941 33.2427 88.6941 33.5994C88.6941 33.9003 88.7944 34.1344 88.995 34.3016C89.2068 34.4576 89.4743 34.5802 89.7976 34.6694C90.132 34.7586 90.4998 34.8366 90.901 34.9035C91.3023 34.9592 91.7036 35.0372 92.1048 35.1375C92.5061 35.2267 92.8683 35.3549 93.1916 35.5221C93.526 35.6893 93.7935 35.9233 93.9941 36.2243C94.2059 36.5252 94.3118 36.9265 94.3118 37.4281C94.3118 37.9631 94.1557 38.4257 93.8436 38.8158C93.5315 39.2059 93.0913 39.5124 92.5228 39.7353C91.9543 39.9471 91.2744 40.053 90.4831 40.053ZM99.3606 40.053C98.4689 40.053 97.7778 39.8134 97.2874 39.3341C96.797 38.8548 96.5517 38.1693 96.5517 37.2776V29.1521H98.1568V37.2107C98.1568 37.69 98.2738 38.0578 98.5079 38.3142C98.7531 38.5706 99.0986 38.6987 99.5445 38.6987C100.046 38.6987 100.464 38.5594 100.798 38.2808L101.3 39.4344C101.055 39.6462 100.759 39.8022 100.414 39.9025C100.08 40.0028 99.7284 40.053 99.3606 40.053ZM95.047 32.4123V31.0915H100.698V32.4123H95.047ZM108.741 39.9527V38.0801L108.658 37.729V34.5356C108.658 33.8557 108.457 33.3319 108.056 32.964C107.666 32.5851 107.075 32.3956 106.283 32.3956C105.76 32.3956 105.247 32.4848 104.745 32.6631C104.244 32.8303 103.82 33.0588 103.475 33.3486L102.806 32.1448C103.263 31.777 103.809 31.4983 104.444 31.3088C105.091 31.1082 105.765 31.0079 106.467 31.0079C107.682 31.0079 108.619 31.3033 109.276 31.894C109.934 32.4848 110.263 33.3876 110.263 34.6025V39.9527H108.741ZM105.832 40.053C105.174 40.053 104.595 39.9415 104.093 39.7186C103.603 39.4957 103.224 39.1892 102.956 38.7991C102.689 38.3978 102.555 37.9464 102.555 37.4448C102.555 36.9655 102.666 36.5308 102.889 36.1407C103.123 35.7506 103.497 35.4385 104.01 35.2044C104.533 34.9703 105.236 34.8533 106.116 34.8533H108.925V36.0069H106.183C105.381 36.0069 104.84 36.1407 104.561 36.4082C104.283 36.6757 104.143 36.9989 104.143 37.3779C104.143 37.8126 104.316 38.1637 104.662 38.4312C105.007 38.6876 105.486 38.8158 106.099 38.8158C106.701 38.8158 107.225 38.682 107.671 38.4145C108.128 38.147 108.457 37.7569 108.658 37.2442L108.975 38.3476C108.763 38.8715 108.39 39.2895 107.855 39.6016C107.32 39.9025 106.646 40.053 105.832 40.053ZM116.894 40.053C116.036 40.053 115.267 39.8635 114.587 39.4845C113.918 39.1056 113.389 38.5761 112.999 37.8962C112.609 37.2163 112.414 36.4249 112.414 35.5221C112.414 34.6192 112.609 33.8334 112.999 33.1647C113.389 32.4848 113.918 31.9553 114.587 31.5763C115.267 31.1974 116.036 31.0079 116.894 31.0079C117.641 31.0079 118.315 31.1751 118.917 31.5095C119.519 31.8438 119.999 32.3454 120.355 33.0142C120.723 33.683 120.907 34.5189 120.907 35.5221C120.907 36.5252 120.729 37.3612 120.372 38.03C120.026 38.6987 119.553 39.2059 118.951 39.5514C118.349 39.8858 117.663 40.053 116.894 40.053ZM117.028 38.6486C117.585 38.6486 118.087 38.5204 118.533 38.264C118.99 38.0077 119.347 37.6454 119.603 37.1773C119.87 36.698 120.004 36.1463 120.004 35.5221C120.004 34.8868 119.87 34.3406 119.603 33.8836C119.347 33.4155 118.99 33.0532 118.533 32.7968C118.087 32.5405 117.585 32.4123 117.028 32.4123C116.46 32.4123 115.953 32.5405 115.507 32.7968C115.061 33.0532 114.704 33.4155 114.437 33.8836C114.169 34.3406 114.035 34.8868 114.035 35.5221C114.035 36.1463 114.169 36.698 114.437 37.1773C114.704 37.6454 115.061 38.0077 115.507 38.264C115.953 38.5204 116.46 38.6486 117.028 38.6486ZM120.054 39.9527V37.5618L120.155 35.5054L119.987 33.4489V27.547H121.592V39.9527H120.054ZM128.425 40.053C127.533 40.053 126.742 39.8579 126.051 39.4678C125.359 39.0777 124.813 38.5427 124.412 37.8628C124.011 37.1717 123.81 36.3915 123.81 35.5221C123.81 34.6415 124.011 33.8613 124.412 33.1814C124.813 32.5015 125.359 31.972 126.051 31.5931C126.742 31.2029 127.533 31.0079 128.425 31.0079C129.305 31.0079 130.091 31.2029 130.782 31.5931C131.484 31.972 132.03 32.5015 132.421 33.1814C132.822 33.8502 133.022 34.6304 133.022 35.5221C133.022 36.4026 132.822 37.1829 132.421 37.8628C132.03 38.5427 131.484 39.0777 130.782 39.4678C130.091 39.8579 129.305 40.053 128.425 40.053ZM128.425 38.6486C128.993 38.6486 129.5 38.5204 129.946 38.264C130.403 38.0077 130.76 37.6454 131.016 37.1773C131.272 36.698 131.401 36.1463 131.401 35.5221C131.401 34.8868 131.272 34.3406 131.016 33.8836C130.76 33.4155 130.403 33.0532 129.946 32.7968C129.5 32.5405 128.993 32.4123 128.425 32.4123C127.856 32.4123 127.349 32.5405 126.903 32.7968C126.457 33.0532 126.101 33.4155 125.833 33.8836C125.566 34.3406 125.432 34.8868 125.432 35.5221C125.432 36.1463 125.566 36.698 125.833 37.1773C126.101 37.6454 126.457 38.0077 126.903 38.264C127.349 38.5204 127.856 38.6486 128.425 38.6486ZM137.783 40.053C137.048 40.053 136.346 39.9527 135.677 39.7521C135.019 39.5514 134.501 39.3062 134.122 39.0164L134.791 37.7457C135.17 38.0021 135.638 38.2195 136.195 38.3978C136.752 38.5761 137.321 38.6653 137.901 38.6653C138.647 38.6653 139.182 38.5594 139.506 38.3476C139.84 38.1359 140.007 37.8405 140.007 37.4615C140.007 37.1829 139.907 36.9655 139.706 36.8095C139.506 36.6534 139.238 36.5364 138.904 36.4584C138.58 36.3803 138.218 36.3135 137.817 36.2577C137.416 36.1909 137.014 36.1128 136.613 36.0237C136.212 35.9233 135.844 35.7896 135.51 35.6224C135.175 35.4441 134.908 35.2044 134.707 34.9035C134.507 34.5914 134.406 34.179 134.406 33.6662C134.406 33.1312 134.557 32.6631 134.858 32.2618C135.159 31.8606 135.582 31.554 136.128 31.3423C136.686 31.1193 137.343 31.0079 138.101 31.0079C138.681 31.0079 139.266 31.0803 139.857 31.2252C140.459 31.359 140.949 31.554 141.328 31.8104L140.642 33.0811C140.241 32.8136 139.823 32.6297 139.389 32.5293C138.954 32.429 138.519 32.3789 138.084 32.3789C137.382 32.3789 136.858 32.4959 136.513 32.73C136.167 32.9529 135.995 33.2427 135.995 33.5994C135.995 33.9003 136.095 34.1344 136.295 34.3016C136.507 34.4576 136.775 34.5802 137.098 34.6694C137.432 34.7586 137.8 34.8366 138.201 34.9035C138.603 34.9592 139.004 35.0372 139.405 35.1375C139.807 35.2267 140.169 35.3549 140.492 35.5221C140.826 35.6893 141.094 35.9233 141.295 36.2243C141.506 36.5252 141.612 36.9265 141.612 37.4281C141.612 37.9631 141.456 38.4257 141.144 38.8158C140.832 39.2059 140.392 39.5124 139.823 39.7353C139.255 39.9471 138.575 40.053 137.783 40.053ZM151.837 40.053C151.079 40.053 150.41 39.9137 149.83 39.635C149.262 39.3564 148.816 38.9328 148.493 38.3644C148.181 37.7848 148.025 37.0603 148.025 36.1909V31.0915H149.63V36.0069C149.63 36.8763 149.836 37.5284 150.248 37.9631C150.672 38.3978 151.263 38.6151 152.02 38.6151C152.578 38.6151 153.063 38.5037 153.475 38.2808C153.887 38.0467 154.205 37.7123 154.428 37.2776C154.651 36.8318 154.762 36.2967 154.762 35.6726V31.0915H156.367V39.9527H154.846V37.5618L155.097 38.1972C154.807 38.7879 154.372 39.2449 153.793 39.5681C153.213 39.8914 152.561 40.053 151.837 40.053ZM164.155 31.0079C164.879 31.0079 165.514 31.1472 166.061 31.4259C166.618 31.7045 167.053 32.1281 167.365 32.6965C167.677 33.265 167.833 33.9839 167.833 34.8533V39.9527H166.228V35.0372C166.228 34.179 166.016 33.5325 165.592 33.0978C165.18 32.6631 164.595 32.4457 163.837 32.4457C163.268 32.4457 162.772 32.5572 162.349 32.7801C161.925 33.0031 161.597 33.3319 161.362 33.7666C161.14 34.2013 161.028 34.7419 161.028 35.3883V39.9527H159.423V31.0915H160.961V33.4823L160.71 32.847C161 32.2674 161.446 31.816 162.048 31.4927C162.65 31.1695 163.352 31.0079 164.155 31.0079ZM170.803 39.9527V31.0915H172.408V39.9527H170.803ZM171.606 29.3861C171.294 29.3861 171.032 29.2858 170.82 29.0852C170.619 28.8845 170.519 28.6393 170.519 28.3495C170.519 28.0486 170.619 27.7978 170.82 27.5972C171.032 27.3965 171.294 27.2962 171.606 27.2962C171.918 27.2962 172.174 27.3965 172.375 27.5972C172.587 27.7866 172.692 28.0263 172.692 28.3161C172.692 28.617 172.592 28.8734 172.392 29.0852C172.191 29.2858 171.929 29.3861 171.606 29.3861ZM179.134 40.053C178.276 40.053 177.507 39.8635 176.827 39.4845C176.158 39.1056 175.629 38.5761 175.239 37.8962C174.849 37.2163 174.654 36.4249 174.654 35.5221C174.654 34.6192 174.849 33.8334 175.239 33.1647C175.629 32.4848 176.158 31.9553 176.827 31.5763C177.507 31.1974 178.276 31.0079 179.134 31.0079C179.881 31.0079 180.555 31.1751 181.157 31.5095C181.759 31.8438 182.239 32.3454 182.595 33.0142C182.963 33.683 183.147 34.5189 183.147 35.5221C183.147 36.5252 182.969 37.3612 182.612 38.03C182.266 38.6987 181.793 39.2059 181.191 39.5514C180.589 39.8858 179.903 40.053 179.134 40.053ZM179.268 38.6486C179.825 38.6486 180.327 38.5204 180.773 38.264C181.23 38.0077 181.587 37.6454 181.843 37.1773C182.11 36.698 182.244 36.1463 182.244 35.5221C182.244 34.8868 182.11 34.3406 181.843 33.8836C181.587 33.4155 181.23 33.0532 180.773 32.7968C180.327 32.5405 179.825 32.4123 179.268 32.4123C178.7 32.4123 178.193 32.5405 177.747 32.7968C177.301 33.0532 176.944 33.4155 176.677 33.8836C176.409 34.3406 176.275 34.8868 176.275 35.5221C176.275 36.1463 176.409 36.698 176.677 37.1773C176.944 37.6454 177.301 38.0077 177.747 38.264C178.193 38.5204 178.7 38.6486 179.268 38.6486ZM182.294 39.9527V37.5618L182.395 35.5054L182.227 33.4489V27.547H183.832V39.9527H182.294ZM190.665 40.053C189.773 40.053 188.982 39.8579 188.29 39.4678C187.599 39.0777 187.053 38.5427 186.652 37.8628C186.251 37.1717 186.05 36.3915 186.05 35.5221C186.05 34.6415 186.251 33.8613 186.652 33.1814C187.053 32.5015 187.599 31.972 188.29 31.5931C188.982 31.2029 189.773 31.0079 190.665 31.0079C191.545 31.0079 192.331 31.2029 193.022 31.5931C193.724 31.972 194.27 32.5015 194.661 33.1814C195.062 33.8502 195.262 34.6304 195.262 35.5221C195.262 36.4026 195.062 37.1829 194.661 37.8628C194.27 38.5427 193.724 39.0777 193.022 39.4678C192.331 39.8579 191.545 40.053 190.665 40.053ZM190.665 38.6486C191.233 38.6486 191.74 38.5204 192.186 38.264C192.643 38.0077 193 37.6454 193.256 37.1773C193.512 36.698 193.641 36.1463 193.641 35.5221C193.641 34.8868 193.512 34.3406 193.256 33.8836C193 33.4155 192.643 33.0532 192.186 32.7968C191.74 32.5405 191.233 32.4123 190.665 32.4123C190.096 32.4123 189.589 32.5405 189.143 32.7968C188.697 33.0532 188.341 33.4155 188.073 33.8836C187.806 34.3406 187.672 34.8868 187.672 35.5221C187.672 36.1463 187.806 36.698 188.073 37.1773C188.341 37.6454 188.697 38.0077 189.143 38.264C189.589 38.5204 190.096 38.6486 190.665 38.6486ZM200.023 40.053C199.288 40.053 198.586 39.9527 197.917 39.7521C197.259 39.5514 196.741 39.3062 196.362 39.0164L197.031 37.7457C197.41 38.0021 197.878 38.2195 198.435 38.3978C198.992 38.5761 199.561 38.6653 200.141 38.6653C200.887 38.6653 201.422 38.5594 201.746 38.3476C202.08 38.1359 202.247 37.8405 202.247 37.4615C202.247 37.1829 202.147 36.9655 201.946 36.8095C201.746 36.6534 201.478 36.5364 201.144 36.4584C200.82 36.3803 200.458 36.3135 200.057 36.2577C199.656 36.1909 199.254 36.1128 198.853 36.0237C198.452 35.9233 198.084 35.7896 197.75 35.6224C197.415 35.4441 197.148 35.2044 196.947 34.9035C196.747 34.5914 196.646 34.179 196.646 33.6662C196.646 33.1312 196.797 32.6631 197.098 32.2618C197.399 31.8606 197.822 31.554 198.368 31.3423C198.926 31.1193 199.583 31.0079 200.341 31.0079C200.921 31.0079 201.506 31.0803 202.097 31.2252C202.699 31.359 203.189 31.554 203.568 31.8104L202.882 33.0811C202.481 32.8136 202.063 32.6297 201.629 32.5293C201.194 32.429 200.759 32.3789 200.324 32.3789C199.622 32.3789 199.098 32.4959 198.753 32.73C198.407 32.9529 198.235 33.2427 198.235 33.5994C198.235 33.9003 198.335 34.1344 198.535 34.3016C198.747 34.4576 199.015 34.5802 199.338 34.6694C199.672 34.7586 200.04 34.8366 200.441 34.9035C200.843 34.9592 201.244 35.0372 201.645 35.1375C202.047 35.2267 202.409 35.3549 202.732 35.5221C203.066 35.6893 203.334 35.9233 203.535 36.2243C203.746 36.5252 203.852 36.9265 203.852 37.4281C203.852 37.9631 203.696 38.4257 203.384 38.8158C203.072 39.2059 202.632 39.5124 202.063 39.7353C201.495 39.9471 200.815 40.053 200.023 40.053Z" fill="#142032"/>
<circle cx="229.662" cy="33.9527" r="13.3754" fill="#480095"/>
</g>
<defs>
<filter id="filter0_d_20_1538" x="0" y="0" width="272.99" height="83.9054" filterUnits="userSpaceOnUse" color-interpolation-filters="sRGB">
<feFlood flood-opacity="0" result="BackgroundImageFix"/>
<feColorMatrix in="SourceAlpha" type="matrix" values="0 0 0 0 0 0 0 0 0 0 0 0 0 0 0 0 0 0 127 0" result="hardAlpha"/>
<feOffset dx="3" dy="8"/>
<feGaussianBlur stdDeviation="8"/>
<feColorMatrix type="matrix" values="0 0 0 0 0.282353 0 0 0 0 0 0 0 0 0 0.584314 0 0 0 0.15 0"/>
<feBlend mode="normal" in2="BackgroundImageFix" result="effect1_dropShadow_20_1538"/>
<feBlend mode="normal" in="SourceGraphic" in2="effect1_dropShadow_20_1538" result="shape"/>
</filter>
</defs>
</svg>
