<svg width="201" height="129" viewBox="0 0 201 129" fill="none" xmlns="http://www.w3.org/2000/svg">
<path d="M0.990112 120.953C0.990112 125.371 4.57183 128.953 8.99011 128.953C13.4084 128.953 16.9901 125.371 16.9901 120.953C16.9901 116.534 13.4084 112.953 8.99011 112.953C4.57183 112.953 0.990112 116.534 0.990112 120.953ZM184.972 8.52161C184.972 12.9399 188.553 16.5216 192.972 16.5216C197.39 16.5216 200.972 12.9399 200.972 8.52161C200.972 4.10333 197.39 0.521606 192.972 0.521606C188.553 0.521606 184.972 4.10333 184.972 8.52161ZM8.99011 122.453H11.8231V119.453H8.99011V122.453ZM17.489 122.453H23.1549V119.453H17.489V122.453ZM28.8207 122.453H34.4866V119.453H28.8207V122.453ZM40.1525 122.453H45.8184V119.453H40.1525V122.453ZM51.4843 122.453H57.1502V119.453H51.4843V122.453ZM62.8161 122.453H68.482V119.453H62.8161V122.453ZM74.1479 122.453H76.9809V119.453H74.1479V122.453ZM76.9809 122.453C78.1083 122.453 79.2194 122.379 80.3095 122.237L79.9215 119.262C78.9597 119.388 77.9782 119.453 76.9809 119.453V122.453ZM86.7423 120.517C88.8162 119.657 90.7514 118.532 92.5057 117.184L90.6777 114.805C89.1289 115.995 87.4216 116.988 85.5932 117.746L86.7423 120.517ZM97.2118 112.477C98.5599 110.723 99.6853 108.788 100.545 106.714L97.7741 105.565C97.0159 107.393 96.0232 109.101 94.8331 110.65L97.2118 112.477ZM102.265 100.281C102.408 99.1912 102.481 98.0801 102.481 96.9527H99.4809C99.4809 97.9501 99.4161 98.9315 99.2906 99.8933L102.265 100.281ZM102.481 96.9527V93.7311H99.4809V96.9527H102.481ZM102.481 87.288V80.8449H99.4809V87.288H102.481ZM102.481 74.4018V67.9587H99.4809V74.4018H102.481ZM102.481 61.5156V55.0725H99.4809V61.5156H102.481ZM102.481 48.6294V42.1863H99.4809V48.6294H102.481ZM102.481 35.7432V32.5216H99.4809V35.7432H102.481ZM102.481 32.5216C102.481 31.5242 102.546 30.5427 102.671 29.581L99.6963 29.1929C99.5541 30.283 99.4809 31.3941 99.4809 32.5216H102.481ZM104.188 23.9093C104.946 22.0809 105.939 20.3735 107.129 18.8248L104.75 16.9968C103.402 18.751 102.276 20.6862 101.416 22.7601L104.188 23.9093ZM111.284 14.6694C112.833 13.4793 114.54 12.4865 116.369 11.7283L115.219 8.95715C113.145 9.81716 111.21 10.9426 109.456 12.2906L111.284 14.6694ZM122.04 10.2119C123.002 10.0864 123.983 10.0216 124.981 10.0216V7.02161C123.853 7.02161 122.742 7.09487 121.652 7.23706L122.04 10.2119ZM124.981 10.0216H127.814V7.02161H124.981V10.0216ZM133.48 10.0216H139.146V7.02161H133.48V10.0216ZM144.811 10.0216H150.477V7.02161H144.811V10.0216ZM156.143 10.0216H161.809V7.02161H156.143V10.0216ZM167.475 10.0216H173.141V7.02161H167.475V10.0216ZM178.807 10.0216H184.473V7.02161H178.807V10.0216ZM190.139 10.0216H192.972V7.02161H190.139V10.0216Z" fill="#480095"/>
</svg>
