<svg width="129" height="188" viewBox="0 0 129 188" fill="none" xmlns="http://www.w3.org/2000/svg">
<path d="M112.14 8.37366C112.14 12.7919 115.722 16.3737 120.14 16.3737C124.559 16.3737 128.14 12.7919 128.14 8.37366C128.14 3.95538 124.559 0.373657 120.14 0.373657C115.722 0.373657 112.14 3.95538 112.14 8.37366ZM0.990234 179.953C0.990234 184.371 4.57196 187.953 8.99023 187.953C13.4085 187.953 16.9902 184.371 16.9902 179.953C16.9902 175.534 13.4085 171.953 8.99023 171.953C4.57196 171.953 0.990234 175.534 0.990234 179.953ZM8.99023 181.453H12.1027V178.453H8.99023V181.453ZM18.3278 181.453H24.5528V178.453H18.3278V181.453ZM30.7778 181.453H37.0028V178.453H30.7778V181.453ZM43.2278 181.453H49.4528V178.453H43.2278V181.453ZM55.6778 181.453H61.9028V178.453H55.6778V181.453ZM68.1278 181.453H74.3528V178.453H68.1278V181.453ZM80.5779 181.453H86.8029V178.453H80.5779V181.453ZM93.0279 181.453H96.1404V178.453H93.0279V181.453ZM96.1404 181.453C97.2679 181.453 98.3789 181.379 99.469 181.237L99.081 178.262C98.1192 178.388 97.1378 178.453 96.1404 178.453V181.453ZM105.902 179.517C107.976 178.657 109.911 177.532 111.665 176.184L109.837 173.805C108.288 174.995 106.581 175.988 104.753 176.746L105.902 179.517ZM116.371 171.477C117.719 169.723 118.845 167.788 119.705 165.714L116.934 164.565C116.175 166.393 115.183 168.101 113.993 169.649L116.371 171.477ZM121.425 159.281C121.567 158.191 121.64 157.08 121.64 155.953H118.64C118.64 156.95 118.576 157.931 118.45 158.893L121.425 159.281ZM121.64 155.953V152.878H118.64V155.953H121.64ZM121.64 146.729V140.58H118.64V146.729H121.64ZM121.64 134.431V128.282H118.64V134.431H121.64ZM121.64 122.132V115.983H118.64V122.132H121.64ZM121.64 109.834V103.685H118.64V109.834H121.64ZM121.64 97.536V91.3868H118.64V97.536H121.64ZM121.64 85.2377V79.0886H118.64V85.2377H121.64ZM121.64 72.9395V66.7903H118.64V72.9395H121.64ZM121.64 60.6412V54.4921H118.64V60.6412H121.64ZM121.64 48.343V42.1938H118.64V48.343H121.64ZM121.64 36.0447V29.8956H118.64V36.0447H121.64ZM121.64 23.7465V17.5974H118.64V23.7465H121.64ZM121.64 11.4482V8.37366H118.64V11.4482H121.64Z" fill="#480095"/>
</svg>
