<svg width="27" height="50" viewBox="0 0 27 50" fill="none" xmlns="http://www.w3.org/2000/svg">
<path d="M10.5058 8.9054C10.5058 13.3237 14.0875 16.9054 18.5058 16.9054C22.924 16.9054 26.5058 13.3237 26.5058 8.9054C26.5058 4.48712 22.924 0.905396 18.5058 0.905396C14.0875 0.905396 10.5058 4.48712 10.5058 8.9054ZM0.619873 41.7286C0.619873 46.1469 4.20159 49.7286 8.61987 49.7286C13.0382 49.7286 16.6199 46.1469 16.6199 41.7286C16.6199 37.3103 13.0382 33.7286 8.61987 33.7286C4.20159 33.7286 0.619873 37.3103 0.619873 41.7286ZM10.1199 41.7286V38.0322H7.11987V41.7286H10.1199ZM10.1199 30.6394V26.943H7.11987V30.6394H10.1199ZM10.1199 26.943C10.1199 26.4734 10.2131 26.0293 10.3805 25.6255L7.60936 24.4763C7.29347 25.238 7.11987 26.0721 7.11987 26.943H10.1199ZM12.2453 23.7607C12.6492 23.5932 13.0932 23.5 13.5628 23.5V20.5C12.692 20.5 11.8579 20.6736 11.0961 20.9895L12.2453 23.7607ZM13.5628 23.5C14.4337 23.5 15.2677 23.3264 16.0295 23.0105L14.8803 20.2394C14.4765 20.4068 14.0324 20.5 13.5628 20.5V23.5ZM19.5163 19.5238C19.8322 18.762 20.0058 17.9279 20.0058 17.0571H17.0058C17.0058 17.5267 16.9126 17.9707 16.7451 18.3746L19.5163 19.5238ZM20.0058 17.0571V15.0192H17.0058V17.0571H20.0058ZM20.0058 10.9433V8.9054H17.0058V10.9433H20.0058Z" fill="#AD1AC7"/>
</svg>
