<svg width="212" height="78" viewBox="0 0 212 78" fill="none" xmlns="http://www.w3.org/2000/svg">
<g filter="url(#filter0_d_791_1374)">
<rect x="13" y="8" width="180" height="46" rx="11.3229" fill="white"/>
<path d="M28.6851 23C28.6851 20.7909 30.4759 19 32.6851 19H58.6456C60.8548 19 62.6456 20.7909 62.6456 23V26.9858H28.6851V23Z" fill="black"/>
<rect x="28.6719" y="26.9953" width="33.9606" height="7.98583" fill="#DD0000"/>
<path d="M28.7114 35.0142H62.6719V39C62.6719 41.2091 60.8811 43 58.6719 43H32.7114C30.5022 43 28.7114 41.2091 28.7114 39V35.0142Z" fill="#FFCE00"/>
<path d="M81.1446 32.72L79.4406 28.264C79.3179 27.96 79.1953 27.576 79.0726 27.112C79.0139 27.3413 78.9526 27.5547 78.8886 27.752C78.8299 27.9493 78.7713 28.1253 78.7126 28.28L77.0166 32.72H81.1446ZM84.5126 37H83.2006C83.0513 37 82.9286 36.9627 82.8326 36.888C82.7366 36.8133 82.6673 36.7173 82.6246 36.6L81.6086 33.936H76.5446L75.5286 36.6C75.4913 36.7013 75.4219 36.7947 75.3206 36.88C75.2193 36.96 75.0966 37 74.9526 37H73.6406L78.2166 25.512H79.9366L84.5126 37ZM87.1956 25.192V37H85.6276V25.192H87.1956ZM94.8077 32.032C94.8077 31.7227 94.7624 31.4373 94.6717 31.176C94.5864 30.9147 94.4584 30.688 94.2877 30.496C94.1171 30.304 93.9091 30.1547 93.6637 30.048C93.4184 29.9413 93.1357 29.888 92.8157 29.888C92.1597 29.888 91.6424 30.0773 91.2637 30.456C90.8904 30.8347 90.6531 31.36 90.5517 32.032H94.8077ZM96.0957 35.84C95.9037 36.064 95.6824 36.2587 95.4317 36.424C95.1811 36.584 94.9144 36.7147 94.6317 36.816C94.3491 36.9173 94.0557 36.992 93.7517 37.04C93.4531 37.088 93.1571 37.112 92.8637 37.112C92.3037 37.112 91.7837 37.0187 91.3037 36.832C90.8291 36.64 90.4157 36.3627 90.0637 36C89.7171 35.632 89.4451 35.1787 89.2477 34.64C89.0557 34.096 88.9597 33.472 88.9597 32.768C88.9597 32.2027 89.0477 31.6773 89.2237 31.192C89.3997 30.7013 89.6504 30.2747 89.9757 29.912C90.3064 29.5493 90.7091 29.264 91.1837 29.056C91.6584 28.848 92.1917 28.744 92.7837 28.744C93.2797 28.744 93.7357 28.8267 94.1517 28.992C94.5731 29.152 94.9357 29.3867 95.2397 29.696C95.5437 30.0053 95.7811 30.3867 95.9517 30.84C96.1277 31.2933 96.2157 31.8107 96.2157 32.392C96.2157 32.632 96.1891 32.7947 96.1357 32.88C96.0824 32.96 95.9837 33 95.8397 33H90.5117C90.5277 33.4853 90.5971 33.9093 90.7197 34.272C90.8424 34.6293 91.0104 34.928 91.2237 35.168C91.4424 35.408 91.7011 35.5867 91.9997 35.704C92.2984 35.8213 92.6317 35.88 92.9997 35.88C93.3464 35.88 93.6451 35.84 93.8957 35.76C94.1517 35.68 94.3704 35.5947 94.5517 35.504C94.7384 35.408 94.8931 35.32 95.0157 35.24C95.1437 35.16 95.2557 35.12 95.3517 35.12C95.4797 35.12 95.5784 35.168 95.6477 35.264L96.0957 35.84ZM97.8925 37V28.872H98.8285C99.0471 28.872 99.1831 28.976 99.2365 29.184L99.3485 29.96C99.6471 29.6027 99.9778 29.312 100.34 29.088C100.708 28.8587 101.138 28.744 101.628 28.744C102.167 28.744 102.604 28.8933 102.94 29.192C103.276 29.4853 103.522 29.8853 103.676 30.392C103.794 30.104 103.946 29.856 104.132 29.648C104.319 29.44 104.527 29.2693 104.756 29.136C104.986 29.0027 105.228 28.904 105.484 28.84C105.746 28.776 106.01 28.744 106.276 28.744C106.708 28.744 107.092 28.8133 107.428 28.952C107.77 29.0853 108.058 29.2827 108.292 29.544C108.527 29.8053 108.706 30.128 108.828 30.512C108.951 30.896 109.012 31.3333 109.012 31.824V37H107.444V31.824C107.444 31.216 107.311 30.7573 107.044 30.448C106.783 30.1387 106.399 29.984 105.892 29.984C105.668 29.984 105.455 30.024 105.252 30.104C105.05 30.1787 104.871 30.2933 104.716 30.448C104.567 30.6027 104.447 30.7947 104.356 31.024C104.271 31.2533 104.228 31.52 104.228 31.824V37H102.66V31.824C102.66 31.1947 102.535 30.7307 102.284 30.432C102.034 30.1333 101.666 29.984 101.18 29.984C100.844 29.984 100.532 30.072 100.244 30.248C99.9565 30.424 99.6925 30.664 99.4525 30.968V37H97.8925ZM115.479 33.392C114.845 33.4133 114.306 33.464 113.863 33.544C113.421 33.6187 113.061 33.72 112.783 33.848C112.506 33.976 112.306 34.128 112.183 34.304C112.061 34.4747 111.999 34.6667 111.999 34.88C111.999 35.0827 112.031 35.2587 112.095 35.408C112.165 35.552 112.255 35.672 112.367 35.768C112.485 35.8587 112.621 35.9253 112.775 35.968C112.93 36.0107 113.098 36.032 113.279 36.032C113.519 36.032 113.738 36.008 113.935 35.96C114.138 35.912 114.327 35.8453 114.503 35.76C114.679 35.6693 114.847 35.56 115.007 35.432C115.167 35.304 115.325 35.1573 115.479 34.992V33.392ZM110.903 30.008C111.357 29.576 111.847 29.2533 112.375 29.04C112.909 28.8267 113.493 28.72 114.127 28.72C114.591 28.72 115.002 28.7973 115.359 28.952C115.717 29.1013 116.018 29.312 116.263 29.584C116.509 29.856 116.693 30.1813 116.815 30.56C116.943 30.9387 117.007 31.3573 117.007 31.816V37H116.311C116.157 37 116.039 36.976 115.959 36.928C115.879 36.8747 115.815 36.7787 115.767 36.64L115.599 35.928C115.391 36.12 115.186 36.2907 114.983 36.44C114.781 36.584 114.567 36.7093 114.343 36.816C114.125 36.9173 113.89 36.9947 113.639 37.048C113.389 37.1013 113.111 37.128 112.807 37.128C112.487 37.128 112.186 37.0853 111.903 37C111.626 36.9093 111.383 36.7733 111.175 36.592C110.967 36.4107 110.802 36.184 110.679 35.912C110.562 35.64 110.503 35.3227 110.503 34.96C110.503 34.64 110.589 34.3333 110.759 34.04C110.935 33.7413 111.218 33.4747 111.607 33.24C112.002 33.0053 112.514 32.8133 113.143 32.664C113.778 32.5147 114.557 32.4293 115.479 32.408V31.816C115.479 31.2027 115.349 30.744 115.087 30.44C114.826 30.136 114.442 29.984 113.935 29.984C113.594 29.984 113.306 30.0267 113.071 30.112C112.842 30.1973 112.642 30.2933 112.471 30.4C112.306 30.5013 112.159 30.5947 112.031 30.68C111.909 30.7653 111.781 30.808 111.647 30.808C111.541 30.808 111.447 30.7787 111.367 30.72C111.293 30.6613 111.231 30.592 111.183 30.512L110.903 30.008ZM120.56 30C120.736 29.8133 120.92 29.6427 121.112 29.488C121.304 29.3333 121.506 29.2027 121.72 29.096C121.938 28.984 122.17 28.8987 122.416 28.84C122.666 28.776 122.933 28.744 123.216 28.744C123.664 28.744 124.056 28.8187 124.392 28.968C124.733 29.1173 125.018 29.328 125.248 29.6C125.477 29.8667 125.65 30.1893 125.768 30.568C125.885 30.9467 125.944 31.3653 125.944 31.824V37H124.376V31.824C124.376 31.2427 124.242 30.792 123.976 30.472C123.709 30.1467 123.301 29.984 122.752 29.984C122.352 29.984 121.976 30.08 121.624 30.272C121.277 30.4587 120.954 30.7147 120.656 31.04V37H119.096V28.872H120.032C120.25 28.872 120.386 28.976 120.44 29.184L120.56 30ZM129.681 28.872V37H128.121V28.872H129.681ZM129.977 26.36C129.977 26.504 129.947 26.6427 129.889 26.776C129.83 26.904 129.75 27.0187 129.649 27.12C129.553 27.216 129.438 27.2933 129.305 27.352C129.171 27.4053 129.033 27.432 128.889 27.432C128.745 27.432 128.609 27.4053 128.481 27.352C128.353 27.2933 128.238 27.216 128.137 27.12C128.041 27.0187 127.963 26.904 127.905 26.776C127.851 26.6427 127.825 26.504 127.825 26.36C127.825 26.2107 127.851 26.072 127.905 25.944C127.963 25.8107 128.041 25.696 128.137 25.6C128.238 25.4987 128.353 25.4213 128.481 25.368C128.609 25.3093 128.745 25.28 128.889 25.28C129.033 25.28 129.171 25.3093 129.305 25.368C129.438 25.4213 129.553 25.4987 129.649 25.6C129.75 25.696 129.83 25.8107 129.889 25.944C129.947 26.072 129.977 26.2107 129.977 26.36ZM136.307 33.392C135.673 33.4133 135.134 33.464 134.691 33.544C134.249 33.6187 133.889 33.72 133.611 33.848C133.334 33.976 133.134 34.128 133.011 34.304C132.889 34.4747 132.827 34.6667 132.827 34.88C132.827 35.0827 132.859 35.2587 132.923 35.408C132.993 35.552 133.083 35.672 133.195 35.768C133.313 35.8587 133.449 35.9253 133.603 35.968C133.758 36.0107 133.926 36.032 134.107 36.032C134.347 36.032 134.566 36.008 134.763 35.96C134.966 35.912 135.155 35.8453 135.331 35.76C135.507 35.6693 135.675 35.56 135.835 35.432C135.995 35.304 136.153 35.1573 136.307 34.992V33.392ZM131.731 30.008C132.185 29.576 132.675 29.2533 133.203 29.04C133.737 28.8267 134.321 28.72 134.955 28.72C135.419 28.72 135.83 28.7973 136.187 28.952C136.545 29.1013 136.846 29.312 137.091 29.584C137.337 29.856 137.521 30.1813 137.643 30.56C137.771 30.9387 137.835 31.3573 137.835 31.816V37H137.139C136.985 37 136.867 36.976 136.787 36.928C136.707 36.8747 136.643 36.7787 136.595 36.64L136.427 35.928C136.219 36.12 136.014 36.2907 135.811 36.44C135.609 36.584 135.395 36.7093 135.171 36.816C134.953 36.9173 134.718 36.9947 134.467 37.048C134.217 37.1013 133.939 37.128 133.635 37.128C133.315 37.128 133.014 37.0853 132.731 37C132.454 36.9093 132.211 36.7733 132.003 36.592C131.795 36.4107 131.63 36.184 131.507 35.912C131.39 35.64 131.331 35.3227 131.331 34.96C131.331 34.64 131.417 34.3333 131.587 34.04C131.763 33.7413 132.046 33.4747 132.435 33.24C132.83 33.0053 133.342 32.8133 133.971 32.664C134.606 32.5147 135.385 32.4293 136.307 32.408V31.816C136.307 31.2027 136.177 30.744 135.915 30.44C135.654 30.136 135.27 29.984 134.763 29.984C134.422 29.984 134.134 30.0267 133.899 30.112C133.67 30.1973 133.47 30.2933 133.299 30.4C133.134 30.5013 132.987 30.5947 132.859 30.68C132.737 30.7653 132.609 30.808 132.475 30.808C132.369 30.808 132.275 30.7787 132.195 30.72C132.121 30.6613 132.059 30.592 132.011 30.512L131.731 30.008Z" fill="#142032"/>
<circle cx="163.953" cy="31" r="13.3754" fill="#AD1AC7"/>
</g>
<defs>
<filter id="filter0_d_791_1374" x="0" y="0" width="212" height="78" filterUnits="userSpaceOnUse" color-interpolation-filters="sRGB">
<feFlood flood-opacity="0" result="BackgroundImageFix"/>
<feColorMatrix in="SourceAlpha" type="matrix" values="0 0 0 0 0 0 0 0 0 0 0 0 0 0 0 0 0 0 127 0" result="hardAlpha"/>
<feOffset dx="3" dy="8"/>
<feGaussianBlur stdDeviation="8"/>
<feColorMatrix type="matrix" values="0 0 0 0 0.282353 0 0 0 0 0 0 0 0 0 0.584314 0 0 0 0.15 0"/>
<feBlend mode="normal" in2="BackgroundImageFix" result="effect1_dropShadow_791_1374"/>
<feBlend mode="normal" in="SourceGraphic" in2="effect1_dropShadow_791_1374" result="shape"/>
</filter>
</defs>
</svg>
