<svg width="123" height="26" viewBox="0 0 123 26" fill="none" xmlns="http://www.w3.org/2000/svg">
<path d="M6.402 16.052L6.396 17H1.098V8.402H6.396V9.35H2.262V12.206H5.61V13.118H2.262V16.052H6.402ZM7.60772 17V10.922H8.24972C8.40172 10.922 8.49572 10.996 8.53172 11.144L8.60972 11.768C8.83372 11.492 9.08572 11.266 9.36572 11.09C9.64572 10.914 9.96972 10.826 10.3377 10.826C10.7457 10.826 11.0757 10.94 11.3277 11.168C11.5837 11.396 11.7677 11.704 11.8797 12.092C11.9677 11.872 12.0797 11.682 12.2157 11.522C12.3557 11.362 12.5117 11.23 12.6837 11.126C12.8557 11.022 13.0377 10.946 13.2297 10.898C13.4257 10.85 13.6237 10.826 13.8237 10.826C14.1437 10.826 14.4277 10.878 14.6757 10.982C14.9277 11.082 15.1397 11.23 15.3117 11.426C15.4877 11.622 15.6217 11.864 15.7137 12.152C15.8057 12.436 15.8517 12.762 15.8517 13.13V17H14.7777V13.13C14.7777 12.654 14.6737 12.294 14.4657 12.05C14.2577 11.802 13.9577 11.678 13.5657 11.678C13.3897 11.678 13.2217 11.71 13.0617 11.774C12.9057 11.834 12.7677 11.924 12.6477 12.044C12.5277 12.164 12.4317 12.316 12.3597 12.5C12.2917 12.68 12.2577 12.89 12.2577 13.13V17H11.1837V13.13C11.1837 12.642 11.0857 12.278 10.8897 12.038C10.6937 11.798 10.4077 11.678 10.0317 11.678C9.76772 11.678 9.52372 11.75 9.29972 11.894C9.07572 12.034 8.86972 12.226 8.68172 12.47V17H7.60772ZM18.5489 15.536C18.7449 15.8 18.9589 15.986 19.1909 16.094C19.4229 16.202 19.6829 16.256 19.9709 16.256C20.5389 16.256 20.9749 16.054 21.2789 15.65C21.5829 15.246 21.7349 14.67 21.7349 13.922C21.7349 13.526 21.6989 13.186 21.6269 12.902C21.5589 12.618 21.4589 12.386 21.3269 12.206C21.1949 12.022 21.0329 11.888 20.8409 11.804C20.6489 11.72 20.4309 11.678 20.1869 11.678C19.8389 11.678 19.5329 11.758 19.2689 11.918C19.0089 12.078 18.7689 12.304 18.5489 12.596V15.536ZM18.4949 11.864C18.7509 11.548 19.0469 11.294 19.3829 11.102C19.7189 10.91 20.1029 10.814 20.5349 10.814C20.8869 10.814 21.2049 10.882 21.4889 11.018C21.7729 11.15 22.0149 11.348 22.2149 11.612C22.4149 11.872 22.5689 12.196 22.6769 12.584C22.7849 12.972 22.8389 13.418 22.8389 13.922C22.8389 14.37 22.7789 14.788 22.6589 15.176C22.5389 15.56 22.3649 15.894 22.1369 16.178C21.9129 16.458 21.6369 16.68 21.3089 16.844C20.9849 17.004 20.6189 17.084 20.2109 17.084C19.8389 17.084 19.5189 17.022 19.2509 16.898C18.9869 16.77 18.7529 16.594 18.5489 16.37V19.058H17.4749V10.922H18.1169C18.2689 10.922 18.3629 10.996 18.3989 11.144L18.4949 11.864ZM26.7635 10.826C27.2075 10.826 27.6075 10.9 27.9635 11.048C28.3195 11.196 28.6235 11.406 28.8755 11.678C29.1275 11.95 29.3195 12.28 29.4515 12.668C29.5875 13.052 29.6555 13.482 29.6555 13.958C29.6555 14.438 29.5875 14.87 29.4515 15.254C29.3195 15.638 29.1275 15.966 28.8755 16.238C28.6235 16.51 28.3195 16.72 27.9635 16.868C27.6075 17.012 27.2075 17.084 26.7635 17.084C26.3155 17.084 25.9115 17.012 25.5515 16.868C25.1955 16.72 24.8915 16.51 24.6395 16.238C24.3875 15.966 24.1935 15.638 24.0575 15.254C23.9255 14.87 23.8595 14.438 23.8595 13.958C23.8595 13.482 23.9255 13.052 24.0575 12.668C24.1935 12.28 24.3875 11.95 24.6395 11.678C24.8915 11.406 25.1955 11.196 25.5515 11.048C25.9115 10.9 26.3155 10.826 26.7635 10.826ZM26.7635 16.25C27.3635 16.25 27.8115 16.05 28.1075 15.65C28.4035 15.246 28.5515 14.684 28.5515 13.964C28.5515 13.24 28.4035 12.676 28.1075 12.272C27.8115 11.868 27.3635 11.666 26.7635 11.666C26.4595 11.666 26.1935 11.718 25.9655 11.822C25.7415 11.926 25.5535 12.076 25.4015 12.272C25.2535 12.468 25.1415 12.71 25.0655 12.998C24.9935 13.282 24.9575 13.604 24.9575 13.964C24.9575 14.684 25.1055 15.246 25.4015 15.65C25.7015 16.05 26.1555 16.25 26.7635 16.25ZM39.2983 10.922L37.3303 17H36.4843C36.3803 17 36.3083 16.932 36.2683 16.796L34.9243 12.674C34.8923 12.582 34.8663 12.49 34.8463 12.398C34.8263 12.302 34.8063 12.208 34.7863 12.116C34.7663 12.208 34.7463 12.302 34.7263 12.398C34.7063 12.49 34.6803 12.584 34.6483 12.68L33.2803 16.796C33.2443 16.932 33.1643 17 33.0403 17H32.2363L30.2683 10.922H31.1083C31.1923 10.922 31.2623 10.944 31.3183 10.988C31.3783 11.032 31.4183 11.084 31.4383 11.144L32.6023 15.056C32.6703 15.344 32.7243 15.616 32.7643 15.872C32.8003 15.74 32.8363 15.606 32.8723 15.47C32.9123 15.334 32.9543 15.196 32.9983 15.056L34.2823 11.12C34.3023 11.06 34.3363 11.01 34.3843 10.97C34.4363 10.93 34.4983 10.91 34.5703 10.91H35.0383C35.1183 10.91 35.1843 10.93 35.2363 10.97C35.2883 11.01 35.3243 11.06 35.3443 11.12L36.5983 15.056C36.6423 15.196 36.6823 15.334 36.7183 15.47C36.7543 15.606 36.7883 15.74 36.8203 15.872C36.8403 15.74 36.8643 15.608 36.8923 15.476C36.9243 15.34 36.9583 15.2 36.9943 15.056L38.1823 11.144C38.2023 11.08 38.2403 11.028 38.2963 10.988C38.3523 10.944 38.4183 10.922 38.4943 10.922H39.2983ZM44.3242 13.298C44.3242 13.05 44.2882 12.824 44.2162 12.62C44.1482 12.412 44.0462 12.234 43.9102 12.086C43.7782 11.934 43.6162 11.818 43.4242 11.738C43.2322 11.654 43.0142 11.612 42.7702 11.612C42.2582 11.612 41.8522 11.762 41.5522 12.062C41.2562 12.358 41.0722 12.77 41.0002 13.298H44.3242ZM45.1882 16.148C45.0562 16.308 44.8982 16.448 44.7142 16.568C44.5302 16.684 44.3322 16.78 44.1202 16.856C43.9122 16.932 43.6962 16.988 43.4722 17.024C43.2482 17.064 43.0262 17.084 42.8062 17.084C42.3862 17.084 41.9982 17.014 41.6422 16.874C41.2902 16.73 40.9842 16.522 40.7242 16.25C40.4682 15.974 40.2682 15.634 40.1242 15.23C39.9802 14.826 39.9082 14.362 39.9082 13.838C39.9082 13.414 39.9722 13.018 40.1002 12.65C40.2322 12.282 40.4202 11.964 40.6642 11.696C40.9082 11.424 41.2062 11.212 41.5582 11.06C41.9102 10.904 42.3062 10.826 42.7462 10.826C43.1102 10.826 43.4462 10.888 43.7542 11.012C44.0662 11.132 44.3342 11.308 44.5582 11.54C44.7862 11.768 44.9642 12.052 45.0922 12.392C45.2202 12.728 45.2842 13.112 45.2842 13.544C45.2842 13.712 45.2662 13.824 45.2302 13.88C45.1942 13.936 45.1262 13.964 45.0262 13.964H40.9642C40.9762 14.348 41.0282 14.682 41.1202 14.966C41.2162 15.25 41.3482 15.488 41.5162 15.68C41.6842 15.868 41.8842 16.01 42.1162 16.106C42.3482 16.198 42.6082 16.244 42.8962 16.244C43.1642 16.244 43.3942 16.214 43.5862 16.154C43.7822 16.09 43.9502 16.022 44.0902 15.95C44.2302 15.878 44.3462 15.812 44.4382 15.752C44.5342 15.688 44.6162 15.656 44.6842 15.656C44.7722 15.656 44.8402 15.69 44.8882 15.758L45.1882 16.148ZM47.61 12.14C47.802 11.724 48.038 11.4 48.318 11.168C48.598 10.932 48.94 10.814 49.344 10.814C49.472 10.814 49.594 10.828 49.71 10.856C49.83 10.884 49.936 10.928 50.028 10.988L49.95 11.786C49.926 11.886 49.866 11.936 49.77 11.936C49.714 11.936 49.632 11.924 49.524 11.9C49.416 11.876 49.294 11.864 49.158 11.864C48.966 11.864 48.794 11.892 48.642 11.948C48.494 12.004 48.36 12.088 48.24 12.2C48.124 12.308 48.018 12.444 47.922 12.608C47.83 12.768 47.746 12.952 47.67 13.16V17H46.596V10.922H47.208C47.324 10.922 47.404 10.944 47.448 10.988C47.492 11.032 47.522 11.108 47.538 11.216L47.61 12.14ZM54.789 13.298C54.789 13.05 54.753 12.824 54.681 12.62C54.613 12.412 54.511 12.234 54.375 12.086C54.243 11.934 54.081 11.818 53.889 11.738C53.697 11.654 53.479 11.612 53.235 11.612C52.723 11.612 52.317 11.762 52.017 12.062C51.721 12.358 51.537 12.77 51.465 13.298H54.789ZM55.653 16.148C55.521 16.308 55.363 16.448 55.179 16.568C54.995 16.684 54.797 16.78 54.585 16.856C54.377 16.932 54.161 16.988 53.937 17.024C53.713 17.064 53.491 17.084 53.271 17.084C52.851 17.084 52.463 17.014 52.107 16.874C51.755 16.73 51.449 16.522 51.189 16.25C50.933 15.974 50.733 15.634 50.589 15.23C50.445 14.826 50.373 14.362 50.373 13.838C50.373 13.414 50.437 13.018 50.565 12.65C50.697 12.282 50.885 11.964 51.129 11.696C51.373 11.424 51.671 11.212 52.023 11.06C52.375 10.904 52.771 10.826 53.211 10.826C53.575 10.826 53.911 10.888 54.219 11.012C54.531 11.132 54.799 11.308 55.023 11.54C55.251 11.768 55.429 12.052 55.557 12.392C55.685 12.728 55.749 13.112 55.749 13.544C55.749 13.712 55.731 13.824 55.695 13.88C55.659 13.936 55.591 13.964 55.491 13.964H51.429C51.441 14.348 51.493 14.682 51.585 14.966C51.681 15.25 51.813 15.488 51.981 15.68C52.149 15.868 52.349 16.01 52.581 16.106C52.813 16.198 53.073 16.244 53.361 16.244C53.629 16.244 53.859 16.214 54.051 16.154C54.247 16.09 54.415 16.022 54.555 15.95C54.695 15.878 54.811 15.812 54.903 15.752C54.999 15.688 55.081 15.656 55.149 15.656C55.237 15.656 55.305 15.69 55.353 15.758L55.653 16.148ZM61.0208 12.368C60.8208 12.1 60.6048 11.914 60.3728 11.81C60.1408 11.702 59.8808 11.648 59.5928 11.648C59.0288 11.648 58.5948 11.85 58.2908 12.254C57.9868 12.658 57.8348 13.234 57.8348 13.982C57.8348 14.378 57.8688 14.718 57.9368 15.002C58.0048 15.282 58.1048 15.514 58.2368 15.698C58.3688 15.878 58.5308 16.01 58.7228 16.094C58.9148 16.178 59.1328 16.22 59.3768 16.22C59.7288 16.22 60.0348 16.14 60.2948 15.98C60.5588 15.82 60.8008 15.594 61.0208 15.302V12.368ZM62.0888 8.162V17H61.4528C61.3008 17 61.2048 16.926 61.1648 16.778L61.0688 16.04C60.8088 16.352 60.5128 16.604 60.1808 16.796C59.8488 16.988 59.4648 17.084 59.0288 17.084C58.6808 17.084 58.3648 17.018 58.0808 16.886C57.7968 16.75 57.5548 16.552 57.3548 16.292C57.1548 16.032 57.0008 15.708 56.8928 15.32C56.7848 14.932 56.7308 14.486 56.7308 13.982C56.7308 13.534 56.7908 13.118 56.9108 12.734C57.0308 12.346 57.2028 12.01 57.4268 11.726C57.6508 11.442 57.9248 11.22 58.2488 11.06C58.5768 10.896 58.9448 10.814 59.3528 10.814C59.7248 10.814 60.0428 10.878 60.3068 11.006C60.5748 11.13 60.8128 11.304 61.0208 11.528V8.162H62.0888ZM67.92 15.536C68.116 15.8 68.33 15.986 68.562 16.094C68.798 16.202 69.056 16.256 69.336 16.256C69.908 16.256 70.346 16.054 70.65 15.65C70.954 15.246 71.106 14.644 71.106 13.844C71.106 13.1 70.97 12.554 70.698 12.206C70.43 11.854 70.046 11.678 69.546 11.678C69.198 11.678 68.894 11.758 68.634 11.918C68.378 12.078 68.14 12.304 67.92 12.596V15.536ZM67.92 11.798C68.176 11.502 68.464 11.266 68.784 11.09C69.108 10.914 69.48 10.826 69.9 10.826C70.256 10.826 70.576 10.894 70.86 11.03C71.148 11.166 71.392 11.364 71.592 11.624C71.792 11.88 71.944 12.192 72.048 12.56C72.156 12.928 72.21 13.342 72.21 13.802C72.21 14.294 72.15 14.742 72.03 15.146C71.91 15.55 71.736 15.896 71.508 16.184C71.284 16.468 71.01 16.69 70.686 16.85C70.362 17.006 69.998 17.084 69.594 17.084C69.194 17.084 68.856 17.01 68.58 16.862C68.308 16.71 68.07 16.496 67.866 16.22L67.812 16.772C67.78 16.924 67.688 17 67.536 17H66.846V8.162H67.92V11.798ZM78.6525 10.922L75.2625 18.794C75.2265 18.874 75.1805 18.938 75.1245 18.986C75.0725 19.034 74.9905 19.058 74.8785 19.058H74.0865L75.1965 16.646L72.6885 10.922H73.6125C73.7045 10.922 73.7765 10.946 73.8285 10.994C73.8845 11.038 73.9225 11.088 73.9425 11.144L75.5685 14.972C75.6325 15.14 75.6865 15.316 75.7305 15.5C75.7865 15.312 75.8465 15.134 75.9105 14.966L77.4885 11.144C77.5125 11.08 77.5525 11.028 77.6085 10.988C77.6685 10.944 77.7345 10.922 77.8065 10.922H78.6525Z" fill="white"/>
<path d="M109.525 12.0163H110.803V16.2458C110.803 16.3442 110.902 16.3442 110.902 16.3442H111.885C111.984 16.3442 111.984 16.2458 111.984 16.2458V12.0163H113.262C113.361 12.0163 113.459 11.918 113.459 11.918V11.1311C113.459 11.0327 113.361 11.0327 113.262 11.0327H109.525C109.426 11.0327 109.426 11.1311 109.426 11.1311V11.918C109.426 11.918 109.525 12.0163 109.525 12.0163Z" fill="white"/>
<path d="M115.82 16.4425C116.607 16.4425 117 16.3442 117.295 16.3442C117.393 16.3442 117.393 16.2458 117.393 16.1474V15.5573C117.393 15.4589 117.295 15.4589 117.295 15.4589H115.721C115.328 15.4589 115.23 15.3606 115.23 14.9671V14.0819H117.197C117.295 14.0819 117.295 13.9835 117.295 13.9835V13.295C117.295 13.1966 117.197 13.1966 117.197 13.1966H115.23V12.5081C115.23 12.1147 115.328 12.0163 115.721 12.0163H117.295C117.393 12.0163 117.393 11.9179 117.393 11.9179V11.131C117.393 11.0327 117.393 11.0327 117.295 11.0327C117.098 10.9343 116.607 10.9343 115.82 10.9343C114.836 10.9343 114.049 11.131 114.049 12.5081V14.8688C114.049 16.2458 114.934 16.4425 115.82 16.4425Z" fill="white"/>
<path d="M119.754 13.5903L118.18 16.246C118.18 16.246 118.18 16.246 118.18 16.3444C118.18 16.4427 118.18 16.4427 118.279 16.4427H119.361C119.459 16.4427 119.459 16.3444 119.557 16.3444L120.541 14.6723L121.525 16.246C121.623 16.3444 121.623 16.3444 121.721 16.3444H122.902C123 16.3444 123 16.3444 123 16.246V16.1477L121.328 13.4919L122.902 10.9345C122.902 10.8362 122.803 10.8362 122.803 10.8362H121.721C121.623 10.9345 121.525 11.0329 121.525 11.1313L120.639 12.6067L119.656 11.1313C119.656 11.0329 119.557 10.9345 119.459 10.9345H118.279C118.18 10.9345 118.18 10.9345 118.18 11.0329L119.754 13.5903Z" fill="white"/>
<path d="M105.295 15.6557C105.492 16.1475 105.885 16.4426 106.475 16.4426C106.967 16.4426 107.459 16.1475 107.656 15.6557C107.656 15.5573 108.934 11.1311 108.934 11.1311C108.934 11.0327 108.934 11.0327 108.836 11.0327H107.754C107.656 11.0327 107.656 11.0327 107.656 11.1311L106.574 15.0655C106.574 15.1639 106.574 15.1639 106.475 15.1639C106.377 15.1639 106.377 15.1639 106.377 15.0655L105.295 11.1311C105.295 11.0327 105.197 11.0327 105.197 11.0327H104.115C104.016 11.0327 104.016 11.1311 104.016 11.1311C103.918 11.1311 105.197 15.6557 105.295 15.6557Z" fill="white"/>
<path d="M101.164 7H89.7541C88.8689 7 88.2787 7.98361 88.6721 8.77049L89.8525 10.9344H87.7869C87.3934 10.9344 87 11.2295 87 11.7213C87.0984 11.7213 87.0984 11.918 87.0984 12.0164L90.7377 19C90.9344 19.3935 91.4262 19.4918 91.7213 19.2951C91.8197 19.1967 91.918 19.0984 92.0164 19L93 17.1312L94.2787 19.4918C94.6721 20.2787 95.9508 20.2787 96.3443 19.4918L102.049 8.77049C102.639 7.88525 102.049 7 101.164 7ZM96.0492 11.623L93.5902 16.2459C93.4918 16.541 93.1967 16.541 92.9016 16.4426C92.8033 16.4426 92.7049 16.3443 92.7049 16.2459L90.2459 11.623C90.1475 11.3279 90.2459 11.0328 90.4426 10.9344C90.541 10.9344 90.6393 10.8361 90.6393 10.8361H95.5574C95.8525 10.8361 96.0492 11.0328 96.0492 11.3279C96.1475 11.4262 96.1475 11.5246 96.0492 11.623Z" fill="white"/>
</svg>
