<svg width="56" height="56" viewBox="0 0 56 56" fill="none" xmlns="http://www.w3.org/2000/svg">
<path fill-rule="evenodd" clip-rule="evenodd" d="M44.3773 5.49551C45.0585 5.06958 45.8466 4.84604 46.65 4.85094C47.2198 4.85016 47.7843 4.96174 48.311 5.17928C48.8377 5.39682 49.3163 5.71606 49.7195 6.11874C50.1228 6.52142 50.4427 6.99964 50.6609 7.52605C50.8792 8.05246 50.9915 8.61673 50.9915 9.1866C50.9947 9.97088 50.7818 10.7409 50.3763 11.4122L50.3959 11.4279C53.9065 16.2196 55.7861 22.0116 55.7582 27.9516C55.7584 31.6126 55.0376 35.2379 53.6367 38.6203C52.2359 42.0027 50.1825 45.0761 47.5938 47.665C45.0052 50.2538 41.932 52.3074 38.5496 53.7085C35.1673 55.1096 31.5421 55.8307 27.881 55.8307C20.4869 55.8307 13.3955 52.8935 8.16686 47.6652C2.93821 42.4369 0.000519582 35.3458 0 27.9516C0.000257274 24.2905 0.721623 20.6652 2.12292 17.2829C3.52421 13.9005 5.57799 10.8273 8.16698 8.23867C10.756 5.65004 13.8295 3.5967 17.212 2.19588C20.5946 0.795065 24.2199 0.0742057 27.881 0.074463C33.8175 0.0739737 39.5983 1.97367 44.3773 5.49551" fill="white"/>
<path fill-rule="evenodd" clip-rule="evenodd" d="M48.1371 13.2461C47.6509 13.4233 47.1381 13.5167 46.6207 13.5223C45.4775 13.5223 44.3812 13.0682 43.5729 12.2599C42.7646 11.4516 42.3105 10.3553 42.3105 9.21213C42.31 8.6922 42.4036 8.17647 42.5867 7.68985C38.31 4.57357 33.1531 2.89806 27.8615 2.90554C21.2202 2.90762 14.8516 5.54692 10.1556 10.2432C5.4597 14.9395 2.82089 21.3084 2.81934 27.9497C2.81934 34.5929 5.45833 40.9639 10.1558 45.6614C14.8532 50.3588 21.2242 52.9978 27.8674 52.9978C34.5108 52.9978 40.882 50.3589 45.5798 45.6615C50.2775 40.9641 52.9169 34.5931 52.9175 27.9497C52.9189 22.6663 51.2453 17.5185 48.1371 13.2461" fill="#4DB852"/>
<path d="M44.3264 9.16894C44.3264 8.54107 44.5757 7.9389 45.0195 7.49475C45.4633 7.0506 46.0652 6.80081 46.6931 6.80029C47.0043 6.80004 47.3125 6.86111 47.6001 6.98003C47.8877 7.09895 48.1491 7.27339 48.3693 7.49336C48.5894 7.71334 48.7641 7.97454 48.8832 8.26205C49.0024 8.54955 49.0637 8.85772 49.0637 9.16894C49.0637 9.48007 49.0024 9.78814 48.8832 10.0755C48.764 10.3629 48.5893 10.624 48.3691 10.8438C48.149 11.0636 47.8876 11.2379 47.6 11.3566C47.3124 11.4753 47.0042 11.5361 46.6931 11.5356C46.0654 11.5356 45.4634 11.2863 45.0196 10.8424C44.5758 10.3986 44.3264 9.79662 44.3264 9.16894" fill="#4DB852"/>
<path fill-rule="evenodd" clip-rule="evenodd" d="M15.6755 42.3986C15.8209 42.2505 15.9958 42.1343 16.1888 42.0577C16.3753 41.9811 16.5749 41.9412 16.7765 41.9402C16.9783 41.9396 17.1782 41.9796 17.3643 42.0577C17.5602 42.1332 17.7378 42.2494 17.8854 42.3986L18.1009 42.6141L17.6699 43.051L17.4485 42.8355C17.3591 42.7454 17.2525 42.6741 17.1351 42.6259C17.0226 42.5819 16.9031 42.5587 16.7824 42.5573C16.661 42.5587 16.5409 42.5819 16.4278 42.6259C16.3106 42.6746 16.2041 42.7458 16.1143 42.8355C16.0247 42.922 15.954 43.026 15.9067 43.1412C15.8619 43.2534 15.8386 43.373 15.8381 43.4938C15.8385 43.6153 15.8617 43.7356 15.9067 43.8484C15.9544 43.9651 16.025 44.071 16.1143 44.1599C16.2005 44.2499 16.3043 44.321 16.4193 44.3689C16.5343 44.4168 16.6579 44.4403 16.7824 44.4381C16.9058 44.438 17.0281 44.4147 17.1429 44.3696C17.2585 44.3222 17.3627 44.2507 17.4485 44.1599L17.6699 43.9444L18.1009 44.3833L17.8854 44.5988C17.737 44.7485 17.5597 44.8665 17.3643 44.9456C17.1773 45.0202 16.9778 45.0581 16.7765 45.0572C16.5754 45.0562 16.3762 45.0183 16.1888 44.9456C15.9958 44.8635 15.8213 44.7436 15.6755 44.5929C15.5279 44.4474 15.4124 44.2725 15.3365 44.0796C15.2622 43.8926 15.2242 43.6931 15.2249 43.4919C15.2248 43.2907 15.2627 43.0913 15.3365 42.9041C15.4119 42.711 15.5274 42.536 15.6755 42.3908" fill="white"/>
<path fill-rule="evenodd" clip-rule="evenodd" d="M20.7731 43.9601L21.212 44.397L20.9965 44.6125C20.8522 44.7588 20.6795 44.8742 20.489 44.9514C20.3033 45.0309 20.1034 45.0722 19.9013 45.0729C19.6953 45.0733 19.4914 45.032 19.3018 44.9514C19.1122 44.8737 18.9402 44.7584 18.7963 44.6125C18.6481 44.4674 18.5326 44.2924 18.4574 44.0992C18.3843 43.9118 18.3464 43.7125 18.3457 43.5114C18.3453 43.3102 18.3832 43.1107 18.4574 42.9237C18.5326 42.7304 18.6481 42.5554 18.7963 42.4104C18.9421 42.2626 19.1169 42.1466 19.3096 42.0695C19.4961 41.9928 19.6957 41.9529 19.8974 41.9519C20.0991 41.9517 20.2989 41.9917 20.4851 42.0695C20.6804 42.145 20.8574 42.2612 21.0043 42.4104L21.2198 42.6239L19.4918 44.3539C19.663 44.44 19.8566 44.4715 20.0463 44.444C20.2444 44.4118 20.427 44.317 20.5674 44.1736L20.7731 43.9601ZM19.2273 42.8414C19.1378 42.9278 19.0669 43.0317 19.0191 43.1466C18.9712 43.2615 18.9474 43.385 18.9491 43.5095C18.9485 43.6516 18.9814 43.7919 19.0451 43.9189L19.2939 43.6681C19.4115 43.5545 19.533 43.435 19.6564 43.3077C19.7798 43.1803 19.9091 43.0569 20.0247 42.9393C20.1403 42.8218 20.2363 42.7434 20.301 42.669C20.1271 42.5823 19.9309 42.5508 19.7387 42.5788C19.5435 42.6062 19.3633 42.6987 19.2273 42.8414" fill="white"/>
<path fill-rule="evenodd" clip-rule="evenodd" d="M21.408 43.5036C21.4067 43.2961 21.4466 43.0903 21.5255 42.8983C21.6056 42.7148 21.7185 42.5475 21.8586 42.4045C22.0024 42.2618 22.1728 42.1486 22.3601 42.0715C22.5506 41.989 22.7561 41.947 22.9636 41.9481C23.1718 41.9462 23.3781 41.9882 23.569 42.0715C23.7554 42.1482 23.9246 42.2614 24.0666 42.4045C24.211 42.5443 24.3251 42.7124 24.4016 42.8983C24.4851 43.0891 24.5271 43.2954 24.525 43.5036V45.071H23.9079V43.5036C23.9089 43.3787 23.8828 43.2551 23.8315 43.1412C23.7893 43.0285 23.7224 42.9267 23.6356 42.8434C23.5524 42.7564 23.4506 42.6894 23.3378 42.6475C23.2217 42.5965 23.0962 42.5705 22.9694 42.5711C22.8427 42.5705 22.7172 42.5965 22.6011 42.6475C22.4896 42.6918 22.3882 42.7585 22.3033 42.8434C22.2204 42.9299 22.154 43.0308 22.1074 43.1412C22.0604 43.2562 22.0371 43.3795 22.0388 43.5036V45.071H21.4197L21.408 43.5036Z" fill="white"/>
<path fill-rule="evenodd" clip-rule="evenodd" d="M25.1775 42.3986C25.3222 42.2505 25.4964 42.1344 25.6888 42.0577C25.8753 41.9811 26.0749 41.9412 26.2766 41.9402C26.4783 41.94 26.6781 41.98 26.8643 42.0577C27.0598 42.1328 27.2369 42.2491 27.3835 42.3986L27.599 42.6141L27.1699 43.051L26.9485 42.8355C26.8588 42.7458 26.7523 42.6745 26.6351 42.6259C26.5219 42.5821 26.4018 42.5588 26.2805 42.5573C26.1597 42.5585 26.0402 42.5817 25.9278 42.6259C25.8101 42.6736 25.7034 42.7449 25.6143 42.8355C25.5241 42.9214 25.4533 43.0256 25.4067 43.1412C25.361 43.2531 25.3377 43.3729 25.3381 43.4938C25.3375 43.6154 25.3608 43.7358 25.4067 43.8484C25.4537 43.9655 25.5244 44.0715 25.6143 44.1599C25.7001 44.2499 25.8035 44.3211 25.9182 44.369C26.0329 44.4169 26.1562 44.4404 26.2805 44.4381C26.4045 44.4379 26.5274 44.4147 26.6429 44.3696C26.758 44.3212 26.862 44.2499 26.9485 44.1599L27.1699 43.9444L27.599 44.3833L27.3835 44.5988C27.2361 44.7488 27.0594 44.8669 26.8643 44.9456C26.6772 45.0196 26.4778 45.0575 26.2766 45.0572C26.0755 45.0561 25.8763 45.0183 25.6888 44.9456C25.4965 44.8633 25.3227 44.7434 25.1775 44.5929C25.0293 44.4474 24.9132 44.2726 24.8366 44.0796C24.7626 43.8925 24.7254 43.693 24.7268 43.4919C24.7261 43.2908 24.7634 43.0914 24.8366 42.9041C24.9137 42.7137 25.0298 42.5415 25.1775 42.3986" fill="white"/>
<path fill-rule="evenodd" clip-rule="evenodd" d="M27.834 43.5093C27.8328 43.3015 27.8734 43.0956 27.9535 42.9039C28.0327 42.7206 28.1457 42.5537 28.2866 42.4122C28.4296 42.2694 28.5994 42.1563 28.7862 42.0791C28.9762 41.9952 29.1819 41.9525 29.3896 41.9537C29.5975 41.9513 29.8034 41.9941 29.993 42.0791C30.1806 42.1558 30.3511 42.269 30.4946 42.4122C30.638 42.5517 30.7513 42.719 30.8276 42.9039C30.9116 43.0946 30.9543 43.3009 30.953 43.5093C30.9533 43.7169 30.9106 43.9224 30.8276 44.1127C30.7509 44.2997 30.6377 44.4696 30.4946 44.6123C30.351 44.7568 30.1807 44.8719 29.993 44.9513C29.8024 45.0325 29.5969 45.0732 29.3896 45.0708C29.1825 45.072 28.9772 45.0314 28.7862 44.9513C28.5995 44.8712 28.4299 44.7562 28.2866 44.6123C28.146 44.4675 28.0331 44.2982 27.9535 44.1127C27.8742 43.9215 27.8336 43.7164 27.834 43.5093ZM28.4453 43.5093C28.4444 43.6349 28.4684 43.7594 28.5158 43.8757C28.5629 43.9881 28.6292 44.0916 28.7117 44.1813C28.8005 44.2651 28.9042 44.3315 29.0174 44.3772C29.1336 44.4246 29.2581 44.4486 29.3837 44.4477C29.5106 44.4484 29.6363 44.4245 29.754 44.3772C29.8644 44.3317 29.9648 44.2651 30.0498 44.1813C30.1356 44.094 30.2023 43.99 30.2458 43.8757C30.2969 43.7603 30.323 43.6355 30.3222 43.5093C30.3236 43.3843 30.2975 43.2606 30.2458 43.1469C30.2036 43.0347 30.1366 42.9336 30.0498 42.851C29.9675 42.764 29.8663 42.6969 29.754 42.6551C29.6376 42.6028 29.5113 42.576 29.3837 42.5767C29.2573 42.5756 29.1322 42.6024 29.0174 42.6551C28.9024 42.6974 28.7981 42.7642 28.7117 42.851C28.6281 42.9362 28.5616 43.0366 28.5158 43.1469C28.4679 43.2616 28.4439 43.3849 28.4453 43.5093Z" fill="white"/>
<path fill-rule="evenodd" clip-rule="evenodd" d="M33.9545 41.94V42.5571H32.0737C32.0321 42.556 31.9907 42.5636 31.9523 42.5795C31.9138 42.5953 31.8791 42.6191 31.8503 42.6492C31.8207 42.6778 31.7974 42.7122 31.7819 42.7504C31.7664 42.7885 31.759 42.8294 31.7602 42.8706C31.7595 42.9125 31.767 42.9542 31.7825 42.9932C31.798 43.0322 31.821 43.0678 31.8503 43.0978C31.8792 43.1277 31.9139 43.1511 31.9524 43.1667C31.9909 43.1822 32.0322 43.1894 32.0737 43.188H33.3217C33.4468 43.1874 33.5704 43.2142 33.6841 43.2663C33.7955 43.3111 33.8967 43.3777 33.9819 43.4622C34.0675 43.5473 34.1342 43.6495 34.1778 43.762C34.2283 43.8748 34.2543 43.997 34.2543 44.1205C34.2541 44.2478 34.2281 44.3738 34.1778 44.4908C34.1313 44.6012 34.0649 44.7022 33.9819 44.7886C33.8955 44.8716 33.7945 44.938 33.6841 44.9845C33.5692 45.0316 33.4459 45.055 33.3217 45.0531H31.4467V44.434H33.3197C33.3619 44.4355 33.4039 44.4284 33.4433 44.4133C33.4827 44.3981 33.5186 44.3752 33.5489 44.3458C33.5788 44.3154 33.6022 44.2792 33.6177 44.2395C33.6332 44.1997 33.6405 44.1573 33.6391 44.1146C33.6402 44.0735 33.6327 44.0326 33.6172 43.9945C33.6017 43.9564 33.5784 43.9219 33.5489 43.8933C33.5187 43.8636 33.4829 43.8404 33.4435 43.8249C33.4041 43.8094 33.362 43.802 33.3197 43.8031H32.0717C31.9456 43.8036 31.8205 43.7796 31.7034 43.7326C31.5948 43.6859 31.4958 43.6195 31.4115 43.5367C31.3305 43.4486 31.2644 43.3481 31.2156 43.2389C31.1701 43.1214 31.1468 42.9965 31.147 42.8706C31.1463 42.7471 31.1696 42.6247 31.2156 42.5101C31.2625 42.3993 31.3288 42.2978 31.4115 42.2103C31.494 42.1253 31.5935 42.0586 31.7034 42.0144C31.8195 41.9634 31.945 41.9374 32.0717 41.938L33.9545 41.94Z" fill="white"/>
<path fill-rule="evenodd" clip-rule="evenodd" d="M37.5653 41.9402V43.4938C37.5676 43.7021 37.5255 43.9084 37.4419 44.0992C37.3647 44.286 37.2516 44.4557 37.1088 44.5988C36.966 44.7433 36.7963 44.8585 36.6092 44.9377C36.4185 45.0188 36.213 45.0595 36.0058 45.0572C35.798 45.0587 35.5921 45.0181 35.4004 44.9377C35.2131 44.8589 35.0433 44.7437 34.9008 44.5988C34.7607 44.4536 34.6478 44.2844 34.5678 44.0992C34.4889 43.9072 34.4489 43.7014 34.4502 43.4938V41.9402H35.0674V43.4938C35.0666 43.6198 35.0899 43.7448 35.1359 43.8621C35.1832 43.9745 35.2495 44.0779 35.3319 44.1678C35.4196 44.25 35.5211 44.3163 35.6316 44.3637C35.749 44.4095 35.8739 44.4328 35.9999 44.4323C36.1253 44.4326 36.2496 44.4094 36.3663 44.3637C36.4775 44.3187 36.5787 44.2521 36.6641 44.1678C36.7509 44.0814 36.8177 43.9771 36.86 43.8621C36.9114 43.7462 36.9374 43.6206 36.9364 43.4938V41.9402H37.5653Z" fill="white"/>
<path fill-rule="evenodd" clip-rule="evenodd" d="M40.8605 40.6921V43.4938C40.8614 43.7023 40.818 43.9087 40.7331 44.0991C40.6574 44.2867 40.5441 44.4567 40.4001 44.5987C40.2611 44.7441 40.0937 44.8595 39.9083 44.9377C39.7174 45.018 39.5121 45.0587 39.3049 45.0572C39.0971 45.0587 38.8912 45.018 38.6995 44.9377C38.5129 44.8577 38.3433 44.7426 38.1999 44.5987C38.0573 44.4544 37.9424 44.285 37.861 44.0991C37.7814 43.9073 37.7408 43.7015 37.7415 43.4938C37.7404 43.2873 37.781 43.0827 37.861 42.8923C37.9412 42.7075 38.0563 42.5398 38.1999 42.3986C38.343 42.2559 38.5127 42.1427 38.6995 42.0655C38.8902 41.9815 39.0965 41.9388 39.3049 41.9401H40.2433V40.6921H40.8605ZM39.3049 44.4381C39.4284 44.4388 39.5508 44.4155 39.6654 44.3695C39.7762 44.3238 39.8773 44.2573 39.9632 44.1736C40.05 44.0872 40.1168 43.9829 40.1591 43.868C40.2111 43.7522 40.2378 43.6266 40.2375 43.4996V42.5632H39.299C39.1723 42.5625 39.0468 42.5886 38.9307 42.6396C38.8164 42.6832 38.7124 42.7499 38.6251 42.8355C38.5411 42.9204 38.4746 43.0209 38.4291 43.1313C38.3802 43.2451 38.3555 43.3679 38.3567 43.4918C38.3553 43.6182 38.38 43.7436 38.4291 43.8601C38.4748 43.9733 38.5413 44.077 38.6251 44.1658C38.7148 44.2483 38.8182 44.3146 38.9307 44.3617C39.0481 44.4073 39.173 44.4306 39.299 44.4302" fill="white"/>
<path d="M46.2171 23.1241C46.8583 23.1208 47.4928 23.2544 48.0783 23.5159C48.6526 23.7703 49.1748 24.129 49.6182 24.5739C50.0638 25.0201 50.422 25.5457 50.6742 26.1236C50.9363 26.7186 51.0698 27.3621 51.066 28.0122C51.0715 28.6607 50.942 29.3032 50.686 29.8989C50.4379 30.4709 50.0865 30.9922 49.6496 31.4369C49.2092 31.883 48.6862 32.239 48.1096 32.485C47.5053 32.7424 46.8543 32.8724 46.1975 32.8671C45.5488 32.8714 44.9056 32.7475 44.3049 32.5027C43.7267 32.2706 43.2005 31.9256 42.7572 31.4878C42.3103 31.0489 41.9541 30.5263 41.709 29.9499C41.4506 29.3383 41.3212 28.68 41.3289 28.0161C41.3228 27.371 41.4495 26.7314 41.7012 26.1373C41.9403 25.5638 42.292 25.0442 42.7356 24.6091C43.189 24.1666 43.7204 23.8119 44.303 23.5629C44.9107 23.2989 45.5627 23.1513 46.2249 23.128L46.2171 23.1241ZM46.2053 25.1205C45.8219 25.1192 45.4421 25.1952 45.0886 25.3438C44.7425 25.4844 44.428 25.6929 44.1639 25.9571C43.9001 26.2202 43.6881 26.5306 43.5389 26.872C43.382 27.2335 43.3032 27.6241 43.3077 28.0181C43.3064 28.403 43.3852 28.7839 43.5389 29.1368C43.6883 29.4839 43.9001 29.8007 44.1639 30.0713C44.427 30.3421 44.7414 30.5578 45.0886 30.7061C45.4406 30.8607 45.8209 30.9401 46.2053 30.9392C46.5897 30.9398 46.97 30.8604 47.3221 30.7061C47.6696 30.5574 47.9845 30.3417 48.2487 30.0713C48.5106 29.7995 48.7216 29.483 48.8718 29.1368C49.0246 28.7837 49.1033 28.4029 49.1029 28.0181C49.0798 27.269 48.7788 26.5553 48.2585 26.0158C47.7211 25.4669 46.9927 25.1462 46.2249 25.1205H46.2053Z" fill="white"/>
<path d="M19.4506 28.696C19.4491 28.9896 19.3897 29.2799 19.2759 29.5506C19.1622 29.8212 18.9962 30.0668 18.7876 30.2732C18.5789 30.4797 18.3316 30.6431 18.0598 30.754C17.788 30.8649 17.497 30.9212 17.2034 30.9197C16.8639 30.9183 16.5291 30.8405 16.2238 30.6919C15.9185 30.5433 15.6507 30.3279 15.4402 30.0615C15.3185 29.9191 15.2187 29.7593 15.1443 29.5874C15.1206 29.5292 15.1003 29.4697 15.0836 29.4091L15.0581 29.3327L15.0444 29.2798C14.9912 29.0884 14.9642 28.8907 14.9641 28.6921C14.9641 28.6588 14.9641 28.6274 14.9641 28.5961C14.9641 28.5157 14.9641 28.4354 14.9641 28.361V24.1429C14.9626 24.0094 14.9339 23.8776 14.8796 23.7557C14.8254 23.6337 14.7468 23.5241 14.6487 23.4336C14.4654 23.2399 14.2154 23.1229 13.9492 23.1065C13.6773 23.1159 13.4191 23.2279 13.2263 23.4199C13.1313 23.5102 13.0559 23.6191 13.0047 23.7397C12.9534 23.8604 12.9275 23.9902 12.9285 24.1213V28.5275C12.927 29.1793 13.0751 29.8228 13.3615 30.4083L13.4105 30.4984C13.4594 30.5984 13.5084 30.6944 13.5633 30.7904C13.5927 30.8393 13.622 30.8883 13.6534 30.9373C13.6847 30.9863 13.722 31.0411 13.7572 31.094C14.0501 31.512 14.4165 31.8731 14.8387 32.1598L14.8916 32.1951C15.2044 32.3996 15.5431 32.5617 15.8986 32.677C16.2292 32.7717 16.5675 32.8373 16.9095 32.873H17.0624C17.1094 32.873 17.1584 32.873 17.2073 32.873H17.2602C17.3837 32.873 17.5051 32.873 17.6246 32.8553C17.7442 32.8377 17.8931 32.822 18.0165 32.7985H18.0361C18.3199 32.7413 18.5974 32.6567 18.8648 32.5458C19.2884 32.366 19.6796 32.1178 20.0227 31.8111C20.3399 31.5121 20.6184 31.1744 20.8514 30.806L20.8651 30.7845C20.9102 30.712 20.9494 30.6336 20.9886 30.5553C21.0277 30.4769 21.0552 30.4397 21.0846 30.377C21.3565 29.795 21.4964 29.1601 21.494 28.5177V24.1213C21.4954 23.9904 21.4698 23.8606 21.4189 23.7399C21.368 23.6193 21.2929 23.5103 21.1982 23.4199C21.0057 23.2272 20.7474 23.1145 20.4752 23.1045C20.206 23.1195 19.9529 23.2373 19.768 23.4336C19.6703 23.5244 19.5925 23.6345 19.5396 23.757C19.4866 23.8794 19.4597 24.0114 19.4604 24.1448V28.3668" fill="white"/>
<path d="M33.1297 31.7053V26.3979C33.1297 24.3016 31.9542 23.1026 29.9265 23.1026C29.1232 23.1026 28.2024 23.5355 27.8282 24.0939L27.5617 24.4857L27.3325 24.0743C27.0132 23.5199 26.1453 23.0947 25.3185 23.0947C23.2829 23.0947 22.1152 24.2937 22.1152 26.3901V31.7484C22.1152 32.3734 22.5227 32.8828 23.1418 32.8828C23.7609 32.8828 24.1939 32.3734 24.1939 31.7484V26.1765C24.1954 26.0294 24.2263 25.884 24.2847 25.749C24.3431 25.6139 24.4279 25.4919 24.5341 25.3901C24.6403 25.2883 24.7658 25.2087 24.9032 25.156C25.0406 25.1033 25.1871 25.0786 25.3342 25.0833C25.9552 25.0833 26.5489 25.5515 26.5489 26.1765V30.71V31.7092V31.7582C26.542 32.052 26.6521 32.3365 26.8549 32.5492C27.0576 32.7619 27.3365 32.8854 27.6303 32.8926C27.9234 32.8844 28.2013 32.7604 28.4033 32.5478C28.6052 32.3352 28.7147 32.0513 28.7079 31.7582V26.1922C28.7176 25.8896 28.8467 25.6031 29.0669 25.3953C29.2872 25.1875 29.5807 25.0754 29.8834 25.0833C30.0337 25.0775 30.1837 25.1018 30.3246 25.1546C30.4654 25.2075 30.5943 25.2879 30.7038 25.3911C30.8132 25.4944 30.901 25.6184 30.9619 25.7559C31.0229 25.8935 31.0559 26.0418 31.0589 26.1922V31.7073V31.7562C31.052 31.9011 31.0744 32.0459 31.1245 32.182C31.1747 32.3181 31.2516 32.4427 31.3508 32.5485C31.45 32.6543 31.5695 32.7391 31.7021 32.7978C31.8347 32.8566 31.9777 32.8881 32.1227 32.8906C32.7438 32.8906 33.1454 32.3812 33.1454 31.7562L33.1297 31.7053Z" fill="white"/>
<path d="M35.9177 28.8155H38.0728C38.3662 28.8129 38.6487 28.9267 38.8584 29.132C39.0681 29.3372 39.1878 29.6173 39.1914 29.9107C39.1912 30.0557 39.162 30.1993 39.1056 30.3329C39.0491 30.4665 38.9666 30.5875 38.8627 30.6888C38.7589 30.7901 38.6359 30.8696 38.5009 30.9227C38.3659 30.9758 38.2217 31.0014 38.0767 30.998H35.9216L35.9177 28.8155ZM37.82 25.001C37.9672 24.9973 38.1136 25.0231 38.2507 25.0767C38.3878 25.1303 38.5128 25.2108 38.6184 25.3133C38.7241 25.4158 38.8082 25.5384 38.8659 25.6738C38.9236 25.8093 38.9536 25.9548 38.9544 26.102C38.9472 26.3953 38.8243 26.6738 38.6125 26.8768C38.4007 27.0798 38.1172 27.1907 37.8239 27.1855H35.9196V25.001H37.82ZM41.2427 30.2575C41.2312 29.7168 41.0546 29.1926 40.7366 28.7552C40.4186 28.3179 39.9745 27.9882 39.4638 27.8104L39.4932 27.7948C39.9389 27.6201 40.3203 27.3128 40.5859 26.9144C40.8514 26.5161 40.9884 26.0458 40.9782 25.5672C40.9782 24.2114 39.8517 23.1104 38.2883 23.1006H34.8773C34.6117 23.1204 34.363 23.2383 34.1794 23.4313C33.9959 23.6242 33.8906 23.8786 33.884 24.1448V24.1644L33.8997 31.8424V31.8895C33.9017 32.1548 34.0069 32.4089 34.193 32.598C34.3792 32.7871 34.6317 32.8962 34.8969 32.9023H38.2119C38.2726 32.9023 38.3333 32.9023 38.396 32.9023C38.4587 32.9023 38.5469 32.9023 38.6213 32.8925C38.8318 32.8856 39.0403 32.8486 39.2404 32.7828C39.8032 32.6366 40.3031 32.311 40.6643 31.8553C41.0256 31.3997 41.2286 30.8388 41.2427 30.2575" fill="white"/>
<path d="M12.3057 29.3349V24.6093C12.3206 24.3884 12.3068 24.1664 12.2646 23.9491C12.1862 23.6623 12.0021 23.4159 11.7493 23.2594C11.5519 23.1396 11.3238 23.0797 11.093 23.087H7.80743C7.54759 23.0866 7.29738 23.1854 7.108 23.3633C7.00043 23.4692 6.91787 23.5978 6.86639 23.7397C6.81491 23.8816 6.79579 24.0332 6.81044 24.1834C6.82509 24.3336 6.87313 24.4787 6.95105 24.608C7.02898 24.7373 7.13481 24.8475 7.26081 24.9306C7.54097 25.1089 7.84857 25.0913 8.17183 25.0913H10.2877V25.5164V29.0018C10.2877 29.1056 10.2877 29.2114 10.2877 29.3172V29.3329C10.2857 29.7945 10.1012 30.2366 9.77463 30.5629C9.44802 30.8891 9.0057 31.0731 8.54407 31.0746C8.08979 31.0748 7.65333 30.8979 7.32739 30.5815C7.00145 30.265 6.8117 29.834 6.79845 29.3799V29.3113C6.78492 29.0537 6.67321 28.811 6.48628 28.6332C6.29934 28.4554 6.05139 28.3559 5.79339 28.3553C5.52665 28.3558 5.27102 28.4621 5.08259 28.6509C4.89416 28.8397 4.78833 29.0955 4.78833 29.3623C4.78925 29.4128 4.79317 29.4631 4.80008 29.5131C4.92351 31.5703 6.49282 32.9182 8.6342 32.9182C12.388 32.9182 12.3174 28.9254 12.3057 29.3427" fill="white"/>
</svg>
