<svg width="26" height="17" viewBox="0 0 26 17" fill="none" xmlns="http://www.w3.org/2000/svg">
<path d="M8.0457 15.9591L1.14042 9.08887C1.02358 8.97203 0.941792 8.85519 0.895055 8.73835C0.848319 8.62151 0.824951 8.49299 0.824951 8.35278C0.824951 8.21257 0.848319 8.08404 0.895055 7.9672C0.941792 7.85036 1.02358 7.73352 1.14042 7.61668L8.0457 0.711403C8.23265 0.524458 8.47801 0.425143 8.7818 0.413459C9.08558 0.401775 9.34263 0.50109 9.55294 0.711403C9.76326 0.921716 9.86841 1.17292 9.86841 1.46502C9.86841 1.75713 9.76326 2.00833 9.55294 2.21865L4.47038 7.30121L24.5903 7.30121C24.8941 7.30121 25.1453 7.40053 25.344 7.59916C25.5426 7.79779 25.6419 8.04899 25.6419 8.35278C25.6419 8.65656 25.5426 8.90777 25.344 9.1064C25.1453 9.30503 24.8941 9.40434 24.5903 9.40434L4.47038 9.40434L9.55294 14.4869C9.73989 14.6739 9.8392 14.9134 9.85089 15.2055C9.86257 15.4976 9.76326 15.7488 9.55294 15.9591C9.34263 16.1694 9.09142 16.2746 8.79932 16.2746C8.50722 16.2746 8.25601 16.1694 8.0457 15.9591Z" fill="#FA2080"/>
</svg>
