<svg width="24" height="24" viewBox="0 0 24 24" fill="none" xmlns="http://www.w3.org/2000/svg">
<path fill-rule="evenodd" clip-rule="evenodd" d="M0.481396 24H5.43374V7.99969H0.481396V24ZM13.3509 15.6009C13.3509 13.3519 14.3864 12.0112 16.3687 12.0112C18.1898 12.0112 19.0645 13.298 19.0645 15.6009C19.0645 17.9053 19.0645 24 19.0645 24H23.9944C23.9944 24 23.9944 18.1556 23.9944 13.8698C23.9944 9.58406 21.5648 7.51172 18.1725 7.51172C14.7787 7.51125 13.3509 10.155 13.3509 10.155V7.99969H8.60015V24H13.3509C13.3509 24 13.3509 18.0661 13.3509 15.6009ZM2.93437 5.90531C4.55155 5.90531 5.86312 4.58203 5.86312 2.95219C5.86312 1.32188 4.55155 0 2.93437 0C1.31624 0 0.00561523 1.32188 0.00561523 2.95219C0.00561523 4.58203 1.31624 5.90531 2.93437 5.90531Z" fill="#0077B5"/>
</svg>
