<svg width="24" height="24" viewBox="0 0 24 24" fill="none" xmlns="http://www.w3.org/2000/svg">
<path d="M12.0004 5.83838C10.7816 5.83838 9.59024 6.19978 8.57688 6.87688C7.56353 7.55398 6.77372 8.51637 6.30732 9.64235C5.84093 10.7683 5.7189 12.0073 5.95666 13.2027C6.19443 14.398 6.78131 15.496 7.6431 16.3578C8.50489 17.2195 9.60287 17.8064 10.7982 18.0442C11.9935 18.282 13.2325 18.1599 14.3585 17.6935C15.4845 17.2271 16.4469 16.4373 17.124 15.424C17.8011 14.4106 18.1625 13.2192 18.1625 12.0005C18.1625 11.1913 18.0031 10.39 17.6934 9.64233C17.3838 8.8947 16.9299 8.21539 16.3577 7.64318C15.7855 7.07098 15.1062 6.61708 14.3585 6.30741C13.6109 5.99774 12.8096 5.83836 12.0004 5.83838ZM12.0004 16.0009C11.2091 16.0009 10.4357 15.7663 9.77782 15.3267C9.11995 14.8871 8.6072 14.2623 8.30441 13.5314C8.00163 12.8004 7.92241 11.996 8.07678 11.22C8.23114 10.444 8.61215 9.73115 9.17163 9.17167C9.73111 8.6122 10.4439 8.23119 11.22 8.07684C11.996 7.92248 12.8003 8.00171 13.5313 8.3045C14.2623 8.6073 14.8871 9.12005 15.3267 9.77793C15.7662 10.4358 16.0009 11.2093 16.0009 12.0005C16.0009 12.5259 15.8975 13.0461 15.6965 13.5315C15.4954 14.0169 15.2008 14.4579 14.8293 14.8294C14.4578 15.2009 14.0168 15.4955 13.5314 15.6966C13.046 15.8976 12.5257 16.001 12.0004 16.0009Z" fill="url(#paint0_linear_1321_53)"/>
<path d="M23.9283 7.0529C23.9086 6.05742 23.7202 5.07249 23.3709 4.14008C23.069 3.33951 22.5967 2.61414 21.9867 2.01424C21.3877 1.40359 20.6625 0.93117 19.8619 0.630025C18.9295 0.280551 17.9445 0.092076 16.949 0.0726508C15.6694 0.0144005 15.2604 0 12.0015 0C8.74252 0 8.33315 0.0135125 7.05289 0.0726508C6.05741 0.0923224 5.07249 0.280789 4.14008 0.630025C3.33928 0.931445 2.61383 1.40382 2.01424 2.01424C1.40326 2.61335 0.93082 3.33895 0.630108 4.14008C0.280877 5.0725 0.0924108 6.05742 0.0727349 7.0529C0.0135846 8.33242 0 8.74152 0 12.0005C0 15.2594 0.0135846 15.6684 0.0727109 16.948C0.0923902 17.9435 0.280865 18.9284 0.630108 19.8609C0.930907 20.6619 1.40333 21.3875 2.01424 21.9867C2.61412 22.5967 3.3395 23.069 4.14008 23.3708C5.07252 23.7199 6.05742 23.9084 7.05289 23.9282C8.33315 23.9864 8.74152 24.0009 12.0005 24.0009C15.2594 24.0009 15.6685 23.9873 16.948 23.9282C17.9435 23.9085 18.9284 23.7201 19.8609 23.3708C20.6582 23.0626 21.3823 22.5911 21.9867 21.9867C22.5912 21.3822 23.0626 20.6582 23.3709 19.8609C23.7205 18.9285 23.909 17.9435 23.9283 16.948C23.9865 15.6675 24 15.2594 24 12.0005C24 8.74152 23.9865 8.33242 23.9283 7.0529ZM21.7694 16.8502C21.7602 17.6111 21.6205 18.3649 21.3566 19.0787C21.1568 19.5963 20.851 20.0662 20.4586 20.4584C20.0663 20.8505 19.5962 21.1562 19.0786 21.3557C18.365 21.6203 17.6111 21.7599 16.85 21.7685C15.5851 21.8267 15.2051 21.8383 12.0004 21.8383C8.79566 21.8383 8.41678 21.8267 7.15221 21.7685C6.39116 21.7598 5.63729 21.6202 4.92362 21.3557C4.40238 21.1631 3.93077 20.8564 3.54328 20.4581C3.14437 20.0715 2.83758 19.6 2.64565 19.0788C2.38107 18.3651 2.24142 17.6112 2.23283 16.8502C2.17463 15.5852 2.16305 15.2053 2.16305 12.0006C2.16305 8.79581 2.17564 8.41693 2.23283 7.15092C2.24242 6.38999 2.38204 5.63631 2.64565 4.92244C2.83827 4.40119 3.14496 3.92958 3.54328 3.54209C3.9301 3.14296 4.4019 2.83614 4.92362 2.64446C5.63727 2.37991 6.39115 2.24026 7.15221 2.23164C8.41714 2.17345 8.79709 2.16186 12.0004 2.16186C15.2037 2.16186 15.584 2.17445 16.85 2.23164C17.611 2.24123 18.3647 2.38085 19.0786 2.64446C19.5964 2.84397 20.0666 3.14976 20.4589 3.54211C20.8513 3.93447 21.1571 4.40468 21.3566 4.92245C21.6211 5.63606 21.7608 6.38991 21.7694 7.15093C21.8276 8.41698 21.8392 8.79589 21.8392 12.0006C21.8392 15.2052 21.8276 15.5841 21.7694 16.8502H21.7694Z" fill="url(#paint1_linear_1321_53)"/>
<path d="M18.4071 4.15479H18.4066C18.0247 4.15486 17.6586 4.3066 17.3886 4.57663C17.1186 4.84667 16.967 5.21288 16.967 5.59472C16.9671 5.97656 17.1188 6.34274 17.3888 6.61273C17.6588 6.88272 18.025 7.03439 18.4068 7.03439C18.7887 7.03439 19.1549 6.88272 19.4249 6.61273C19.6949 6.34274 19.8466 5.97656 19.8466 5.59472C19.8467 5.21288 19.695 4.84667 19.4251 4.57663C19.1551 4.3066 18.7889 4.15486 18.4071 4.15479Z" fill="url(#paint2_linear_1321_53)"/>
<defs>
<linearGradient id="paint0_linear_1321_53" x1="6.09501" y1="4.55466" x2="17.6485" y2="16.6221" gradientUnits="userSpaceOnUse">
<stop stop-color="#405DE6"/>
<stop offset="0.125" stop-color="#5B51D8"/>
<stop offset="0.239583" stop-color="#833AB4"/>
<stop offset="0.364583" stop-color="#C13584"/>
<stop offset="0.489583" stop-color="#E1306C"/>
<stop offset="0.609375" stop-color="#FD1D1D"/>
<stop offset="0.734375" stop-color="#F56040"/>
<stop offset="0.859375" stop-color="#F77737"/>
<stop offset="0.895833" stop-color="#FCAF45"/>
<stop offset="1" stop-color="#FFDC80"/>
</linearGradient>
<linearGradient id="paint1_linear_1321_53" x1="0.500001" y1="-2.5" x2="23" y2="21" gradientUnits="userSpaceOnUse">
<stop stop-color="#405DE6"/>
<stop offset="0.125" stop-color="#5B51D8"/>
<stop offset="0.239583" stop-color="#833AB4"/>
<stop offset="0.364583" stop-color="#C13584"/>
<stop offset="0.489583" stop-color="#E1306C"/>
<stop offset="0.609375" stop-color="#FD1D1D"/>
<stop offset="0.734375" stop-color="#F56040"/>
<stop offset="0.859375" stop-color="#F77737"/>
<stop offset="0.895833" stop-color="#FCAF45"/>
<stop offset="1" stop-color="#FFDC80"/>
</linearGradient>
<linearGradient id="paint2_linear_1321_53" x1="17.027" y1="3.85484" x2="19.7266" y2="6.67445" gradientUnits="userSpaceOnUse">
<stop stop-color="#405DE6"/>
<stop offset="0.125" stop-color="#5B51D8"/>
<stop offset="0.239583" stop-color="#833AB4"/>
<stop offset="0.364583" stop-color="#C13584"/>
<stop offset="0.489583" stop-color="#E1306C"/>
<stop offset="0.609375" stop-color="#FD1D1D"/>
<stop offset="0.734375" stop-color="#F56040"/>
<stop offset="0.859375" stop-color="#F77737"/>
<stop offset="0.895833" stop-color="#FCAF45"/>
<stop offset="1" stop-color="#FFDC80"/>
</linearGradient>
</defs>
</svg>
