<svg width="490" height="574" viewBox="0 0 490 574" fill="none" xmlns="http://www.w3.org/2000/svg">
<g clip-path="url(#clip0_20_1476)">
<path d="M253.248 211.742L254.208 212.173C254.208 212.173 255.121 212.368 255.715 212.173C256.31 211.978 256.993 211.819 257.269 211.742C257.546 211.665 258.229 210.886 258.229 210.886L258.547 210.065L259.966 209.752C259.966 209.752 260.973 209.793 261.243 209.752C261.52 209.71 262.886 209.203 262.886 209.203L264.44 208.458C264.44 208.458 265.582 208.187 265.9 208.305C266.218 208.423 266.265 209.634 266.265 209.634C266.265 209.634 266.177 210.378 267.042 210.573C267.908 210.767 270.74 210.767 270.74 210.767L272.294 210.26C272.294 210.26 275.173 210.962 275.22 211.08C275.267 211.199 276.132 212.096 276.132 212.096L277.551 213.307L280.065 213.696L281.254 213.891L281.349 215.179L281.714 216.431L283.586 216.897L287.607 216.856L288.066 217.009L288.566 218.415L288.066 218.763L286.606 219.82C286.606 219.82 286.423 219.667 286.058 220.21C285.693 220.759 285.693 221.267 285.693 221.267L287.248 222.011L288.89 221.308C288.89 221.308 289.938 220.724 290.533 220.724C291.127 220.724 292.175 220.877 293.365 221.078C294.554 221.273 295.92 221.432 297.021 221.509C298.116 221.586 299.122 221.94 299.576 221.509C300.035 221.078 300.4 220.765 301.036 220.417C301.677 220.062 302.36 219.637 302.36 219.637L302.225 218.545L299.67 217.606L296.744 217.057C296.744 217.057 296.656 216.395 296.656 216.159C296.656 215.923 296.608 215.102 296.608 215.102L294.46 214.246L291.31 213.897L288.979 212.569L286.194 210.384C286.194 210.384 284.504 209.214 284.092 209.132C283.68 209.055 282.538 209.132 282.538 209.132C282.538 209.132 280.571 208.895 280.165 208.701C279.753 208.506 277.746 207.726 277.151 207.372C276.556 207.018 274.914 206.315 274.089 206.238C273.265 206.161 270.757 205.884 270.757 205.884L269.068 205.335L265.506 204.98L261.944 205.801L259.065 206.155L257.558 207.561L256.463 208.695C256.463 208.695 256.416 209.669 256.416 209.787C256.416 209.905 255.774 210.295 255.409 210.372C255.044 210.449 253.443 210.685 253.443 210.685C253.443 210.685 252.848 211.506 253.26 211.742H253.248Z" fill="#B0B7BE"/>
<path d="M283.35 229.588C283.35 229.588 284.905 230.096 285.087 230.249C285.27 230.403 286.094 231.383 286.365 231.501C286.641 231.619 287.872 231.696 288.237 231.696C288.602 231.696 289.514 231.578 289.974 231.342C290.433 231.105 292.122 230.91 292.122 230.91L294.407 231.418L295.272 231.147C295.272 231.147 296.461 230.208 296.779 229.895C297.097 229.582 296.597 228.531 296.597 228.531L294.907 228.489L292.535 229.346L290.662 229.387L288.243 228.448L286.418 228.33C286.418 228.33 285.593 228.33 285.228 228.566C284.863 228.802 284.133 229.115 284.133 229.115L283.356 229.582L283.35 229.588Z" fill="#B0B7BE"/>
<path d="M300.706 229.08L303.037 229.977C303.037 229.977 306.146 230.249 306.552 230.249C306.958 230.249 307.741 230.054 308.836 230.054C309.931 230.054 312.628 230.403 312.628 230.403L312.905 231.259C312.905 231.259 313.682 232.233 313.911 232.393C314.141 232.546 315.101 232.629 315.919 232.275C316.743 231.92 317.926 231.105 317.926 231.105L319.069 230.166H321.306C321.765 230.166 323.225 229.387 323.225 229.387C323.225 229.387 323.725 229.115 324.962 229.151C326.192 229.192 327.381 229.93 327.564 229.93C327.746 229.93 328.247 229.576 328.294 229.464C328.341 229.346 328.429 229.109 328.571 228.72C328.706 228.33 327.929 226.765 327.476 226.57C327.016 226.375 325.969 226.062 325.144 225.867C324.32 225.672 323.637 226.021 324.049 225.359C324.461 224.698 324.779 224.344 324.962 224.072C325.144 223.8 324.732 222.708 324.732 222.708C324.732 222.708 323.408 222.59 322.495 222.554C321.582 222.513 319.94 222.241 319.94 222.241L316.196 221.344C316.196 221.344 315.554 221.072 314.641 221.19C313.729 221.308 311.032 222.324 311.032 222.324L309.802 222.088L308.477 221.503L306.287 221.19L304.598 221.852C304.598 221.852 303.868 222.436 303.915 223.021C303.962 223.606 304.144 223.995 303.915 224.19C303.685 224.385 302.455 224.698 302.455 224.698C302.455 224.698 302.178 225.088 302.319 225.478C302.455 225.867 302.184 226.027 303.002 226.452C303.826 226.883 304.968 227.001 304.968 227.001L306.111 226.765C306.111 226.765 307.618 226.104 308.442 226.298C309.266 226.493 308.854 226.375 309.996 226.729C311.138 227.078 311.409 226.263 311.55 227.237C311.686 228.212 311.415 228.407 311.415 228.407L310.367 228.601C310.367 228.601 309.725 228.796 308.907 228.796H306.899L305.987 228.755L304.662 228.637C304.662 228.637 304.527 228.596 303.797 228.289C303.067 227.981 302.519 227.857 302.519 227.857H301.289C301.059 228.052 300.877 228.324 300.877 228.324L300.741 229.068L300.706 229.08Z" fill="#B0B7BE"/>
<path opacity="0.15" d="M334.741 229.381C334.741 229.381 335.653 228.938 336.018 228.885C336.383 228.832 337.755 228.808 337.755 228.808L338.821 229.198H340.557C340.74 229.198 341.593 229.487 341.593 229.487L341.805 230.344L340.404 230.97L338.397 231.153L336.572 231.023L335.783 230.527L334.746 229.381H334.741Z" fill="#B0B7BE"/>
<path d="M146.8 187.748C146.8 187.707 146.794 187.672 146.788 187.642C146.788 187.672 146.794 187.707 146.8 187.748Z" fill="#2B2725"/>
<path d="M108.467 7.00378L108.555 6.90968C108.379 6.89792 107.997 6.79794 107.997 6.79794L108.467 7.00378Z" fill="#2B2725"/>
<path d="M146.794 187.647C146.794 187.647 146.794 187.595 146.788 187.577C146.788 187.595 146.788 187.618 146.794 187.647Z" fill="#2B2725"/>
<path d="M107.997 6.79795C107.997 6.79795 108.379 6.89834 108.556 6.91015L108.609 6.8511C108.491 6.76252 108.056 6.55583 106.955 6.12474C103.911 4.92597 102.934 6.95739 102.569 6.95739C102.204 6.95739 100.62 6.64441 100.62 6.64441L98.9774 5.9653L96.4812 5.70547L94.1675 4.81967C94.1675 4.81967 91.6713 4.3 91.059 4.35315C90.4526 4.4063 89.9639 4.55984 88.7453 4.50669C87.5266 4.45354 87.9505 4.87282 87.5266 4.45354C87.1027 4.03426 86.7377 2.94178 86.7377 2.94178L86.3727 1.8493C86.3727 1.8493 85.0304 1.53632 84.8479 1.58946C84.6654 1.64261 83.7528 1.743 83.7528 1.743L83.2642 1.11704L83.0228 0.963501H79.7318L78.0245 2.26267L76.9883 3.14847L74.3685 3.20161L73.3323 3.14847L71.4425 2.94178L70.7124 3.46145C70.7124 3.46145 70.5888 3.87482 69.8588 4.24095C69.1288 4.60708 68.0337 4.70747 68.0337 4.70747L66.2675 4.39449C66.2675 4.39449 66.45 4.13465 65.6611 4.39449C64.8722 4.65432 64.9311 4.60117 64.5661 4.70747C64.2011 4.81376 64.99 5.33343 64.0186 5.33343C63.0472 5.33343 62.0699 5.22714 62.0699 5.22714C62.0699 5.22714 62.1935 3.87482 60.8512 4.9673C59.5089 6.05978 59.45 6.42591 59.2086 6.5263C58.9673 6.6326 56.0413 7.51249 56.0413 7.51249C56.0413 7.51249 55.1876 7.93177 54.2751 8.03216C53.3625 8.13845 50.9841 8.13845 50.9841 8.13845L47.6931 8.55773L44.4021 8.76442L42.2708 10.0636L40.3221 10.8962C40.3221 10.8962 41.5997 11.5222 42.6947 11.8824C43.7898 12.2486 44.4609 12.9218 44.4609 12.9218L44.7023 14.4335C44.7023 14.4335 44.8259 15.9453 44.8848 16.152C44.9437 16.3586 45.4323 17.0909 45.4323 17.0909L46.8924 17.5574L47.016 18.0771L45.9799 19.016L45.2498 18.9097L44.5198 18.5968L42.995 16.9846L42.0825 16.3055C42.0825 16.3055 41.9588 15.9394 41.8411 16.4118C41.7174 16.8783 41.7174 17.7641 42.0236 18.3369C42.3297 18.9097 42.9361 19.2227 42.3886 19.6361C41.8411 20.0554 40.4399 20.2621 40.4399 20.2621C40.4399 20.2621 38.4912 19.8959 38.0673 19.7955C37.6434 19.6952 35.995 19.642 35.995 19.642L35.5063 18.8625H33.069L27.0404 20.4215L22.8368 20.6282C22.8368 20.6282 22.4718 20.575 22.3482 21.4608C22.2246 22.3466 22.4718 23.1261 22.6543 23.5454C22.8368 23.9647 22.6543 24.4844 22.8368 24.5316C23.0193 24.5847 26.7342 24.9509 26.7342 24.9509L28.5004 25.7835L30.9966 25.4705L33.0042 24.1182C33.0042 24.1182 34.3465 23.7521 34.4054 23.9115C34.4643 24.0651 35.0766 23.758 34.5879 24.6379C34.0993 25.5178 33.3104 26.0965 33.3104 26.0965C33.3104 26.0965 34.6527 24.7973 32.8865 26.4626C31.1203 28.1279 30.5139 28.4409 30.0841 28.5472C29.6602 28.6535 27.0404 29.0137 27.0404 29.0137L24.4205 29.3267L22.1068 29.6397C22.1068 29.6397 16.4432 30.992 16.2607 30.992C16.0782 30.992 14.6182 31.5648 14.6182 31.5648L14.3768 32.7636L12.0042 33.7498L9.99661 34.3758C9.99661 34.3758 9.26659 35.0017 8.59543 35.7812C7.92428 36.5607 7.74177 36.5607 8.04791 37.1867C8.35405 37.8126 8.59543 39.2181 8.35405 39.5783C8.11267 39.9445 6.52899 39.1118 7.86541 40.2574C9.20771 41.4031 9.02521 41.3499 9.02521 41.3499C9.02521 41.3499 9.14884 41.5566 9.69636 41.4031C10.2439 41.2495 12.3751 40.4169 12.3751 40.4169C12.3751 40.4169 13.1051 38.6453 14.0824 39.2181C15.0597 39.7909 15.4247 39.5842 14.9361 40.2574C14.4474 40.9366 13.9647 41.3499 13.4113 41.5566C12.8637 41.7633 11.0975 43.3814 11.0975 43.3814L10.8562 44.5801L10.185 45.4128L8.11267 46.1923C8.11267 46.1923 8.0538 46.1391 7.80653 46.4521C7.56515 46.7651 6.28172 46.9186 7.62403 46.9186C8.96633 46.9186 9.87887 46.7651 9.87887 46.7651C9.87887 46.7651 10.6678 46.6116 11.0975 46.2454C11.5214 45.8793 12.1926 45.3596 12.1926 45.3596L13.4701 45.2533C13.4701 45.2533 14.9949 45.0466 15.1774 45.9324C15.36 46.8182 15.36 46.8714 15.4836 47.0249C15.6072 47.1785 15.7897 47.4915 15.7897 47.4915L16.8259 47.7513L17.3145 47.5446L18.8394 46.5053L20.2994 46.3517L21.0294 47.0781L19.1396 48.8497L13.5349 50.8279C13.5349 50.8279 10.8562 52.3397 9.81999 53.0129C8.78383 53.692 6.41124 54.7845 6.41124 54.7845C6.41124 54.7845 3.185 55.9301 3.00249 56.0364C2.81998 56.1427 2.5786 55.9301 2.3961 56.5561C2.21359 57.1821 2.81998 57.0758 2.08996 57.7549C1.35993 58.434 -0.65353 59.9398 0.747649 60.1997L5.1337 59.1072C5.1337 59.1072 6.77625 57.8553 7.32377 57.5482C7.87129 57.2352 9.69636 56.9222 9.69636 56.9222L11.3389 55.5168L16.7317 54.5778L18.1917 53.2491L19.381 52.1566L28.3356 50.202C28.3356 50.202 29.7956 49.576 29.7956 49.3457C29.7956 49.1154 30.2548 48.017 30.2548 48.017L32.7216 47.0013L33.9109 44.3439L38.7502 43.092L43.7721 40.8303L48.3407 38.4859L51.9967 37.7831L52.3617 38.0961L50.7191 39.1886L48.0698 40.2811L45.6031 41.4503L44.143 42.5428L44.4197 43.9483C43.8722 44.338 42.683 44.964 42.683 44.964L43.5955 45.4305L45.3322 45.277L46.7923 44.338L49.7183 43.7888C49.7183 43.7888 50.0833 42.6196 52.2734 42.3066C54.4635 41.9936 54.7402 41.9168 54.7402 41.9168L55.0169 40.0449L57.8487 38.8756L58.9437 38.6394L63.2356 39.7319L65.1548 40.9838L75.7167 41.6983L108.474 6.98101L108.003 6.77433L107.997 6.79795Z" fill="#480095"/>
<path d="M108.614 6.8511L108.562 6.90952C108.644 6.90952 108.679 6.90368 108.614 6.8511Z" fill="#2B2725"/>
<path d="M146.812 187.83C146.812 187.83 146.812 187.778 146.806 187.749C146.806 187.772 146.806 187.801 146.812 187.83Z" fill="#2B2725"/>
<path d="M146.823 187.954C146.823 187.954 146.823 187.919 146.818 187.884C146.818 187.908 146.818 187.925 146.823 187.954Z" fill="#2B2725"/>
<path d="M215.34 87.0748L216.164 88.4035L218.537 89.3424L221.463 89.6554L224.206 90.5943L229.505 91.4506L233.891 91.2144L237.088 89.7322C237.088 89.7322 237.635 89.1062 238.548 88.9527C239.46 88.7991 240.738 88.3267 242.11 88.8759C243.481 89.4251 245.948 90.0451 245.948 90.0451L246.861 91.5274L248.78 93.7123L249.787 94.4918L251.247 96.6768L251.341 98.9385L251.983 99.8775C251.983 99.8775 252.259 100.114 253.078 100.344C253.902 100.58 255.727 100.811 255.727 100.811L262.486 101.047L267.054 101.986L269.244 103.238C269.244 103.238 270.704 102.688 270.981 104.879C271.258 107.064 271.163 107.454 270.887 107.613C270.61 107.767 269.062 108.239 269.062 108.239L266.507 107.926L264.405 107.613L263.581 109.485L263.486 111.044L263.304 111.434L262.391 112.29L261.661 114.558C261.661 114.558 259.471 115.261 261.296 115.964C263.121 116.666 266.501 116.902 266.501 116.902L271.523 116.277L273.713 115.887C273.713 115.887 274.443 114.015 273.624 113.312C272.8 112.609 272.253 112.143 272.253 112.143L273.165 111.594L276.545 111.281H279.559L282.756 111.044L284.127 109.875L286.5 108.546L290.062 106.049L299.381 104.643L301.754 102.381L303.673 100.427L307.6 97.539L309.425 96.3697L310.797 96.4465L313.264 100.663L314.088 101.832C314.088 101.832 315.825 102.771 316.278 103.001C316.737 103.238 317.921 103.704 317.65 104.484C317.373 105.263 318.656 107.058 318.656 107.058L318.968 107.495L319.292 106.982C319.292 106.982 318.833 106.828 321.212 105.966C323.584 105.11 323.955 105.027 323.955 105.027C323.955 105.027 325.692 104.56 325.963 104.873C326.239 105.186 326.145 105.576 326.057 106.202C325.963 106.828 325.144 106.592 325.963 106.828C326.787 107.064 327.699 107.218 327.699 107.218C327.699 107.218 330.531 106.905 330.896 106.592C331.261 106.279 331.173 107.058 333.822 107.218C336.471 107.371 337.661 107.295 338.296 106.828C338.938 106.362 340.216 105.11 340.216 105.11C340.216 105.11 339.027 104.407 338.114 104.171C337.201 103.934 335.1 103.704 334.187 103.545C333.275 103.391 331.903 102.842 331.538 102.529C331.173 102.216 326.516 100.811 326.516 100.421C326.516 100.031 326.793 98.7791 326.793 98.7791L326.333 97.6098C326.333 97.6098 323.961 98.6256 324.049 97.7634C324.137 96.9071 323.319 97.6098 324.597 96.4347C325.874 95.2654 326.239 94.6395 326.239 94.6395L325.144 94.0903C325.144 94.0903 325.509 93.8541 324.138 94.48L322.766 95.106C322.766 95.106 322.124 94.8698 321.853 94.7162C321.577 94.5627 320.576 94.0903 319.751 93.7773C318.927 93.4643 318.197 93.1513 318.197 93.1513C318.197 93.1513 318.474 92.6848 319.751 92.6021C321.029 92.5254 321.394 92.6021 321.394 92.6021L324.32 92.6789C324.32 92.6789 325.144 92.5254 325.233 91.9762C325.321 91.427 325.692 89.9447 325.327 89.4015C324.962 88.8523 325.144 88.4625 323.867 88.3857C322.589 88.309 319.94 88.0728 319.392 88.0728C318.845 88.0728 316.837 88.309 315.919 88.6987C315.006 89.0885 314.73 89.7144 312.722 90.4172C310.714 91.1199 308.701 91.6691 308.613 91.8994C308.524 92.1356 307.7 93.4584 307.153 94.167C306.605 94.8698 304.138 97.0547 304.138 97.0547C304.138 97.0547 302.496 97.9937 302.131 98.1472C301.766 98.3008 300.942 98.3008 300.942 98.3008C300.942 98.3008 301.03 98.1472 302.496 97.0488C303.956 95.9564 304.321 95.3304 304.868 94.6277C305.416 93.9249 306.146 92.0529 306.146 92.0529L306.693 90.4113L309.249 87.7539C309.249 87.7539 310.526 87.6003 311.35 87.4409C312.174 87.2874 312.54 87.3641 312.628 87.1279C312.722 86.8917 313.358 84.7067 313.358 84.7067C313.358 84.7067 312.81 84.1575 313.723 83.8505C314.635 83.5375 321.671 82.9115 321.671 82.9115C321.671 82.9115 323.59 83.8505 325.05 83.2245C326.51 82.5985 329.436 82.5985 329.436 82.5985L331.355 83.3013L333.91 83.691L338.296 83.9272L339.574 83.071L342.129 79.9471C342.129 79.9471 340.21 79.6341 342.588 79.1675C344.967 78.701 347.063 78.701 347.063 78.701L349.989 77.6853L350.265 76.5161L349.535 75.5004L349.447 74.1717L349.353 71.8272L347.345 70.8883L344.148 71.3548L343.324 71.7446C343.324 71.7446 342.594 71.2781 342.5 70.8883C342.406 70.4986 342.135 68.8569 342.135 68.8569C342.135 68.8569 340.857 69.0931 340.31 69.4061C339.762 69.719 338.85 69.6423 337.661 70.4986C336.471 71.3548 334.829 72.3705 334.552 72.4532C334.275 72.53 333.545 72.9197 333.457 72.4532C333.363 71.9867 333.18 71.3607 333.916 70.8115C334.646 70.2623 336.748 69.4828 336.748 69.4828C336.748 69.4828 339.032 68.5439 339.397 68.3136C339.762 68.0774 340.039 67.6109 340.039 67.6109L339.762 66.8314L339.397 66.3648L337.755 66.0519L336.201 65.5027C336.201 65.5027 336.018 65.2664 335.741 65.1129C335.465 64.9594 334.829 65.0361 334.829 65.0361C334.829 65.0361 333.734 65.3491 333.275 65.7389C332.815 66.1286 332.91 66.4416 332.815 66.1286C332.727 65.8156 332.356 64.6464 332.356 64.6464L331.714 64.0204L329.342 65.0361L328.7 64.0204C328.7 64.0204 325.592 61.5225 325.321 61.363C325.05 61.2036 323.037 59.2548 323.037 58.8651C323.037 58.4753 324.226 57.3829 323.313 56.9931C322.401 56.6034 320.205 55.9774 320.205 55.9774L320.481 54.4184L319.569 53.1665L318.927 52.9303L318.38 51.5248C318.38 51.5248 316.643 51.6016 316.19 51.6783C315.73 51.7551 315.277 51.5248 315.277 51.5248L314.73 50.3555L314.824 49.4166L313.911 48.8674L312.999 47.7749L312.357 47.1489L311.627 46.4462L310.897 45.277L309.89 43.6353L307.335 43.1688C307.335 43.1688 307.058 43.092 306.693 44.1077C306.328 45.1234 306.328 46.3694 306.511 46.9186C306.693 47.4678 306.788 47.3852 306.788 48.0879C306.788 48.7906 305.233 50.1961 305.233 50.1961C305.233 50.1961 304.044 50.4323 303.679 50.7453C303.314 51.0583 303.402 51.2945 302.672 51.5248C301.942 51.761 300.847 51.761 300.847 51.761L299.293 50.9047C299.293 50.9047 299.658 49.889 298.104 49.889C296.55 49.889 294.359 50.202 294.359 50.202L293.994 49.889C293.994 49.889 293.629 48.5603 294.819 48.2473C296.008 47.9344 296.008 48.0938 296.461 47.8576C296.92 47.6214 296.555 46.6883 296.002 46.1391C295.455 45.5899 294.725 45.0467 294.359 44.6569C293.994 44.2672 293.629 44.4207 293.447 43.405C293.264 42.3893 293.17 41.9995 293.17 41.9995C293.17 41.9995 292.529 41.533 291.163 41.2968C289.791 41.0606 289.243 41.2968 288.331 40.8303C287.418 40.3637 286.777 39.5783 286.777 39.5783L284.127 38.9524C284.127 38.9524 283.762 38.7988 283.303 38.4032C282.844 38.0134 282.573 37.4642 281.661 37.6237C280.748 37.7772 279.741 38.0902 279.741 38.0902L279.011 36.8383C279.011 36.8383 277.822 35.4328 277.457 35.4328C277.092 35.4328 276.45 35.356 276.085 35.669C275.72 35.982 274.896 36.5253 274.896 36.5253C274.896 36.5253 274.531 36.7615 274.254 36.7615C273.978 36.7615 272.977 36.2123 272.7 36.1355C272.423 36.0588 270.51 35.8226 269.957 35.8226C269.403 35.8226 266.212 36.6021 266.212 36.6021L266.577 37.7713L268.314 39.1C268.314 39.1 268.497 38.7103 268.314 39.4898C268.132 40.2693 267.949 40.1157 267.767 40.659C267.584 41.2082 267.861 41.9877 268.314 42.3007C268.773 42.6137 268.956 42.8499 268.956 43.3164C268.956 43.7829 269.686 44.2553 269.686 44.2553L271.146 44.1018C271.146 44.1018 271.423 43.8656 271.234 44.8813C271.052 45.897 270.227 46.5998 270.227 46.5998C270.227 46.5998 271.234 45.6608 269.132 47.0663C267.031 48.4717 265.841 49.0209 265.841 49.0209C265.841 49.0209 264.564 48.8674 265.753 49.7237C266.942 50.5799 268.402 50.9756 268.402 50.9756L271.328 51.5248C271.328 51.5248 272.606 52.6173 272.788 53.007C272.971 53.3968 274.343 54.0227 274.89 55.192C275.438 56.3612 275.532 56.2077 275.714 57.4537C275.897 58.7056 276.079 60.6544 276.079 60.6544L275.255 62.1366L272.241 64.0086C272.241 64.0086 269.497 65.1011 268.95 65.4908C268.402 65.8806 268.126 66.04 268.126 66.04C268.126 66.04 267.943 65.9633 268.308 66.7428C268.673 67.5223 269.132 68.851 269.132 69.0872C269.132 69.3234 269.132 69.4769 268.767 69.7899C268.402 70.1029 267.672 70.4159 268.037 71.3489C268.402 72.2879 269.409 73.6106 269.409 73.6106L270.416 74.3902L271.146 74.9393L271.328 77.7503C271.328 77.7503 272.241 77.9865 271.693 78.6065C271.146 79.2325 270.598 79.4628 270.598 79.4628L269.138 79.1498C269.138 79.1498 267.402 78.8369 266.948 78.9136C266.489 78.9904 264.481 79.2266 264.481 79.2266C264.481 79.2266 263.751 78.3703 263.657 77.8979C263.563 77.4314 262.468 76.2562 262.468 76.2562L259.636 75.6303L259.724 75.0811L258.353 73.5988L255.521 72.8961L256.433 72.0398L257.528 71.4139C257.528 71.4139 257.988 71.5674 257.623 70.3214C257.258 69.0695 257.623 68.8392 256.981 68.1364C256.339 67.4337 256.251 67.7467 256.068 67.1975C255.886 66.6483 255.792 66.4948 256.528 65.792C257.258 65.0893 257.534 64.3098 257.534 64.3098C257.534 64.3098 257.352 62.8276 256.71 62.7508C256.068 62.674 256.804 62.5972 255.068 62.674C253.331 62.7508 252.695 62.674 251.323 62.9102C249.952 63.1464 249.863 63.3 248.674 63.3C247.485 63.3 245.295 62.5972 245.295 62.5972L242.74 61.428C242.74 61.428 243.47 60.9615 241.368 60.2587C239.266 59.556 237.806 59.4792 237.806 59.4792C237.806 59.4792 237.989 59.243 237.347 58.623C236.705 57.997 235.157 56.751 235.157 56.751L230.164 56.2313L227.486 55.7648L225.778 55.9183L224.618 55.0325L224.071 54.1999L223.83 52.5346L223.223 50.8161L219.385 49.517L217.925 49.3103L217.318 47.8517L218.902 46.0801L219.508 44.3085L219.449 42.3302L219.756 40.3519C219.756 40.3519 220.974 39.7791 222.74 38.7929C224.507 37.8067 227.309 36.0883 227.309 36.0883C227.309 36.0883 230.476 32.6514 230.417 32.4979C230.359 32.3443 228.528 31.5117 228.528 31.5117L226.09 31.1987L224.93 31.1456L222.434 30.1062L220.244 30.2598L217.077 29.8936L216.288 29.1673C216.288 29.1673 215.311 27.9685 218.113 28.4409C220.915 28.9074 219.573 28.9074 221.221 29.0137C222.864 29.12 225.914 29.2204 225.914 29.2204L228.168 29.6397L229.446 30.4192C229.446 30.4192 231.271 30.8857 231.636 30.8857C232.001 30.8857 232.425 30.3129 232.425 30.3129V29.1141L233.096 27.5551L234.374 28.2815C234.374 28.2815 234.497 28.3878 234.739 28.6476C234.98 28.9074 235.227 29.1141 235.41 29.1141C235.592 29.1141 236.505 28.6948 236.505 28.6948L239.672 27.0827L240.461 26.0965L239.914 25.6772C239.914 25.6772 240.155 25.3643 239.001 25.1044C237.841 24.8446 235.104 24.9509 235.104 24.9509L233.826 25.1576L233.461 24.1714L233.52 23.0789C233.52 23.0789 233.031 22.5592 234.374 22.8191C235.716 23.0789 237.3 23.5986 237.3 23.5986L239.007 24.0178L241.627 23.6517L242.174 23.0789L242.233 22.3998C242.233 22.3998 241.256 21.6734 241.015 21.4608C240.773 21.2542 239.855 20.8349 240.891 20.5219C241.927 20.2089 242.84 20.4156 242.84 20.4156L243.752 21.1951C243.752 21.1951 244.847 21.4549 245.518 21.4549C246.19 21.4549 246.678 21.142 246.678 21.142C246.678 21.142 246.496 20.4156 245.766 19.8428C245.036 19.27 243.146 18.5436 244.729 18.1775C246.313 17.8114 246.984 17.2917 247.349 17.8645C247.714 18.4373 248.203 19.8428 248.203 19.8428L249.18 20.4687C249.18 20.4687 249.486 20.9353 250.888 20.6223C252.289 20.3093 254.968 18.0712 255.15 17.8645C255.333 17.6578 255.698 17.2917 255.515 16.9787C255.333 16.6657 253.69 15.0536 253.69 15.0536L252.901 13.9079C252.901 13.9079 253.025 13.5418 253.507 13.0221C253.996 12.5025 254.179 11.4631 254.179 11.4631L252.96 10.5242L249.669 9.17188L247.355 9.11874C247.355 9.11874 245.53 8.80576 245.348 8.80576C245.165 8.80576 244.559 8.75261 244.494 8.91205C244.435 9.06559 244.311 10.1108 244.311 10.1108C244.311 10.1108 244.553 10.7899 244.618 11.1502C244.676 11.5163 245.106 12.2958 244.376 12.9218C243.646 13.5477 241.633 14.3272 241.268 14.8469C240.903 15.3666 239.925 17.9708 239.867 18.1243C239.808 18.2779 240.72 18.5909 239.625 18.5377C238.53 18.4846 237.676 18.1243 237.676 18.1243L237.37 17.7051L236.334 16.0929L236.393 14.841L237.064 13.5418L236.275 11.5104L234.815 10.6246C234.815 10.6246 233.903 10.4179 233.72 10.8313C233.538 11.2506 233.661 10.8844 233.479 11.8706C233.296 12.8627 232.502 14.3154 232.502 14.3154C232.502 14.3154 231.648 15.2012 231.1 14.5221C230.553 13.843 230.064 13.9493 230.064 13.0635V11.2387C230.064 11.2387 229.882 10.0931 229.758 9.72698C229.634 9.36085 228.539 9.00063 228.233 8.94748C227.927 8.89433 227.256 8.5282 227.256 8.5282C227.256 8.5282 228.11 6.86291 228.351 6.70346C228.592 6.54993 225.855 3.42602 225.607 3.21342C225.366 3.00674 223.841 2.12094 223.111 2.43392C222.381 2.7469 221.163 3.05989 220.739 3.26657C220.315 3.47326 219.579 3.78624 219.096 3.73309C218.607 3.67994 217.147 3.88663 217.147 3.88663C217.147 3.88663 217.089 6.49087 217.024 6.69756C216.965 6.90424 216.235 6.69756 216.841 7.42391C217.448 8.15027 219.396 9.24865 219.396 9.24865C219.396 9.24865 220.739 9.50849 221.469 9.66793C222.199 9.82147 222.199 9.98091 222.199 9.98091C222.199 9.98091 221.469 10.4002 221.286 10.5537C221.104 10.7073 220.921 11.6462 220.921 11.6462L221.834 11.8529C221.834 11.8529 222.629 11.6994 222.87 11.8529C223.111 12.0064 223.476 12.1127 223.176 12.3726C222.87 12.6324 221.775 13.0517 221.775 13.0517L220.374 13.3647C220.374 13.3647 220.25 13.2584 220.009 13.7308C219.767 14.1973 219.22 14.7701 219.22 14.7701L218.242 15.1362L217.636 15.3429C217.636 15.3429 217.212 15.2898 217.33 15.7091C217.454 16.1283 217.819 16.4886 217.819 16.4886L218.731 17.0614C218.731 17.0614 219.22 16.6953 218.79 17.7877C218.366 18.8802 218.242 19.1932 218.06 19.453C217.877 19.7129 216.9 20.1794 216.9 20.1794C216.9 20.1794 215.682 19.5003 215.682 19.1401C215.682 18.7798 215.499 18.6204 215.682 18.2543C215.864 17.8881 215.988 17.2622 215.988 17.2622L215.075 16.5831C215.075 16.5831 213.433 16.7366 214.834 15.8567L216.235 14.9709C216.235 14.9709 215.564 13.5654 214.957 13.7721C214.351 13.9788 212.826 14.1383 212.826 14.1383L210.754 13.3588C210.754 13.3588 210.571 13.0989 210.512 13.5123C210.454 13.9316 210.936 14.6579 210.936 14.6579C210.936 14.6579 211.849 15.337 211.666 15.65C211.484 15.963 210.689 16.276 210.689 16.276L208.864 15.2898C208.864 15.2898 210.63 14.5634 208.499 15.2366C206.368 15.9158 204.172 16.0161 204.172 16.0161L202.464 15.7032L200.822 15.0772C200.822 15.0772 202.099 14.5044 199.179 14.3981L196.253 14.2918L195.464 13.5654L193.392 12.3135L192.115 11.8942C192.115 11.8942 187.364 11.6875 187.181 11.7879C186.999 11.8942 185.78 11.5813 185.656 12.3076C185.533 13.034 186.327 13.4001 186.327 13.4001L188.765 13.2465C188.765 13.2465 189.006 13.0399 189.554 13.0399C190.101 13.0399 191.014 13.093 191.014 13.093L190.59 13.9788C190.59 13.9788 188.7 14.2386 188.217 14.5516C187.729 14.8646 187.364 14.8115 187.24 15.1244C187.116 15.4374 187.057 15.8035 187.057 15.8035L187.299 16.4827C187.299 16.4827 188.276 17.4216 188.394 17.5751C188.517 17.7287 188.818 17.2622 188.635 18.148C188.453 19.0338 188.211 19.3467 188.211 19.3467C188.211 19.3467 187.97 19.6597 187.052 19.6066C186.139 19.5534 185.892 19.8133 185.774 19.3999C185.65 18.9806 185.591 17.7346 185.591 17.7346C185.591 17.7346 185.774 17.3153 185.533 16.8488C185.291 16.3823 183.949 15.4965 183.949 15.4965C183.949 15.4965 183.16 14.8705 182 14.8174C180.84 14.7642 179.928 14.7642 179.321 14.9237C178.715 15.0772 176.154 15.3429 176.154 15.3429C176.154 15.3429 175.424 15.6559 174.023 15.4965C172.622 15.3429 171.768 15.4433 171.162 15.1303C170.555 14.8174 169.578 14.3508 169.578 14.3508C169.578 14.3508 169.03 13.7249 169.637 13.465C170.243 13.2052 170.184 13.2584 170.797 12.9454C171.403 12.6324 171.586 12.3726 171.586 12.3726C171.586 12.3726 170.061 10.7073 169.513 10.4474C168.966 10.1876 168.236 9.46124 167.688 9.98091C167.141 10.5006 167.323 10.1876 167.141 10.5006C166.958 10.8136 166.899 11.1265 166.652 11.2269C166.411 11.3332 165.31 11.3332 165.31 11.3332C165.31 11.3332 164.58 11.0734 163.85 10.4474C163.12 9.82147 162.448 9.4081 162.448 9.4081C162.448 9.4081 162.142 9.14826 160.5 8.83528C158.857 8.5223 158.492 8.416 158.492 8.416L156.12 7.37667C156.12 7.37667 155.755 7.16998 155.207 7.37667C154.66 7.58336 154.842 7.22313 153.988 7.84319C153.135 8.46915 154.477 7.89634 152.893 8.56954C151.31 9.24865 150.091 8.62269 150.215 8.30971C150.338 7.99673 150.703 7.58336 151.31 6.90424C151.916 6.22513 152.099 5.60508 152.099 5.60508L150.391 5.65822C150.391 5.65822 150.268 5.65822 149.72 6.28419C149.173 6.91015 148.808 7.42982 148.56 7.7428C148.319 8.05578 148.378 8.42191 147.465 8.46915C146.553 8.5223 145.393 9.98091 146.123 8.416C146.853 6.857 147.035 6.90424 147.035 6.64441C147.035 6.38458 147.4 6.17789 147.035 5.55193C146.67 4.92597 145.817 4.25276 145.817 4.25276L144.051 4.30591C144.051 4.30591 143.686 4.19961 142.956 5.08541C142.226 5.97121 141.861 6.33733 141.861 6.33733C141.861 6.33733 141.678 6.75661 141.372 6.857C141.066 6.9633 139.547 7.27628 139.547 7.27628L138.693 7.7428L137.533 8.05578L136.621 8.16208C136.621 8.16208 134.855 8.6286 134.307 8.73489C133.76 8.84119 133.636 8.88843 133.395 8.88843C133.153 8.88843 132.847 8.83528 132.847 8.83528L133.701 7.94948C133.701 7.94948 137.233 7.32352 137.539 6.75071C137.845 6.17789 138.882 5.71137 137.781 5.1917C136.686 4.67204 135.832 4.72518 135.343 5.08541C134.855 5.45154 134.066 5.86491 133.395 6.23104C132.723 6.59717 131.687 6.80385 131.14 7.32352C130.592 7.84319 129.862 8.72899 129.374 8.67584C128.885 8.62269 129.497 9.35495 128.885 8.62269C128.279 7.89634 127.666 7.53021 127.666 7.53021L126.689 7.58335C126.689 7.58335 125.046 8.00263 124.864 8.10302C124.681 8.20932 124.193 8.46915 124.193 8.46915L121.938 8.67584C121.449 9.61478 120.231 9.97501 120.231 9.97501C120.231 9.97501 120.231 9.66202 118.223 9.14236C116.215 8.62269 112.071 8.25656 112.071 8.25656L111.217 8.15026L108.462 6.95149L75.7048 41.6688L78.937 41.8873L79.7612 43.216L80.1262 44.2317L81.3154 45.401L82.6872 46.5702C82.6872 46.5702 83.6939 48.7552 83.9647 48.7552C84.2355 48.7552 86.5257 48.519 86.5257 48.519L86.9849 47.0367L89.175 48.9914L90.7292 48.2887L91.006 45.9443L92.466 45.5545L93.196 47.8989C93.196 47.8989 93.4727 49.9304 93.6552 51.3358C93.8377 52.7413 94.4795 55.316 94.4795 55.316L94.662 57.3474L93.8377 59.2194L93.561 60.3119L93.8377 61.8709L94.9328 61.9477C94.9328 61.9477 94.7503 61.3217 96.0278 61.7941C97.3054 62.2606 97.9471 63.4358 97.9471 63.4358L97.7646 64.9948L96.2103 66.4003L94.8386 67.4928L94.7444 68.1955L95.4744 68.7447L96.6637 68.6679L98.2179 67.729L99.7722 67.1798L101.874 68.349L100.414 70.4572L100.231 70.7702L100.596 72.3292L102.333 72.7189L102.151 74.2012L100.961 75.1401C100.961 75.1401 99.5897 76.5456 99.5897 76.7818C99.5897 77.018 100.685 79.0435 101.05 79.203C101.415 79.3565 105.618 80.5317 105.618 80.5317L106.531 81.2344L108.085 80.6852L108.544 80.6084L109.003 80.6852L108.638 82.4037C108.638 82.4037 108.179 83.4194 109.463 83.4961C110.74 83.5729 111.382 83.4194 111.382 83.4194V83.9686L110.834 85.0611L111.659 86.0768C111.659 86.0768 111.747 84.6713 112.389 86.2303C112.601 86.7441 112.807 87.2224 112.995 87.6358H211.778L215.34 87.0098V87.0748Z" fill="#FA2080"/>
<path d="M126.389 160.944L141.49 165.84L152.693 166.359L154.401 164.901L160.37 164.795L165.975 170.21L168.047 173.747L169.507 176.139L171.821 176.865L173.405 176.658L175.112 175.513L176.696 173.741L178.768 173.115L182.907 173.635L184.614 175.82L190.825 185.817L192.65 189.88L196.183 191.233L198.497 193.105L198.644 193.158C198.502 192.662 198.285 192.036 198.067 191.386C197.702 190.294 197.243 189.278 196.972 188.575C196.695 187.873 196.33 186.077 196.33 186.077L197.425 185.375C197.425 185.375 197.513 185.924 197.79 184.985C198.067 184.046 197.884 183.426 197.884 183.426C197.884 183.426 198.161 182.723 198.526 182.57C198.891 182.416 198.985 182.416 199.074 182.18C199.162 181.944 199.35 181.324 199.533 180.774C199.715 180.225 199.533 180.072 200.08 180.225C200.628 180.379 200.993 180.461 200.993 180.461L201.999 180.308L202.459 179.139C202.459 179.139 202.459 178.985 203.189 179.062C203.919 179.139 203.371 179.452 204.466 179.375C205.561 179.298 206.291 178.908 206.291 178.908C206.291 178.908 207.204 178.359 207.569 177.969C207.934 177.58 207.569 177.58 208.664 176.641C209.759 175.702 210.306 174.609 211.219 174.373C212.132 174.137 217.889 174.137 217.889 174.137C217.889 174.137 218.896 174.993 219.349 175.076C219.809 175.152 221.816 174.45 221.816 174.45H224.283C224.283 174.45 224.283 174.06 224.465 174.916C224.648 175.773 225.926 176.711 225.926 176.711H230.217L231.224 177.414L233.597 178.666L236.428 179.056L236.517 177.727C236.517 177.727 234.963 176.788 234.598 176.162C234.233 175.536 233.591 175.07 234.05 174.054C234.509 173.038 234.05 172.336 234.05 172.336L228.751 172.489C228.751 172.489 226.926 172.023 227.291 171.16C227.656 170.304 228.663 169.909 228.663 169.909L229.758 169.755L232.867 170.381L235.61 170.694C235.61 170.694 238.989 170.771 240.726 170.145C242.463 169.519 242.28 168.816 243.558 169.289C244.836 169.755 244.565 170.304 245.842 170.771C247.12 171.237 246.937 171.084 247.944 171.473C248.951 171.863 247.762 170.145 249.039 172.253C250.317 174.361 250.046 174.597 250.958 174.597C251.871 174.597 255.25 173.269 255.25 173.269C255.25 173.269 256.622 172.643 257.352 173.032C258.082 173.422 259.177 175.141 259.177 175.141C259.177 175.141 260.001 176.782 260.637 177.326C261.279 177.875 262.097 177.402 262.009 178.265C261.915 179.121 261.644 179.357 261.367 179.906C261.09 180.455 260.82 181.861 260.82 181.861L261.826 183.656C261.826 183.656 262.739 184.825 262.833 185.062C262.921 185.298 263.475 189.042 263.475 189.042C263.475 189.042 264.847 189.591 265.394 189.668C265.942 189.745 266.854 190.683 266.854 190.683C266.854 190.683 266.395 190.76 266.854 191.463C267.313 192.166 268.591 193.258 268.679 193.494C268.767 193.731 269.044 193.181 268.767 194.433C268.491 195.685 268.767 196.388 268.767 196.388L271.599 196.542L273.242 196.075C273.242 196.075 273.424 196.229 274.066 195.059C274.708 193.89 274.89 192.561 274.89 192.561L274.525 190.607C274.525 190.607 273.884 188.735 273.154 187.406C272.423 186.077 272.241 186.39 272.241 185.688C272.241 184.985 272.971 185.451 272.241 183.343C271.511 181.235 270.504 180.296 270.504 180.296L269.132 177.485C269.132 177.485 268.767 175.843 268.767 175.064C268.767 174.284 267.213 172.407 267.213 172.407V170.222L268.856 167.098L268.397 165.539C268.397 165.539 268.032 163.82 268.762 162.881C269.492 161.942 270.952 161.086 270.952 161.086L274.06 160.383L276.162 159.604C276.162 159.604 276.085 159.574 276.256 158.352C276.439 157.023 277.169 155.694 277.169 155.694C277.169 155.694 278.175 155.069 278.54 155.069C278.905 155.069 279.088 155.222 279.547 154.832C280.006 154.443 280.277 152.801 281.466 152.411C282.656 152.021 284.392 152.021 284.392 152.021L285.764 151.395L285.034 149.677L289.143 147.646C289.143 147.646 290.15 147.02 288.413 146.317C286.677 145.614 285.852 145.224 285.852 145.224C285.852 145.224 285.947 144.055 286.677 144.055C287.407 144.055 288.413 144.132 288.413 144.132L289.238 143.352L289.055 142.337C289.055 142.337 287.501 141.244 287.048 141.321C286.588 141.398 284.581 141.557 284.581 141.557L285.128 139.915L285.858 138.9V137.961C285.858 137.181 286.223 136.709 285.676 135.386C285.128 134.057 284.304 132.652 284.304 132.652L284.763 130.467C284.763 130.467 285.311 128.672 285.676 130.077C286.041 131.483 285.582 130.626 286.041 132.109C286.5 133.591 286.406 133.75 286.865 134.53C287.324 135.309 287.324 135.546 287.872 136.089C288.419 136.638 288.879 136.402 288.879 137.418V139.059L289.244 139.998C289.244 139.998 291.528 138.203 291.799 137.577C292.075 136.951 292.346 136.248 292.164 135.315C291.981 134.376 291.704 133.597 291.069 132.971C290.433 132.345 289.879 131.489 289.879 131.489L288.602 129.144L288.696 128.441C288.696 128.441 288.696 127.975 289.338 128.288C289.979 128.601 290.162 128.678 290.615 129.77C291.074 130.863 292.44 132.658 292.44 132.658L293.353 132.894C293.353 132.894 294.448 132.038 294.813 131.099C295.178 130.16 295.82 128.365 295.82 128.365L295.272 126.882L294.63 125.554L294.536 124.615C294.536 124.615 296.179 123.133 296.821 122.973C297.462 122.82 297.827 123.912 297.827 123.912C297.827 123.912 298.557 123.835 299.287 123.446C300.017 123.056 301.207 122.353 301.207 122.353L304.498 121.887H307.694C307.694 121.887 308.154 121.42 308.607 121.337C309.066 121.261 307.965 119.383 307.965 119.383L306.411 116.885L306.688 114.7C306.688 114.7 306.782 114.31 307.512 113.844C308.242 113.377 308.789 113.218 309.796 112.438C310.803 111.659 312.08 110.33 312.445 110.094C312.81 109.857 315.642 110.17 316.737 109.781C317.832 109.391 318.015 109.001 318.015 109.001L318.969 107.484L318.657 107.047C318.657 107.047 317.379 105.251 317.65 104.472C317.926 103.692 316.737 103.22 316.278 102.99C315.819 102.753 314.088 101.82 314.088 101.82L313.264 100.651L310.797 96.4347L309.425 96.3579L307.6 97.5272L303.673 100.415L301.754 102.37L299.381 104.631L290.062 106.037L286.5 108.535L284.245 109.792C284.575 110.92 284.946 112.225 284.946 112.361C284.946 112.598 284.398 112.751 284.398 112.751L282.391 113.844C282.391 113.844 281.201 114.233 280.383 114.157C279.559 114.08 276.639 114.623 276.639 114.623L276.362 115.562L270.604 118.219L267.131 119.548C267.131 119.548 264.482 120.717 262.927 120.954C261.373 121.19 260.643 120.954 259.913 120.954C259.183 120.954 258.724 120.8 258.088 120.404C257.446 120.015 256.351 118.763 256.351 118.763V116.808L257.081 115.326L258.359 113.607C258.359 113.607 258.635 112.515 258.724 111.653C258.818 110.796 258.447 111.416 257.811 111.416C257.175 111.416 255.986 111.806 255.068 110.867C254.155 109.928 255.433 109.775 255.433 109.775L256.439 107.82L256.622 105.948C256.622 105.948 256.257 105.092 255.433 104.619C254.608 104.153 254.061 103.604 254.061 103.604C254.061 103.604 252.689 103.604 251.688 103.84C250.682 104.076 250.411 104.23 250.411 104.23L250.499 104.619C250.499 104.619 250.499 106.178 250.04 106.651C249.581 107.117 249.398 106.887 248.486 107.041C247.573 107.194 246.478 107.82 246.478 107.82L246.572 110.005L247.485 112.58V116.253C247.485 116.253 247.302 117.192 247.026 118.438C246.749 119.69 245.289 118.987 245.289 118.987C245.289 118.987 242.457 118.987 242.092 118.91C241.727 118.834 240.538 118.054 240.267 117.658C239.99 117.269 240.179 115.237 240.179 115.237L239.719 111.257L240.632 108.759L240.815 107.2L240.726 106.261L240.267 106.108L239.354 106.261C239.354 106.261 238.807 106.184 238.624 105.871C238.442 105.558 238.624 104.702 238.624 104.702L239.814 103.61L242.645 102.204L246.937 101.578L248.857 100.875C248.857 100.875 249.316 99.9365 249.404 99.3932L244.382 99.783L242.28 99.47C242.28 99.47 241.368 99.157 240.638 98.6137C239.908 98.0645 240.09 98.3775 240.09 98.3775C240.09 98.3775 237.989 97.911 237.9 97.6748C237.806 97.4386 238.083 96.8953 238.083 96.8953L236.988 95.9563L235.528 96.8126C235.528 96.8126 233.426 98.2181 232.967 98.6078C232.508 98.9976 230.777 99.4641 228.31 99.3873C228.31 99.3873 225.937 98.9208 224.654 98.0586C223.376 97.2024 224.836 97.1197 224.836 97.1197L225.296 96.417L230.317 93.9958L233.514 92.4368L234.492 90.9014L233.879 91.1848L229.493 91.4211L224.195 90.5648L221.451 89.6258L218.525 89.3129L216.153 88.3739L215.328 87.0452L211.767 87.6712H112.983C113.366 88.5156 113.655 89.0766 113.655 89.0766C113.655 89.0766 113.29 91.734 113.013 92.1238C112.736 92.5135 112.283 93.1395 111.824 93.3757C111.364 93.6119 110.999 93.8422 110.999 93.8422L110.452 93.293L110.087 92.4368L109.81 91.8108L107.343 91.1848C107.343 91.1848 104.971 88.6869 104.235 90.4821C103.505 92.2773 103.228 91.8876 103.593 92.5135C103.958 93.1395 104.323 93.4525 104.417 93.9958C104.512 94.545 104.694 96.4937 104.694 96.4937L103.505 98.2889L101.862 100.244L101.038 102.116V103.521C101.038 103.521 101.221 104.537 101.038 105.476C100.856 106.415 100.944 107.035 100.308 107.974C99.6663 108.913 99.0305 110.235 99.0305 110.235C99.0305 110.235 96.4754 113.436 96.4754 115.155C96.4754 116.873 96.5637 119.135 96.5637 119.53C96.5637 119.926 95.4686 122.188 95.4686 122.188C95.4686 122.188 94.7386 123.983 94.7386 125.388C94.7386 126.794 94.8328 127.497 94.9211 128.902C95.0153 130.308 94.6444 131.477 94.7386 132.18C94.8328 132.882 95.5628 134.211 96.4754 134.211C97.3879 134.211 99.4014 133.821 99.9489 134.211C100.496 134.601 100.037 137.412 99.5839 137.571C99.1246 137.725 97.2113 137.884 97.3938 138.51C97.5763 139.136 97.6705 139.603 98.0355 139.915C98.4005 140.228 100.137 141.085 100.137 141.085V142.567L100.502 144.362C100.502 144.362 102.51 143.346 102.787 146.47C103.063 149.594 102.875 150.61 104.247 151.153C105.618 151.702 105.707 151.933 107.538 152.323C109.363 152.712 111.011 152.712 112.194 153.574C113.378 154.437 114.296 154.667 114.75 155.529C115.209 156.385 114.932 155.919 115.662 157.088C116.392 158.257 115.939 157.088 116.392 158.257C116.722 159.102 116.81 159.462 116.84 159.976H126.018L126.383 160.915L126.389 160.944Z" fill="#480095"/>
<path d="M232.419 229.718L232.843 230.657L233.449 238.363L234.368 238.635C234.598 238.369 234.898 238.062 235.251 237.79C236.075 237.164 236.711 236.621 236.711 236.621L236.894 233.733L236.529 228.968L236.894 226.783C236.894 226.783 236.941 226.541 237.047 226.322L232.26 229.724H232.413L232.419 229.718Z" fill="#B0B7BE"/>
<path d="M241.468 216.236C242.657 215.61 243.022 215.143 243.022 215.143L242.84 212.332C242.84 212.332 242.016 211.476 240.738 211.476C239.46 211.476 235.987 211.866 235.987 211.866L233.614 213.271L229.688 213.897C229.688 213.897 228.775 214.133 228.775 214.523C228.775 214.913 228.681 215.379 228.775 215.616C228.863 215.852 228.957 216.708 228.957 216.708L227.68 220.299V222.017L227.038 223.346L225.761 223.895L224.848 224.208L225.125 225.926L225.031 226.865C225.031 226.865 224.571 227.178 223.206 227.568C221.84 227.958 220.468 228.194 220.468 228.194L220.285 227.491L219.644 226.552L217.724 226.476L216.447 226.865L211.696 227.804C211.696 227.804 210.966 228.194 210.142 227.958C209.317 227.722 208.77 227.491 208.77 227.491L208.04 227.255L205.114 226.399L202.188 224.68C202.188 224.68 201.64 224.367 200.999 223.352C200.357 222.336 199.262 221.397 199.262 220.305C199.262 219.212 200.086 219.448 199.262 218.433C198.438 217.417 197.254 216.791 196.978 216.637C196.701 216.484 195.883 216.011 195.883 216.011C195.883 216.011 196.43 214.683 196.978 214.139C197.525 213.59 197.708 213.047 197.708 213.047L197.525 211.641L196.883 209.769L195.877 207.584C195.877 207.584 194.687 204.461 194.87 203.917C195.052 203.368 195.782 202.045 195.782 201.809C195.782 201.573 194.687 199.547 194.687 199.547L194.322 197.362L194.687 195.408L195.877 195.957C195.877 195.957 197.066 196.506 197.337 196.27C197.613 196.034 197.978 195.414 197.978 195.414C197.978 195.414 198.803 194.475 198.803 194.008C198.803 193.819 198.744 193.542 198.65 193.205L198.502 193.152L196.189 191.28L192.656 189.928L190.831 185.865L184.62 175.867L182.913 173.682L178.774 173.162L176.702 173.788L175.118 175.56L173.411 176.706L171.827 176.912L169.513 176.186L168.053 173.794L165.981 170.257L160.376 164.842L154.406 164.948L152.699 166.407L141.496 165.887L126.395 160.992L126.03 160.053H116.851C116.863 160.253 116.863 160.472 116.863 160.755V163.566L117.411 167.003C117.411 167.003 117.87 171.999 118.782 172.702C119.695 173.405 121.432 174.261 121.614 174.497C121.797 174.733 124.446 176.369 124.905 177.308C125.364 178.247 125.912 179.103 126 179.493C126.089 179.883 125.912 182.068 125.912 182.068C125.912 182.068 126.371 182.144 125.453 182.068C124.54 181.991 123.533 181.831 123.533 181.831L121.343 181.908C121.343 181.908 120.337 181.985 120.796 182.688C121.255 183.39 121.803 184.093 122.256 184.329C122.715 184.566 124.263 185.812 124.263 185.812C124.263 185.812 125.723 187.064 126.271 187.064C126.819 187.064 127.914 186.987 127.914 186.987C127.914 186.987 128.008 186.207 129.009 186.751C130.015 187.3 129.833 187.376 130.563 187.843C131.293 188.31 132.205 188.782 132.57 189.095C132.935 189.408 133.577 189.874 133.665 190.737C133.754 191.593 133.848 193.158 133.848 193.158C133.848 193.158 133.024 192.768 133.024 194.953C133.024 197.138 132.841 197.221 134.761 198.39C136.68 199.559 139.694 203.232 140.242 203.776C140.789 204.325 141.248 205.648 142.067 205.258C142.891 204.868 144.168 203.386 144.168 203.386C144.168 203.386 142.708 201.201 142.526 200.965C142.343 200.728 139.417 198.543 139.417 198.543C139.417 198.543 138.593 198.543 138.593 197.687V195.892C138.593 195.892 138.411 195.112 138.228 194.486C138.046 193.861 137.586 192.615 137.586 192.615C137.586 192.615 137.498 191.522 137.404 189.957C137.316 188.398 136.674 186.91 136.674 186.91L134.301 185.581C134.301 185.581 133.66 185.192 132.93 183.396C132.2 181.601 131.74 181.365 131.652 180.662C131.564 179.959 131.74 178.944 131.287 178.164C130.828 177.385 130.645 177.385 129.462 175.902C128.273 174.42 127.637 173.481 126.813 172.466C125.988 171.45 125.258 172.312 125.258 170.357C125.258 168.403 125.17 168.562 125.258 167.233C125.353 165.905 126.448 163.484 126.448 163.484C126.448 163.484 127.178 164.423 127.819 164.653C128.461 164.889 130.192 165.043 130.469 164.966C130.745 164.889 131.658 165.356 131.84 166.135C132.023 166.915 132.117 168.007 132.117 168.007C132.117 168.007 130.657 166.678 132.023 169.259C133.395 171.834 134.307 173.629 134.307 173.629C134.307 173.629 135.861 178.312 136.862 179.015C137.869 179.717 138.14 179.954 139.512 181.123C140.883 182.292 142.438 182.138 141.248 182.764C140.059 183.39 140.242 182.918 140.059 183.39C139.877 183.857 140.518 185.109 140.972 185.345C141.431 185.581 142.249 185.735 143.256 186.048C144.263 186.361 143.898 185.971 144.263 186.361C144.628 186.751 143.898 187.217 145.358 187.613L146.818 188.002C146.912 188.941 147.277 188.628 146.724 189.254C146.176 189.88 145.081 190.66 144.898 190.973C144.716 191.286 144.81 192.768 144.81 192.768C144.81 192.768 145.452 193.081 146.453 193.004C147.459 192.927 149.196 192.768 149.65 193.317C150.109 193.866 151.569 195.502 151.569 195.738C151.569 195.975 152.211 197.77 152.664 198.313C153.123 198.862 154.306 199.565 154.401 199.795C154.495 200.032 155.496 202.14 155.772 202.53C156.049 202.919 157.415 205.187 157.874 205.577C158.333 205.966 161.618 208.388 161.713 208.777C161.807 209.167 162.078 210.886 161.713 211.748C161.348 212.604 160.706 214.405 160.341 214.712C159.976 215.025 158.881 216.584 158.881 216.584C158.881 216.584 159.246 218.846 159.246 219.082C159.246 219.318 159.523 220.647 159.976 221.037C160.435 221.427 165.092 225.017 165.092 225.017C165.092 225.017 167.194 225.017 167.559 225.483C167.924 225.95 169.113 227.515 169.113 227.515L172.31 228.92L174.777 229.31L178.798 231.342C178.798 231.342 183.819 232.901 183.819 233.137C183.819 233.373 183.178 234.465 186.834 235.794C190.49 237.123 193.869 238.215 194.322 238.682C194.782 239.148 192.862 239.934 196.33 240.011C199.804 240.087 200.622 240.713 202.359 240.324C204.095 239.934 204.914 240.087 205.92 239.308C206.927 238.528 207.928 238.056 208.387 237.979C208.846 237.902 214.416 239.385 214.416 239.385L218.072 242.662C218.072 242.662 218.284 243.288 218.549 244.014L218.955 243.961L219.685 242.556L221.757 240.211L222.552 239.225C222.552 239.225 225.296 239.172 225.843 239.018C226.391 238.865 227.55 238.032 227.55 238.032L227.427 237.04L226.267 235.582L224.377 234.229L223.83 233.863L222.67 233.084L222.611 232.458C222.611 232.458 222.67 232.145 223.4 232.038C224.13 231.932 224.254 231.672 224.254 231.672L224.195 230.733L224.56 229.847L227.727 229.741H232.26L237.047 226.34C237.147 226.133 237.306 225.944 237.529 226.021C237.989 226.174 238.719 226.334 238.719 226.334L240.179 226.18L241.003 224.928L241.733 222.354L240.273 221.184C240.273 221.184 239.814 221.421 240.09 220.871C240.367 220.322 240.915 219.932 240.915 219.932C240.915 219.932 241.097 219.153 241.003 218.137C240.915 217.122 240.273 216.885 241.462 216.265L241.468 216.236Z" fill="#FF943F"/>
<path d="M232.178 247.782V246.117L233.944 245.65L233.82 244.558L234.003 243.152L236.682 242.007L239.354 239.03L239.089 238.8L237.264 239.656L234.892 240.046L233.885 239.266C233.885 239.266 234.068 238.983 234.374 238.623L233.455 238.351L232.849 230.645L232.425 229.706H227.733L224.566 229.812L224.2 230.698L224.259 231.637C224.259 231.637 224.136 231.897 223.406 232.003C222.676 232.109 222.617 232.422 222.617 232.422L222.676 233.048L223.835 233.828L224.383 234.194L226.273 235.546L227.433 237.005L227.556 237.997C227.556 237.997 226.396 238.829 225.849 238.983C225.301 239.137 222.558 239.19 222.558 239.19L221.763 240.176L219.691 242.52L218.961 243.926L218.555 243.979C218.849 244.776 219.208 245.691 219.449 246.058C219.909 246.76 220.091 247.54 221.916 248.792C223.741 250.044 225.113 250.664 225.755 250.51C226.396 250.357 227.215 249.961 228.222 250.197C228.298 250.215 228.375 250.239 228.457 250.262L229.193 249.388L232.178 247.776V247.782Z" fill="#B0B7BE"/>
<path d="M240.585 249.5L239.425 248.668L237.965 248.821L237.294 249.134L235.893 248.355L235.769 247.469L232.178 247.534V247.782L229.193 249.394L228.457 250.268C229.499 250.581 231.142 251.455 231.142 251.455L232.513 252.784L237.264 253.25C237.264 253.25 238.089 253.014 239.272 252.701C239.619 252.607 240.008 252.559 240.385 252.542L240.273 250.959L240.579 249.5H240.585Z" fill="#B0B7BE"/>
<path d="M244.176 253.404L244.6 251.685L244.659 250.433L245.819 249.754L249.227 249.601C249.227 249.601 250.14 249.394 250.811 249.235C251.482 249.081 252.089 248.768 252.089 248.768L253.49 247.469L254.767 246.01L258.176 245.384L260.802 243.276L260.555 242.627L258.635 242.16L257.54 240.991L255.35 239.739L252.883 239.585L250.782 239.662L248.774 238.806L247.131 239.355L244.206 239.432H239.819L239.354 239.036L236.682 242.012L234.003 243.158L233.82 244.564L233.944 245.656L232.178 246.123V247.54L235.769 247.475L235.893 248.361L237.294 249.14L237.965 248.827L239.425 248.674L240.585 249.506L240.279 250.965L240.391 252.548C241.297 252.5 242.133 252.642 242.198 252.866C242.257 253.067 242.504 253.782 242.675 254.349L242.963 254.295L244.182 253.41L244.176 253.404Z" fill="#B0B7BE"/>
<path d="M250.923 264.14C251.017 264.258 251.788 264.884 252.43 264.842C253.072 264.801 253.89 264.842 254.255 264.689C254.62 264.535 255.121 263.833 255.121 263.833L256.722 263.791L258.8 264.63C258.753 264.193 258.73 263.868 258.73 263.868L260.101 262.386C260.101 262.386 260.649 261.606 260.101 260.514C259.554 259.421 257.911 257.236 257.911 257.236L258.553 256.923C258.553 256.923 259.831 257.077 260.196 256.847C260.561 256.61 260.655 256.923 260.837 256.457C261.02 255.99 260.931 254.738 260.931 254.738L260.201 253.333L259.377 251.691C259.377 251.691 258.83 250.286 259.925 249.583C261.02 248.88 261.661 248.178 261.661 248.178L261.75 245.756L260.808 243.282L258.182 245.39L254.773 246.016L253.496 247.475L252.095 248.774C252.095 248.774 251.488 249.087 250.817 249.241C250.146 249.394 249.233 249.607 249.233 249.607L245.825 249.76L244.665 250.439L244.606 251.691L244.182 253.41L242.963 254.295L242.675 254.349C242.769 254.668 242.84 254.939 242.84 255.051C242.84 255.364 243.299 257.786 243.299 257.786L244.942 259.504C244.942 259.504 246.037 260.833 247.132 262.392C247.638 263.118 248.026 263.874 248.303 264.476L249.098 264.069C249.098 264.069 250.835 264.027 250.923 264.146V264.14Z" fill="#B0B7BE"/>
<path d="M263.21 276.281L263.575 274.521L263.345 273.387L262.933 271.746L263.616 271.433L265.547 271.179C265.076 270.647 264.67 270.37 264.305 269.95C263.757 269.325 262.297 268.858 261.108 268.078C259.919 267.299 259.371 267.063 259.1 266.207C258.953 265.752 258.859 265.12 258.806 264.624L256.728 263.785L255.127 263.827C255.127 263.827 254.626 264.529 254.261 264.683C253.896 264.836 253.072 264.801 252.436 264.836C251.794 264.878 251.023 264.252 250.929 264.134C250.841 264.016 249.104 264.057 249.104 264.057L248.309 264.464C248.621 265.161 248.78 265.657 248.78 265.657L248.415 267.063C248.415 267.063 247.591 267.529 248.597 268.468C249.604 269.407 250.97 270.263 250.97 270.263L252.342 270.187C252.342 270.187 253.072 269.017 253.349 268.935C253.625 268.858 254.991 269.171 254.991 269.171C254.991 269.171 255.539 270.423 255.633 270.73C255.727 271.043 256.91 271.899 256.91 271.899L258.553 273.228L258.735 275.649L259.283 276.429C259.283 276.429 260.013 276.275 260.195 275.962C260.378 275.649 260.561 275.413 260.743 275.649C260.926 275.885 261.473 276.429 261.567 276.818C261.661 277.208 260.56 278.07 261.932 278.07H263.133L263.298 277.409L263.204 276.275L263.21 276.281Z" fill="#B0B7BE"/>
<path d="M287.236 281.749L287.554 280.734C287.554 280.734 288.013 280.302 288.602 280.462C289.196 280.615 289.974 280.698 289.974 280.698C289.974 280.698 290.021 280.308 290.068 279.919C290.115 279.529 290.115 279.175 290.115 278.903C290.115 278.631 290.021 278.047 290.021 278.047L289.703 276.836L290.085 276.163C289.738 275.785 289.279 275.348 288.79 274.881C287.966 274.102 287.053 273.009 286.6 272.46C286.141 271.911 285.046 271.681 285.046 271.681L281.755 271.527L279.836 271.604L278.829 272.23C278.829 272.23 277.275 272.779 275.72 273.399C274.166 274.025 273.348 274.415 272.612 274.415H269.503L266.672 274.261C266.672 274.261 267.131 273.559 266.307 272.23C266.03 271.787 265.777 271.456 265.541 271.191L263.61 271.445L262.927 271.758L263.339 273.399L263.569 274.533L263.204 276.293L263.298 277.427L263.133 278.088H265.4C266.312 278.088 269.786 278.637 269.786 278.637C269.786 278.637 269.786 279.027 270.333 279.34C270.881 279.653 272.253 279.73 272.253 279.73L273.165 281.289C273.165 281.289 275.173 282.541 275.632 282.304C276.091 282.068 276.362 281.838 276.362 281.365C276.362 280.893 276.456 280.427 276.085 279.724C275.72 279.021 274.896 278.472 275.444 278.082C275.991 277.692 276.085 277.616 276.815 277.456C277.545 277.303 278.005 277.22 278.093 276.99C278.187 276.753 278.093 275.738 278.093 275.738C278.093 275.738 277.634 275.348 278.37 274.958C279.1 274.568 280.377 274.179 280.925 274.102C281.472 274.025 282.75 274.881 283.209 275.041C283.668 275.194 284.216 275.507 284.487 275.897C284.763 276.287 285.217 276.6 285.311 276.99C285.405 277.379 285.217 278.159 285.217 278.159C285.217 278.159 284.852 279.488 285.311 279.877C285.635 280.155 286.223 281.737 286.547 282.659L286.865 282.611L287.23 281.755L287.236 281.749Z" fill="#B0B7BE"/>
<path d="M315.601 262.226L314.276 262.811L312.634 263.785L312.269 264.529L311.992 266.171L310.667 269.059C310.667 269.059 310.026 270.506 309.843 270.972C309.661 271.439 309.525 272.531 309.478 272.732C309.431 272.927 308.978 273.671 308.978 273.671L309.025 274.527L310.897 275.501L312.952 277.143L313.181 279.175L312.816 281.283L313.228 283.468L314.553 284.212C314.553 284.212 317.52 284.838 317.662 284.838C317.803 284.838 321.5 285.074 321.5 285.074L323.967 285.428C323.967 285.428 325.015 286.403 325.062 286.521C325.109 286.639 326.069 288.003 326.204 288.239C326.339 288.475 328.394 289.214 328.394 289.214C328.394 289.214 329.625 289.485 330.178 289.485C330.731 289.485 333.286 289.249 333.834 289.096C334.382 288.942 335.388 288.783 335.388 288.783H335.571L335.936 290.891L334.381 293.938L333.375 297.375L333.557 298.467L335.017 300.652L335.382 301.668L334.923 302.837L333.463 303.93L333.004 305.725L334.646 306.038L335.471 306.191L337.755 307.833L337.849 309.085L338.579 312.912L340.316 315.173L342.418 316.112L344.973 315.333C344.973 315.333 347.075 314.866 348.811 313.851C350.548 312.835 352.738 311.506 352.738 311.506C352.738 311.506 353.651 310.024 354.475 309.634C355.299 309.244 355.57 309.168 355.935 308.931C356.3 308.695 356.394 308.306 356.394 308.306L356.029 307.367L354.569 307.443L352.832 307.367L352.285 306.587L352.008 304.632C352.008 304.632 352.373 304.945 352.008 302.914C351.643 300.883 352.096 301.196 351.643 300.883C351.184 300.57 349.724 299.164 349.724 299.164C350.913 298.774 352.65 298.774 352.65 298.774L354.752 299.713H356.212L358.037 299.56L359.956 298.154C359.956 298.154 361.51 297.605 362.423 297.605C363.335 297.605 366.897 296.436 366.897 296.436L368.269 295.58L368.634 294.641L368.54 293.389L367.898 291.906L366.803 290.501L365.525 288.629L365.62 287.3L368.269 284.566L368.451 283.397L368.269 281.755L368.999 280.114L371.283 279.175L371.625 278.324C371.224 278.448 370.918 278.549 370.918 278.549L368.816 278.312L367.992 276.671L368.54 274.952L365.89 272.454L363.606 271.049L361.139 271.126L359.497 270.736L357.854 268.781C357.854 268.781 358.037 268.628 358.584 268.315C359.132 268.002 359.408 268.002 359.679 267.848C359.956 267.695 360.409 267.222 360.409 267.222L359.038 266.13C359.038 266.13 357.848 266.053 356.936 266.053C356.023 266.053 354.469 266.13 354.469 266.13L352.644 267.069L349.63 266.679C349.63 266.679 349.353 266.525 349.17 266.756C348.988 266.992 348.44 267.695 348.075 267.925C347.71 268.161 346.615 268.704 346.615 268.704L344.06 268.628C344.06 268.628 342.6 267.376 342.418 267.145C342.235 266.909 341.411 266.679 341.411 266.679L337.207 266.525L335.747 267.075L333.281 267.388C333.281 267.388 332.274 268.167 331.909 266.998C331.544 265.829 331.267 264.577 331.267 264.577L329.807 263.018L326.334 262.705L324.962 261.453C324.962 261.453 324.597 260.36 324.414 260.124C324.232 259.888 322.954 259.345 322.954 259.345C322.954 259.345 322.042 259.421 321.948 259.811C321.853 260.201 321.765 261.063 321.765 261.683C321.765 262.303 320.67 263.478 320.67 263.478L318.386 264.335L318.292 265.427C318.292 265.427 317.926 267.222 317.926 267.689C317.926 268.155 317.744 268.858 318.386 269.561C319.027 270.263 319.392 270.813 319.392 270.813C319.392 270.813 319.669 270.966 319.392 271.669C319.116 272.372 319.027 272.685 318.845 272.921C318.662 273.157 316.926 274.013 316.561 273.86C316.196 273.706 314.276 272.378 314.276 272.378L314.188 270.11C314.188 270.11 314.83 269.33 315.195 268.941C315.56 268.551 315.471 266.366 315.377 266.13C315.283 265.894 314.371 264.488 314.371 264.488C314.371 264.488 313.729 263.236 314.918 262.77C315.678 262.468 316.254 262.297 316.661 262.15L316.243 262.102L315.601 262.22V262.226Z" fill="#B0B7BE"/>
<path d="M286.135 316.136C286.194 316.29 287.412 316.762 287.66 316.915C287.901 317.069 289.12 318.528 289.12 318.528L290.827 319.047L292.899 319.413H293.506L294.542 318.894L294.966 318.787L297.038 318.994L300.447 320.866L302.702 321.232C302.702 321.232 303.797 322.171 303.921 322.431C304.044 322.691 304.592 324.149 304.592 324.149C304.592 324.149 305.322 324.775 305.81 325.189C306.299 325.608 308.065 326.801 308.065 326.801L308.489 327.787L308.43 329.246L308.554 330.598L310.079 331.171C310.079 331.171 310.261 331.118 310.873 331.017C311.48 330.911 313.064 330.864 313.064 330.864L314.588 330.344C314.588 330.344 316.355 330.551 316.778 330.71C317.202 330.864 320.069 331.283 320.069 331.283L321.712 331.909L322.566 332.376L321.894 333.935L319.946 338.31L321.836 338.883L324.149 340.862L325.55 334.248L326.463 326.388C326.463 326.388 326.463 325.502 326.522 324.982C326.581 324.462 326.098 322.638 326.098 322.638C326.098 322.638 325.733 321.598 325.609 321.386C325.486 321.173 324.391 320.553 324.391 320.553L323.843 319.354V318.002C323.843 318.002 324.514 317.376 324.879 317.276C325.244 317.169 326.952 317.016 326.952 317.016L327.623 316.597L327.682 315.244L327.44 314.518L325.55 313.945H324.762L324.338 312.959C324.338 312.959 325.191 311.134 325.374 311.087C325.556 311.034 328.482 310.827 328.724 310.827C328.965 310.827 330.914 310.774 330.914 310.774C330.914 310.774 332.074 310.148 332.315 309.994C332.556 309.841 333.41 310.461 333.41 310.461L334.381 310.307L335.111 309.788L335.783 309.528C335.783 309.528 336.207 310.727 336.389 311.087C336.572 311.453 336.937 312.439 336.813 312.858C336.689 313.278 336.448 314.211 336.448 314.211C336.448 314.211 338.214 314.677 338.397 314.677C338.485 314.677 338.968 314.364 339.445 314.04L338.579 312.912L337.849 309.085L337.755 307.833L335.471 306.191L334.646 306.038L333.004 305.725L333.463 303.93L334.923 302.837L335.382 301.668L335.017 300.652L333.557 298.467L333.375 297.375L334.381 293.938L335.936 290.891L335.571 288.783H335.388C335.388 288.783 334.381 288.936 333.834 289.096C333.286 289.249 330.725 289.485 330.178 289.485C329.63 289.485 328.394 289.214 328.394 289.214C328.394 289.214 326.339 288.47 326.204 288.239C326.069 288.003 325.109 286.639 325.062 286.521C325.015 286.403 323.967 285.428 323.967 285.428L321.5 285.074C321.5 285.074 317.803 284.838 317.661 284.838C317.52 284.838 314.553 284.212 314.553 284.212L313.228 283.468L312.816 281.283L313.181 279.175L312.952 277.143L310.897 275.501L309.025 274.527L308.978 273.671C308.978 273.671 309.437 272.927 309.478 272.732C309.525 272.537 309.661 271.445 309.843 270.972C310.026 270.506 310.667 269.059 310.667 269.059L311.992 266.171L312.269 264.529L312.634 263.785L314.276 262.811L315.601 262.226L316.243 262.108L316.661 262.155C316.89 262.073 317.067 262.002 317.202 261.913C317.567 261.677 318.027 261.211 318.027 261.211L317.844 260.041L315.742 257.933L313.64 258.713L312.634 259.339L312.175 260.591L311.262 261.919C311.262 261.919 310.073 262.935 308.518 263.638C306.964 264.34 305.869 264.653 305.869 264.653C305.869 264.653 304.774 264.5 304.409 264.577C304.044 264.653 303.22 265.126 303.22 265.126L302.396 265.675L301.206 264.659V263.88L299.929 263.957L299.105 264.813L298.01 266.455L297.003 268.563L297.368 271.22L296.455 272.159L294.813 272.939L294.354 274.498L293.624 275.513L292.529 275.903L292.434 276.842C292.434 276.842 292.799 278.324 292.894 278.56C292.988 278.797 292.346 279.499 292.346 279.499L291.434 279.423L290.704 278.094C290.704 278.094 290.886 277.314 290.609 276.842C290.497 276.653 290.315 276.423 290.079 276.169L289.697 276.842L290.015 278.053C290.015 278.053 290.109 278.637 290.109 278.909C290.109 279.181 290.109 279.535 290.062 279.925C290.015 280.314 289.968 280.704 289.968 280.704C289.968 280.704 289.19 280.627 288.596 280.468C288.001 280.314 287.548 280.74 287.548 280.74L287.23 281.755L286.865 282.611L286.547 282.659C286.682 283.043 286.771 283.314 286.771 283.314C286.771 283.314 287.318 283.001 287.318 284.094C287.318 285.186 287.318 285.576 287.683 285.576C288.048 285.576 288.508 285.653 288.873 286.202C289.238 286.751 289.968 288.546 289.968 289.013C289.968 289.479 290.062 292.603 289.968 293.076C289.879 293.542 290.15 294.717 289.508 295.733C288.867 296.749 288.596 297.292 288.596 297.528C288.596 297.765 289.508 299.247 289.508 299.247L290.603 300.262L289.414 301.432C289.414 301.432 288.042 301.196 287.677 302.447C287.312 303.699 287.401 304.479 287.036 304.632C286.671 304.786 285.028 305.099 285.028 305.099C285.028 305.099 283.751 304.863 283.109 305.565C282.467 306.268 281.92 306.422 282.102 307.207C282.285 307.987 283.015 308.689 283.015 308.689C283.015 308.689 283.839 309.546 283.562 309.859C283.285 310.172 282.832 310.561 282.467 310.798C282.102 311.034 281.643 310.798 281.643 311.577C281.643 312.357 281.825 312.982 281.92 313.372L285.452 315.351C285.452 315.351 286.058 315.977 286.123 316.13L286.135 316.136Z" fill="#AD1AC7"/>
<path d="M275.844 336.332L275.114 337.944L274.99 338.83L276.085 339.716L277.428 339.869L279.194 339.976L280.23 341.275L281.266 342.108L282.302 341.428L284.31 338.098L285.652 334.348L289.002 333.622L293.082 332.996L296.249 331.383C296.249 331.383 299.111 328.626 299.417 328.26C299.723 327.893 301.124 325.295 301.124 325.295L300.942 322.537L300.029 320.636L297.044 318.994L294.972 318.787L294.548 318.894L293.512 319.413H292.905L290.833 319.047L289.126 318.528C289.126 318.528 287.907 317.069 287.666 316.915C287.424 316.762 286.206 316.29 286.141 316.136C286.082 315.982 285.47 315.356 285.47 315.356L281.937 313.378C282.032 313.768 281.572 314.86 281.296 315.097C281.019 315.333 279.741 316.036 279.741 316.036C279.741 316.036 278.917 316.272 278.646 315.959C278.37 315.646 277.916 315.41 277.916 315.41C277.916 315.41 276.821 315.333 276.456 315.876C276.091 316.425 275.815 316.732 275.632 317.518C275.449 318.297 275.267 319.703 275.267 319.703L274.26 322.047L272.618 324.079L272.706 328.844C272.706 328.844 272.064 329.157 272.158 330.326C272.253 331.496 272.618 331.891 272.618 331.891L274.354 332.045C274.354 332.045 275.544 331.419 275.997 331.265C276.456 331.112 277.369 330.952 277.551 331.265C277.734 331.578 278.281 333.22 278.281 333.22C278.281 333.22 276.727 334.313 275.726 334.702C275.691 334.714 275.656 334.732 275.62 334.744L275.726 335.092L275.85 336.344L275.844 336.332Z" fill="#B0B7BE"/>
<path d="M321.765 407.71L322.495 406.458L322.86 404.349L323.955 402.395L327.152 400.836L328.159 399.82L326.604 397.009L324.962 395.055L324.873 393.183L326.245 391.464L327.252 389.12L327.158 386.699L326.699 384.041L328.07 381.62L328.895 379.748L326.793 376.158L325.786 374.516L324.232 373.187L321.677 372.248C321.677 372.248 321.312 371.935 321.312 371.392C321.312 370.849 321.406 369.52 321.406 369.52C321.406 369.52 321.683 367.961 321.588 367.565C321.5 367.176 320.493 366.709 320.493 366.709C320.493 366.709 318.303 366.632 317.844 367.099C317.385 367.565 316.472 368.658 316.472 368.658C316.472 368.658 315.925 369.284 315.56 368.811C315.195 368.345 313.735 366.939 313.735 366.939L312.18 365.38L310.079 364.991L309.896 364.441L309.619 362.882L308.159 360.148C308.159 360.148 306.423 357.184 306.152 356.475C305.875 355.772 305.422 354.367 305.328 353.741C305.233 353.115 306.423 351.786 306.423 351.786L308.065 351.084L309.072 349.678L309.437 347.257L310.897 342.881L313.452 341.712L316.378 341.163L319.122 339.757L320.493 340.147L322.866 341.399L323.396 340.212L321.83 338.871L319.94 338.299L321.889 333.923L322.56 332.364L321.706 331.897L320.064 331.271C320.064 331.271 317.202 330.852 316.773 330.698C316.349 330.545 314.582 330.332 314.582 330.332L313.058 330.852C313.058 330.852 311.474 330.905 310.868 331.006C310.261 331.112 310.073 331.159 310.073 331.159L308.548 330.586L308.424 329.234L308.483 327.775L308.059 326.789C308.059 326.789 306.293 325.59 305.804 325.177C305.316 324.758 304.586 324.138 304.586 324.138C304.586 324.138 304.038 322.679 303.915 322.419C303.791 322.159 302.696 321.22 302.696 321.22L300.441 320.854L300.017 320.624L300.93 322.525L301.112 325.283C301.112 325.283 299.711 327.887 299.405 328.248C299.099 328.614 296.238 331.372 296.238 331.372L293.07 332.984L288.99 333.61L285.64 334.336L284.298 338.086L282.291 341.417L281.254 342.096L280.218 341.263L279.182 339.964L277.416 339.858L276.074 339.704L274.979 338.818L275.102 337.932L275.832 336.32L275.709 335.068L275.603 334.72C274.537 335.145 272.129 336.255 271.599 336.787C271.052 337.336 269.315 337.803 269.315 339.598C269.315 341.393 269.774 342.722 270.045 342.798C270.322 342.875 270.775 343.035 271.14 343.578C271.505 344.127 272.053 344.983 272.147 345.45C272.241 345.916 272.423 346.932 272.147 347.009C271.87 347.086 270.957 347.086 270.687 347.558C270.41 348.025 269.957 347.794 270.139 348.574C270.322 349.353 273.336 350.836 273.336 350.836L275.526 351.851L277.993 354.509C277.993 354.509 279.27 357.473 279.635 358.099C280 358.725 280.73 359.192 281.095 359.505C281.46 359.818 282.921 361.849 283.015 362.079C283.103 362.315 286.029 371.764 286.029 371.764C286.029 371.764 286.394 374.811 286.671 375.041C286.947 375.278 288.225 376.837 288.407 377.073C288.59 377.309 289.414 379.028 289.414 379.417C289.414 379.807 288.955 380.823 289.508 381.136C290.056 381.449 292.246 383.557 292.246 383.557C292.246 383.557 293.435 385.512 293.253 385.978C293.07 386.445 292.888 386.834 292.523 386.994C292.158 387.147 291.698 388.476 291.698 388.476C291.698 388.476 292.976 390.194 293.07 390.431C293.164 390.667 297.456 395.114 297.456 395.114L301.566 397.771L306.864 399.726L311.521 403.475L314.535 406.836L318.097 409.723C318.097 409.723 318.091 409.889 318.08 410.16L319.469 409.723L321.753 407.692L321.765 407.71Z" fill="#FA2080"/>
<path d="M385.472 305.359C385.472 305.359 384.924 303.174 384.8 302.861C384.677 302.548 383.399 301.249 383.399 301.249L381.757 300.05L381.268 298.851L381.327 296.82L381.933 295.674L383.093 295.101L384.188 294.062L384.429 292.397L384.488 290.471L384.606 289.851C384.477 289.739 384.353 289.592 384.247 289.403C383.699 288.464 382.145 287.058 382.145 287.058L379.861 286.668C379.861 286.668 378.583 286.355 378.401 285.889C378.218 285.422 377.671 283.314 377.488 282.452C377.306 281.596 376.847 280.734 376.299 279.954C375.752 279.175 373.926 277.999 373.467 277.923C373.185 277.875 372.272 278.123 371.619 278.324L371.277 279.175L368.993 280.114L368.263 281.755L368.445 283.397L368.263 284.566L365.614 287.3L365.519 288.629L366.797 290.501L367.892 291.906L368.534 293.389L368.551 293.631L370.176 293.696L371.884 295.048C371.884 295.048 372.614 296.141 372.614 296.3C372.614 296.459 373.408 297.552 373.408 297.552L373.65 299.01L372.796 301.715L372.007 303.227L372.372 305.884C372.372 305.884 372.614 307.343 372.614 308.016V310.674L374.321 312.132L376.758 312.811L379.013 312.658L381.757 311.878L383.764 310.886L385.954 310.366L387.361 310.319L386.202 307.815L385.472 305.371V305.359Z" fill="#B0B7BE"/>
<path d="M399.719 304.06L399.354 302.808L399.66 300.723V299.471L398.683 298.013L398.076 296.141L398.683 294.475L399.23 292.916L399.042 292.054C398.271 291.723 397.594 291.523 397.223 291.434C396.581 291.28 394.668 291.28 394.668 291.28L392.295 291.83L387.821 291.676L386.726 290.507L385.719 290.271C385.719 290.271 385.13 290.318 384.618 289.857L384.5 290.477L384.441 292.402L384.2 294.068L383.105 295.107L381.945 295.68L381.339 296.826L381.28 298.857L381.768 300.056L383.411 301.255C383.411 301.255 384.689 302.554 384.812 302.867C384.936 303.18 385.483 305.365 385.483 305.365L386.213 307.809L387.373 310.313L389.01 310.26L389.316 310.107L389.987 308.855L390.111 308.128L392.424 307.922L394.191 308.181L395.227 308.028L397.8 308.418L399.548 305.63L399.731 304.071L399.719 304.06Z" fill="#B0B7BE"/>
<path d="M409.462 298.225L408.273 297.056L406.083 294.168L403.434 293.465C403.434 293.465 402.156 293.932 400.784 292.999C400.208 292.603 399.601 292.296 399.042 292.054L399.23 292.916L398.683 294.475L398.076 296.141L398.683 298.013L399.66 299.471V300.723L399.354 302.808L399.719 304.06L399.536 305.619L397.788 308.406L397.953 308.429C397.953 308.429 398.441 308.949 399.477 309.262C400.514 309.575 402.886 309.888 402.886 309.888L404.594 309.681L405.812 308.695C405.812 308.695 406.36 307.703 406.848 306.924C407.337 306.144 408.615 303.54 408.615 303.54L409.957 302.188L411.435 298.709L409.468 298.231L409.462 298.225Z" fill="#B0B7BE"/>
<path d="M488.394 355.932C488.759 355.383 489.218 354.993 488.941 354.137C488.664 353.28 487.569 351.562 487.569 351.562L486.839 348.828L485.833 347.186L483.913 345.781L480.534 345.544C480.534 345.544 478.98 345.781 478.526 345.544C478.067 345.308 476.336 343.985 476.336 343.985C476.336 343.985 474.782 342.19 473.781 340.472C472.774 338.753 471.038 336.958 471.038 336.958H469.943L467.753 336.019L466.475 335.316H458.986L456.614 334.69L454.147 334.537L450.038 332.895L447.206 333.834L446.564 334.773H445.01L444.28 335.629L443.55 336.645C443.55 336.645 441.725 336.332 441.725 336.096C441.725 335.86 441.177 334.537 441.448 334.224C441.725 333.911 443.456 333.285 443.456 333.285L444.28 332.582C444.28 332.582 443.821 331.33 443.55 330.551C443.273 329.771 442.361 327.427 442.361 327.427H440.806L439.982 328.13C439.982 328.13 438.705 327.504 438.705 327.037C438.705 326.571 437.88 325.785 437.88 325.785L433.859 324.846L429.291 323.99L427.466 324.144C427.466 324.144 426.553 325.082 426.459 325.313C426.365 325.543 423.533 327.421 423.533 327.421L422.62 328.513L420.978 329.063L414.584 329.842L409.651 328.437L408.827 327.734H406.36L407.731 325.472L409.192 323.907L410.381 321.486C410.381 321.486 410.746 320.234 411.658 319.614C412.571 318.988 413.76 318.209 413.76 318.209L416.957 316.49C416.957 316.49 416.957 316.567 417.139 315.941C417.322 315.315 417.687 314.459 417.964 314.146C418.24 313.833 418.605 312.274 418.605 312.274L415.956 310.089L414.584 307.514C414.584 307.514 414.037 304.857 413.76 304.314C413.483 303.764 411.753 300.174 411.753 300.174L412.029 298.845L411.435 298.698L409.957 302.176L408.615 303.528C408.615 303.528 407.337 306.132 406.848 306.912C406.36 307.691 405.812 308.683 405.812 308.683L404.594 309.67L402.886 309.876C402.886 309.876 400.514 309.563 399.477 309.25C398.441 308.937 397.953 308.418 397.953 308.418L395.209 307.998L394.173 308.152L392.407 307.892L390.093 308.099L389.969 308.825L389.298 310.077L388.992 310.231L385.948 310.337L383.758 310.857L381.751 311.849L379.007 312.628L376.752 312.782L374.315 312.103L372.608 310.644V307.987C372.608 307.307 372.366 305.855 372.366 305.855L372.001 303.197L372.79 301.686L373.644 298.981L373.403 297.522C373.403 297.522 372.608 296.43 372.608 296.27C372.608 296.111 371.878 295.019 371.878 295.019L370.17 293.666L368.546 293.601L368.622 294.605L368.257 295.544L366.885 296.4C366.885 296.4 363.324 297.57 362.411 297.57C361.498 297.57 359.944 298.119 359.944 298.119L358.025 299.524L356.2 299.678H354.74L352.638 298.739C352.638 298.739 350.901 298.739 349.712 299.129C349.712 299.129 351.172 300.534 351.631 300.847C352.091 301.16 351.631 300.847 351.996 302.879C352.361 304.91 351.996 304.597 351.996 304.597L352.273 306.552L352.821 307.331L354.557 307.408L356.017 307.331L356.382 308.27C356.382 308.27 356.288 308.66 355.923 308.896C355.558 309.132 355.281 309.209 354.463 309.599C353.639 309.989 352.726 311.471 352.726 311.471C352.726 311.471 350.536 312.799 348.8 313.815C347.063 314.831 344.961 315.297 344.961 315.297L342.406 316.077L340.304 315.138L339.433 314.004C338.956 314.329 338.473 314.642 338.385 314.642C338.202 314.642 336.436 314.175 336.436 314.175C336.436 314.175 336.678 313.236 336.801 312.823C336.925 312.404 336.56 311.418 336.377 311.051C336.195 310.685 335.771 309.492 335.771 309.492L335.1 309.752L334.37 310.272L333.398 310.425C333.398 310.425 332.545 309.8 332.303 309.959C332.062 310.113 330.902 310.738 330.902 310.738C330.902 310.738 328.953 310.792 328.712 310.792C328.471 310.792 325.545 310.998 325.362 311.051C325.18 311.105 324.326 312.923 324.326 312.923L324.75 313.91H325.539L327.429 314.482L327.67 315.209L327.611 316.561L326.94 316.98C326.94 316.98 325.233 317.134 324.868 317.24C324.503 317.347 323.831 317.967 323.831 317.967V319.319L324.379 320.518C324.379 320.518 325.474 321.144 325.598 321.35C325.721 321.557 326.086 322.602 326.086 322.602C326.086 322.602 326.575 324.427 326.51 324.947C326.451 325.466 326.451 326.352 326.451 326.352L325.539 334.212L324.138 340.826L323.39 340.188L322.86 341.375L320.487 340.123L319.116 339.734L316.372 341.139L313.446 341.688L310.891 342.857L309.431 347.233L309.066 349.654L308.059 351.06L306.417 351.763C306.417 351.763 305.228 353.091 305.322 353.717C305.416 354.343 305.869 355.749 306.146 356.451C306.423 357.154 308.154 360.125 308.154 360.125L309.614 362.859L309.89 364.418L310.073 364.967L312.175 365.357L313.729 366.916C313.729 366.916 315.189 368.321 315.554 368.788C315.919 369.254 316.466 368.634 316.466 368.634C316.466 368.634 317.379 367.542 317.838 367.075C318.297 366.609 320.487 366.685 320.487 366.685C320.487 366.685 321.494 367.152 321.582 367.542C321.677 367.931 321.4 369.496 321.4 369.496C321.4 369.496 321.306 370.825 321.306 371.368C321.306 371.912 321.671 372.225 321.671 372.225L324.226 373.164L324.856 373.701H325.233L326.875 373.24H330.437L332.998 371.988C332.998 371.988 333.728 371.209 334.187 371.049C334.646 370.896 335.282 370.736 335.282 370.736L336.925 369.095L338.297 367.926L339.209 367.3L341.311 366.833L345.238 366.756L345.332 367.536L345.609 368.864C345.609 368.864 345.703 371.126 345.609 371.599C345.52 372.065 345.52 375.661 345.52 375.661L346.527 377.846L347.534 379.565L349.636 380.504L354.11 381.207L358.037 383.002L359.408 384.797L360.138 385.889L362.876 386.279L364.065 386.356L364.43 386.51L365.437 387.992L365.62 389.864L367.08 392.126C367.08 392.126 365.985 394.7 365.985 394.936C365.985 395.173 366.444 398.45 366.444 398.45L366.626 399.466L368.363 399.932L372.29 400.245L373.844 400.948C373.844 400.948 375.033 401.887 375.033 402.82C375.033 403.753 375.31 404.379 375.31 404.851C375.31 405.324 375.858 406.334 376.04 406.806C376.223 407.273 376.499 407.822 376.499 407.822L375.952 411.961L375.31 414.536L376.223 416.331L376.405 417.27L374.945 418.522C374.945 418.522 375.128 420.707 375.128 421.097V424.061L374.303 425.39C374.303 425.39 374.121 426.719 374.121 427.109C374.121 427.498 374.486 428.201 374.486 428.201L377.412 428.75L380.791 428.904H382.069C382.069 428.904 383.44 429.843 383.44 430.309C383.44 430.776 383.717 430.935 383.717 431.561V434.998L383.9 435.701L385.725 436.327C385.725 436.327 386.549 436.091 387.279 436.404C388.009 436.717 388.374 439.917 388.374 439.917C388.374 439.917 388.374 441.636 388.097 441.949C387.821 442.262 386.908 443.118 386.908 443.118L387.915 444.913L389.01 446.082L389.375 448.816L388.28 451.917L386.207 453.269L382.916 454.521L381.574 456.293L378.895 458.271L376.705 459.623L375.975 460.562L373.42 462.227L371.107 463.58L369.646 464.932L369.77 465.765L372.572 467.117L374.28 469.202L377.082 470.554L378.542 471.28C378.542 471.28 381.468 473.885 381.586 474.404C381.692 474.847 385.148 478.231 386.172 479.229C386.549 478.833 387.02 478.414 387.644 477.942C390.658 475.674 391.117 475.367 392.118 474.581C393.125 473.802 394.308 472.627 395.498 471.694C396.687 470.755 397.688 467.867 398.877 466.775C400.066 465.682 401.709 464.82 403.446 463.651C405.182 462.481 410.298 457.869 410.298 457.869C410.298 457.869 411.853 455.448 411.853 453.73C411.853 452.011 411.393 449.513 411.393 449.513C411.393 449.513 407.92 448.574 411.67 445.923C415.414 443.265 415.597 443.502 416.327 442.722C417.057 441.943 419.253 439.522 420.071 439.132C420.896 438.742 420.436 439.055 422.997 438.665C425.552 438.276 425.37 438.978 426.742 437.886C428.113 436.793 430.303 435.228 430.303 435.228L435.508 432.807C435.508 432.807 438.434 433.12 439.711 433.12C440.989 433.12 442.637 434.679 444.28 432.884C445.922 431.089 446.564 430.309 447.388 429.837C448.213 429.37 448.848 430.386 449.578 428.042C450.309 425.697 450.038 425.307 451.498 423.979C452.958 422.65 453.505 422.65 454.147 421.634C454.789 420.619 454.606 419.603 455.154 418.747C455.701 417.89 457.438 416.715 457.897 416.172C458.356 415.623 459.175 415.079 459.175 413.597C459.175 412.115 458.533 411.802 459.269 410.397C459.999 408.991 461.188 408.135 461.188 408.135C461.188 408.135 461.83 407.586 462.283 406.729C462.742 405.873 463.29 404.308 463.29 404.308L464.385 402.123C464.385 402.123 464.02 394.393 464.297 393.927C464.573 393.46 466.399 389.397 466.399 389.397L467.04 385.571C467.04 385.571 466.581 383.929 467.682 383.539C468.777 383.149 468.777 383.073 469.142 383.226C469.507 383.38 469.69 383.852 470.696 383.303C471.703 382.754 472.981 380.959 473.251 380.415C473.528 379.866 474.346 378.23 474.346 378.23L475.989 375.343C475.989 375.343 477.543 374.404 478.179 373.937C478.815 373.471 479.916 372.455 479.916 372.455L485.856 364.565C485.856 364.565 488.688 361.754 488.782 361.052C488.876 360.349 488.688 360.036 488.417 358.784C488.14 357.532 488.052 356.44 488.417 355.896L488.394 355.932Z" fill="#B0B7BE"/>
<path d="M323.408 408.489L324.138 410.91L325.509 412.162L326.422 413.491L326.239 415.835L325.692 418.18C325.692 418.18 325.415 419.898 325.509 420.211C325.604 420.524 326.516 422.243 326.516 422.243L327.429 424.741L328.159 429.11V430.516L329.619 431.219H331.261L332.721 430.126L335.276 428.018L336.466 425.91L337.561 425.284L338.291 425.361V425.987C338.291 426.223 339.297 426.925 339.297 426.925L341.399 427.162L342.588 427.551L342.953 428.177L343.413 429.506L344.508 430.286L345.332 429.896L347.069 428.49L348.258 427.398L352.279 427.475C352.279 427.475 353.651 427.008 353.921 426.618C354.198 426.229 355.111 425.29 355.111 425.29L355.658 423.648L356.117 421.853L356.847 420.294L359.679 416.857L360.503 416.39L362.694 416.314L366.803 414.908L369.087 414.831L370.547 414.985L371.919 415.375L375.075 418.457L376.393 417.329L376.211 416.39L375.298 414.595L375.94 412.02L376.488 407.881C376.488 407.881 376.211 407.332 376.028 406.865C375.846 406.399 375.298 405.383 375.298 404.91C375.298 404.438 375.022 403.818 375.022 402.879C375.022 401.94 373.832 401.007 373.832 401.007L372.278 400.304L368.351 399.991L366.614 399.525L366.432 398.509C366.432 398.509 365.973 395.232 365.973 394.995C365.973 394.759 367.068 392.185 367.068 392.185L365.608 389.923L365.425 388.051L364.419 386.569L364.054 386.415L362.864 386.338L360.127 385.949L359.397 384.856L358.025 383.061L354.098 381.266L349.624 380.563L347.522 379.624L346.515 377.906L345.508 375.721C345.508 375.721 345.509 372.13 345.597 371.658C345.691 371.191 345.597 368.924 345.597 368.924L345.32 367.595L345.226 366.815L341.299 366.892L339.197 367.359L338.285 367.985L336.913 369.154L335.27 370.796C335.27 370.796 334.629 370.949 334.175 371.108C333.716 371.262 332.986 372.047 332.986 372.047L330.425 373.299H326.863L325.221 373.766H324.844L325.768 374.545L326.775 376.187L328.877 379.777L328.053 381.649L326.681 384.071L327.14 386.728L327.234 389.149L326.228 391.494L324.856 393.212L324.944 395.084L326.587 397.039L328.141 399.85L327.134 400.865L323.937 402.424L322.984 404.125L323.39 404.846V408.519L323.408 408.489Z" fill="#B0B7BE"/>
<path d="M355.017 433.321L358.673 436.055L363.512 437.927L368.08 440.112L370.824 441.671L372.743 443.626L372.466 444.954L369.176 447.842L366.615 450.5L366.155 451.828L367.798 452.997L371.907 453.464L375.469 453.074C375.469 453.074 378.578 452.997 378.76 452.761C378.943 452.525 380.22 451.12 380.22 451.12L382.139 449.088L384.329 447.133L385.424 444.636L387.091 443.514L386.89 443.153C386.89 443.153 387.803 442.297 388.08 441.984C388.356 441.671 388.356 439.953 388.356 439.953C388.356 439.953 387.991 436.752 387.261 436.439C386.531 436.126 385.707 436.362 385.707 436.362L383.882 435.736L383.699 435.034V431.597C383.699 430.971 383.423 430.817 383.423 430.345C383.423 429.872 382.051 428.939 382.051 428.939H380.774L377.394 428.786L374.468 428.236C374.468 428.236 374.103 427.534 374.103 427.144C374.103 426.754 374.286 425.426 374.286 425.426L375.11 424.097V421.132C375.11 420.743 374.927 418.558 374.927 418.558L375.069 418.44L371.913 415.357L370.541 414.967L369.081 414.814L366.797 414.89L362.688 416.296L360.498 416.373L359.673 416.839L356.842 420.276L356.112 421.835L355.652 423.63L355.105 425.272C355.105 425.272 354.192 426.211 353.916 426.601C353.639 426.99 352.273 427.457 352.273 427.457L351.278 427.439L351.82 428.396L355.017 433.315V433.321Z" fill="#B0B7BE"/>
<path d="M366.773 468.458L365.796 471.268L365.066 473.507V476.371L364.271 478.715L362.199 479.701L361.469 481.313L360.98 484.071L361.787 485.081C361.987 485.075 362.499 485.093 363.506 485.323C364.878 485.636 367.71 486.179 367.71 486.179C367.71 486.179 371.913 487.195 373.102 487.195C374.292 487.195 377.306 488.051 379.225 486.646C381.144 485.24 381.05 486.097 383.064 483.758C384.659 481.898 384.706 480.776 386.16 479.264C385.136 478.266 381.68 474.883 381.574 474.44C381.451 473.92 378.53 471.316 378.53 471.316L377.07 470.589L374.268 469.237L372.561 467.152L369.758 465.8L369.741 465.664L367.509 466.06L366.779 468.458H366.773Z" fill="#480095"/>
<path d="M389.004 446.124L387.909 444.954L387.108 443.519L385.442 444.641L384.347 447.139L382.157 449.094L380.238 451.125C380.238 451.125 378.96 452.531 378.778 452.767C378.595 453.003 375.487 453.08 375.487 453.08L371.925 453.47L367.816 453.003L366.173 451.834L366.632 450.505L369.193 447.848L372.484 444.96L372.761 443.632L370.842 441.677L368.098 440.118L363.53 437.933L358.69 436.061L355.034 433.327L351.837 428.408L351.296 427.451L348.276 427.392L347.086 428.485L345.35 429.89L344.525 430.28L343.43 429.5L342.971 428.172L342.606 427.546L341.417 427.156L339.315 426.92C339.315 426.92 338.308 426.217 338.308 425.981V425.355L337.578 425.278L336.483 425.904L335.294 428.012L332.739 430.12L331.279 431.213H331.226L330.914 433.167L330.549 434.886L326.528 437.23L324.885 439.102L324.703 440.661L325.433 443.159L324.703 446.437L323.608 448.309C323.608 448.309 323.973 450.027 323.973 450.494V450.96L322.878 452.053L321.6 452.679L319.593 455.176L317.402 458.3L315.395 461.265L314.3 463.45C314.3 463.45 312.84 464.702 314.117 465.009C315.395 465.322 315.76 466.101 315.76 466.101V467.04C315.76 467.04 315.942 467.507 315.212 467.82C314.482 468.133 315.76 467.04 314.482 468.133C313.205 469.225 312.292 470.631 312.292 470.631L312.11 473.908L312.475 476.253C312.475 476.253 313.022 476.406 313.57 477.971C314.117 479.53 313.57 482.5 313.57 482.5L313.387 483.906L312.84 485.158L311.197 487.343L309.19 490.62L306.817 494.211L305.54 497.022L303.715 500.299V502.33L304.262 503.269V504.988L303.349 507.173L301.707 509.671C301.707 509.671 301.159 509.824 300.977 510.45C300.794 511.076 300.247 510.604 300.429 512.169C300.612 513.728 300.429 514.667 300.429 514.667L300.153 517.241L299.328 519.273L298.687 520.601L298.593 521.227L297.951 522.166L298.593 523.418L298.687 524.977L298.41 526.696L297.951 527.948L298.498 529.589L298.958 530.056V530.912L297.038 532.005C296.762 532.554 296.762 533.257 296.762 533.257L296.944 534.272C296.944 534.272 296.856 535.052 296.579 535.524C296.302 535.991 295.849 536.304 295.667 536.693C295.484 537.083 295.484 539.268 295.484 539.268L295.578 540.52L293.476 545.829L292.652 547.311L291.557 548.091L290.003 549.343L289.915 552.933L289.55 553.949C289.55 553.949 289.273 556.37 290.009 557.539C290.739 558.708 290.739 558.945 290.739 558.945L293.482 561.756L294.577 562.305L295.49 563.787L299.994 563.043C300.2 562.771 300.17 562.7 300.971 562.382C302.16 561.915 302.525 562.228 302.525 561.366C302.525 560.504 301.978 559.807 301.795 559.181C301.613 558.555 301.43 558.401 301.519 558.012C301.607 557.622 303.438 556.76 304.262 556.057C305.086 555.354 304.445 555.744 306.181 554.415C307.918 553.087 308.371 550.512 308.371 550.512C308.371 550.512 309.101 550.045 310.838 549.183C312.575 548.327 312.21 550.039 315.589 546.998C318.969 543.951 319.334 543.485 319.334 543.485L316.778 542.002L313.487 537.786C313.487 537.786 313.028 536.457 313.852 535.678C314.677 534.898 315.954 533.883 315.954 533.883L321.159 532.631L323.99 529.666L324.538 526.855L326.275 524.28C326.275 524.28 327.187 523.029 328.559 523.029C329.931 523.029 329.836 523.342 330.384 522.792C330.932 522.243 331.297 520.371 331.297 520.371C331.297 520.371 330.655 519.822 330.201 519.822C329.748 519.822 329.742 519.822 329.012 520.212C328.282 520.601 327.37 520.761 327.37 520.761C327.37 520.761 326.275 519.981 326.363 519.509C326.457 519.042 326.911 518.729 327.093 518.493C327.276 518.257 327.552 518.257 327.37 517.241C327.187 516.226 327.735 513.964 327.735 513.964L330.384 514.354C330.384 514.354 331.297 514.903 331.756 515.056C332.215 515.21 334.953 515.523 334.953 515.523C334.953 515.523 336.048 514.897 336.413 514.584C336.778 514.271 337.602 513.645 338.149 513.025C338.697 512.399 338.879 512.086 339.609 511.307C340.339 510.527 341.529 509.824 341.434 509.198C341.34 508.572 340.428 506.7 340.428 506.7L341.158 505.998L341.8 505.685L344.996 505.998C344.996 505.998 349.93 505.372 351.39 504.828C352.85 504.279 355.864 504.439 356.965 503.813C358.066 503.187 358.884 502.874 359.891 501.628C360.898 500.376 360.804 499.596 361.81 498.97C362.817 498.344 363 498.421 363.636 497.955C364.277 497.488 365.372 496.396 365.372 496.396C365.372 496.396 365.737 495.846 365.555 495.38C365.372 494.913 364.825 494.364 364.825 494.364C364.825 494.364 364.001 493.348 364.183 492.646C364.366 491.943 364.731 491.317 364.731 491.317C364.731 491.317 365.19 490.065 365.096 489.675C365.001 489.286 362.535 487.177 362.535 487.177L360.71 485.382L361.716 485.069C361.716 485.069 361.752 485.069 361.822 485.063L361.016 484.053L361.504 481.296L362.234 479.684L364.307 478.697L365.101 476.353V473.489L365.832 471.251L366.809 468.44L367.539 466.042L369.77 465.647L369.67 464.95L371.13 463.597L373.444 462.245L375.999 460.58L376.729 459.641L378.919 458.289L381.598 456.31L382.94 454.539L386.231 453.287L388.303 451.934L389.398 448.834L389.033 446.1L389.004 446.124Z" fill="#B0B7BE"/>
<path d="M300.482 572.007L300.841 572.875C301.566 572.84 302.213 572.846 302.584 572.94C303.773 573.253 307.518 573.72 308.342 573.489C309.166 573.253 309.619 573.176 309.802 572.787C309.984 572.397 309.072 571.617 308.43 571.381C307.789 571.145 304.868 570.212 304.868 570.212C304.868 570.212 302.678 568.417 302.678 567.868C302.678 567.318 302.773 567.478 302.955 566.539C303.085 565.883 302.007 565.039 301.348 564.59L299.941 568.257L300.488 572.007H300.482Z" fill="#B0B7BE"/>
<path d="M329.625 431.213L328.165 430.51V429.105L327.435 424.735L326.522 422.237C326.522 422.237 325.609 420.518 325.515 420.205C325.427 419.892 325.698 418.174 325.698 418.174L326.245 415.829L326.428 413.485L325.515 412.156L324.144 410.904L323.413 408.483V404.81L323.007 404.09L322.866 404.338L322.501 406.446L321.771 407.698L319.487 409.729L318.097 410.166C318.074 410.822 318.05 412.091 318.115 413.089C318.209 414.495 318.209 415.824 318.209 415.824L318.486 419.101L317.208 423.317C317.208 423.317 317.12 426.364 317.12 427.144C317.12 427.923 316.843 429.719 316.39 430.421C315.931 431.124 314.93 432.14 315.201 433.079C315.477 434.018 315.748 434.561 315.842 434.874C315.937 435.187 315.477 437.762 315.477 437.762L314.382 440.023L314.659 442.911L314.477 444.47L313.199 445.876L313.111 448.923L312.563 452.047L310.279 453.688L309.82 455.72L307.995 461.891C307.995 461.891 308.907 462.594 308.819 463.45C308.725 464.306 307.63 466.261 307.63 466.261L306.075 467.43C306.075 467.43 305.71 468.682 305.799 471.646C305.893 474.611 306.623 478.207 306.623 478.207C306.623 478.207 307.17 479.689 306.346 481.178C305.522 482.66 304.521 484.455 304.521 484.455C304.521 484.455 299.04 491.329 299.04 491.642C299.04 491.955 299.04 492.97 298.952 493.201C298.858 493.437 296.944 495.622 296.944 495.622C296.944 495.622 296.856 497.104 296.485 497.494C296.12 497.884 295.025 497.961 294.748 498.35C294.471 498.74 294.471 499.13 294.289 500.848C294.106 502.567 294.201 503.659 294.201 505.065C294.201 506.47 295.296 507.722 295.296 508.188C295.296 508.655 294.106 510.763 294.106 510.763L291.545 514.98C291.545 514.98 292.005 517.478 292.37 517.714C292.735 517.95 294.654 518.493 294.654 518.493L296.208 520.212L295.296 523.259L293.559 527.009L293.011 530.522L293.559 531.148C293.559 531.148 292.281 531.928 292.099 532.241C291.916 532.554 291.64 533.18 291.64 533.18V534.739L290.268 536.38L290.085 539.351L289.538 539.977C289.538 539.977 287.895 539.9 287.619 538.961C287.342 538.022 286.794 536.54 286.794 536.54L284.787 536.853L284.057 537.792C284.057 537.792 282.503 538.648 282.414 539.121C282.326 539.587 282.508 539.977 283.056 539.9C283.604 539.823 284.793 539.274 284.793 539.274C284.793 539.274 285.705 539.51 286.164 540.054C286.624 540.603 287.807 541.459 287.807 541.459L285.523 543.567L285.429 546.142C285.429 546.142 283.692 548.014 283.692 548.563C283.692 549.112 282.597 549.502 282.597 549.502L281.773 549.892L281.496 552L282.503 552.549L284.145 552.472L285.24 552.709L283.963 554.581L284.328 555.909C284.328 555.909 284.875 555.673 285.788 555.36C286.7 555.047 287.43 554.268 287.159 555.437C286.883 556.606 285.423 557.935 285.24 558.248C285.058 558.561 285.334 560.592 285.334 560.592C285.334 560.592 286.341 561.761 287.254 561.449C288.166 561.136 289.079 560.669 289.079 560.669C289.079 560.669 290.174 560.982 289.903 561.525C289.626 562.074 285.699 563.71 285.699 563.946C285.699 564.183 286.247 565.742 286.247 565.742L288.802 566.994L289.532 568.476C289.532 568.476 288.525 569.179 289.35 570.035C290.174 570.891 292.641 571.83 292.911 571.907C293.188 571.984 297.297 573.236 297.297 573.236C297.297 573.236 299.252 572.94 300.853 572.858L300.494 571.989L299.947 568.24L301.354 564.572C301.071 564.378 300.859 564.259 300.859 564.259C300.859 564.259 298.392 564.496 299.399 563.633C299.723 563.356 299.876 563.173 299.976 563.043L295.472 563.787L294.56 562.305L293.465 561.756L290.721 558.945C290.721 558.945 290.721 558.708 289.991 557.539C289.261 556.37 289.532 553.949 289.532 553.949L289.897 552.933L289.985 549.343L291.54 548.091L292.635 547.311L293.459 545.829L295.561 540.52L295.466 539.268C295.466 539.268 295.466 537.083 295.649 536.693C295.831 536.304 296.291 535.991 296.561 535.524C296.838 535.058 296.926 534.272 296.926 534.272L296.744 533.257C296.744 533.257 296.744 532.554 297.021 532.005L298.94 530.912V530.056L298.481 529.589L297.933 527.948L298.392 526.696L298.669 524.977L298.575 523.418L297.933 522.166L298.575 521.227L298.669 520.601L299.311 519.273L300.135 517.241L300.412 514.667C300.412 514.667 300.594 513.728 300.412 512.169C300.229 510.61 300.777 511.076 300.959 510.45C301.142 509.824 301.689 509.671 301.689 509.671L303.332 507.173L304.244 504.988V503.269L303.697 502.33V500.299L305.522 497.022L306.799 494.211L309.172 490.62L311.18 487.343L312.822 485.158L313.37 483.906L313.552 482.5C313.552 482.5 314.1 479.53 313.552 477.971C313.005 476.412 312.457 476.253 312.457 476.253L312.092 473.908L312.275 470.631C312.275 470.631 313.187 469.225 314.465 468.133C315.742 467.04 314.465 468.133 315.195 467.82C315.925 467.507 315.742 467.04 315.742 467.04V466.101C315.742 466.101 315.377 465.322 314.1 465.009C312.822 464.696 314.282 463.45 314.282 463.45L315.377 461.265L317.385 458.3L319.575 455.176L321.583 452.679L322.86 452.053L323.955 450.96V450.494C323.955 450.027 323.59 448.309 323.59 448.309L324.685 446.437L325.415 443.159L324.685 440.661L324.868 439.102L326.51 437.23L330.531 434.886L330.896 433.167L331.208 431.213H329.619H329.625Z" fill="#FF943F"/>
</g>
<defs>
<clipPath id="clip0_20_1476">
<rect width="489.288" height="573.116" fill="white" transform="translate(0 0.703674)"/>
</clipPath>
</defs>
</svg>
