<svg width="330" height="319" viewBox="0 0 330 319" fill="none" xmlns="http://www.w3.org/2000/svg">
<g opacity="0.6">
<path d="M125.946 278.88C125.759 278.015 128.563 273.996 129.264 273.996C129.848 273.996 130.058 270.141 129.824 268.131C127.651 266.636 125.852 266.122 125.852 266.122C125.852 266.122 120.034 265.841 119.052 265.444C118.094 265.047 117.113 266.706 116.225 266.028C115.361 265.35 114.075 266.215 114.286 267.196C114.473 268.154 116.319 268.739 116.319 270.211C116.319 271.683 120.011 273.809 119.917 274.58C119.847 275.118 122.137 276.59 123.492 278.599C124.216 279.043 124.988 279.651 125.759 280.258C125.922 279.604 125.992 279.113 125.946 278.88Z" fill="#B0B7BE"/>
<path d="M125.969 238.853C125.245 238.409 123.212 238.713 123.072 238.128C122.931 237.544 122.791 236.539 121.903 236.539C121.015 236.539 119.87 235.955 119.426 236.983C118.982 237.988 117.253 236.68 117.09 235.955C116.95 235.231 116.225 234.647 114.192 233.922C113.374 233.642 112.463 233.058 111.645 232.45C111.575 232.614 111.505 232.777 111.412 232.918C111.014 233.502 109.659 232.427 109.075 233.011C108.491 233.595 106.528 233.689 105.477 234.67C104.402 235.652 102.158 236.142 100.897 236.423C99.6349 236.703 100.71 237.895 101.177 238.759C101.668 239.647 101.668 241.797 102.649 242.475C103.631 243.152 106.855 245.208 107.229 245.886C107.299 246.003 107.252 246.12 107.182 246.213C108.538 246.587 110.641 246.587 111.014 245.98C111.458 245.255 111.739 243.947 111.739 243.947C111.739 243.947 114.636 243.947 115.805 245.255C116.973 246.564 119.146 245.699 119.146 245.699C119.146 245.699 119.263 246.073 119.473 246.587C119.777 245.863 120.197 245.232 120.688 245.162C121.903 244.975 123.656 244.811 124.871 243.059C125.502 242.147 126.553 241.446 127.418 240.956C126.834 240.231 126.53 239.203 125.969 238.853Z" fill="#B0B7BE"/>
<path d="M137.746 241.89C136.297 242.031 135.573 241.166 134.404 241.61C133.236 242.054 131.343 241.61 130.619 241.166C129.895 240.722 129.03 242.031 128.002 241.446C127.768 241.306 127.581 241.143 127.418 240.932C126.553 241.423 125.502 242.124 124.871 243.035C123.656 244.788 121.903 244.951 120.688 245.138C120.198 245.208 119.777 245.839 119.473 246.564C119.87 247.592 120.618 249.251 121.483 250.045C122.791 251.214 127.441 251.05 127.441 250.045C127.441 249.041 131.227 248.597 132.091 248.597C132.956 248.597 135.736 245.839 136.157 245.98C136.601 246.12 139.498 246.564 140.223 247.288C140.573 247.639 141.765 248.012 142.98 248.269C142.466 247.826 142.069 247.241 142.069 246.751C142.069 245.98 143.541 243.923 144.031 243.526C144.078 243.503 144.078 243.433 144.125 243.386C143.003 243.222 141.788 242.989 141.555 242.755C141.111 242.311 139.218 241.75 137.769 241.89H137.746Z" fill="#B0B7BE"/>
<path d="M14.5807 304.279C16.3332 303.952 14.1134 302.527 13.6227 302.059C13.1553 301.592 13.7862 299.676 14.7443 299.676C15.7023 299.676 14.7443 298.578 13.4825 297.292C12.2207 296.031 13.4825 295.563 14.5807 295.563C15.6789 295.563 14.2536 293.671 15.3752 292.549C16.4734 291.451 15.0714 289.371 15.0714 288.437C15.0714 287.502 16.6603 287.175 17.9221 285.89C19.1839 284.628 16.8239 285.095 16.8239 284.137C16.8239 283.179 15.235 282.875 14.1367 283.67C13.0385 284.464 13.3423 283.67 12.4076 283.67C11.4729 283.67 9.72045 283.997 9.72045 283.039C9.72045 282.081 8.92599 281.941 8.13153 282.875C7.89786 283.156 7.50063 283.296 6.9632 283.366C6.84637 284.604 6.72953 285.773 7.08003 286.357C7.92123 287.736 6.02854 294.956 4.34615 296.895C2.66376 298.858 4.27605 299.372 6.02854 300.727C7.78103 302.106 6.6127 307.036 6.6127 308.205C6.6127 309.373 8.17826 309.046 10.0009 309.046C11.0991 309.046 12.3141 308.579 13.5058 308.345C13.1553 307.807 12.8749 307.27 12.8749 306.92C12.8749 305.961 12.8749 304.559 14.6274 304.232L14.5807 304.279Z" fill="#B0B7BE"/>
<path d="M147.022 199.784C148.214 199.784 150.995 200.368 152.583 199.784C154.172 199.2 154.172 200.976 155.177 200.789C156.182 200.602 158.168 201.98 159.36 202.985C159.991 203.523 160.738 203.943 161.58 204.434C161.767 204.107 162.024 203.78 162.444 203.476C163.472 202.705 164.524 203.079 165.435 203.079C166.346 203.079 166.487 202.027 167.117 201.513C167.491 201.209 168.052 201.046 168.496 200.952C168.146 200.228 168.122 198.826 167.538 198.242C166.86 197.564 165.879 196.396 166.183 195.695C166.463 195.017 166.463 194.036 165.692 193.265C165.342 192.914 165.085 192.517 164.944 192.143C163.355 191.933 161.229 191.699 160.738 191.863C159.967 192.12 156.836 189.643 156.322 189.269C155.995 189.012 153.658 189.152 151.579 189.339C150.387 190.671 151.252 191.652 151.181 193.685C151.111 195.765 148.845 195.368 147.606 195.368C146.368 195.368 144.358 191.652 143.704 190.811C143.05 189.97 140.97 191.863 139.475 192.774C137.979 193.685 138.75 195.438 137.722 196.279C136.694 197.12 136.04 198.545 137.068 200.438C137.115 200.508 137.138 200.602 137.185 200.672C138.493 200.578 139.872 200.321 140.667 199.761C142.069 198.756 145.831 199.761 147.022 199.761V199.784Z" fill="#B0B7BE"/>
<path d="M139.638 206.934C140.129 207.612 141.695 208.196 142.279 207.915C142.863 207.612 144.709 208.593 144.709 209.364C144.709 210.135 144.218 212.495 144.709 212.495C145.153 212.495 147.957 213.36 148.167 214.552C149.429 214.575 150.854 214.645 151.392 214.785C152.443 215.042 153.074 214.388 153.612 213.734C154.126 213.079 155.948 212.822 156.486 212.822C157.023 212.822 157 211.397 157.14 210.743C157.28 210.089 158.565 208.92 159.36 208.663C160.131 208.406 160.014 207.495 160.785 207.495C161.556 207.495 161.439 206.443 161.299 205.812C161.229 205.415 161.299 204.925 161.603 204.434C160.762 203.943 160.014 203.523 159.383 202.985C158.191 201.98 156.205 200.602 155.201 200.789C154.196 200.999 154.196 199.2 152.607 199.784C151.018 200.368 148.237 199.784 147.046 199.784C145.854 199.784 142.069 198.779 140.69 199.784C139.895 200.345 138.517 200.602 137.208 200.695C138.096 202.494 137.769 204.34 136.788 205.462C136.087 206.256 136.484 206.373 136.998 206.677C138.073 206.584 139.288 206.373 139.662 206.911L139.638 206.934Z" fill="#B0B7BE"/>
<path d="M90.8491 256.121C89.9612 256.518 88.6059 255.35 88.6059 254.952C88.6059 254.672 88.419 253.714 88.6059 253.106C87.8815 252.732 86.8301 252.218 86.059 251.985C84.7504 251.588 84.0962 251.588 83.068 252.102C82.4138 252.429 80.5678 252.335 79.3294 252.242C79.2126 252.639 79.049 252.896 78.7452 252.896C77.8573 252.896 76.689 253.784 76.502 254.742C76.3151 255.723 74.2589 256.494 73.6747 258.247C73.0905 259.999 73.3943 260.771 74.2589 259.719C75.1468 258.644 76.2216 259.041 76.2216 259.906C76.2216 260.771 77.39 260.887 76.9927 262.056C76.9927 262.079 76.9927 262.102 76.9927 262.126C78.3246 262.009 80.1706 261.869 80.7547 261.869C81.666 261.869 82.5773 259.018 82.9746 258.738C83.3718 258.481 84.3999 260.817 85.4514 261.729C86.5029 262.64 86.6197 260.958 86.6197 260.163C86.6197 259.369 87.531 259.112 88.1853 259.252C88.8396 259.392 90.2649 259.649 90.2649 258.738C90.2649 257.826 91.036 258.224 91.5735 258.224C92.1109 258.224 92.2277 257.172 92.2277 257.172L93.0689 256.378C92.3679 256.027 91.5735 255.794 90.8725 256.097L90.8491 256.121Z" fill="#B0B7BE"/>
<path d="M18.2727 207.565C16.637 205.976 14.5106 208.476 12.7815 208.43C12.5011 209.691 12.0338 210.603 11.5898 210.93C10.9122 211.42 9.62703 213.29 10.6084 213.477C11.5898 213.664 13.1554 215.253 13.3657 214.061C13.5526 212.893 14.2536 211.304 15.9126 213.266C16.3099 213.734 16.8239 214.178 17.3614 214.575C17.6418 213.687 19.698 213.523 20.7495 212.449C22.058 211.14 20.0952 209.271 18.2727 207.518V207.565ZM53.8599 223.688C54.0001 221.725 49.7007 220.37 49.2333 221.421C48.7894 222.449 47.808 222.333 47.0836 221.164C46.3592 219.996 47.7379 218.898 47.0135 218.758C46.2891 218.617 45.3778 217.005 45.5881 216.351C45.7751 215.697 44.4899 211.537 42.2701 211.023C40.0503 210.509 39.7231 207.378 39.3493 205.696C38.952 204.013 37.5267 204.925 36.4285 203.476C35.3302 202.05 33.4375 202.751 32.4561 202.822C31.4747 202.892 32.4561 200.999 34.0217 199.971C35.5873 198.919 37.4098 193.405 37.4098 192.283C37.4098 191.162 30.5868 191.232 29.2783 191.886C27.9698 192.54 26.6846 190.905 27.7828 190.461C28.8811 190.017 31.2411 187.727 31.1009 186.815C30.984 185.904 32.7365 185.063 31.7551 184.222C30.7738 183.381 30.6569 185.32 29.7924 185.974C28.9512 186.629 27.0585 186.418 25.0489 186.044C23.0394 185.647 22.245 188.521 22.3151 189.76C22.3852 190.998 19.9784 191.722 20.3756 192.751C20.7729 193.802 19.9317 194.573 19.2774 193.989C18.6231 193.405 17.9222 191.979 16.6136 193.008C15.3051 194.059 18.1091 195.414 19.7915 195.601C21.4739 195.788 18.4829 197.027 18.1558 198.849C17.8287 200.672 20.3756 199.877 20.4925 201.186C20.6327 202.494 16.8473 202.681 16.8473 203.92C16.8473 205.158 18.997 203.336 19.9784 202.822C20.9598 202.308 19.4643 205.883 21.801 205.485C24.1377 205.088 23.4834 201.91 24.348 202.05C25.1891 202.167 23.9507 203.733 24.6751 205.111C25.3994 206.49 22.9927 208.57 23.1095 209.528C23.2497 210.509 27.923 210.509 29.4185 208.944C30.9139 207.378 31.6383 209.084 30.5868 210.252C29.5353 211.42 30.0027 212.519 31.3112 212.986C32.6197 213.43 33.0637 213.57 32.4795 214.622C31.8953 215.65 32.4094 217.613 32.0823 218.594C31.7551 219.575 27.7127 219.435 27.5959 218.781C27.4557 218.127 25.7733 218.594 26.2406 219.505C26.6846 220.417 24.8153 221.398 24.9321 222.239C25.0723 223.08 27.4791 222.893 27.5258 223.922C27.5959 224.95 25.7733 226.188 23.2965 226.912C20.8196 227.613 23.8105 229.576 24.9788 228.735C26.1472 227.894 25.8901 229.319 27.5725 229.319C29.2549 229.319 30.3064 230.674 32.1991 229.973C34.0918 229.249 34.0217 229.973 32.5963 231.072C31.171 232.17 29.0213 231.002 27.7127 231.726C26.4042 232.427 21.1234 237.404 22.1281 238.619C22.7123 239.343 23.4834 237.591 25.3761 236.797C27.2688 236.025 27.5959 237.311 28.624 237.451C29.6755 237.591 29.7223 235.301 30.5868 235.488C31.428 235.675 32.2225 234.764 33.7647 235.044C35.3302 235.301 36.4285 234.717 37.2229 234.063C37.994 233.408 40.0736 235.371 40.7279 234.904C41.3822 234.46 44.2329 233.922 45.6816 233.993C47.107 234.063 50.8222 232.357 51.8036 231.446C52.785 230.534 51.2195 230.347 49.911 230.534C48.6024 230.721 48.8595 229.226 50.2381 227.941C51.5933 226.632 53.7431 225.674 53.8833 223.711L53.8599 223.688ZM14.7677 191.021C16.5202 190.951 18.5297 187.96 17.6885 187.119C16.8473 186.278 13.4591 191.068 14.7677 191.021ZM39.9334 176.908C41.0317 175.81 42.3402 171.581 40.6578 172.024C38.9754 172.468 39.4661 177.375 39.9334 176.908Z" fill="#B0B7BE"/>
<path d="M166.463 182.352C167.001 181.184 168.403 180.997 167.351 179.455C167.164 179.619 166.86 179.782 166.393 179.899C164.5 180.413 160.411 178.59 158.075 179.058C155.738 179.502 150.995 179.502 149.873 180.693C148.775 181.862 145.971 182.189 147.209 183.24C148.448 184.292 147.209 184.806 148.12 186.044C149.032 187.283 149.499 187.797 150.714 187.54C151.953 187.283 152.934 187.937 151.625 189.292C151.625 189.316 151.602 189.339 151.579 189.362C153.658 189.176 155.972 189.035 156.322 189.292C156.836 189.69 159.967 192.166 160.738 191.886C161.206 191.722 163.355 191.956 164.944 192.166C164.757 191.676 164.781 191.232 165.108 190.951C165.692 190.461 166.954 190.461 166.276 189.479C165.599 188.498 165.388 188.311 165.295 187.143C165.201 185.974 164.898 185.39 165.014 184.596C165.108 183.825 165.902 183.614 166.487 182.352H166.463ZM143.447 185.507C141.111 186.161 140.76 189.386 141.695 189.339C142.863 189.269 145.527 187.073 146.251 186.348C146.952 185.624 145.784 184.853 143.447 185.507ZM145.387 183.614C145.901 182.633 141.625 183.053 142.583 183.941C143.307 184.596 144.849 184.596 145.387 183.614Z" fill="#B0B7BE"/>
<path d="M211.841 252.616C212.519 252.522 214.575 250.279 215.253 250.279C215.93 250.279 218.851 250.863 218.851 250.372C218.851 249.882 219.832 248.223 219.622 247.732C219.435 247.241 218.454 246.564 218.641 246.073C218.828 245.582 220.206 245.582 220.206 244.998C220.206 244.414 219.131 244.11 219.131 243.736C219.131 243.363 220.487 242.662 220.393 241.89C220.3 241.119 219.131 241.002 217.846 240.325C216.584 239.647 215.299 239.928 214.131 239.343C212.963 238.759 210.533 239.157 210.533 238.759C210.533 238.362 208.967 237.1 208.57 236.423C208.173 235.745 206.911 236.119 206.14 236.61C205.369 237.1 204.668 237.287 203.896 236.797C203.125 236.306 202.424 235.535 201.747 235.815C201.069 236.119 199.784 235.909 200.088 234.927C200.368 233.946 198.826 231.796 198.148 231.516C197.471 231.212 195.414 231.703 194.924 230.745C194.433 229.763 193.568 228.992 193.942 228.314C194.34 227.637 193.849 225.768 193.358 224.996C192.867 224.225 190.437 224.319 189.76 224.599C189.082 224.88 187.517 224.295 186.839 224.693C186.161 225.09 185.764 225.768 184.783 225.768C184.245 225.768 183.871 225.697 183.568 225.253C182.516 225.721 180.74 225.814 180.74 225.814C180.74 225.814 178.147 227.894 178.147 228.665C178.147 229.436 178.006 230.745 177.375 230.09C176.721 229.436 173.987 229.436 173.356 229.833C172.702 230.231 171.674 228.268 170.482 228.922C169.314 229.576 167.748 228.011 167.608 228.665C167.491 229.319 165.786 228.805 164.617 228.268C163.449 227.73 161.369 228.525 160.575 227.613C159.804 226.702 154.71 226.702 153.027 226.702C151.345 226.702 150.948 227.613 150.177 228.408C149.476 229.109 148.658 228.969 147.817 228.945C147.887 229.6 148.027 230.184 148.191 230.441C148.588 231.025 150.434 233.852 149.943 234.74C149.452 235.628 148.588 235.628 147.98 236.306C147.396 236.983 143.985 240.021 143.891 240.512C143.798 241.002 144.475 243.152 143.985 243.549C143.494 243.947 142.022 245.98 142.022 246.774C142.022 247.568 143.097 248.62 143.985 248.924C144.359 249.041 144.592 249.228 144.686 249.438C145.363 249.344 145.994 249.298 146.391 249.298C147.046 249.298 149.896 250.069 150.808 250.069C151.719 250.069 153.027 250.466 153.401 250.84C153.799 251.237 154.71 250.98 155.364 250.326C156.018 249.671 156.79 250.069 157.584 250.069C158.378 250.069 159.664 249.414 160.061 248.76C160.458 248.106 164.36 247.054 165.388 246.938C166.44 246.797 167.982 248.9 168.893 248.9C169.805 248.9 171.487 249.555 172.024 251.237C172.539 252.919 174.104 255.022 174.758 255.653C175.413 256.308 175.787 257.99 175.787 258.527C175.787 259.065 174.361 258.387 172.796 258.013C171.23 257.616 171.113 259.182 171.113 259.976C171.113 260.771 168.893 263.481 168.52 264.019C168.122 264.533 169.291 264.93 170.202 265.07C170.599 265.117 172.165 264.019 172.679 264.019C172.889 264.019 173.543 264.533 174.221 265.117C174.081 263.084 174.501 263.201 176.324 261.822C178.217 260.397 178.404 257.733 180.086 257.406C181.768 257.079 182.493 256.308 184.97 256.681C187.446 257.079 183.731 258.621 185.414 259.532C187.096 260.443 192.307 259.275 192.564 260.56C192.821 261.869 186.582 263.154 186.722 263.808C186.862 264.463 190.04 265.117 191.138 265.818C192.237 266.519 190.811 268.552 191.325 269.206C191.839 269.86 193.545 269.346 194.9 268.365C196.256 267.383 197.377 267.71 199.13 266.542C200.882 265.374 204.527 266.402 204.995 265.701C205.439 264.977 203.943 264.276 200.578 264.533C197.19 264.79 197.003 261.612 197.003 260.958C197.003 260.303 200.508 257.639 202.541 257.453C204.551 257.266 206.186 256.681 208.126 255.747C208.92 255.396 210.299 254.999 211.701 254.742C211.491 253.831 211.21 252.732 211.794 252.662L211.841 252.616Z" fill="#B0B7BE"/>
<path d="M60.2389 280.842C58.6734 280.819 56.9209 280.983 55.7292 280.702C54.3038 280.375 51.2895 280.235 50.4951 279.44C49.7006 278.646 48.4388 278.015 48.4388 278.973C48.4388 279.931 46.219 280.071 44.9572 279.3C43.6954 278.506 41.6391 277.875 40.6811 277.244C40.1904 276.917 39.1623 276.496 38.1809 276.006C36.849 276.263 33.0636 274.861 30.5634 275.164C27.8996 275.491 19.3708 274.767 16.0528 275.024C12.7347 275.281 12.5478 273.669 10.7252 273.669C8.90263 273.669 9.69709 275.889 7.08004 275.935C4.48635 276.006 4.22932 277.641 6.09864 279.137C7.1735 279.978 7.05667 281.8 6.8931 283.436C7.43053 283.366 7.82777 283.226 8.06143 282.945C8.85589 281.987 9.65036 282.151 9.65036 283.109C9.65036 284.067 11.4028 283.74 12.3375 283.74C13.2722 283.74 12.9684 284.534 14.0666 283.74C15.1882 282.945 16.7538 283.273 16.7538 284.207C16.7538 285.142 19.1372 284.675 17.852 285.96C16.5902 287.221 15.0013 287.549 15.0013 288.507C15.0013 289.465 16.4267 291.521 15.3051 292.619C14.2068 293.717 15.6322 295.633 14.5106 295.633C13.389 295.633 12.1272 296.101 13.4124 297.363C14.6742 298.624 15.6322 299.746 14.6742 299.746C13.7161 299.746 13.0852 301.639 13.5526 302.129C14.0199 302.597 16.2397 304.022 14.5106 304.349C12.7581 304.676 12.7581 306.078 12.7581 307.036C12.7581 307.387 13.0385 307.924 13.389 308.462C14.2068 308.321 15.0013 308.298 15.7257 308.625C17.5482 309.466 18.5997 314 21.0532 313.696C22.1047 313.556 21.5673 312.784 22.1047 312.27C22.6188 311.756 23.6002 312.13 24.6517 312.13C25.7032 312.13 26.2172 310.635 28.6941 310.565C31.1709 310.495 32.7365 310.308 34.2787 310.378C35.8442 310.448 37.0827 309.934 37.4565 308.812C37.8538 307.714 39.1389 306.733 40.9148 306.476C42.6673 306.218 42.4102 304.396 42.5504 303.344C42.6906 302.293 45.6115 300.751 45.7984 299.956C45.9853 299.185 44.116 296.194 45.8685 293.507C47.621 290.843 49.5137 290.703 49.5137 289.208C49.5137 287.829 51.3363 287.315 53.5561 287.058C55.7759 286.801 56.4769 285.305 58.3696 284.511C59.9585 283.857 60.5193 282.688 60.1922 280.819L60.2389 280.842ZM60.6128 295.073C60.2856 292.853 55.8226 295.727 56.7807 296.381C58.7435 297.69 60.9399 297.292 60.6128 295.073Z" fill="#B0B7BE"/>
<path d="M108.701 216.117C108.982 216.888 109.285 219.622 108.608 220.697C107.93 221.772 108.21 222.052 108.911 222.449C109.589 222.847 109.893 223.828 109.893 224.599C109.893 225.37 110.384 225.277 110.477 226.936C110.57 228.595 110.968 229.763 111.552 230.441C112.019 230.978 111.926 231.796 111.692 232.404C112.51 233.011 113.421 233.595 114.239 233.876C116.272 234.6 116.996 235.184 117.136 235.909C117.277 236.633 119.029 237.941 119.473 236.937C119.917 235.909 121.062 236.493 121.95 236.493C122.838 236.493 122.978 237.497 123.118 238.082C123.258 238.666 125.291 238.362 126.016 238.806C126.74 239.25 127.021 240.839 128.049 241.423C129.077 242.007 129.941 240.699 130.666 241.143C131.39 241.587 133.283 242.007 134.451 241.587C135.619 241.143 136.344 242.031 137.792 241.867C139.241 241.727 141.134 242.311 141.578 242.732C141.812 242.965 143.027 243.199 144.148 243.362C144.429 242.778 143.868 240.932 143.961 240.488C144.055 239.998 147.466 236.983 148.05 236.282C148.635 235.605 149.522 235.605 150.013 234.717C150.504 233.829 148.658 231.002 148.261 230.417C147.863 229.833 147.677 227.497 147.98 226.515C148.261 225.534 146.508 224.95 146.508 224.272C146.508 223.594 148.167 222.426 149.055 222.029C149.943 221.632 149.639 218.898 148.868 218.22C148.097 217.542 147.7 216.257 148.191 214.902C148.681 213.547 145.27 212.472 144.779 212.472C144.686 212.472 144.662 212.378 144.616 212.262C141.578 212.822 133.773 212.005 133.166 211.771C132.792 211.607 131.787 211.257 130.946 210.953C130.549 211.607 129.754 212.192 128.539 212.192C126.647 212.192 126.53 210.299 126.46 209.458C126.39 208.616 118.842 210.159 116.833 212.192C114.823 214.201 110.127 213.43 110.01 214.528C109.916 215.323 109.215 215.743 108.748 215.533C108.725 215.72 108.725 215.907 108.748 216.07L108.701 216.117Z" fill="#B0B7BE"/>
<path d="M115.805 245.232C114.636 243.923 111.739 243.923 111.739 243.923C111.739 243.923 111.458 245.232 111.014 245.956C110.641 246.564 108.538 246.564 107.182 246.19C106.808 246.704 105.033 247.078 104.799 247.802C104.495 248.69 102.369 248.199 103.046 250.536C103.724 252.873 101.972 252.102 101.294 251.798C100.616 251.517 97.5787 251.891 96.8076 252.686C96.0365 253.457 94.9616 253.27 94.2606 252.873C93.583 252.475 92.2044 252.289 91.6202 253.27C91.036 254.251 89.9612 252.499 89.0732 252.592C88.1853 252.686 88.5825 254.555 88.5825 254.929C88.5825 255.303 89.9378 256.495 90.8257 256.097C91.7137 255.7 92.7885 256.191 93.5596 256.681C94.3307 257.172 95.8028 256.284 96.2935 255.794C96.7842 255.303 99.5181 255.303 99.7985 255.303C100.079 255.303 100.196 256.868 100.686 257.149C101.177 257.453 103.023 257.639 104.682 257.733C106.341 257.826 108.771 258.621 109.566 258.621C110.36 258.621 111.622 257.242 113.374 257.242C115.127 257.242 116.108 256.167 116.389 256.261C116.529 255.723 116.716 255.279 117.09 255.233C117.814 255.139 117.3 253.901 117.814 253.293C118.328 252.686 117.417 251.447 118.328 251.564C119.239 251.658 120.268 251.774 120.268 250.443C120.268 249.999 120.501 249.601 120.852 249.274C119.847 247.872 119.123 245.606 119.123 245.606C119.123 245.606 116.95 246.47 115.781 245.162L115.805 245.232Z" fill="#B0B7BE"/>
<path d="M170.225 265.268C169.314 265.128 168.146 264.754 168.543 264.216C168.566 264.193 168.613 264.123 168.66 264.076C167.445 263.095 167.118 259.894 167.889 259.122C168.893 258.118 166.3 254.356 165.108 252.954C164.547 252.299 163.332 250.126 162.211 248C161.182 248.327 160.271 248.701 160.084 249.005C159.687 249.659 158.402 250.313 157.607 250.313C156.813 250.313 156.042 249.916 155.388 250.57C154.733 251.225 153.822 251.482 153.425 251.084C153.028 250.687 151.742 250.313 150.831 250.313C149.92 250.313 147.069 249.542 146.415 249.542C146.018 249.542 145.41 249.589 144.709 249.682C144.849 249.963 144.732 250.313 144.288 250.64C143.517 251.225 141.952 252.113 141.368 252.486C140.783 252.884 138.727 257.767 137.372 259.122C136.017 260.501 134.731 260.688 134.638 261.179C134.545 261.669 136.204 262.931 136.204 263.726C136.204 264.52 136.601 265.291 137.676 265.291C138.751 265.291 137.582 267.838 138.26 268.025C138.937 268.212 143.143 268.516 143.143 269.497C143.143 270.268 143.611 270.899 143.4 271.413C144.569 271.624 145.457 273.213 145.901 273.096C146.415 272.955 149.943 273.75 150.574 273.61C151.228 273.47 154.219 273.61 155.247 273.75C156.299 273.89 157.467 273.353 158.378 272.441C159.29 271.53 162.538 271.39 163.589 271.53C164.617 271.67 166.72 271.927 167.094 272.558C167.304 272.909 168.52 273.423 169.758 273.82C169.898 273.166 169.711 272.325 169.758 271.507C169.828 270.128 170.599 268.049 171.978 267.932C173.356 267.791 174.455 267.791 174.244 265.525C174.244 265.431 174.244 265.385 174.244 265.315C173.567 264.73 172.912 264.216 172.702 264.216C172.188 264.216 170.622 265.315 170.225 265.268Z" fill="#FA2080"/>
<path d="M80.5912 244.507C80.007 244.601 79.5163 243.736 78.2545 243.736C76.9927 243.736 76.0113 243.152 75.4272 242.381C74.843 241.61 71.8287 241.4 70.8473 241.61C69.8659 241.797 69.5855 239.951 68.6042 240.138C67.6228 240.325 67.3424 238.876 67.3424 238.082C67.3424 237.287 66.2675 238.666 65.4029 239.063C64.515 239.46 64.2346 238.175 64.1411 237.591C64.0477 237.007 62.2952 236.423 61.4073 235.932C60.5193 235.441 59.5613 233.876 59.1641 234.577C58.7668 235.254 57.692 233.595 57.5985 232.918C57.5284 232.45 57.2246 232.614 57.0377 232.334C56.7106 232.404 56.3601 232.45 56.033 232.427C54.4674 232.357 53.1121 233.595 53.3692 236.212C53.6262 238.806 51.4765 239.063 48.8127 239.273C46.1489 239.46 47.0602 241.54 45.962 242.404C44.8637 243.246 40.9615 241.961 40.4241 240.512C39.91 239.086 36.3817 240.512 37.8772 242.194C39.3726 243.877 39.3025 246.237 38.4613 246.868C37.6201 247.522 35.7975 245.839 34.6292 246.681C33.4609 247.522 33.3908 245.909 31.9654 245.372C30.5401 244.858 29.9559 246.026 27.666 245.839C25.3994 245.652 24.0909 246.938 24.9321 247.919C25.7733 248.9 24.7919 249.812 25.4462 250.653C26.1004 251.494 29.0913 251.354 31.3112 252.546C33.531 253.714 34.045 252.732 35.1433 253.597C36.2415 254.438 36.4985 253.924 36.5686 255.56C36.6387 257.196 37.8772 258.738 40.0269 259.345C42.1766 259.929 40.5409 261.355 41.1952 262.78C41.8495 264.205 40.2138 266.285 40.5409 268.038C40.8681 269.79 39.4894 275.445 38.4613 275.982C38.3912 276.006 38.2978 276.029 38.2043 276.029C39.1857 276.52 40.2138 276.94 40.7045 277.267C41.6625 277.898 43.7188 278.529 44.9806 279.324C46.2424 280.118 48.4622 279.955 48.4622 278.996C48.4622 278.038 49.724 278.669 50.5185 279.464C51.3129 280.258 54.3272 280.422 55.7526 280.726C56.9443 280.983 58.6967 280.819 60.2623 280.866C60.2156 280.515 60.1221 280.141 60.0053 279.744C59.2342 277.197 61.5007 275.702 63.6504 275.375C65.8002 275.048 70.4735 276.356 71.7119 277.127C72.9503 277.898 74.6327 277.711 76.7824 275.445C77.8573 274.3 78.7452 273.879 79.5397 273.646C79.5864 273.131 79.8668 272.617 80.0304 272.15C80.3342 271.379 78.9555 271.566 77.9741 271.472C76.9927 271.379 76.3151 270.398 76.9927 269.323C77.6704 268.248 76.4086 268.154 75.7309 267.08C75.0533 266.005 76.0347 266.308 76.6189 266.005C77.203 265.701 77.9741 264.533 77.5068 264.252C77.0161 263.948 76.6189 263.271 77.0161 262.102C77.4133 260.934 76.245 260.841 76.245 259.953C76.245 259.065 75.1702 258.691 74.2822 259.766C73.3943 260.841 73.1139 260.07 73.6981 258.294C74.2822 256.541 76.3385 255.747 76.5254 254.789C76.7123 253.807 77.8807 252.943 78.7686 252.943C79.6565 252.943 79.4462 250.887 79.75 249.625C80.0304 248.363 80.2407 247.078 81.5025 246.026C82.7643 244.951 81.1987 244.461 80.6146 244.554L80.5912 244.507ZM87.5544 277.618C86.8301 277.548 86.6431 278.856 84.8205 279.955C82.9979 281.053 84.8205 286.053 86.6431 285.82C88.5358 285.562 88.2788 277.688 87.5544 277.618Z" fill="#B0B7BE"/>
<path d="M160.645 284.16C159.664 284.254 158.308 284.628 158.542 285.165C158.799 285.82 157.888 286.217 156.86 286.217C156.86 286.217 153.214 285.96 152.186 285.446C151.392 285.048 147.91 285.259 146.274 285.376C146.274 285.446 146.251 285.516 146.181 285.586C145.784 286.17 142.676 287.759 142.092 287.479C141.508 287.198 141.204 288.46 140.036 288.74C138.867 289.021 137.115 288.647 137.021 289.138C136.928 289.628 136.133 290.984 135.456 291.685C134.778 292.362 135.362 293.157 134.381 293.344C133.727 293.484 133.47 294.675 133.119 295.727C133.189 295.75 133.236 295.797 133.306 295.82C134.731 296.264 135.83 297.97 135.643 299.582C135.456 301.218 137.722 301.802 138.774 300.634C139.825 299.466 142.746 301.288 142.746 302.059C142.746 302.83 139.755 301.218 138.073 302.456C136.39 303.695 139.381 304.863 138.984 306.172C138.587 307.48 139.755 309.303 141.251 309.233C142.746 309.163 144.429 311.64 145.34 311.196C146.251 310.752 144.242 307.293 144.569 306.779C144.896 306.265 146.718 307.691 147.63 306.639C148.541 305.588 146.975 304.816 145.62 304.887C144.242 304.957 145.55 303.064 147.186 304.045C148.798 305.027 149.593 303.788 150.364 303.648C151.135 303.531 151.345 300.727 148.938 300.073C146.532 299.419 146.859 301.826 145.293 300.213C143.728 298.578 146.718 299.232 146.718 297.877C146.718 296.521 144.312 294.559 143.143 292.923C141.975 291.287 144.779 290.516 145.41 291.685C146.064 292.853 147.817 292.666 148.915 292.199C150.013 291.755 147.747 289.675 149.756 288.881C151.766 288.109 151.766 289.465 152.42 289.722C153.074 289.979 153.658 288.086 155.738 288.086C156.813 288.086 157.771 288.81 158.705 289.488C159.266 288.857 159.734 288.507 159.734 287.969C159.734 287.292 160.995 286.988 160.995 285.913C160.995 285.399 160.785 284.745 160.645 284.184V284.16ZM156.976 316.967C155.925 316.383 151.252 317.364 150.013 316.196C148.775 315.028 146.251 317.131 147.349 317.294C148.915 317.551 151.252 318.93 153.799 318.977C156.345 319.047 159.78 317.808 159.71 317.154C159.64 316.5 158.028 317.551 156.976 316.967Z" fill="#B0B7BE"/>
<path d="M119.917 274.557C120.011 273.786 116.319 271.636 116.319 270.187C116.319 268.739 114.473 268.154 114.286 267.173C114.099 266.192 115.361 265.327 116.225 266.005C117.09 266.682 118.071 265.023 119.053 265.421C120.034 265.818 125.852 266.098 125.852 266.098C125.852 266.098 127.651 266.612 129.825 268.108C129.778 267.71 129.708 267.36 129.614 267.15C129.1 265.935 129.614 264.533 128.212 263.995C127.488 263.715 127.184 262.476 127.067 261.331C126.413 261.542 125.852 261.705 125.548 261.775C124.38 262.056 121.903 261.916 121.039 260.747C120.384 259.883 118.375 258.621 117.37 258.013C116.973 258.364 115.407 259.696 114.73 259.789C113.959 259.883 114.426 261.939 113.655 261.939C112.884 261.939 112.3 263.318 112.089 263.902C111.902 264.486 110.127 263.504 109.355 263.808C108.795 264.019 107.159 264.276 106.248 264.416C106.388 265.304 106.318 266.285 107.042 266.285C108.21 266.285 110.36 266.145 110.43 267.71C110.5 269.276 113.304 272.711 114.333 273.903C115.361 275.071 117.721 274.814 117.837 275.795C117.978 276.777 119.66 277.688 121.623 277.805C122.16 277.852 122.791 278.155 123.469 278.576C122.114 276.566 119.824 275.094 119.894 274.557H119.917Z" fill="#B0B7BE"/>
<path d="M134.358 293.297C135.339 293.11 134.755 292.315 135.432 291.638C136.11 290.96 136.905 289.582 136.998 289.091C136.998 289.044 137.045 288.997 137.091 288.974C135.76 287.969 134.848 287.268 134.545 286.24C134.241 285.189 134.544 283.156 135.012 281.66C134.264 281.123 131.927 279.511 131.203 279.511C130.479 279.511 129.357 281.123 129.1 282.665C130.806 283.576 131.483 284.231 130.292 285.399C129.053 286.637 128.796 290.797 130.152 291.895C131.46 292.946 131.811 295.049 133.072 295.633C133.423 294.582 133.703 293.39 134.334 293.25L134.358 293.297Z" fill="#B0B7BE"/>
<path d="M163.613 271.239C162.561 271.099 159.313 271.239 158.402 272.15C157.49 273.061 156.322 273.575 155.271 273.459C154.219 273.318 151.228 273.202 150.597 273.318C149.943 273.459 146.438 272.664 145.924 272.804C145.457 272.921 144.592 271.309 143.424 271.122C143.377 271.262 143.26 271.402 143.073 271.543C142.185 272.127 142.092 273.692 143.073 274.58C144.055 275.468 145.317 277.408 144.429 277.408C143.541 277.408 142.863 278.576 142.956 279.16C143.05 279.744 142.676 281.006 142.956 281.31C143.26 281.614 145.293 283.553 145.387 284.137C145.48 284.651 146.321 284.908 146.251 285.376C147.887 285.259 151.368 285.048 152.163 285.446C153.191 285.96 156.836 286.217 156.836 286.217C157.888 286.217 158.799 285.82 158.519 285.165C158.308 284.604 159.664 284.254 160.622 284.16C160.458 283.553 160.341 283.062 160.598 282.945C161.089 282.758 163.916 282.361 165.085 282.945C165.669 283.249 166.346 282.945 166.86 282.618C166.697 282.081 166.557 281.637 166.253 281.59C165.529 281.45 164.43 278.459 165.342 278.272C166.253 278.085 167.421 274.954 168.847 274.51C169.407 274.323 169.664 273.996 169.758 273.575C168.519 273.155 167.304 272.641 167.094 272.314C166.697 271.659 164.617 271.402 163.589 271.286L163.613 271.239Z" fill="#B0B7BE"/>
<path d="M91.924 198.639C91.2697 198.312 91.0127 196.232 91.7838 195.578C92.5549 194.924 92.882 192.447 92.2511 191.793C91.5968 191.138 89.2602 191.793 89.0733 193.545C88.8863 195.298 86.9936 194.526 86.4796 194.924C85.9655 195.321 87.5077 196.092 86.6665 196.886C85.8253 197.658 85.4982 195.718 84.1196 195.578C82.7643 195.438 82.6241 197.658 81.8997 198.756C81.1754 199.854 81.6427 202.191 81.8997 203.756C82.1568 205.322 84.0495 206.303 83.5821 207.588C83.3718 208.196 83.7924 208.873 84.2598 209.528C85.9889 209.574 87.5778 209.691 88.2788 209.925C88.5592 210.018 89.1434 209.995 89.9145 209.878C89.3537 208.944 88.0685 208.196 88.162 207.518C88.3022 206.607 89.5172 207.191 90.4285 207.962C91.3398 208.733 93.3493 208.874 93.5596 207.892C93.6765 207.285 93.2325 204.504 91.9941 205.158C90.7557 205.812 90.4285 205.555 89.9846 204.901C89.5406 204.247 90.8959 203.219 91.223 202.167C91.5501 201.139 93.6998 201.513 94.027 200.672C94.3541 199.831 92.6016 198.919 91.9473 198.592L91.924 198.639ZM101.738 202.611C101.224 202.284 100.827 203.523 100.242 203.663C99.6583 203.803 99.004 201.186 98.747 202.611C98.49 204.037 97.1815 202.027 95.8963 203.85C94.5878 205.672 96.6674 207.308 97.5787 207.892C98.49 208.476 97.5086 209.317 96.3403 209.06C95.1719 208.803 95.8963 210.743 97.5086 211C99.1442 211.257 100.897 208.149 100.686 207.355C100.5 206.584 102.345 202.985 101.738 202.611Z" fill="#AFB7BE"/>
<path d="M177.913 105.64C177.656 106.622 175.903 106.411 175.95 105.453C176.02 104.472 173.216 103.701 173.076 103.233C172.936 102.789 174.244 102.836 175.296 103.42C176.347 104.004 177.048 103.607 178.217 102.509C179.385 101.411 181.021 102.322 181.208 101.341C181.394 100.359 179.315 99.705 178.941 99.1209C178.544 98.5367 177.048 97.7423 175.623 98.0226C174.198 98.2797 174.127 97.6955 173.286 96.9244C172.445 96.1533 169.828 97.4385 169.828 99.2611C169.828 101.084 168.192 100.64 168.777 99.6583C169.361 98.6769 168.005 97.5086 169.291 97.1815C170.599 96.8543 169.875 94.9149 167.468 94.7046C165.061 94.5177 164.15 96.5272 164.734 97.1815C165.318 97.8357 163.098 100.64 162.14 100.64C161.182 100.64 162.257 98.2329 162.211 96.9244C162.14 95.6159 161.229 96.3403 159.407 98.4199C157.584 100.5 156.229 102.392 155.177 102.579C154.126 102.766 154.266 100.686 155.948 99.7751C157.631 98.8638 157.701 96.387 158.799 96.387C159.897 96.387 159.897 95.0785 158.285 94.7046C156.649 94.3074 156.392 96.13 155.878 96.6674C155.364 97.1815 152.7 95.7561 152.747 96.2702C152.817 96.7842 151.322 96.9945 151.976 97.9526C152.63 98.9339 151.649 99.7751 150.995 98.6068C150.34 97.4385 148.728 98.3498 147.934 99.6583C147.162 100.967 146.111 100.897 146.882 101.341C147.653 101.808 147.606 103.561 146.438 103.888C145.27 104.215 145.714 100.71 144.826 101.037C143.915 101.364 144.499 99.3545 145.737 99.3545C146.976 99.3545 148.214 97.532 148.074 97.088C147.863 96.3169 146.508 96.5038 146.508 97.4852C146.508 98.4666 144.545 98.2563 142.933 98.2096C141.297 98.1395 141.368 100.102 143.19 101.13C145.013 102.182 142.863 102.813 141.952 102.042C141.04 101.271 139.615 101.644 138.634 102.112C137.652 102.556 140.97 103.747 141.111 104.332C141.251 104.916 139.428 103.607 139.031 104.075C138.634 104.542 136.811 103.747 136.694 102.649C136.554 101.551 133.633 103.093 135.269 103.49C136.905 103.888 136.32 104.916 136.32 106.365C136.32 107.813 134.428 106.692 134.825 105.453C135.222 104.215 133.657 104.472 132.348 105.266C131.04 106.037 132.535 103.841 132.021 102.719C131.507 101.621 130.315 102.719 128.96 102.976C127.605 103.233 126.88 103.303 127.722 104.215C128.563 105.126 128.446 106.435 127.324 106.224C126.226 106.037 125.759 106.224 125.899 107.276C126.039 108.327 124.474 108.374 124.333 107.463C124.193 106.551 121.997 106.808 121.342 107.86C120.688 108.888 118.866 109.683 119.076 110.851C119.263 112.019 120.712 110.267 121.88 110.664C123.048 111.061 121.81 111.645 122.464 112.23C123.118 112.814 122.978 114.239 122.067 113.398C121.156 112.557 119.987 112.3 119.8 113.655C119.613 115.01 118.632 113.468 117.837 112.487C117.066 111.505 116.272 114.309 115.431 113.655C114.59 113.001 117.113 110.991 116.459 110.01C115.805 109.028 115.361 110.594 113.865 112.089C112.37 113.585 110.36 113.515 111.061 114.239C111.786 114.963 109.566 115.337 109.168 116.576C108.771 117.814 105.71 118.258 103.771 119.567C101.808 120.875 104.168 120.945 105.266 119.707C106.365 118.468 106.762 119.193 108.514 118.071C110.267 116.973 112.159 116.062 112.814 116.506C113.468 116.95 114.566 117.277 115.407 116.108C116.249 114.94 117.3 115.197 118.141 115.921C118.982 116.646 116.716 117.23 117.744 118.258C118.772 119.31 116.506 119.894 116.506 118.982C116.506 118.071 115.197 117.3 114.753 118.141C114.286 118.982 113.515 119.894 112.673 119.964C111.832 120.034 110.921 121.599 110.921 123.142C110.921 124.684 109.426 123.142 109.309 124.52C109.168 125.876 107.089 128.282 105.266 130.058C103.444 131.811 105.126 132.208 104.542 133.306C103.958 134.404 101.808 133.423 101.107 133.89C100.383 134.334 101.504 137.068 100.523 137.933C99.5415 138.774 100.523 139.942 100.523 140.924C100.523 141.905 97.9759 140.339 97.789 141.321C97.6021 142.302 95.3822 142.045 94.728 142.302C94.0737 142.559 96.0365 144.125 97.2048 145.036C98.3731 145.947 96.1066 146.672 95.8496 145.62C95.5925 144.569 93.9569 146.275 91.9473 147.186C89.9378 148.097 90.779 149.92 89.2135 149.99C87.6479 150.06 88.1152 152.537 87.0637 153.308C86.0122 154.079 86.2926 151.485 84.657 151.415C83.0213 151.345 83.1615 152.513 84.1429 153.892C85.1243 155.247 82.6475 154.219 81.7362 155.388C80.8249 156.556 78.2312 155.972 77.5068 156.953C76.7825 157.934 79.4696 157.934 79.8435 158.706C80.2407 159.477 77.5068 159.103 76.0815 158.776C74.6561 158.449 75.0533 160.598 73.7448 160.341C72.4363 160.084 70.824 161.439 71.7353 162.351C72.6466 163.262 71.0109 163.402 70.0996 162.795C69.1883 162.211 68.4172 163.636 68.0901 164.757C67.763 165.856 69.8426 166.463 69.7725 166.977C69.7024 167.491 68.0901 168.333 69.2584 168.613C70.4268 168.87 69.5856 169.921 68.8145 170.249C68.0434 170.576 68.0434 171.347 68.8145 172.328C69.5856 173.31 67.4592 173.497 68.4873 174.992C69.5388 176.487 70.3099 174.595 70.7539 175.716C71.1979 176.815 72.4363 175.857 73.885 174.548C75.3104 173.24 75.8478 175.973 74.6561 175.927C73.4878 175.857 72.1092 176.581 72.3896 177.749C72.6466 178.918 70.567 178.731 70.6371 177.305C70.7072 175.88 68.2303 177.562 69.1416 178.614C70.0529 179.642 68.8145 180.25 68.8145 181.208C68.8145 182.166 70.567 181.979 71.2913 180.88C72.0157 179.782 73.184 180.039 73.628 181.137C74.0953 182.236 72.5298 181.394 72.5298 182.89C72.5298 184.385 71.5484 183.077 70.7072 184.245C69.866 185.414 74.0252 187.563 75.3337 187.89C76.6423 188.217 77.8807 189.643 80.4744 189.269C83.0681 188.872 88.0218 184.058 88.676 183.217C89.3303 182.376 90.7557 183.357 91.737 182.563C92.7184 181.792 92.1343 179.759 92.8353 179.385C93.5596 178.988 93.9335 181.535 94.5878 181.792C95.1719 182.025 95.5925 182.493 95.6393 183.778C96.1533 183.708 96.6908 183.731 97.0179 183.965C97.8591 184.596 98.0694 181.885 98.0694 181.044C98.0694 180.203 98.9106 178.544 98.7003 177.492C98.49 176.441 101.201 177.282 101.621 176.441C102.042 175.6 102.252 172.679 101.411 172.258C100.57 171.838 100.359 170.179 101.201 170.179C102.042 170.179 103.07 169.548 102.883 167.889C102.673 166.206 100.172 166.417 99.9621 164.757C99.7518 163.075 101.224 162.654 100.172 160.575C99.1209 158.495 100.593 157.233 100.172 156.182C99.7518 155.13 99.3312 153.892 100.593 151.789C101.855 149.686 104.145 148.658 104.986 148.868C105.827 149.079 107.276 149.92 107.907 148.658C108.538 147.396 108.538 146.345 107.907 146.158C107.276 145.947 105.617 145.527 106.855 143.868C108.117 142.209 109.566 140.106 109.776 138.236C109.986 136.344 109.355 134.895 109.986 134.264C110.617 133.633 112.066 134.264 113.328 133.423C114.59 132.582 113.538 131.53 114.169 130.923C114.8 130.292 115.641 128.212 116.482 127.581C117.323 126.95 118.141 126.109 117.534 125.291C116.903 124.45 118.796 123.609 118.796 122.16C118.796 120.712 120.875 119.66 122.137 119.66C123.399 119.66 125.478 119.66 125.478 118.398C125.478 117.136 124.637 114.426 126.53 115.267C128.423 116.108 129.871 115.057 131.133 116.108C132.395 117.16 134.054 116.95 134.054 115.267C134.054 113.585 134.685 110.874 136.554 111.926C136.694 112.019 136.834 112.089 136.975 112.183C137.606 110.781 138.774 109.893 139.895 110.033C141.578 110.243 142.606 113.164 144.709 113.585C146.789 114.005 148.892 114.847 149.523 113.795C150.153 112.744 151.625 114.426 152.864 114.005C154.126 113.585 154.126 116.295 155.364 114.636C156.626 112.954 155.154 111.926 157.257 112.136C159.336 112.346 158.098 109.823 158.098 108.374C158.098 106.925 160.809 106.692 160.809 105.453C160.809 104.215 164.571 105.243 165.201 104.402C165.832 103.561 167.912 102.93 168.753 104.402C169.594 105.874 173.146 106.294 173.356 107.533C173.45 108.14 173.356 109.098 173.356 109.986C173.941 109.402 174.665 108.982 175.389 108.982C176.698 108.982 177.866 107.019 179.034 107.299C180.016 107.509 180.974 107.346 181.278 105.71C180.226 105.056 178.24 104.963 178.006 105.85L177.913 105.64Z" fill="#B0B7BE"/>
<path d="M144.031 248.9C143.704 248.784 143.33 248.55 143.003 248.269C141.788 247.989 140.596 247.639 140.246 247.288C139.522 246.564 136.601 246.12 136.18 245.98C135.736 245.839 132.979 248.597 132.114 248.597C131.25 248.597 127.465 249.041 127.465 250.045C127.465 251.05 122.815 251.214 121.506 250.045C121.296 249.858 121.109 249.625 120.922 249.344C120.571 249.671 120.338 250.069 120.338 250.513C120.338 251.845 119.31 251.728 118.398 251.634C117.487 251.541 118.398 252.756 117.884 253.363C117.37 253.971 117.884 255.209 117.16 255.303C116.786 255.35 116.576 255.793 116.459 256.331C116.763 256.471 117.51 257.967 117.51 257.967C117.51 257.967 117.464 258.013 117.417 258.06C118.398 258.644 120.431 259.929 121.085 260.794C121.95 261.962 124.427 262.102 125.595 261.822C126.764 261.518 131.694 259.929 131.694 259.929C131.694 259.929 132.862 260.373 133.587 260.514C133.75 260.537 134.217 260.63 134.825 260.724C135.175 260.35 136.274 260.046 137.442 258.878C138.797 257.523 140.854 252.639 141.438 252.242C142.022 251.845 143.587 250.98 144.359 250.396C145.13 249.812 144.943 249.227 144.078 248.924L144.031 248.9Z" fill="#B0B7BE"/>
<path d="M137.091 288.974C137.091 288.974 137.185 288.927 137.255 288.904C137.255 288.904 137.255 288.904 137.302 288.904C137.372 288.904 137.465 288.881 137.559 288.857C137.559 288.857 137.582 288.857 137.606 288.857C137.979 288.834 138.493 288.857 139.008 288.857C139.031 288.857 139.078 288.857 139.124 288.857C139.241 288.857 139.358 288.857 139.475 288.834C139.522 288.834 139.568 288.834 139.615 288.834C139.779 288.834 139.919 288.787 140.059 288.764C141.227 288.46 141.531 287.198 142.115 287.502C142.699 287.806 145.831 286.193 146.204 285.609C146.251 285.539 146.275 285.469 146.298 285.399C146.368 284.955 145.527 284.675 145.433 284.16C145.34 283.576 143.284 281.637 143.003 281.333C142.933 281.263 142.91 281.17 142.91 281.029C142.91 281.029 142.91 281.006 142.91 280.983C142.91 280.842 142.91 280.679 142.91 280.515C139.849 280.959 135.339 281.894 135.339 281.894C135.339 281.894 135.222 281.824 135.082 281.707C134.615 283.202 134.311 285.235 134.615 286.287C134.895 287.315 135.83 288.016 137.162 289.021L137.091 288.974Z" fill="#B0B7BE"/>
<path d="M77.7405 221.164C76.689 222.73 75.2636 222.847 75.5207 223.244C75.7777 223.641 77.3433 224.926 76.946 225.581C76.5488 226.235 76.0347 225.838 76.0347 227.006C76.0347 228.174 74.2121 228.174 73.5579 228.174C72.9036 228.174 73.6981 229.343 73.3009 230.254C72.9036 231.165 72.9036 232.988 72.7868 233.759C72.67 234.53 74.0953 235.838 73.9551 236.493C73.8383 237.147 72.7868 237.661 73.0438 238.175C73.3009 238.666 74.2355 239.414 74.4458 241.82C74.8898 241.96 75.2636 242.124 75.4272 242.334C76.0114 243.105 76.9928 243.69 78.2546 243.69C79.5164 243.69 80.0071 244.578 80.5912 244.461C81.1754 244.367 82.7409 244.858 81.4791 245.933C80.2173 247.008 80.007 248.269 79.7266 249.531C79.5397 250.349 79.5397 251.494 79.3528 252.195C80.5912 252.312 82.4138 252.405 83.0914 252.055C84.1429 251.541 84.7738 251.541 86.0823 251.938C86.8534 252.172 87.9049 252.686 88.6293 253.06C88.6994 252.803 88.8396 252.592 89.12 252.569C90.0079 252.475 91.0828 254.228 91.6669 253.247C92.2511 252.265 93.6297 252.475 94.3074 252.849C94.985 253.247 96.0599 253.433 96.8543 252.662C97.6254 251.891 100.663 251.494 101.341 251.774C102.018 252.078 103.771 252.849 103.093 250.513C102.416 248.176 104.565 248.667 104.846 247.779C105.126 246.891 107.673 246.517 107.276 245.816C106.879 245.138 103.677 243.082 102.696 242.404C101.715 241.727 101.715 239.577 101.224 238.689C100.733 237.801 99.6583 236.633 100.943 236.353C102.205 236.049 104.448 235.581 105.523 234.6C106.598 233.619 108.538 233.525 109.122 232.941C109.706 232.357 111.085 233.432 111.458 232.848C111.856 232.263 112.136 231.095 111.552 230.394C110.968 229.716 110.57 228.548 110.477 226.889C110.384 225.23 109.893 225.324 109.893 224.552C109.893 223.781 109.612 222.8 108.911 222.403C108.234 222.005 107.93 221.725 108.608 220.65C109.285 219.575 109.005 216.841 108.701 216.07C108.654 215.907 108.654 215.743 108.701 215.533C108.538 215.439 108.397 215.276 108.327 214.996C108.14 213.944 107.416 213.57 105.734 213.57C104.051 213.57 106.785 211.888 106.131 211.047C105.477 210.205 103.794 212.612 102.229 212.075C100.663 211.561 98.6535 213.897 97.2749 214.949C95.9197 215.977 93.9569 214.762 95.0084 213.266C96.0365 211.771 95.0084 211.911 93.4428 212.495C91.8773 213.079 89.9846 212.355 90.1949 210.93C90.2416 210.556 90.1248 210.229 89.9378 209.925C89.1667 210.018 88.5826 210.065 88.3022 209.972C87.6012 209.738 86.0122 209.621 84.2831 209.574C84.7972 210.322 85.358 211.07 85.0542 211.654C84.4701 212.752 85.3814 213.804 86.2226 215.439C87.0637 217.075 84.4 216.164 84.3299 217.192C84.2598 218.243 81.853 217.122 81.0819 216.748C80.3108 216.351 77.6938 216.608 77.7639 217.262C77.7872 217.519 77.7639 217.893 77.6237 218.173C77.9742 219.435 78.1377 220.603 77.7639 221.164H77.7405Z" fill="#AD1AC7"/>
<path d="M176.207 164.571C177.259 162.234 181.932 160.411 182.703 158.332C183.1 157.304 183.217 156.766 181.535 154.827C179.852 152.864 176.067 151.579 175.95 150.527C175.81 149.499 178.801 149.359 178.684 148.05C178.544 146.742 177.002 146.742 176.347 145.714C175.693 144.662 177.118 144.031 177.002 143.494C176.861 142.98 174.922 142.723 174.782 142.069C174.642 141.414 176.09 141.554 175.81 140.76C175.553 139.989 174.244 138.54 175.156 137.372C176.067 136.204 178.006 137.372 176.581 134.778C175.156 132.185 172.936 128.913 172.422 128.142C171.908 127.371 172.936 126.062 173.73 125.548C174.501 125.034 176.464 123.072 176.464 122.3C176.464 121.529 173.987 119.45 173.333 119.053C172.679 118.655 171.253 118.795 170.599 117.487C169.945 116.178 169.291 115.805 169.945 115.01C170.599 114.239 170.599 113.445 170.599 112.673C170.599 111.902 172.025 112.533 172.282 111.365C172.398 110.827 172.772 110.243 173.263 109.753C173.263 108.865 173.356 107.907 173.263 107.299C173.053 106.037 169.501 105.64 168.66 104.168C167.819 102.696 165.739 103.327 165.108 104.168C164.477 105.009 160.715 103.958 160.715 105.22C160.715 106.481 158.005 106.692 158.005 108.14C158.005 109.589 159.266 112.113 157.163 111.902C155.06 111.692 156.532 112.744 155.271 114.403C154.009 116.085 154.009 113.351 152.77 113.772C151.509 114.192 150.06 112.51 149.429 113.561C148.798 114.613 146.719 113.772 144.616 113.351C142.536 112.93 141.484 110.01 139.802 109.799C138.704 109.659 137.512 110.547 136.881 111.949C138.494 113.001 139.568 114.496 141.671 115.454C143.961 116.506 148.144 117.744 147.934 119.216C147.723 120.688 147.092 122.768 148.144 123.399C149.195 124.03 147.934 126.74 149.195 127.371C150.457 128.002 150.037 131.133 148.985 131.133C147.934 131.133 149.195 132.792 149.826 133.423C150.107 133.703 150.34 134.568 150.457 135.596C151.742 135.9 152.887 136.554 154.009 137.045C155.761 137.816 155.504 139.054 155.574 140.433C155.645 141.812 155.691 142.583 154.803 141.998C153.892 141.414 152.911 141.998 152.397 143.961C151.883 145.924 149.406 148.261 147.91 148.378C146.415 148.518 146.532 150.06 145.317 150.387C144.078 150.714 142.91 151.439 142.98 152.794C143.05 154.172 141.157 154.289 139.919 154.289C138.68 154.289 138.937 156.509 137.956 157.093C136.975 157.677 137.185 158.472 138.096 159.64C139.008 160.809 138.236 161.86 138.54 162.701C138.867 163.542 140.293 165.505 139.311 167.655C138.33 169.805 137.302 172.468 138.143 172.211C138.984 171.954 140.947 173.964 142.232 173.847C143.541 173.707 143.658 175.67 144.896 175.272C146.134 174.875 146.134 176.441 149.709 176.324C153.285 176.184 160.505 173.193 163.379 173.193C164.991 173.193 166.3 173.006 167.328 172.749C167.935 171.814 168.683 170.833 169.431 170.085C171.253 168.262 175.156 166.954 176.184 164.617L176.207 164.571Z" fill="#B0B7BE"/>
<path d="M17.3613 214.622C16.8239 214.224 16.3098 213.78 15.9126 213.313C14.2302 211.35 13.5526 212.916 13.3656 214.108C13.1787 215.276 11.5898 213.71 10.6084 213.523C9.62699 213.337 10.9121 211.467 11.5898 210.976C12.0571 210.649 12.5011 209.738 12.7815 208.476C12.5945 208.476 12.4076 208.453 12.244 208.383C10.4214 207.658 7.87449 207.658 7.82776 209.294C7.75766 210.93 9.83728 210.346 9.90738 211.374C9.97748 212.425 7.82776 212.145 6.3323 213.196C4.83685 214.224 3.20119 212.472 1.659 213.266C0.0934375 214.037 3.34139 214.949 2.17306 216.584C1.00473 218.197 2.24316 218.15 4.18258 219.692C6.14537 221.258 3.01426 221.655 3.01426 223.407C3.01426 225.16 0.607501 225.09 0.0934376 226.258C-0.420626 227.427 2.17306 229.763 4.46298 229.763C6.09864 229.763 9.86065 228.712 12.0805 226.632C14.3003 224.552 15.4686 226.562 17.4781 225.534C19.4877 224.482 18.2492 216.888 17.4781 215.323C17.3379 215.042 17.3379 214.832 17.408 214.645L17.3613 214.622Z" fill="#B0B7BE"/>
<path d="M65.6833 230.231C66.4778 229.436 67.8798 229.833 68.6742 230.628C69.4687 231.422 70.6604 231.633 71.8521 232.824C72.1558 233.128 72.483 233.408 72.8101 233.665C72.9269 232.824 72.9503 231.165 73.3242 230.301C73.7214 229.389 72.9269 228.221 73.5812 228.221C74.2355 228.221 76.0581 228.221 76.0581 227.053C76.0581 225.884 76.5721 226.282 76.9694 225.627C77.3666 224.973 75.801 223.665 75.544 223.291C75.287 222.893 76.7123 222.777 77.7638 221.211C78.1377 220.65 77.9741 219.482 77.6236 218.22C77.4601 218.687 77.1096 219.015 76.5254 218.664C75.544 218.08 74.0485 218.407 72.1091 218.804C70.1697 219.202 69.5622 221.071 70.2865 221.865C71.0109 222.636 68.3938 223.034 68.2069 222.005C68.02 220.954 66.0572 221.678 66.1974 223.057C66.3376 224.412 64.0477 224.95 64.1879 226.632C64.3281 228.314 62.1082 229.88 60.6829 230.721C60.4492 230.861 60.2389 231.002 60.0052 231.118C60.7296 231.446 61.2904 231.679 61.5708 231.679C62.7625 231.679 64.959 231.072 65.7534 230.277L65.6833 230.231Z" fill="#B0B7BE"/>
<path d="M185.203 215.533C184.432 215.346 183.941 213.57 182.656 213.103C181.394 212.612 181.675 211.047 180.6 210.369C179.525 209.691 180.203 208.313 180.109 207.238C180.016 206.163 180.296 204.504 179.712 204.2C179.128 203.896 176.698 202.541 175.623 203.032C174.548 203.523 173.777 203.92 173.286 203.032C172.796 202.144 172.118 201.677 171.043 201.957C169.968 202.261 169.291 201.77 168.706 201.279C168.613 201.209 168.543 201.092 168.496 200.952C168.052 201.046 167.491 201.209 167.117 201.513C166.463 202.027 166.346 203.079 165.435 203.079C164.524 203.079 163.472 202.681 162.444 203.476C161.393 204.247 161.136 205.158 161.276 205.812C161.416 206.467 161.533 207.495 160.762 207.495C159.991 207.495 160.108 208.406 159.336 208.663C158.565 208.92 157.257 210.089 157.117 210.743C156.976 211.397 156.976 212.822 156.462 212.822C155.948 212.822 154.126 213.079 153.588 213.734C153.074 214.388 152.42 215.042 151.368 214.785C150.831 214.645 149.406 214.598 148.144 214.552C148.144 214.668 148.144 214.809 148.121 214.949C147.63 216.327 148.027 217.589 148.798 218.267C149.569 218.944 149.873 221.678 148.985 222.076C148.097 222.473 146.438 223.641 146.438 224.319C146.438 224.996 148.191 225.581 147.91 226.562C147.747 227.123 147.747 228.104 147.84 228.969C148.658 228.992 149.476 229.156 150.2 228.431C150.971 227.66 151.368 226.726 153.051 226.726C154.733 226.726 159.827 226.726 160.598 227.637C161.369 228.548 163.449 227.754 164.641 228.291C165.832 228.829 167.515 229.319 167.632 228.688C167.772 228.034 169.314 229.6 170.506 228.945C171.674 228.291 172.725 230.254 173.38 229.857C174.034 229.459 176.768 229.459 177.399 230.114C178.053 230.768 178.17 229.459 178.17 228.688C178.17 227.917 180.764 225.838 180.764 225.838C180.764 225.838 182.539 225.744 183.591 225.277C183.357 224.95 183.147 224.389 182.937 223.431C182.446 221.281 181.675 220.019 182.259 219.318C182.843 218.641 184.502 220.206 185.39 219.809C186.278 219.412 187.82 218.641 187.633 217.753C187.446 216.865 185.974 215.697 185.203 215.51V215.533Z" fill="#B0B7BE"/>
<path d="M149.873 133.423C149.242 132.792 148.004 131.133 149.032 131.133C150.06 131.133 150.504 128.002 149.242 127.371C147.98 126.74 149.242 124.03 148.191 123.399C147.139 122.768 147.77 120.688 147.98 119.216C148.191 117.744 144.008 116.506 141.718 115.454C139.428 114.403 138.377 112.744 136.484 111.692C134.591 110.641 133.984 113.351 133.984 115.033C133.984 116.716 132.301 116.926 131.063 115.875C129.801 114.823 128.352 115.875 126.46 115.033C124.567 114.192 125.408 116.926 125.408 118.165C125.408 119.403 123.305 119.426 122.067 119.426C120.828 119.426 118.725 120.478 118.725 121.927C118.725 123.375 116.833 124.24 117.464 125.058C118.094 125.899 117.253 126.74 116.412 127.348C115.571 127.979 114.73 130.058 114.099 130.689C113.468 131.32 114.519 132.371 113.258 133.189C111.996 134.03 110.547 133.4 109.916 134.03C109.285 134.661 109.916 136.11 109.706 138.003C109.496 139.872 108.024 141.975 106.785 143.634C105.523 145.293 107.206 145.714 107.837 145.924C108.467 146.134 108.467 147.186 107.837 148.424C107.206 149.686 105.757 148.845 104.916 148.635C104.075 148.424 101.785 149.476 100.523 151.555C99.261 153.635 99.6816 154.897 100.102 155.948C100.523 157 99.0507 158.262 100.102 160.341C101.154 162.421 99.6816 162.841 99.8919 164.524C100.102 166.183 102.602 165.996 102.813 167.655C103.023 169.314 101.972 169.945 101.13 169.945C100.289 169.945 100.499 171.627 101.341 172.024C102.182 172.445 101.972 175.366 101.551 176.207C101.13 177.048 98.4199 176.207 98.6301 177.259C98.8404 178.31 97.9993 179.969 97.9993 180.81C97.9993 181.651 97.789 184.362 96.9478 183.731C96.6206 183.474 96.0832 183.474 95.5691 183.544C95.5691 183.684 95.5691 183.801 95.5691 183.965C95.499 185.6 96.0832 187.213 97.5319 188.381C98.9573 189.549 97.8591 191.302 99.0975 192.938C100.336 194.573 99.9387 195.741 101.317 196.91C102.673 198.078 102.813 198.732 102.229 200.228C101.644 201.723 103.397 201.326 103.467 202.237C103.537 203.149 103.07 205.041 103.537 205.953C103.981 206.864 104.892 205.953 106.995 205.883C109.075 205.812 108.561 204.504 108.631 203.289C108.701 202.05 109.729 202.635 109.986 201.864C110.243 201.092 112.136 200.882 113.631 201.536C115.127 202.191 115.898 201.092 116.178 199.527C116.435 197.961 117.277 199.854 117.744 200.181C118.188 200.508 119.567 197.774 120.221 196.022C120.875 194.269 120.151 194.597 118.655 196.279C117.16 197.961 118.001 194.597 118.585 193.218C119.169 191.839 119.099 187.89 119.31 186.979C119.496 186.068 119.894 184.712 121.786 184.315C123.679 183.918 126.156 181.581 125.759 180.6C125.361 179.619 128.352 178.006 128.352 177.025C128.352 176.044 125.221 173.053 124.193 172.398C123.142 171.744 120.875 172.258 121.062 171.557C121.249 170.833 120.805 168.052 120.548 166.603C120.291 165.178 122.16 163.683 122.16 162.304C122.16 160.925 122.09 159.383 123.329 158.916C124.567 158.472 123.796 157.28 125.408 156.906C127.044 156.509 126.717 154.172 128.469 153.448C130.222 152.724 130.362 152.14 132.628 151.041C134.895 149.943 138.751 147.326 139.405 145.971C140.059 144.616 137.068 143.167 138.937 141.741C140.83 140.316 139.265 138.68 140.62 138.166C141.975 137.652 142.513 136.928 143.494 135.9C144.475 134.848 145.76 135.83 148.12 135.456C148.985 135.316 149.756 135.386 150.504 135.549C150.41 134.521 150.177 133.657 149.873 133.376V133.423ZM127.885 190.648C125.408 190.718 124.263 195.578 124.894 196.372C125.408 197.027 130.362 190.577 127.885 190.648Z" fill="#B0B7BE"/>
<path d="M57.5751 232.894C57.6685 233.572 58.7434 235.231 59.1406 234.553C59.5378 233.876 60.4959 235.441 61.3838 235.909C62.2717 236.399 64.0242 236.983 64.1177 237.568C64.2112 238.152 64.5149 239.414 65.3795 239.04C66.2674 238.642 67.3189 237.287 67.3189 238.058C67.3189 238.829 67.6227 240.301 68.5807 240.115C69.5621 239.928 69.8425 241.774 70.8239 241.587C71.0108 241.54 71.2445 241.517 71.5249 241.517C71.4081 239.32 72.2025 238.269 73.0671 237.778C73.2774 237.381 73.8615 236.983 73.955 236.516C74.0952 235.862 72.6465 234.553 72.7867 233.782C72.7867 233.736 72.7867 233.689 72.7867 233.642C72.4595 233.385 72.1324 233.105 71.8286 232.801C70.637 231.609 69.4453 231.399 68.6508 230.604C67.8563 229.81 66.4543 229.413 65.6599 230.207C64.8654 231.002 62.669 231.609 61.4773 231.609C61.1969 231.609 60.6361 231.399 59.9117 231.048C58.9771 231.586 57.9723 232.1 56.9675 232.31C57.1545 232.591 57.4582 232.427 57.5283 232.894H57.5751Z" fill="#B0B7BE"/>
<path d="M102.696 263.481C103.747 263.061 104.916 262.897 105.5 263.131C106.014 263.341 106.177 263.878 106.271 264.439C107.159 264.299 108.818 264.042 109.379 263.832C110.15 263.528 111.926 264.509 112.112 263.925C112.299 263.341 112.884 261.962 113.678 261.962C114.472 261.962 113.982 259.906 114.753 259.813C115.524 259.719 117.487 257.967 117.487 257.967C117.487 257.967 116.716 256.401 116.412 256.308C116.108 256.214 115.15 257.289 113.398 257.289C111.645 257.289 110.383 258.668 109.589 258.668C108.794 258.668 106.364 257.896 104.705 257.78C104.121 257.756 103.514 257.71 102.953 257.639C102.789 259.112 102.602 261.401 102.719 263.481H102.696Z" fill="#B0B7BE"/>
<path d="M110.267 303.181C107.603 303.765 106.505 303.952 104.939 303.181C103.374 302.41 100.85 303.882 101.224 304.933C101.481 305.658 102.532 306.569 105.78 307.41C109.028 308.251 109.426 310.471 110.781 310.541C112.136 310.611 112.276 309.303 111.949 307.55C111.622 305.798 113.585 303.788 113.772 303.461C113.959 303.134 112.93 302.62 110.267 303.204V303.181ZM85.1009 288.413C83.6756 289.652 82.4839 288.203 81.9231 289.184C81.1987 290.423 84.1429 292.315 83.5588 294.839C82.9746 297.386 83.8859 300.564 85.3814 299.068C86.8768 297.573 87.6012 298.297 88.4424 297.176C89.2836 296.077 88.5826 291.965 89.1667 290.025C89.7509 288.063 86.573 287.175 85.1243 288.39L85.1009 288.413ZM116.973 286.334C115.291 285.282 116.389 283.6 113.725 283.74C111.061 283.88 107.883 280.562 106.902 276.707C105.921 272.874 101.761 272.664 100.733 270.398C99.6817 268.131 101.715 267.851 100.803 265.981C100.289 264.93 101.434 263.995 102.743 263.481C102.626 261.401 102.813 259.112 102.976 257.639C101.948 257.546 101.06 257.382 100.733 257.195C100.242 256.892 100.149 255.35 99.8452 255.35C99.5415 255.35 96.831 255.35 96.3403 255.84C95.8496 256.331 94.4008 257.195 93.6064 256.728C93.4428 256.635 93.2559 256.518 93.0689 256.424L92.2277 257.219C92.2277 257.219 92.0875 258.27 91.5735 258.27C91.0594 258.27 90.265 257.873 90.265 258.784C90.265 259.696 88.8396 259.439 88.1853 259.298C87.5311 259.158 86.6198 259.439 86.6198 260.21C86.6198 260.981 86.4796 262.687 85.4514 261.775C84.4233 260.864 83.3718 258.527 82.9746 258.784C82.5774 259.041 81.6661 261.916 80.7548 261.916C80.194 261.916 78.348 262.056 76.9928 262.173C76.6423 263.294 77.0161 263.972 77.4835 264.252C77.9742 264.556 77.1797 265.724 76.5955 266.005C76.0114 266.308 75.03 266.005 75.7076 267.08C76.3852 268.154 77.6704 268.248 76.9694 269.323C76.2918 270.398 76.9694 271.379 77.9508 271.472C78.9322 271.566 80.2874 271.379 80.0071 272.15C79.8435 272.594 79.5631 273.131 79.5163 273.646C80.2874 273.435 80.9651 273.389 81.6427 273.038C82.998 272.314 82.4138 271.075 84.7037 270.444C86.9703 269.79 89.9612 271.683 90.8725 273.038C91.7838 274.393 92.0408 274.533 92.2277 275.632C92.4147 276.73 93.2792 278.95 96.387 280.959C99.5181 282.969 100.757 285.259 102.369 286.1C104.004 286.941 105.617 286.754 106.598 287.922C107.58 289.091 108.865 289.745 110.43 290.446C111.996 291.17 112.066 292.853 113.561 293.04C115.057 293.227 114.075 294.535 114.987 295.633C115.898 296.732 116.155 299.092 115.174 300.377C114.192 301.685 114.706 303.882 115.361 303.882C116.015 303.882 117.37 301.545 117.58 300.237C117.767 298.928 119.076 298.998 120.127 297.643C121.156 296.288 118.562 295.961 118.118 294.185C117.651 292.432 120.081 290.867 122.347 292.292C124.614 293.717 125.548 294.699 125.665 292.479C125.805 290.259 118.632 287.338 116.95 286.31L116.973 286.334Z" fill="#B0B7BE"/>
<path d="M73.0905 237.778C72.226 238.269 71.4315 239.297 71.5483 241.517C72.3895 241.493 73.5812 241.587 74.4458 241.844C74.2355 239.437 73.3008 238.689 73.0438 238.198C72.9737 238.058 72.9971 237.918 73.0672 237.778H73.0905Z" fill="#B0B7BE"/>
<path d="M127.628 275.632C126.717 276.847 125.852 278.389 125.946 278.903C125.992 279.137 125.922 279.627 125.759 280.282C126.927 281.216 128.049 282.151 128.866 282.595C128.96 282.642 129.03 282.688 129.1 282.712C129.357 281.263 130.362 279.768 131.063 279.604C130.058 278.366 128.563 276.613 127.605 275.655L127.628 275.632Z" fill="#B0B7BE"/>
<path d="M143.05 274.557C142.069 273.669 142.162 272.127 143.05 271.519C143.938 270.935 143.143 270.164 143.143 269.183C143.143 268.201 138.937 267.921 138.26 267.71C137.582 267.524 138.751 264.977 137.676 264.977C136.601 264.977 136.204 264.205 136.204 263.411C136.204 262.617 134.545 261.355 134.638 260.864C134.638 260.794 134.708 260.724 134.755 260.677C134.147 260.584 133.68 260.514 133.516 260.467C132.792 260.327 131.624 259.883 131.624 259.883C131.624 259.883 128.913 260.771 127.044 261.331C127.161 262.476 127.464 263.715 128.189 263.995C129.591 264.533 129.053 265.911 129.591 267.15C130.105 268.388 129.941 273.973 129.24 273.973C128.937 273.973 128.259 274.697 127.605 275.608C128.563 276.566 130.058 278.319 131.063 279.557C131.11 279.557 131.156 279.511 131.203 279.511C132.068 279.511 135.269 281.847 135.269 281.847C135.269 281.847 139.802 280.913 142.84 280.469C142.886 280.001 142.98 279.464 142.933 279.137C142.84 278.553 143.517 277.384 144.405 277.384C145.293 277.384 144.008 275.421 143.05 274.557Z" fill="#B0B7BE"/>
<path fill-rule="evenodd" clip-rule="evenodd" d="M330 109.221C329.841 109.127 329.68 109.024 329.515 108.911C327.295 107.416 325.426 106.692 321.383 106.762C319.068 106.802 317.228 106.497 315.823 106.264C314.776 106.091 313.971 105.957 313.392 106.037C312.735 106.128 312.518 105.813 312.194 105.344C311.849 104.845 311.385 104.173 310.144 103.631C309.451 103.328 308.827 102.994 308.258 102.689C306.853 101.936 305.781 101.362 304.816 101.878C303.461 102.602 303.975 105.196 306.055 105.523C307.028 105.676 307.321 105.998 307.582 106.286C307.879 106.612 308.134 106.894 309.303 106.832C311.523 106.692 312.177 107.486 312.107 108.841C312.037 110.197 313.158 111.575 314.116 112.487C315.098 113.398 314.514 114.893 312.761 114.893C311.009 114.893 308.999 115.15 309.77 116.389C310.541 117.627 309.256 117.954 307.504 117.3C305.751 116.646 306.779 115.407 307.504 114.706C308.228 113.982 305.938 113.094 304.84 112.697C304.082 112.423 301.735 113.883 299.953 114.992C299.151 115.491 298.464 115.918 298.087 116.085C297.553 116.307 296.68 116.194 295.61 116.055C294.2 115.873 292.447 115.646 290.68 116.085C288.855 116.534 288.165 117.563 287.676 118.292C287.326 118.814 287.078 119.183 286.591 119.076C286.157 118.98 285.408 119.001 284.572 119.024C283.155 119.063 281.487 119.108 280.679 118.609C279.37 117.837 280.422 117.37 281.777 117.44C283.132 117.51 283.6 117.043 282.829 116.132C282.349 115.565 282.872 114.8 283.319 114.146C283.592 113.747 283.837 113.388 283.81 113.141C283.74 112.487 278.669 114.169 277.828 114.893C277.415 115.249 277.425 115.739 277.433 116.202C277.442 116.682 277.451 117.132 276.987 117.37C276.47 117.622 276.246 117.34 275.958 116.976C275.737 116.699 275.479 116.374 275.024 116.202C273.996 115.805 266.379 117.557 264.953 119.193C264.207 120.049 263.082 120.47 262.18 120.808C261.36 121.115 260.724 121.352 260.724 121.786C260.724 122.325 259.514 122.521 258.246 122.726C257.369 122.868 256.464 123.015 255.91 123.282C255.083 123.681 255.1 124.829 255.117 125.96C255.128 126.683 255.138 127.398 254.929 127.908C254.52 128.948 251.056 128.911 248.842 128.887C248.271 128.881 247.782 128.875 247.452 128.89C246.56 128.928 245.981 127.994 245.43 127.106C244.971 126.366 244.531 125.657 243.947 125.572C242.638 125.385 243.433 123.562 243.806 122.768C243.999 122.394 244.339 122.35 244.825 122.286C245.342 122.219 246.024 122.13 246.867 121.599C247.779 121.005 248.698 121.247 249.442 121.443C250.015 121.594 250.485 121.717 250.77 121.413C251.095 121.052 250.483 120.408 249.763 119.65C249.036 118.885 248.2 118.005 248.106 117.183C247.919 115.548 244.461 115.104 242.521 115.618C240.559 116.132 238.432 115.688 237.054 115.033C235.698 114.379 235.815 116.202 237.825 116.716C239.217 117.072 239.151 117.933 239.088 118.755C239.06 119.119 239.033 119.476 239.133 119.777C239.46 120.758 238.619 122.955 237.451 124.66C236.292 126.33 237.11 126.297 238.835 126.228L238.876 126.226C240.527 126.16 240.519 128.188 240.513 129.83C240.512 129.931 240.512 130.031 240.512 130.128C240.512 131.034 240.119 131.587 239.757 132.098C239.446 132.537 239.157 132.945 239.157 133.516C239.157 134.205 238.715 133.947 238.244 133.671C237.867 133.45 237.471 133.218 237.264 133.446C236.82 133.96 236.212 133.189 235.955 132.138C235.793 131.474 234.672 131.462 233.491 131.449C232.801 131.442 232.09 131.434 231.539 131.297C230.044 130.899 229.459 131.554 228.735 132.652C228.011 133.75 225.931 134.217 224.833 134.334C224.013 134.427 222.936 135.391 221.963 136.263C221.467 136.707 220.998 137.127 220.604 137.395C219.435 138.166 219.248 139.662 220.861 141.227C222.496 142.793 222.823 143.821 222.683 144.686C222.543 145.527 218.127 145.27 217.426 144.358C216.701 143.447 213.851 143.12 212.869 143.307C212.383 143.399 211.486 142.685 210.539 141.931C209.572 141.162 208.553 140.351 207.869 140.316C206.546 140.248 205.69 141.871 205.237 142.731L205.205 142.793C204.948 143.279 205.207 143.57 205.598 144.01C205.883 144.33 206.238 144.729 206.513 145.34C207.168 146.765 209.574 146.835 210.813 146.835C212.051 146.835 211.584 148.728 211.21 149.499C210.813 150.27 208.546 150.854 207.892 150.013C207.585 149.618 206.82 149.594 206.087 149.571C205.259 149.545 204.471 149.52 204.434 148.962C204.364 147.91 202.424 146.368 200.391 146.695C198.382 147.022 197.985 145.714 198.125 144.148C198.209 143.204 197.792 142.498 197.458 141.932C197.239 141.56 197.055 141.248 197.073 140.97C197.096 140.74 197.011 140.438 196.92 140.111C196.725 139.411 196.497 138.597 197.214 138.12C197.911 137.628 197.781 136.965 197.646 136.283C197.583 135.959 197.518 135.631 197.541 135.316C197.611 134.334 195.788 132.839 194.153 132.839C193.262 132.839 192.954 132.354 192.638 131.86C192.375 131.446 192.106 131.025 191.489 130.876C190.11 130.549 187.4 128.282 187.189 127.301C187.087 126.764 186.418 126.486 185.948 126.29C185.559 126.129 185.306 126.024 185.624 125.876C186.348 125.548 187.96 126.016 189.129 127.184C190.297 128.352 192.19 129.404 195.251 129.778C196.805 129.979 197.89 130.446 199.022 130.934C200.118 131.406 201.259 131.897 202.915 132.185C203.647 132.311 204.314 132.428 204.961 132.542C207.305 132.954 209.368 133.317 213.196 133.867C218.08 134.591 224.576 129.638 225.954 128.282C226.894 127.343 226.34 125.708 225.912 124.443C225.722 123.882 225.557 123.394 225.557 123.072C225.557 122.484 224.864 122.188 224.195 121.903C223.667 121.678 223.155 121.459 223.01 121.109C222.683 120.338 221.258 118.889 219.365 118.889C218.383 118.889 217.841 118.31 217.338 117.773C216.872 117.274 216.439 116.812 215.72 116.879C214.338 117.009 213.335 116.34 210.112 114.192C209.847 114.015 209.567 113.829 209.271 113.631C205.368 111.038 199.971 109.145 198.989 109.589C198.008 110.033 197.354 110.313 196.723 109.332C196.069 108.351 194.573 108.491 193.545 109.262C193.021 109.647 192.502 109.467 191.87 109.249C191.235 109.03 190.486 108.771 189.503 109.005C187.54 109.472 186.512 108.164 187.026 107.58C187.245 107.331 187.891 107.281 188.55 107.231C189.44 107.162 190.354 107.092 190.274 106.528C190.206 106.051 189.927 106.038 189.458 106.016C188.962 105.993 188.253 105.96 187.353 105.36C185.6 104.191 184.619 104.962 184.222 105.944C183.825 106.925 182.469 106.645 181.558 105.804L181.558 105.804C181.464 105.733 181.371 105.663 181.254 105.593C180.95 107.229 179.992 107.393 179.011 107.182C178.406 107.049 177.801 107.505 177.177 107.976C176.595 108.414 175.997 108.865 175.366 108.865C174.057 108.865 172.632 110.29 172.375 111.458C172.236 112.092 171.752 112.19 171.339 112.273C170.991 112.343 170.693 112.403 170.693 112.767C170.693 113.561 170.693 114.332 170.038 115.104C169.559 115.669 169.782 116.033 170.194 116.703C170.343 116.947 170.518 117.231 170.693 117.58C171.145 118.485 171.965 118.697 172.645 118.873C172.948 118.952 173.224 119.023 173.426 119.146C174.081 119.543 176.558 121.623 176.558 122.394C176.558 123.165 174.595 125.128 173.824 125.642C173.053 126.156 172.001 127.464 172.515 128.236C172.558 128.299 172.612 128.38 172.676 128.476C173.391 129.543 175.367 132.492 176.674 134.872C177.587 136.532 177.121 136.651 176.428 136.828C176.038 136.927 175.577 137.045 175.249 137.465C174.569 138.338 175.126 139.353 175.559 140.143C175.706 140.41 175.838 140.652 175.903 140.854C176.039 141.26 175.707 141.42 175.384 141.575C175.093 141.716 174.809 141.852 174.875 142.162C174.95 142.511 175.537 142.747 176.089 142.969C176.572 143.164 177.03 143.347 177.095 143.587C177.148 143.782 176.974 143.996 176.772 144.245C176.44 144.653 176.034 145.153 176.441 145.807C176.72 146.256 177.164 146.513 177.592 146.76C178.167 147.092 178.71 147.407 178.777 148.144C178.851 148.832 178.052 149.191 177.299 149.529C176.62 149.834 175.977 150.122 176.043 150.621C176.114 151.148 177.094 151.734 178.267 152.434C179.433 153.131 180.789 153.941 181.628 154.92C183.311 156.883 183.194 157.397 182.796 158.425C182.403 159.466 181.061 160.432 179.68 161.425C178.27 162.44 176.82 163.483 176.301 164.664C175.674 166.088 173.981 167.13 172.341 168.139C171.29 168.786 170.26 169.42 169.548 170.132C168.8 170.879 168.076 171.884 167.445 172.796C168.216 172.609 168.823 172.375 169.291 172.141C169.938 171.825 170.452 172.66 170.998 173.545C171.338 174.097 171.69 174.669 172.095 174.992C172.631 175.421 173.436 175.431 174.188 175.439C174.91 175.448 175.583 175.456 175.927 175.833C176.651 176.604 175.343 176.674 173.847 176.417C172.95 176.263 172.448 176.529 171.686 176.933C171.178 177.203 170.553 177.534 169.618 177.843C168.41 178.245 168.123 178.67 167.863 179.056C167.746 179.23 167.633 179.396 167.445 179.548C168.155 180.574 167.746 181.003 167.24 181.534C166.997 181.789 166.731 182.067 166.557 182.446C166.267 183.072 165.931 183.439 165.652 183.744C165.369 184.054 165.143 184.3 165.085 184.689C165.031 185.134 165.101 185.517 165.189 185.991C165.253 186.337 165.325 186.732 165.365 187.236C165.452 188.327 165.621 188.562 166.214 189.388C166.256 189.447 166.3 189.508 166.346 189.573C166.82 190.259 166.346 190.465 165.818 190.695C165.591 190.794 165.354 190.897 165.178 191.045C164.594 191.536 164.991 192.61 165.762 193.381C166.533 194.153 166.533 195.134 166.253 195.812C165.949 196.489 166.931 197.658 167.608 198.359C167.956 198.706 168.101 199.368 168.238 199.996C168.368 200.591 168.492 201.157 168.777 201.396C169.361 201.887 170.038 202.378 171.113 202.074C172.188 201.793 172.866 202.261 173.356 203.149C173.828 204.003 174.56 203.668 175.572 203.204C175.612 203.186 175.652 203.167 175.693 203.149C176.643 202.715 178.65 203.741 179.508 204.179C179.621 204.237 179.714 204.284 179.782 204.317C180.19 204.529 180.176 205.402 180.163 206.275C180.157 206.652 180.151 207.03 180.179 207.355C180.208 207.683 180.164 208.038 180.121 208.393C180.022 209.197 179.924 209.999 180.67 210.486C181.167 210.799 181.369 211.301 181.57 211.8C181.803 212.381 182.035 212.956 182.726 213.22C183.407 213.485 183.864 214.117 184.265 214.673C184.606 215.146 184.908 215.564 185.273 215.65C186.044 215.837 187.516 217.005 187.703 217.893C187.89 218.781 186.348 219.552 185.46 219.949C185.036 220.139 184.435 219.88 183.86 219.633C183.232 219.362 182.634 219.105 182.329 219.459C181.932 219.92 182.162 220.662 182.504 221.766C182.664 222.285 182.85 222.884 183.007 223.571C183.497 225.721 183.895 225.908 184.853 225.908C185.507 225.908 185.899 225.592 186.306 225.265C186.495 225.113 186.686 224.959 186.909 224.833C187.272 224.62 187.889 224.689 188.489 224.755C189.009 224.813 189.515 224.87 189.83 224.739C190.507 224.436 192.961 224.342 193.428 225.137C193.919 225.908 194.41 227.777 194.012 228.455C193.733 228.932 194.09 229.467 194.498 230.077C194.669 230.333 194.849 230.602 194.994 230.885C195.315 231.527 196.306 231.539 197.143 231.549C197.585 231.554 197.984 231.559 198.218 231.656C198.896 231.96 200.462 234.086 200.158 235.067C199.877 236.049 201.139 236.236 201.817 235.955C202.317 235.731 202.816 236.105 203.363 236.513C203.557 236.658 203.758 236.808 203.967 236.937C204.738 237.427 205.439 237.24 206.21 236.75C206.981 236.259 208.266 235.862 208.64 236.563C208.82 236.87 209.241 237.298 209.646 237.71C210.135 238.207 210.603 238.682 210.603 238.899C210.603 239.082 211.115 239.097 211.783 239.116C212.569 239.139 213.569 239.168 214.201 239.484C214.761 239.763 215.342 239.845 215.936 239.928C216.583 240.019 217.247 240.112 217.916 240.465C218.332 240.688 218.737 240.848 219.098 240.99C219.833 241.28 220.385 241.498 220.463 242.031C220.52 242.495 220.05 242.934 219.668 243.292C219.416 243.528 219.201 243.728 219.201 243.877C219.201 244.043 219.414 244.195 219.65 244.364C219.945 244.576 220.276 244.814 220.276 245.138C220.276 245.455 219.877 245.6 219.478 245.745C219.142 245.867 218.807 245.989 218.711 246.213C218.594 246.521 218.926 246.902 219.243 247.264C219.431 247.48 219.614 247.689 219.692 247.872C219.801 248.158 219.522 248.838 219.27 249.454C219.089 249.897 218.921 250.307 218.921 250.513C218.921 250.858 217.477 250.671 216.384 250.53C215.923 250.471 215.524 250.419 215.323 250.419C214.969 250.419 214.238 251.031 213.525 251.63C212.873 252.176 212.235 252.711 211.911 252.756C211.355 252.845 211.582 253.823 211.787 254.703C211.797 254.748 211.808 254.792 211.818 254.835C213.921 254.438 216.07 254.275 216.304 254.742C216.701 255.513 211.748 257.593 210.836 257.92C210.346 258.096 210.891 258.576 211.488 259.103C212 259.555 212.551 260.041 212.519 260.397C212.491 260.703 212.032 260.921 211.506 261.17C210.707 261.549 209.756 262 209.925 262.944C210.182 264.509 209.014 264.836 207.518 264.836C206.023 264.836 205.626 265.748 206.35 265.888C206.598 265.936 206.752 266.194 206.961 266.542C207.363 267.213 207.963 268.215 209.808 268.692C212.612 269.393 215.603 272.01 218.01 274.604C218.337 274.954 218.734 275.258 219.155 275.491C219.856 275.071 220.463 274.767 220.814 274.72C222.169 274.533 224.716 275.305 226.095 276.286C226.818 276.81 228.547 276.721 230.091 276.642C231.439 276.573 232.645 276.511 232.918 276.87C233.502 277.641 234.67 278.623 235.652 278.623C236.095 278.623 236.539 279.023 236.963 279.407C237.477 279.872 237.963 280.311 238.385 279.978C239.156 279.394 242.1 279.394 242.872 279.394H242.872C243.254 279.394 243.447 279.538 243.641 279.683C243.839 279.83 244.037 279.978 244.437 279.978C244.858 279.978 245.049 280.796 245.223 281.539C245.377 282.199 245.518 282.8 245.793 282.712C246.074 282.622 246.72 283.026 247.464 283.492C248.265 283.993 249.18 284.566 249.882 284.675C250.625 284.777 251.375 285.533 251.998 286.161C252.51 286.677 252.936 287.106 253.2 287.011C253.424 286.939 253.707 287.068 253.993 287.197C254.452 287.405 254.918 287.616 255.163 287.011C255.323 286.61 255.768 286.467 256.266 286.307C256.927 286.095 257.683 285.852 257.99 284.932C255.513 281.894 252.873 278.553 252.943 277.244C252.969 276.824 253.024 276.432 253.075 276.057C253.297 274.452 253.477 273.156 251.26 271.262C249.15 269.458 250.451 268.114 252.058 266.455C252.532 265.965 253.033 265.448 253.48 264.883C254.598 263.467 256.505 262.565 258.351 261.691C259.4 261.194 260.43 260.707 261.285 260.14C260.817 259.813 260.327 259.509 259.859 259.298C258.107 258.527 257.523 257.733 258.878 257.336C260.233 256.938 259.649 256.167 258.294 254.602C257.783 254.012 257.379 253.422 257.032 252.916C256.458 252.079 256.04 251.471 255.56 251.471C255.383 251.471 255.185 251.461 254.969 251.45C254.244 251.414 253.33 251.369 252.429 251.658C251.26 252.055 251.447 250.676 251.658 249.321C251.776 248.448 250.883 248.212 250.11 248.008C249.663 247.89 249.256 247.783 249.111 247.568C248.713 246.984 249.695 245.022 250.092 244.835C250.489 244.648 251.658 244.063 251.658 243.479C251.658 243.268 251.377 243.109 251.057 242.927C250.489 242.605 249.795 242.211 250.302 241.33C250.643 240.72 251.139 240.38 251.587 240.074C252.151 239.686 252.639 239.352 252.639 238.596C252.639 237.24 253.807 236.049 255.186 237.03C255.688 237.394 256.087 237.968 256.469 238.519C257.119 239.454 257.72 240.319 258.691 239.951C259.944 239.484 259.566 238.507 259.269 237.741C259.195 237.549 259.126 237.371 259.088 237.217C259.079 237.177 259.068 237.137 259.058 237.095C258.866 236.326 258.594 235.235 260.257 234.88C261.168 234.674 261.397 234.1 261.597 233.598C261.782 233.134 261.943 232.731 262.593 232.731C263.651 232.731 265.434 231.663 266.533 231.006C266.842 230.821 267.097 230.668 267.266 230.581C267.303 230.562 267.342 230.542 267.383 230.521C268.205 230.095 269.85 229.244 270.585 229.6C270.728 229.669 270.88 229.76 271.034 229.853C271.708 230.258 272.446 230.702 272.921 229.6C273.505 228.244 275.842 228.829 276.052 229.6C276.151 230.007 277.235 230.199 278.408 230.407C279.455 230.593 280.572 230.791 281.123 231.165C281.244 231.245 281.381 231.334 281.527 231.43C282.793 232.253 284.838 233.584 284.838 234.296C284.838 235.091 286.006 236.259 286.006 234.88C286.006 233.502 286.988 233.899 288.53 234.88C290.096 235.862 292.245 235.465 292.619 234.483C293.016 233.502 295.937 232.333 296.919 233.128C297.031 233.216 297.135 233.302 297.233 233.382C297.996 234.01 298.41 234.35 299.466 233.315C300.634 232.147 303.368 232.334 303.765 233.502C304.162 234.67 305.518 234.857 306.686 234.857C307.282 234.857 307.623 235.314 307.919 235.711C308.203 236.092 308.447 236.419 308.836 236.236C309.175 236.061 309.328 235.588 309.478 235.129C309.668 234.544 309.851 233.981 310.401 234.086C310.794 234.161 311.153 234.396 311.543 234.652C312.127 235.036 312.78 235.465 313.719 235.465C315.285 235.465 316.453 235.067 316.453 233.899C316.453 232.731 316.266 230.768 315.285 230.768C314.815 230.768 314.346 230.544 313.856 230.309C313.322 230.054 312.763 229.787 312.154 229.787C310.985 229.787 309.817 227.847 310.985 227.45C312.154 227.053 314.116 226.071 313.719 225.113C313.322 224.132 312.948 222.192 314.49 221.982C314.914 221.932 315.466 221.895 316.041 221.856C317.593 221.752 319.317 221.637 319.164 221.211C319.08 220.949 318.403 220.724 317.629 220.468C316.679 220.153 315.583 219.789 315.261 219.248C314.677 218.267 314.49 215.93 315.074 215.533C315.364 215.336 315.991 215.38 316.692 215.429C317.407 215.479 318.2 215.535 318.79 215.346C319.234 215.195 319.878 215.243 320.592 215.297C321.754 215.384 323.101 215.486 324.071 214.762C325.445 213.736 328.169 213.449 330 213.394V109.221ZM139.615 206.934C140.106 207.612 141.671 208.196 142.255 207.915H142.279C142.863 207.612 144.709 208.593 144.709 209.364C144.709 209.603 144.665 209.982 144.618 210.393C144.536 211.111 144.442 211.929 144.545 212.285C141.484 212.846 133.68 212.028 133.096 211.794C132.809 211.669 132.152 211.434 131.481 211.194C131.277 211.121 131.072 211.047 130.876 210.976C131.086 210.626 131.18 210.252 131.133 209.948C130.993 209.107 134.124 208.453 134.124 209.761C134.124 211.07 137.115 211 136.204 209.761C135.721 209.105 136.314 208.764 136.891 208.432C137.404 208.137 137.904 207.849 137.629 207.355C137.442 207.028 137.185 206.841 136.951 206.7C137.03 206.692 137.111 206.682 137.191 206.673C138.181 206.56 139.248 206.437 139.615 206.934ZM264.444 112.54C262.753 113.802 260.535 115.457 258.06 113.164V113.188C255.42 110.734 259.509 107.86 262.359 108.631C265.21 109.402 267.944 111.225 266.262 111.482C265.76 111.557 265.148 112.014 264.444 112.54ZM277.828 80.4977C280.305 80.4977 281.099 79.5864 280.959 78.2779L280.866 78.3246C280.803 77.7367 281.636 77.6771 282.549 77.6117C283.669 77.5316 284.91 77.4428 284.768 76.3618C284.629 75.2989 285.709 74.702 286.336 74.3557C286.867 74.0627 287.072 73.9493 285.936 73.885C283.459 73.7448 284.488 71.1511 286.45 70.7539C286.585 70.7267 286.721 70.6996 286.859 70.6722C288.737 70.2988 290.845 69.8796 290.236 68.7911C289.912 68.2015 290.452 67.7492 290.97 67.3154C291.499 66.8722 292.005 66.4483 291.544 65.917C291.15 65.4727 291.9 65.1942 292.731 64.8854C293.823 64.4797 295.056 64.0216 294.021 63.0663C292.222 61.3839 293.764 58.907 295.073 60.0754C296.381 61.2437 298.858 60.0754 298.858 58.7668C298.858 58.0616 299.768 57.8111 300.647 57.5691C301.398 57.362 302.128 57.1612 302.246 56.6872C302.503 55.6357 306.148 54.0702 307.971 54.2104C308.892 54.2694 309.849 53.833 310.788 53.4049C311.706 52.9862 312.607 52.5755 313.439 52.6448C314.088 52.6899 314.873 52.2546 315.72 51.785C317.068 51.0379 318.572 50.2041 319.935 51.0793C322.154 52.528 326.571 51.4765 328.65 50.3082C329.589 49.781 330.713 49.7295 331.855 49.6773C333.244 49.6138 334.659 49.549 335.801 48.6258C337.88 46.9434 346.339 43.6954 349.33 46.0321C352.321 48.3687 346.479 51.8737 338.02 53.8365C329.562 55.7759 314.584 60.8465 313.556 63.0663C312.973 64.2965 311.672 64.522 310.386 64.745C309.352 64.9244 308.326 65.1022 307.691 65.8002C306.913 66.654 305.629 66.6877 304.686 66.7125C303.899 66.7331 303.351 66.7475 303.531 67.2255C303.929 68.277 303.391 71.1277 300.797 71.525C299.499 71.7238 299.565 72.4088 299.629 73.0756C299.694 73.7406 299.756 74.3875 298.461 74.5159C297.154 74.6454 296.968 75.2377 296.705 76.0776C296.446 76.9044 296.112 77.9711 294.559 79.0724C293.012 80.1768 292.912 80.9515 292.816 81.6929C292.719 82.4417 292.627 83.1566 291.054 84.1429C287.946 86.0823 289.885 90.779 292.619 93.6297C293.859 94.9224 295.233 95.8692 296.352 96.6399C297.7 97.5689 298.678 98.2421 298.601 98.9573C298.442 100.516 293.37 99.7925 289.846 99.2899C288.719 99.1293 287.751 98.9912 287.151 98.9573C284.698 98.8171 279.604 97.5086 281.567 95.8262C283.53 94.1204 277.01 91.1295 278.062 93.3493C279.113 95.5458 277.945 95.943 276.379 94.7747C275.62 94.1993 275.926 93.4369 276.184 92.7945C276.449 92.1325 276.664 91.5979 275.608 91.5267C275.33 91.5111 275.035 91.5042 274.734 91.4973C272.793 91.4522 270.625 91.4019 271.192 88.933C271.539 87.4222 273.015 87.3356 274.346 87.2575C275.527 87.1882 276.594 87.1256 276.66 86.0823C276.724 84.8834 277.567 84.6452 278.278 84.4444C278.87 84.2773 279.37 84.136 279.254 83.4886C279.144 82.8796 278.415 82.2449 277.81 81.7177C276.999 81.0112 276.41 80.4977 277.828 80.4977Z" fill="#AFB7BE"/>
</g>
</svg>
