<svg width="180" height="76" viewBox="0 0 180 76" fill="none" xmlns="http://www.w3.org/2000/svg">
<path d="M0.908936 67.9527C0.908936 72.371 4.49066 75.9527 8.90894 75.9527C13.3272 75.9527 16.9089 72.371 16.9089 67.9527C16.9089 63.5344 13.3272 59.9527 8.90894 59.9527C4.49066 59.9527 0.908936 63.5344 0.908936 67.9527ZM163.794 8.21924C163.794 12.6375 167.376 16.2192 171.794 16.2192C176.212 16.2192 179.794 12.6375 179.794 8.21924C179.794 3.80096 176.212 0.219238 171.794 0.219238C167.376 0.219238 163.794 3.80096 163.794 8.21924ZM8.90894 69.4527H11.8024V66.4527H8.90894V69.4527ZM17.5892 69.4527H23.3761V66.4527H17.5892V69.4527ZM29.163 69.4527H34.9499V66.4527H29.163V69.4527ZM40.7367 69.4527H46.5236V66.4527H40.7367V69.4527ZM52.3105 69.4527H58.0974V66.4527H52.3105V69.4527ZM63.8842 69.4527H69.6711V66.4527H63.8842V69.4527ZM75.458 69.4527H81.2448V66.4527H75.458V69.4527ZM87.0317 69.4527H92.8186V66.4527H87.0317V69.4527ZM98.6055 69.4527H104.392V66.4527H98.6055V69.4527ZM110.179 69.4527H115.966V66.4527H110.179V69.4527ZM121.753 69.4527H127.54V66.4527H121.753V69.4527ZM133.327 69.4527H139.114V66.4527H133.327V69.4527ZM144.9 69.4527H147.794V66.4527H144.9V69.4527ZM147.794 69.4527C148.921 69.4527 150.032 69.3794 151.123 69.2373L150.734 66.2625C149.773 66.3879 148.791 66.4527 147.794 66.4527V69.4527ZM157.555 67.5172C159.629 66.6572 161.564 65.5317 163.319 64.1837L161.491 61.8049C159.942 62.9951 158.235 63.9878 156.406 64.746L157.555 67.5172ZM168.025 59.4775C169.373 57.7233 170.498 55.7881 171.358 53.7142L168.587 52.565C167.829 54.3934 166.836 56.1008 165.646 57.6495L168.025 59.4775ZM173.078 47.2814C173.221 46.1913 173.294 45.0802 173.294 43.9527H170.294C170.294 44.9501 170.229 45.9316 170.104 46.8933L173.078 47.2814ZM173.294 43.9527V40.9749H170.294V43.9527H173.294ZM173.294 35.0193V29.0638H170.294V35.0193H173.294ZM173.294 23.1082V17.1526H170.294V23.1082H173.294ZM173.294 11.197V8.21924H170.294V11.197H173.294Z" fill="#FF943F"/>
</svg>
