<svg width="70" height="42" viewBox="0 0 70 42" fill="none" xmlns="http://www.w3.org/2000/svg">
<path d="M48.0643 8.95264C48.0643 13.3709 51.6461 16.9526 56.0643 16.9526C60.4826 16.9526 64.0643 13.3709 64.0643 8.95264C64.0643 4.53436 60.4826 0.952637 56.0643 0.952637C51.6461 0.952637 48.0643 4.53436 48.0643 8.95264ZM56.0643 7.45264H52.8658V10.4526H56.0643V7.45264ZM46.4688 7.45264H40.0717V10.4526H46.4688V7.45264ZM33.6747 7.45264H27.2776V10.4526H33.6747V7.45264ZM20.8806 7.45264H17.682V10.4526H20.8806V7.45264ZM17.682 7.45264C16.5543 7.45264 15.451 7.56321 14.3827 7.77455L14.9649 10.7175C15.8425 10.5439 16.7509 10.4526 17.682 10.4526V7.45264ZM8.28318 10.3025C6.43931 11.5369 4.8521 13.1241 3.61766 14.968L6.11056 16.637C7.12685 15.1189 8.43413 13.8117 9.95214 12.7954L8.28318 10.3025ZM1.08974 21.0675C0.878392 22.1358 0.767822 23.2392 0.767822 24.3669H3.76782C3.76782 23.4357 3.85908 22.5273 4.0327 21.6497L1.08974 21.0675ZM0.767822 24.3669C0.767822 25.4946 0.878392 26.5979 1.08974 27.6662L4.0327 27.084C3.85908 26.2064 3.76782 25.298 3.76782 24.3669H0.767822ZM3.61766 33.7657C4.8521 35.6096 6.43931 37.1968 8.28318 38.4312L9.95214 35.9383C8.43413 34.9221 7.12685 33.6148 6.11056 32.0968L3.61766 33.7657ZM14.3827 40.9592C15.451 41.1705 16.5543 41.2811 17.682 41.2811V38.2811C16.7509 38.2811 15.8425 38.1898 14.9649 38.0162L14.3827 40.9592ZM17.682 41.2811H20.4527V38.2811H17.682V41.2811ZM25.9941 41.2811H31.5355V38.2811H25.9941V41.2811ZM37.0769 41.2811H42.6183V38.2811H37.0769V41.2811ZM48.1597 41.2811H53.7011V38.2811H48.1597V41.2811ZM59.2425 41.2811H62.0132V38.2811H59.2425V41.2811ZM62.0132 41.2811C63.0835 41.2811 64.1079 41.0678 65.0431 40.68L63.8939 37.9088C63.3166 38.1482 62.6823 38.2811 62.0132 38.2811V41.2811ZM69.3264 36.3967C69.7142 35.4614 69.9275 34.4371 69.9275 33.3668H66.9275C66.9275 34.0359 66.7946 34.6702 66.5552 35.2475L69.3264 36.3967Z" fill="#FF943F"/>
</svg>
