<svg width="229" height="45" viewBox="0 0 229 45" fill="none" xmlns="http://www.w3.org/2000/svg">
<path d="M0.361572 36.9527C0.361572 41.371 3.94329 44.9527 8.36157 44.9527C12.7799 44.9527 16.3616 41.371 16.3616 36.9527C16.3616 32.5344 12.7799 28.9527 8.36157 28.9527C3.94329 28.9527 0.361572 32.5344 0.361572 36.9527ZM8.36157 38.4527H11.4026V35.4527H8.36157V38.4527ZM17.4848 38.4527H23.5669V35.4527H17.4848V38.4527ZM29.649 38.4527H35.7312V35.4527H29.649V38.4527ZM41.8133 38.4527H47.8954V35.4527H41.8133V38.4527ZM53.9775 38.4527H60.0597V35.4527H53.9775V38.4527ZM66.1418 38.4527H72.2239V35.4527H66.1418V38.4527ZM78.3061 38.4527H84.3882V35.4527H78.3061V38.4527ZM90.4703 38.4527H93.5114V35.4527H90.4703V38.4527ZM93.5114 38.4527C94.7776 38.4527 96.0164 38.3285 97.2156 38.0913L96.6334 35.1483C95.6249 35.3478 94.5811 35.4527 93.5114 35.4527V38.4527ZM104.063 35.2534C106.133 33.8675 107.915 32.0855 109.301 30.0154L106.808 28.3465C105.64 30.0907 104.138 31.5928 102.394 32.7605L104.063 35.2534ZM112.139 23.1681C112.376 21.9689 112.5 20.7301 112.5 19.4639H109.5C109.5 20.5336 109.395 21.5774 109.196 22.5859L112.139 23.1681ZM112.5 19.4639C112.5 18.3942 112.605 17.3504 112.805 16.3418L109.862 15.7596C109.624 16.9589 109.5 18.1976 109.5 19.4639H112.5ZM115.192 10.5813C116.36 8.83707 117.862 7.33501 119.606 6.16727L117.937 3.67436C115.867 5.06026 114.085 6.84225 112.699 8.91236L115.192 10.5813ZM125.367 3.77946C126.375 3.57994 127.419 3.4751 128.489 3.4751V0.475098C127.223 0.475098 125.984 0.599249 124.785 0.836498L125.367 3.77946ZM128.489 3.4751H131.555V0.475098H128.489V3.4751ZM137.687 3.4751H143.819V0.475098H137.687V3.4751ZM149.952 3.4751H156.084V0.475098H149.952V3.4751ZM162.216 3.4751H168.348V0.475098H162.216V3.4751ZM174.48 3.4751H180.612V0.475098H174.48V3.4751ZM186.745 3.4751H192.877V0.475098H186.745V3.4751ZM199.009 3.4751H205.141V0.475098H199.009V3.4751ZM211.273 3.4751H217.405V0.475098H211.273V3.4751ZM223.538 3.4751H226.604V0.475098H223.538V3.4751ZM226.604 3.4751C226.432 3.4751 226.264 3.44056 226.11 3.37664L227.259 0.605456C227.055 0.520976 226.833 0.475098 226.604 0.475098V3.4751ZM225.412 2.67941C225.348 2.52525 225.314 2.3574 225.314 2.18527H228.314C228.314 1.95615 228.268 1.73395 228.183 1.53023L225.412 2.67941Z" fill="#FA2080"/>
</svg>
