<svg width="118" height="67" viewBox="0 0 118 67" fill="none" xmlns="http://www.w3.org/2000/svg">
<path d="M101.553 8.08997C101.553 12.5082 105.134 16.09 109.553 16.09C113.971 16.09 117.553 12.5082 117.553 8.08997C117.553 3.67169 113.971 0.0899658 109.553 0.0899658C105.134 0.0899658 101.553 3.67169 101.553 8.08997ZM0.861572 58.9527C0.861572 63.3709 4.44329 66.9527 8.86157 66.9527C13.2799 66.9527 16.8616 63.3709 16.8616 58.9527C16.8616 54.5344 13.2799 50.9527 8.86157 50.9527C4.44329 50.9527 0.861572 54.5344 0.861572 58.9527ZM8.86157 60.4527H12.057V57.4527H8.86157V60.4527ZM18.448 60.4527H24.8389V57.4527H18.448V60.4527ZM31.2298 60.4527H37.6207V57.4527H31.2298V60.4527ZM44.0116 60.4527H50.4026V57.4527H44.0116V60.4527ZM56.7935 60.4527H63.1844V57.4527H56.7935V60.4527ZM69.5753 60.4527H75.9662V57.4527H69.5753V60.4527ZM82.3572 60.4527H85.5526V57.4527H82.3572V60.4527ZM85.5526 60.4527C86.6801 60.4527 87.7912 60.3794 88.8813 60.2372L88.4932 57.2624C87.5315 57.3879 86.55 57.4527 85.5526 57.4527V60.4527ZM95.3141 58.5171C97.388 57.6571 99.3232 56.5317 101.077 55.1836L99.2494 52.8049C97.7007 53.995 95.9933 54.9877 94.1649 55.7459L95.3141 58.5171ZM105.784 50.4775C107.132 48.7232 108.257 46.788 109.117 44.7141L106.346 43.565C105.588 45.3934 104.595 47.1007 103.405 48.6495L105.784 50.4775ZM110.837 38.2813C110.979 37.1912 111.053 36.0801 111.053 34.9526H108.053C108.053 35.95 107.988 36.9315 107.862 37.8932L110.837 38.2813ZM111.053 34.9526V31.5948H108.053V34.9526H111.053ZM111.053 24.8791V18.1635H108.053V24.8791H111.053ZM111.053 11.4478V8.08997H108.053V11.4478H111.053Z" fill="#FA2080"/>
</svg>
