<svg width="187" height="84" viewBox="0 0 187 84" fill="none" xmlns="http://www.w3.org/2000/svg">
<g filter="url(#filter0_d_38_1494)">
<rect x="13.5" y="8" width="153.862" height="51.9054" rx="11.3229" fill="white"/>
<path d="M24.4526 22.9527C24.4526 20.7435 26.2435 18.9527 28.4526 18.9527H38.5526V48.9527H28.4526C26.2435 48.9527 24.4526 47.1618 24.4526 44.9527V22.9527Z" fill="#D91023"/>
<rect x="38.5526" y="18.9527" width="14.1" height="30" fill="white"/>
<path d="M52.6526 18.9527H62.7526C64.9617 18.9527 66.7526 20.7435 66.7526 22.9527V44.9527C66.7526 47.1618 64.9617 48.9527 62.7526 48.9527H52.6526V18.9527Z" fill="#D91023"/>
<path d="M79.4608 39.9527V28.2492H84.0252C85.0506 28.2492 85.9256 28.4108 86.6501 28.7341C87.3746 29.0573 87.9319 29.5254 88.322 30.1385C88.7122 30.7515 88.9072 31.4816 88.9072 32.3287C88.9072 33.1758 88.7122 33.9059 88.322 34.5189C87.9319 35.1208 87.3746 35.589 86.6501 35.9233C85.9256 36.2466 85.0506 36.4082 84.0252 36.4082H80.3804L81.1328 35.6224V39.9527H79.4608ZM81.1328 35.7896L80.3804 34.9536H83.975C85.0451 34.9536 85.8532 34.7251 86.3993 34.2681C86.9566 33.8111 87.2353 33.1647 87.2353 32.3287C87.2353 31.4927 86.9566 30.8463 86.3993 30.3893C85.8532 29.9323 85.0451 29.7038 83.975 29.7038H80.3804L81.1328 28.8678V35.7896ZM95.0425 40.053C94.0951 40.053 93.2591 39.8579 92.5346 39.4678C91.8213 39.0777 91.264 38.5427 90.8627 37.8628C90.4726 37.1829 90.2775 36.4026 90.2775 35.5221C90.2775 34.6415 90.467 33.8613 90.846 33.1814C91.2361 32.5015 91.7656 31.972 92.4343 31.5931C93.1142 31.2029 93.8777 31.0079 94.7249 31.0079C95.5831 31.0079 96.3411 31.1974 96.9987 31.5763C97.6563 31.9553 98.169 32.4903 98.5368 33.1814C98.9158 33.8613 99.1053 34.6583 99.1053 35.5722C99.1053 35.6391 99.0997 35.7171 99.0886 35.8063C99.0886 35.8955 99.083 35.9791 99.0719 36.0571H91.5315V34.9035H98.2359L97.5838 35.3047C97.595 34.7363 97.478 34.2291 97.2327 33.7833C96.9875 33.3374 96.6476 32.9919 96.2129 32.7467C95.7893 32.4903 95.2933 32.3621 94.7249 32.3621C94.1675 32.3621 93.6715 32.4903 93.2368 32.7467C92.8021 32.9919 92.4622 33.343 92.217 33.8C91.9718 34.2458 91.8491 34.7586 91.8491 35.3382V35.6057C91.8491 36.1964 91.9829 36.7259 92.2504 37.194C92.5291 37.651 92.9136 38.0077 93.404 38.264C93.8945 38.5204 94.4573 38.6486 95.0927 38.6486C95.6166 38.6486 96.0903 38.5594 96.5138 38.3811C96.9485 38.2027 97.3275 37.9352 97.6507 37.5786L98.5368 38.6151C98.1356 39.0833 97.634 39.44 97.0321 39.6852C96.4414 39.9304 95.7782 40.053 95.0425 40.053ZM101.334 39.9527V31.0915H102.872V33.4991L102.722 32.8972C102.967 32.2841 103.379 31.816 103.959 31.4927C104.539 31.1695 105.252 31.0079 106.099 31.0079V32.5628C106.032 32.5516 105.965 32.5461 105.898 32.5461C105.843 32.5461 105.787 32.5461 105.731 32.5461C104.873 32.5461 104.193 32.8024 103.691 33.3151C103.19 33.8279 102.939 34.5691 102.939 35.5388V39.9527H101.334ZM111.92 40.053C111.162 40.053 110.493 39.9137 109.914 39.635C109.345 39.3564 108.899 38.9328 108.576 38.3644C108.264 37.7848 108.108 37.0603 108.108 36.1909V31.0915H109.713V36.0069C109.713 36.8763 109.919 37.5284 110.332 37.9631C110.755 38.3978 111.346 38.6151 112.104 38.6151C112.661 38.6151 113.146 38.5037 113.558 38.2808C113.971 38.0467 114.289 37.7123 114.511 37.2776C114.734 36.8318 114.846 36.2967 114.846 35.6726V31.0915H116.451V39.9527H114.929V37.5618L115.18 38.1972C114.89 38.7879 114.456 39.2449 113.876 39.5681C113.296 39.8914 112.644 40.053 111.92 40.053ZM111.034 29.8041L113.308 27.6306H115.347L112.539 29.8041H111.034Z" fill="#142032"/>
<circle cx="143.033" cy="33.9527" r="13.3754" fill="#FA2080"/>
</g>
<defs>
<filter id="filter0_d_38_1494" x="0.5" y="0" width="185.862" height="83.9054" filterUnits="userSpaceOnUse" color-interpolation-filters="sRGB">
<feFlood flood-opacity="0" result="BackgroundImageFix"/>
<feColorMatrix in="SourceAlpha" type="matrix" values="0 0 0 0 0 0 0 0 0 0 0 0 0 0 0 0 0 0 127 0" result="hardAlpha"/>
<feOffset dx="3" dy="8"/>
<feGaussianBlur stdDeviation="8"/>
<feColorMatrix type="matrix" values="0 0 0 0 0.282353 0 0 0 0 0 0 0 0 0 0.584314 0 0 0 0.15 0"/>
<feBlend mode="normal" in2="BackgroundImageFix" result="effect1_dropShadow_38_1494"/>
<feBlend mode="normal" in="SourceGraphic" in2="effect1_dropShadow_38_1494" result="shape"/>
</filter>
</defs>
</svg>
