<svg width="26" height="17" viewBox="0 0 26 17" fill="none" xmlns="http://www.w3.org/2000/svg">
<path d="M17.7583 0.845702L24.7198 7.7719C24.8376 7.88969 24.9201 8.00748 24.9672 8.12528C25.0143 8.24307 25.0378 8.37264 25.0378 8.51399C25.0378 8.65534 25.0143 8.78491 24.9672 8.90271C24.9201 9.0205 24.8376 9.13829 24.7198 9.25608L17.7583 16.2176C17.5698 16.4061 17.3224 16.5062 17.0162 16.518C16.7099 16.5298 16.4508 16.4296 16.2387 16.2176C16.0267 16.0056 15.9207 15.7523 15.9207 15.4579C15.9207 15.1634 16.0267 14.9101 16.2387 14.6981L21.3627 9.57412L1.07885 9.57412C0.772591 9.57412 0.519337 9.474 0.319089 9.27375C0.118842 9.0735 0.0187194 8.82025 0.0187194 8.51399C0.0187194 8.20773 0.118842 7.95448 0.319089 7.75423C0.519337 7.55398 0.772591 7.45386 1.07885 7.45386L21.3627 7.45386L16.2387 2.32989C16.0503 2.14142 15.9502 1.89994 15.9384 1.60546C15.9266 1.31098 16.0267 1.05773 16.2387 0.845701C16.4508 0.633675 16.704 0.527662 16.9985 0.527662C17.293 0.527662 17.5462 0.633675 17.7583 0.845702Z" fill="#FA2080"/>
</svg>
