<svg width="212" height="78" viewBox="0 0 212 78" fill="none" xmlns="http://www.w3.org/2000/svg">
<g filter="url(#filter0_d_791_1366)">
<rect x="13" y="8" width="180" height="46" rx="11.3229" fill="white"/>
<path d="M31.1719 23C31.1719 20.7909 32.9628 19 35.1719 19H42.5053V43H35.1719C32.9628 43 31.1719 41.2091 31.1719 39V23Z" fill="#002B7F"/>
<rect x="42.5053" y="19" width="11.3333" height="24" fill="#FCD116"/>
<path d="M53.8386 19H61.1719C63.3811 19 65.1719 20.7909 65.1719 23V39C65.1719 41.2091 63.3811 43 61.1719 43H53.8386V19Z" fill="#CE1126"/>
<path d="M80.7966 31.048C81.2339 31.048 81.6179 30.9947 81.9486 30.888C82.2846 30.7813 82.5646 30.632 82.7886 30.44C83.0126 30.2427 83.1806 30.0107 83.2926 29.744C83.4046 29.472 83.4606 29.1733 83.4606 28.848C83.4606 28.1867 83.2419 27.688 82.8046 27.352C82.3726 27.016 81.7219 26.848 80.8526 26.848H79.2446V31.048H80.7966ZM86.1566 37H84.6366C84.3326 37 84.1113 36.88 83.9726 36.64L81.1326 32.656C81.0419 32.5227 80.9433 32.4293 80.8366 32.376C80.7299 32.3173 80.5699 32.288 80.3566 32.288H79.2446V37H77.5406V25.512H80.8526C81.5939 25.512 82.2313 25.5893 82.7646 25.744C83.3033 25.8933 83.7459 26.1093 84.0926 26.392C84.4446 26.6693 84.7033 27.0053 84.8686 27.4C85.0393 27.7947 85.1246 28.2373 85.1246 28.728C85.1246 29.128 85.0633 29.504 84.9406 29.856C84.8179 30.208 84.6366 30.5253 84.3966 30.808C84.1619 31.0853 83.8739 31.3253 83.5326 31.528C83.1913 31.7307 82.8046 31.8853 82.3726 31.992C82.5859 32.12 82.7699 32.2987 82.9246 32.528L86.1566 37ZM93.7462 28.872V37H92.8102C92.5969 37 92.4582 36.896 92.3942 36.688L92.2822 35.872C92.1062 36.0587 91.9222 36.2293 91.7302 36.384C91.5382 36.5387 91.3329 36.672 91.1142 36.784C90.8956 36.8907 90.6636 36.9733 90.4182 37.032C90.1729 37.096 89.9089 37.128 89.6262 37.128C89.1782 37.128 88.7836 37.0533 88.4422 36.904C88.1062 36.7547 87.8236 36.5467 87.5942 36.28C87.3649 36.008 87.1916 35.6827 87.0742 35.304C86.9569 34.9253 86.8982 34.5067 86.8982 34.048V28.872H88.4662V34.048C88.4662 34.6293 88.5996 35.0827 88.8662 35.408C89.1329 35.728 89.5409 35.888 90.0902 35.888C90.4902 35.888 90.8636 35.7947 91.2102 35.608C91.5569 35.416 91.8822 35.1547 92.1862 34.824V28.872H93.7462ZM95.9237 37V28.872H96.8597C97.0784 28.872 97.2144 28.976 97.2677 29.184L97.3797 29.96C97.6784 29.6027 98.0091 29.312 98.3717 29.088C98.7397 28.8587 99.1691 28.744 99.6597 28.744C100.198 28.744 100.636 28.8933 100.972 29.192C101.308 29.4853 101.553 29.8853 101.708 30.392C101.825 30.104 101.977 29.856 102.164 29.648C102.35 29.44 102.558 29.2693 102.788 29.136C103.017 29.0027 103.26 28.904 103.516 28.84C103.777 28.776 104.041 28.744 104.308 28.744C104.74 28.744 105.124 28.8133 105.46 28.952C105.801 29.0853 106.089 29.2827 106.324 29.544C106.558 29.8053 106.737 30.128 106.86 30.512C106.982 30.896 107.044 31.3333 107.044 31.824V37H105.476V31.824C105.476 31.216 105.342 30.7573 105.076 30.448C104.814 30.1387 104.43 29.984 103.924 29.984C103.7 29.984 103.486 30.024 103.284 30.104C103.081 30.1787 102.902 30.2933 102.748 30.448C102.598 30.6027 102.478 30.7947 102.388 31.024C102.302 31.2533 102.26 31.52 102.26 31.824V37H100.692V31.824C100.692 31.1947 100.566 30.7307 100.316 30.432C100.065 30.1333 99.6971 29.984 99.2117 29.984C98.8757 29.984 98.5637 30.072 98.2757 30.248C97.9877 30.424 97.7237 30.664 97.4837 30.968V37H95.9237ZM113.51 33.392C112.876 33.4133 112.337 33.464 111.894 33.544C111.452 33.6187 111.092 33.72 110.814 33.848C110.537 33.976 110.337 34.128 110.214 34.304C110.092 34.4747 110.03 34.6667 110.03 34.88C110.03 35.0827 110.062 35.2587 110.126 35.408C110.196 35.552 110.286 35.672 110.398 35.768C110.516 35.8587 110.652 35.9253 110.806 35.968C110.961 36.0107 111.129 36.032 111.31 36.032C111.55 36.032 111.769 36.008 111.966 35.96C112.169 35.912 112.358 35.8453 112.534 35.76C112.71 35.6693 112.878 35.56 113.038 35.432C113.198 35.304 113.356 35.1573 113.51 34.992V33.392ZM108.934 30.008C109.388 29.576 109.878 29.2533 110.406 29.04C110.94 28.8267 111.524 28.72 112.158 28.72C112.622 28.72 113.033 28.7973 113.39 28.952C113.748 29.1013 114.049 29.312 114.294 29.584C114.54 29.856 114.724 30.1813 114.846 30.56C114.974 30.9387 115.038 31.3573 115.038 31.816V37H114.342C114.188 37 114.07 36.976 113.99 36.928C113.91 36.8747 113.846 36.7787 113.798 36.64L113.63 35.928C113.422 36.12 113.217 36.2907 113.014 36.44C112.812 36.584 112.598 36.7093 112.374 36.816C112.156 36.9173 111.921 36.9947 111.67 37.048C111.42 37.1013 111.142 37.128 110.838 37.128C110.518 37.128 110.217 37.0853 109.934 37C109.657 36.9093 109.414 36.7733 109.206 36.592C108.998 36.4107 108.833 36.184 108.71 35.912C108.593 35.64 108.534 35.3227 108.534 34.96C108.534 34.64 108.62 34.3333 108.79 34.04C108.966 33.7413 109.249 33.4747 109.638 33.24C110.033 33.0053 110.545 32.8133 111.174 32.664C111.809 32.5147 112.588 32.4293 113.51 32.408V31.816C113.51 31.2027 113.38 30.744 113.118 30.44C112.857 30.136 112.473 29.984 111.966 29.984C111.625 29.984 111.337 30.0267 111.102 30.112C110.873 30.1973 110.673 30.2933 110.502 30.4C110.337 30.5013 110.19 30.5947 110.062 30.68C109.94 30.7653 109.812 30.808 109.678 30.808C109.572 30.808 109.478 30.7787 109.398 30.72C109.324 30.6613 109.262 30.592 109.214 30.512L108.934 30.008ZM118.591 30C118.767 29.8133 118.951 29.6427 119.143 29.488C119.335 29.3333 119.538 29.2027 119.751 29.096C119.97 28.984 120.202 28.8987 120.447 28.84C120.698 28.776 120.964 28.744 121.247 28.744C121.695 28.744 122.087 28.8187 122.423 28.968C122.764 29.1173 123.05 29.328 123.279 29.6C123.508 29.8667 123.682 30.1893 123.799 30.568C123.916 30.9467 123.975 31.3653 123.975 31.824V37H122.407V31.824C122.407 31.2427 122.274 30.792 122.007 30.472C121.74 30.1467 121.332 29.984 120.783 29.984C120.383 29.984 120.007 30.08 119.655 30.272C119.308 30.4587 118.986 30.7147 118.687 31.04V37H117.127V28.872H118.063C118.282 28.872 118.418 28.976 118.471 29.184L118.591 30ZM127.712 28.872V37H126.152V28.872H127.712ZM128.008 26.36C128.008 26.504 127.979 26.6427 127.92 26.776C127.861 26.904 127.781 27.0187 127.68 27.12C127.584 27.216 127.469 27.2933 127.336 27.352C127.203 27.4053 127.064 27.432 126.92 27.432C126.776 27.432 126.64 27.4053 126.512 27.352C126.384 27.2933 126.269 27.216 126.168 27.12C126.072 27.0187 125.995 26.904 125.936 26.776C125.883 26.6427 125.856 26.504 125.856 26.36C125.856 26.2107 125.883 26.072 125.936 25.944C125.995 25.8107 126.072 25.696 126.168 25.6C126.269 25.4987 126.384 25.4213 126.512 25.368C126.64 25.3093 126.776 25.28 126.92 25.28C127.064 25.28 127.203 25.3093 127.336 25.368C127.469 25.4213 127.584 25.4987 127.68 25.6C127.781 25.696 127.861 25.8107 127.92 25.944C127.979 26.072 128.008 26.2107 128.008 26.36ZM134.339 33.392C133.704 33.4133 133.165 33.464 132.723 33.544C132.28 33.6187 131.92 33.72 131.643 33.848C131.365 33.976 131.165 34.128 131.043 34.304C130.92 34.4747 130.859 34.6667 130.859 34.88C130.859 35.0827 130.891 35.2587 130.955 35.408C131.024 35.552 131.115 35.672 131.227 35.768C131.344 35.8587 131.48 35.9253 131.635 35.968C131.789 36.0107 131.957 36.032 132.139 36.032C132.379 36.032 132.597 36.008 132.795 35.96C132.997 35.912 133.187 35.8453 133.363 35.76C133.539 35.6693 133.707 35.56 133.867 35.432C134.027 35.304 134.184 35.1573 134.339 34.992V33.392ZM129.763 30.008C130.216 29.576 130.707 29.2533 131.235 29.04C131.768 28.8267 132.352 28.72 132.987 28.72C133.451 28.72 133.861 28.7973 134.219 28.952C134.576 29.1013 134.877 29.312 135.123 29.584C135.368 29.856 135.552 30.1813 135.675 30.56C135.803 30.9387 135.867 31.3573 135.867 31.816V37H135.171C135.016 37 134.899 36.976 134.819 36.928C134.739 36.8747 134.675 36.7787 134.627 36.64L134.459 35.928C134.251 36.12 134.045 36.2907 133.843 36.44C133.64 36.584 133.427 36.7093 133.203 36.816C132.984 36.9173 132.749 36.9947 132.499 37.048C132.248 37.1013 131.971 37.128 131.667 37.128C131.347 37.128 131.045 37.0853 130.763 37C130.485 36.9093 130.243 36.7733 130.035 36.592C129.827 36.4107 129.661 36.184 129.539 35.912C129.421 35.64 129.363 35.3227 129.363 34.96C129.363 34.64 129.448 34.3333 129.619 34.04C129.795 33.7413 130.077 33.4747 130.467 33.24C130.861 33.0053 131.373 32.8133 132.003 32.664C132.637 32.5147 133.416 32.4293 134.339 32.408V31.816C134.339 31.2027 134.208 30.744 133.947 30.44C133.685 30.136 133.301 29.984 132.795 29.984C132.453 29.984 132.165 30.0267 131.931 30.112C131.701 30.1973 131.501 30.2933 131.331 30.4C131.165 30.5013 131.019 30.5947 130.891 30.68C130.768 30.7653 130.64 30.808 130.507 30.808C130.4 30.808 130.307 30.7787 130.227 30.72C130.152 30.6613 130.091 30.592 130.043 30.512L129.763 30.008Z" fill="#142032"/>
<circle cx="161.453" cy="31" r="13.3754" fill="#FA2080"/>
</g>
<defs>
<filter id="filter0_d_791_1366" x="0" y="0" width="212" height="78" filterUnits="userSpaceOnUse" color-interpolation-filters="sRGB">
<feFlood flood-opacity="0" result="BackgroundImageFix"/>
<feColorMatrix in="SourceAlpha" type="matrix" values="0 0 0 0 0 0 0 0 0 0 0 0 0 0 0 0 0 0 127 0" result="hardAlpha"/>
<feOffset dx="3" dy="8"/>
<feGaussianBlur stdDeviation="8"/>
<feColorMatrix type="matrix" values="0 0 0 0 0.282353 0 0 0 0 0 0 0 0 0 0.584314 0 0 0 0.15 0"/>
<feBlend mode="normal" in2="BackgroundImageFix" result="effect1_dropShadow_791_1366"/>
<feBlend mode="normal" in="SourceGraphic" in2="effect1_dropShadow_791_1366" result="shape"/>
</filter>
</defs>
</svg>
