<svg width="61" height="103" viewBox="0 0 61 103" fill="none" xmlns="http://www.w3.org/2000/svg">
<path d="M44.4308 95C44.4308 99.4183 48.0125 103 52.4308 103C56.849 103 60.4308 99.4183 60.4308 95C60.4308 90.5817 56.849 87 52.4308 87C48.0125 87 44.4308 90.5817 44.4308 95ZM0 8C0 12.4183 3.58172 16 8 16C12.4183 16 16 12.4183 16 8C16 3.58172 12.4183 0 8 0C3.58172 0 0 3.58172 0 8ZM6.5 8V11.4731H9.5V8H6.5ZM6.5 18.4192V25.3654H9.5V18.4192H6.5ZM6.5 32.3115V35.7846H9.5V32.3115H6.5ZM6.5 35.7846C6.5 36.8331 6.56813 37.8664 6.70037 38.8802L9.67517 38.4921C9.55967 37.6067 9.5 36.703 9.5 35.7846H6.5ZM8.30012 44.863C9.09997 46.7918 10.1466 48.5915 11.4003 50.223L13.7791 48.395C12.6833 46.9691 11.7693 45.3971 11.0713 43.7138L8.30012 44.863ZM15.777 54.5997C17.4084 55.8534 19.2082 56.9 21.137 57.6999L22.2862 54.9287C20.6029 54.2307 19.0309 53.3167 17.605 52.2209L15.777 54.5997ZM27.1198 59.2996C28.1336 59.4319 29.1669 59.5 30.2154 59.5V56.5C29.297 56.5 28.3933 56.4403 27.5079 56.3248L27.1198 59.2996ZM30.2154 59.5C31.1337 59.5 32.0374 59.5597 32.9229 59.6752L33.3109 56.7004C32.2971 56.5681 31.2638 56.5 30.2154 56.5V59.5ZM38.1446 61.0713C39.8279 61.7693 41.3998 62.6833 42.8258 63.7791L44.6537 61.4003C43.0223 60.1466 41.2226 59.1 39.2937 58.3001L38.1446 61.0713ZM46.6517 67.605C47.7474 69.0309 48.6614 70.6029 49.3595 72.2862L52.1306 71.137C51.3308 69.2082 50.2841 67.4084 49.0304 65.777L46.6517 67.605ZM50.7556 77.5079C50.8711 78.3933 50.9308 79.297 50.9308 80.2154H53.9308C53.9308 79.1669 53.8626 78.1336 53.7304 77.1198L50.7556 77.5079ZM50.9308 80.2154V83.9115H53.9308V80.2154H50.9308ZM50.9308 91.3038V95H53.9308V91.3038H50.9308Z" fill="#FA2080"/>
</svg>
