<svg width="160" height="213" viewBox="0 0 160 213" fill="none" xmlns="http://www.w3.org/2000/svg">
<path d="M143.533 204.577C143.533 208.996 147.115 212.577 151.533 212.577C155.952 212.577 159.533 208.996 159.533 204.577C159.533 200.159 155.952 196.577 151.533 196.577C147.115 196.577 143.533 200.159 143.533 204.577ZM0 8C0 12.4183 3.58172 16 8 16C12.4183 16 16 12.4183 16 8C16 3.58172 12.4183 0 8 0C3.58172 0 0 3.58172 0 8ZM6.5 8V11H9.5V8H6.5ZM6.5 17V23H9.5V17H6.5ZM6.5 29V32H9.5V29H6.5ZM6.5 32C6.5 33.1275 6.57326 34.2386 6.71546 35.3286L9.69025 34.9406C9.5648 33.9788 9.5 32.9974 9.5 32H6.5ZM8.43554 41.7615C9.29555 43.8354 10.421 45.7706 11.769 47.5248L14.1478 45.6968C12.9576 44.1481 11.9649 42.4407 11.2067 40.6123L8.43554 41.7615ZM16.4752 52.231C18.2294 53.579 20.1646 54.7044 22.2385 55.5645L23.3877 52.7933C21.5593 52.0351 19.8519 51.0424 18.3032 49.8522L16.4752 52.231ZM28.6713 57.2845C29.7614 57.4267 30.8725 57.5 32 57.5V54.5C31.0026 54.5 30.0211 54.4352 29.0594 54.3097L28.6713 57.2845ZM32 57.5H34.9854V54.5H32V57.5ZM40.9562 57.5H46.9271V54.5H40.9562V57.5ZM52.8979 57.5H58.8688V54.5H52.8979V57.5ZM64.8396 57.5H70.8105V54.5H64.8396V57.5ZM76.7813 57.5H82.7522V54.5H76.7813V57.5ZM88.723 57.5H94.6938V54.5H88.723V57.5ZM100.665 57.5H106.636V54.5H100.665V57.5ZM112.606 57.5H118.577V54.5H112.606V57.5ZM124.548 57.5H127.533V54.5H124.548V57.5ZM127.533 57.5C128.531 57.5 129.512 57.5648 130.474 57.6903L130.862 54.7155C129.772 54.5733 128.661 54.5 127.533 54.5V57.5ZM136.146 59.2067C137.974 59.9649 139.682 60.9577 141.23 62.1478L143.058 59.769C141.304 58.421 139.369 57.2956 137.295 56.4355L136.146 59.2067ZM145.386 66.3032C146.576 67.8519 147.569 69.5593 148.327 71.3877L151.098 70.2385C150.238 68.1646 149.112 66.2294 147.764 64.4752L145.386 66.3032ZM149.843 77.0594C149.969 78.0212 150.033 79.0026 150.033 80H153.033C153.033 78.8726 152.96 77.7615 152.818 76.6714L149.843 77.0594ZM150.033 80V83.1144H153.033V80H150.033ZM150.033 89.3433V95.5722H153.033V89.3433H150.033ZM150.033 101.801V108.03H153.033V101.801H150.033ZM150.033 114.259V120.488H153.033V114.259H150.033ZM150.033 126.716V132.945H153.033V126.716H150.033ZM150.033 139.174V145.403H153.033V139.174H150.033ZM150.033 151.632V157.861H153.033V151.632H150.033ZM150.033 164.09V170.319H153.033V164.09H150.033ZM150.033 176.547V182.776H153.033V176.547H150.033ZM150.033 189.005V195.234H153.033V189.005H150.033ZM150.033 201.463V204.577H153.033V201.463H150.033Z" fill="#FA2080"/>
</svg>
