<svg width="222" height="84" viewBox="0 0 222 84" fill="none" xmlns="http://www.w3.org/2000/svg">
<g filter="url(#filter0_d_38_3625)">
<rect x="13" y="8" width="189.012" height="51.9054" rx="11.3229" fill="white"/>
<rect x="24.9527" y="18.9527" width="42.45" height="30" rx="4" fill="white"/>
<path fill-rule="evenodd" clip-rule="evenodd" d="M35.4859 25.8641C35.8515 25.6943 36.1999 25.4799 36.4769 25.185C36.6452 25.0056 36.7851 24.7591 36.9556 24.6035C37.2304 24.3541 37.5007 24.4025 37.8588 24.3951C37.5215 24.1374 37.1507 23.9856 36.7479 24.1166C36.4955 24.1985 36.2558 24.3779 36.0138 24.4956C35.675 24.6601 35.3355 24.7308 34.967 24.7435L36.6444 22.2738L34.1897 23.9446C34.3304 23.5627 34.4272 23.1606 34.4145 22.7518C34.4071 22.5061 34.3311 22.2329 34.3423 22.0021C34.3602 21.6313 34.6714 21.3841 34.8337 21.1816C34.5537 21.265 34.0474 21.4198 33.8516 21.8048C33.7325 22.0386 33.6893 22.3297 33.6037 22.5813C33.4861 22.9261 33.3066 23.2083 33.0684 23.4711L32.5085 20.4527L31.9381 23.5284C31.7647 23.145 31.545 22.7786 31.2368 22.489C31.0573 22.3208 30.8109 22.1808 30.6553 22.0103C30.4059 21.7355 30.4543 21.3789 30.4476 21.0215C30.2525 21.3737 30.0351 21.807 30.1691 22.218C30.2495 22.4644 30.4222 22.6982 30.5384 22.9335C30.6962 23.2522 30.7707 23.5686 30.7915 23.9141L28.2958 22.1994L30.0902 24.8113C29.6807 24.6519 29.2466 24.5373 28.8043 24.5514C28.5586 24.5589 28.2854 24.6348 28.0546 24.6236C27.6838 24.6058 27.4917 24.3973 27.2341 24.1494C27.3867 24.605 27.4724 24.9177 27.8573 25.1143C28.0873 25.2312 28.374 25.2744 28.6219 25.3578C28.9577 25.4709 29.234 25.6407 29.4931 25.8693L26.6027 26.412L29.6703 26.9883C29.2555 27.1678 28.8542 27.3971 28.543 27.7284C28.3747 27.9078 28.2348 28.1543 28.0643 28.3099C27.8848 28.4729 27.654 28.5042 27.4195 28.5087L27.147 28.5422C27.5126 28.7581 27.8603 28.9301 28.2713 28.7961C28.5184 28.7157 28.7537 28.5414 28.9897 28.4253C29.3121 28.266 29.633 28.1922 29.9837 28.1729L28.2765 30.6664L30.869 28.8653C30.7074 29.2778 30.5913 29.7156 30.6047 30.1616C30.6121 30.4073 30.6881 30.6805 30.6769 30.9113C30.659 31.2821 30.4111 31.4705 30.1631 31.7288C30.6292 31.6216 30.9717 31.4943 31.1675 31.1086C31.2874 30.8741 31.3299 30.58 31.417 30.3276C31.5368 29.9792 31.72 29.6933 31.9635 29.4282L32.51 32.3848L33.0691 29.359C33.2441 29.7513 33.4674 30.1281 33.7824 30.4244C33.9618 30.5927 34.2083 30.7326 34.3639 30.9031C34.6133 31.1779 34.5411 31.565 34.5485 31.9232C34.7987 31.5502 34.9841 31.1064 34.8508 30.6954C34.7682 30.4423 34.588 30.201 34.4704 29.9583C34.3058 29.6181 34.2358 29.2771 34.2239 28.9085L36.6951 30.6061L35.0064 28.1319C35.3936 28.2764 35.8016 28.3754 36.2163 28.3628C36.462 28.3553 36.7353 28.2794 36.9661 28.2905C37.3369 28.3084 37.5319 28.572 37.7903 28.8199C37.7106 28.4164 37.5491 27.9957 37.1641 27.7991C36.9259 27.6778 36.6273 27.6346 36.3712 27.546C36.0108 27.4202 35.7175 27.2251 35.4457 26.969L38.3792 26.4128L35.4874 25.8641H35.4859Z" fill="#231F20"/>
<path d="M28.6517 28.1692C29.0843 27.8483 29.6427 27.4343 30.6196 27.1722L29.7842 27.0211C27.9623 27.7761 28.5825 28.5601 27.4218 28.5831C27.9065 28.7216 28.2132 28.4945 28.6525 28.1692H28.6517Z" fill="#DDE23D"/>
<path d="M28.6845 28.2131C28.2578 28.5295 27.9526 28.7559 27.4917 28.6576C28.5147 29.0872 28.5646 28.155 30.0358 28.097L30.6329 27.2258C29.6673 27.4849 29.1126 27.8952 28.6845 28.2131Z" fill="#DDE23D"/>
<path d="M30.9918 30.3961C31.0707 29.8645 31.1727 29.178 31.6761 28.3047L30.9792 28.7886C30.2279 30.6061 31.2189 30.723 30.4148 31.5591C30.8556 31.3141 30.9114 30.9367 30.9918 30.3961Z" fill="#DDE23D"/>
<path d="M31.7662 24.4636L31.9151 23.6587C31.1698 21.9247 30.4059 22.5129 30.3835 21.3677C30.2451 21.8524 30.4721 22.1592 30.7975 22.5985C31.1065 23.0154 31.5033 23.55 31.7654 24.4636H31.7662Z" fill="#DDE23D"/>
<path d="M31.0462 30.4043C30.968 30.93 30.9122 31.3052 30.5176 31.5621C31.554 31.1392 30.9092 30.4356 31.9464 29.3381L31.7513 28.2846C31.2294 29.1713 31.1259 29.8682 31.0462 30.4051V30.4043Z" fill="#DDE23D"/>
<path d="M31.7371 24.5633C31.478 23.6081 31.07 23.0579 30.7543 22.6312C30.4379 22.2046 30.2115 21.8993 30.3098 21.4385C29.8817 22.4577 30.8057 22.5106 30.8697 23.9669L31.7371 24.5626V24.5633Z" fill="#DDE23D"/>
<path d="M29.5846 25.8529L30.6143 25.6593C29.7596 25.1716 29.0858 25.0711 28.5631 24.9937C28.0375 24.9155 27.6622 24.8597 27.4053 24.4651C27.8223 25.4873 28.5125 24.8738 29.5846 25.8529V25.8529Z" fill="#DDE23D"/>
<path d="M28.5713 24.9393C29.0984 25.0175 29.7782 25.1188 30.6404 25.6109L30.1676 24.9222C28.3606 24.1799 28.243 25.1649 27.4083 24.3623C27.6533 24.8031 28.0308 24.8589 28.5713 24.9393Z" fill="#DDE23D"/>
<path d="M36.369 24.745C35.9632 25.0458 35.4457 25.4292 34.5768 25.6913L35.3594 25.8395C37.0309 25.1016 36.4658 24.3526 37.5997 24.3303C37.115 24.1918 36.8083 24.4189 36.369 24.7443V24.745Z" fill="#DDE23D"/>
<path d="M34.4577 25.669C35.3802 25.4091 35.9178 25.0108 36.3355 24.7011C36.7621 24.3846 37.0673 24.1583 37.5282 24.2566C36.4903 23.8203 36.4546 24.7882 34.9163 24.8195L34.3527 25.6496L34.4577 25.6697V25.669Z" fill="#DDE23D"/>
<path d="M33.2731 28.2555L33.2664 28.2898C33.5248 29.283 33.9432 29.8481 34.2656 30.2829C34.582 30.7096 34.8084 31.0148 34.7101 31.4757C35.1471 30.4356 34.1763 30.4013 34.1472 28.8564L33.2724 28.2555H33.2731Z" fill="#DDE23D"/>
<path d="M35.3549 26.9861L34.3527 27.176L34.4078 27.2564C35.2611 27.7433 35.9349 27.8431 36.4568 27.9205C36.9825 27.9987 37.3577 28.0545 37.6146 28.4491C37.1872 27.4016 36.4732 28.0709 35.3549 26.9854V26.9861Z" fill="#DDE23D"/>
<path d="M36.4494 27.9748C35.9423 27.8996 35.2938 27.8036 34.4771 27.3576L34.932 28.024C36.6638 28.706 36.7904 27.7619 37.6123 28.5519C37.3674 28.1111 36.9906 28.0552 36.4494 27.9748Z" fill="#DDE23D"/>
<path d="M34.0281 22.5181C33.9536 23.0206 33.8583 23.6617 33.4235 24.468L34.0839 24.0183C34.7525 22.3036 33.8174 22.1748 34.6051 21.3551C34.1643 21.6 34.1085 21.9768 34.0281 22.5181Z" fill="#DDE23D"/>
<path d="M33.2441 28.4149L33.0937 29.2287C33.8427 30.9955 34.6141 30.3954 34.6364 31.5464C34.7749 31.0617 34.5478 30.755 34.2224 30.3157C33.909 29.8935 33.5062 29.35 33.2441 28.4149Z" fill="#DDE23D"/>
<path d="M33.323 24.5358C33.798 23.6937 33.8971 23.0273 33.9737 22.5099C34.0519 21.9842 34.1078 21.609 34.5024 21.3521C33.4704 21.7728 34.1048 22.4727 33.0862 23.5619L33.2731 24.5693L33.3223 24.5358H33.323Z" fill="#DDE23D"/>
<path d="M37.8774 26.3785L34.2053 25.7107L36.3295 22.6417L33.4056 25.5655L33.3647 25.558L33.3573 25.5164L36.2803 22.5933L33.2121 24.7175L32.5442 21.0453V25.1798L32.51 25.2036L32.4757 25.1798V21.0453L31.8078 24.7175L28.7388 22.5933L31.6627 25.5164L31.6552 25.558L31.6135 25.5655L28.6904 22.6417L30.8146 25.7107L27.1425 26.3785H31.277L31.3008 26.4128L31.277 26.447H27.1425L30.8146 27.1149L28.6904 30.1839L31.6135 27.2601L31.6552 27.2675L31.6627 27.3085L28.7388 30.2323L31.8078 28.1081L32.4757 31.7802V27.6458L32.51 27.6219L32.5442 27.6458V31.7802L33.2121 28.1081L36.2803 30.2323L33.3573 27.3085L33.3647 27.2675L33.4056 27.2601L36.3295 30.1839L34.2053 27.1149L37.8774 26.447H33.7429L33.7191 26.4128L33.7429 26.3785H37.8774Z" fill="#DDE23D"/>
<path d="M32.51 24.5604C31.487 24.5604 30.6575 25.3898 30.6575 26.4128C30.6575 27.4358 31.487 28.2652 32.51 28.2652C33.533 28.2652 34.3624 27.4358 34.3624 26.4128C34.3624 25.3898 33.533 24.5604 32.51 24.5604Z" fill="#FCCA37"/>
<path fill-rule="evenodd" clip-rule="evenodd" d="M32.5099 24.4718C31.4378 24.4718 30.5689 25.3406 30.5689 26.4128C30.5689 27.4849 31.4378 28.3538 32.5099 28.3538C33.5821 28.3538 34.451 27.4849 34.451 26.4128C34.451 25.3406 33.5821 24.4718 32.5099 24.4718Z" fill="#231F20"/>
<path d="M32.51 24.5604C31.487 24.5604 30.6575 25.3898 30.6575 26.4128C30.6575 27.4358 31.487 28.2652 32.51 28.2652C33.533 28.2652 34.3624 27.4358 34.3624 26.4128C34.3624 25.3898 33.533 24.5604 32.51 24.5604Z" fill="#DDE23D"/>
<path d="M33.0855 25.8127C32.9843 25.9474 33.2032 26.1492 33.3215 26.1492C33.4399 26.1492 33.5404 25.9303 33.4228 25.8291L33.0863 25.8119L33.0855 25.8127Z" fill="#231F20"/>
<path d="M32.749 25.7792C32.816 25.8298 32.8837 25.5774 33.3044 25.5774C33.7251 25.5774 33.7928 25.8134 33.9104 25.6787C33.7586 25.5268 33.3714 25.3928 33.2366 25.4091C33.1019 25.4263 32.6812 25.7293 32.7482 25.7792H32.749Z" fill="#231F20"/>
<path d="M33.3208 25.7457C33.0512 25.7457 32.883 25.7792 32.8658 25.9817V25.9988C32.9894 25.8867 33.1411 25.8306 33.3208 25.8306C33.4064 25.8306 33.4756 25.8477 33.533 25.8708C33.5642 25.9214 33.591 25.9951 33.5531 26.0643C33.4712 26.1083 33.3826 26.1328 33.253 26.1328C33.0676 26.1328 32.9835 25.9311 32.9165 26.0316C32.8658 26.0986 33.1182 26.1999 33.3036 26.1999C33.489 26.1999 33.7749 25.9139 33.6573 25.9981C33.635 26.0145 33.6126 26.0294 33.5903 26.0428C33.6201 25.9891 33.6074 25.9348 33.5791 25.8916C33.6752 25.94 33.7385 25.9981 33.8084 25.9981C33.7072 25.9475 33.5895 25.7457 33.32 25.7457H33.3208Z" fill="#231F20"/>
<path d="M33.3379 27.1089C33.4727 27.2943 33.4555 27.2608 33.5233 27.3785C33.5062 27.2608 33.4727 27.2102 33.3379 27.1089Z" fill="#231F20"/>
<path d="M31.6708 25.8298C31.5532 25.9311 31.6537 26.15 31.7721 26.15C31.8905 26.15 32.1086 25.9482 32.0081 25.8134L31.6716 25.8306L31.6708 25.8298Z" fill="#231F20"/>
<path d="M31.8562 25.4084C31.7215 25.3913 31.3343 25.526 31.1824 25.6779C31.3001 25.8127 31.3678 25.5767 31.7885 25.5767C32.2092 25.5767 32.2769 25.8291 32.3439 25.7784C32.4109 25.7278 31.9903 25.4248 31.8555 25.4084H31.8562Z" fill="#231F20"/>
<path d="M31.8391 26.1328C31.6537 26.1328 31.5525 26.0822 31.4348 25.9981C31.3172 25.914 31.6031 26.1999 31.7885 26.1999C31.9739 26.1999 32.2263 26.0986 32.1757 26.0316C32.1086 25.9303 32.0238 26.1328 31.8391 26.1328V26.1328Z" fill="#231F20"/>
<path d="M31.7721 25.7457C31.5026 25.7457 31.3849 25.9475 31.2837 25.9981C31.4013 25.9981 31.5026 25.8298 31.7721 25.8298C32.0416 25.8298 32.0416 25.8298 32.227 25.9981V25.981C32.2099 25.7792 32.0416 25.7449 31.7721 25.7449V25.7457Z" fill="#231F20"/>
<path d="M31.6038 25.8127C31.5197 25.8462 31.3849 26.0145 31.6038 26.1328C31.4356 26.0152 31.5703 25.8462 31.6038 25.8127Z" fill="#231F20"/>
<path d="M32.2605 26.8402C32.3953 26.8402 32.4288 26.9243 32.5464 26.9243C32.6641 26.9243 32.6983 26.8402 32.8323 26.8402C32.9663 26.8402 33.1525 26.8908 33.2366 26.9578C33.2537 26.9749 33.186 26.823 33.0512 26.8059C32.9165 26.7888 32.9671 26.5699 32.8152 26.5364C32.8152 26.6034 32.8658 26.587 32.8822 26.6883C32.8822 26.7724 32.7303 26.7724 32.6968 26.6883C32.7452 26.8818 32.3454 26.8818 32.3938 26.6883C32.3603 26.7724 32.2084 26.7724 32.2084 26.6883C32.2255 26.587 32.2754 26.6041 32.2754 26.5364C32.1235 26.5699 32.1741 26.7888 32.0394 26.8059C31.9046 26.823 31.8376 26.9742 31.854 26.9578C31.9381 26.8908 32.1235 26.8402 32.2583 26.8402H32.2605Z" fill="#231F20"/>
<path d="M31.5696 27.3785C31.6366 27.2608 31.6202 27.2943 31.755 27.1089C31.6202 27.2102 31.5867 27.2608 31.5696 27.3785Z" fill="#231F20"/>
<path d="M32.816 27.1089C32.6812 27.1089 32.6477 27.1425 32.5465 27.1425C32.4452 27.1425 32.4117 27.1089 32.2769 27.1089C32.1422 27.1089 31.8801 27.307 31.6954 27.24C32.0826 27.3919 31.8734 27.2772 32.5465 27.2772C33.2195 27.2772 33.0103 27.3911 33.3975 27.24C33.2121 27.307 32.9507 27.1089 32.816 27.1089Z" fill="#231F20"/>
<path d="M31.7088 27.2921C32.2642 27.5281 32.125 27.5475 32.5464 27.5475C32.9678 27.5475 32.8279 27.5281 33.384 27.2921C32.9797 27.3427 32.9678 27.4127 32.5464 27.4127C32.125 27.4127 32.1131 27.3427 31.7088 27.2921Z" fill="#231F20"/>
<path d="M33.3379 27.1089C33.4727 27.2943 33.4555 27.2608 33.5233 27.3785C33.5062 27.2608 33.4727 27.2102 33.3379 27.1089Z" fill="#231F20"/>
<path d="M32.5464 27.7493C32.8495 27.7493 32.6306 27.6986 32.5464 27.6986C32.4623 27.6986 32.2434 27.7493 32.5464 27.7493Z" fill="#231F20"/>
<mask id="mask0_38_3625" style="mask-type:alpha" maskUnits="userSpaceOnUse" x="24" y="18" width="44" height="31">
<rect x="24.9527" y="18.9527" width="42.45" height="30" rx="4" fill="white"/>
</mask>
<g mask="url(#mask0_38_3625)">
<rect x="39.9527" y="21.8027" width="27.45" height="3.9" fill="#0038A8"/>
<rect x="39.9527" y="28.5527" width="27.45" height="3.9" fill="#0038A8"/>
<rect x="24.9527" y="35.3027" width="42.45" height="3.9" fill="#0038A8"/>
<rect x="24.9527" y="42.0527" width="42.45" height="3.9" fill="#0038A8"/>
</g>
<path d="M84.9594 40.0864C83.4213 40.0864 82.2119 39.6462 81.3314 38.7656C80.4508 37.8851 80.0106 36.5977 80.0106 34.9035V28.2492H81.6825V34.8366C81.6825 36.1407 81.9667 37.0937 82.5352 37.6956C83.1148 38.2975 83.9284 38.5984 84.9762 38.5984C86.0351 38.5984 86.8487 38.2975 87.4172 37.6956C87.9968 37.0937 88.2866 36.1407 88.2866 34.8366V28.2492H89.9083V34.9035C89.9083 36.5977 89.4681 37.8851 88.5875 38.7656C87.7181 39.6462 86.5088 40.0864 84.9594 40.0864ZM93.102 39.9527V31.0915H94.6401V33.4991L94.4897 32.8972C94.7349 32.2841 95.1473 31.816 95.7269 31.4927C96.3065 31.1695 97.0199 31.0079 97.867 31.0079V32.5628C97.8001 32.5516 97.7332 32.5461 97.6663 32.5461C97.6106 32.5461 97.5549 32.5461 97.4991 32.5461C96.6409 32.5461 95.961 32.8024 95.4594 33.3151C94.9578 33.8279 94.707 34.5691 94.707 35.5388V39.9527H93.102ZM103.688 40.053C102.93 40.053 102.261 39.9137 101.682 39.635C101.113 39.3564 100.667 38.9328 100.344 38.3644C100.032 37.7848 99.8759 37.0603 99.8759 36.1909V31.0915H101.481V36.0069C101.481 36.8763 101.687 37.5284 102.1 37.9631C102.523 38.3978 103.114 38.6151 103.872 38.6151C104.429 38.6151 104.914 38.5037 105.326 38.2808C105.739 38.0467 106.056 37.7123 106.279 37.2776C106.502 36.8318 106.614 36.2967 106.614 35.6726V31.0915H108.219V39.9527H106.697V37.5618L106.948 38.1972C106.658 38.7879 106.224 39.2449 105.644 39.5681C105.064 39.8914 104.412 40.053 103.688 40.053ZM115.153 43.2965C114.34 43.2965 113.548 43.1795 112.779 42.9454C112.021 42.7225 111.403 42.3993 110.923 41.9757L111.692 40.7385C112.105 41.0952 112.612 41.3738 113.214 41.5744C113.816 41.7862 114.445 41.8921 115.103 41.8921C116.151 41.8921 116.92 41.6469 117.41 41.1565C117.901 40.666 118.146 39.9192 118.146 38.9161V37.0435L118.313 35.288L118.23 33.5158V31.0915H119.751V38.7489C119.751 40.3094 119.361 41.4574 118.581 42.1931C117.8 42.9287 116.658 43.2965 115.153 43.2965ZM114.953 39.5849C114.094 39.5849 113.325 39.4065 112.645 39.0498C111.977 38.682 111.442 38.1749 111.04 37.5284C110.65 36.8819 110.455 36.1351 110.455 35.288C110.455 34.4298 110.65 33.683 111.04 33.0476C111.442 32.4012 111.977 31.8996 112.645 31.5429C113.325 31.1862 114.094 31.0079 114.953 31.0079C115.711 31.0079 116.402 31.1639 117.026 31.476C117.65 31.777 118.146 32.2451 118.514 32.8804C118.893 33.5158 119.082 34.3183 119.082 35.288C119.082 36.2466 118.893 37.0435 118.514 37.6789C118.146 38.3142 117.65 38.7935 117.026 39.1167C116.402 39.4288 115.711 39.5849 114.953 39.5849ZM115.137 38.1804C115.727 38.1804 116.251 38.0578 116.708 37.8126C117.165 37.5674 117.522 37.2274 117.778 36.7927C118.046 36.358 118.179 35.8565 118.179 35.288C118.179 34.7196 118.046 34.218 117.778 33.7833C117.522 33.3486 117.165 33.0142 116.708 32.7801C116.251 32.5349 115.727 32.4123 115.137 32.4123C114.546 32.4123 114.016 32.5349 113.548 32.7801C113.091 33.0142 112.729 33.3486 112.461 33.7833C112.205 34.218 112.077 34.7196 112.077 35.288C112.077 35.8565 112.205 36.358 112.461 36.7927C112.729 37.2274 113.091 37.5674 113.548 37.8126C114.016 38.0578 114.546 38.1804 115.137 38.1804ZM126.546 40.053C125.788 40.053 125.12 39.9137 124.54 39.635C123.971 39.3564 123.526 38.9328 123.202 38.3644C122.89 37.7848 122.734 37.0603 122.734 36.1909V31.0915H124.339V36.0069C124.339 36.8763 124.545 37.5284 124.958 37.9631C125.381 38.3978 125.972 38.6151 126.73 38.6151C127.287 38.6151 127.772 38.5037 128.185 38.2808C128.597 38.0467 128.915 37.7123 129.138 37.2776C129.361 36.8318 129.472 36.2967 129.472 35.6726V31.0915H131.077V39.9527H129.556V37.5618L129.806 38.1972C129.517 38.7879 129.082 39.2449 128.502 39.5681C127.923 39.8914 127.271 40.053 126.546 40.053ZM139.633 39.9527V38.0801L139.55 37.729V34.5356C139.55 33.8557 139.349 33.3319 138.948 32.964C138.558 32.5851 137.967 32.3956 137.176 32.3956C136.652 32.3956 136.139 32.4848 135.637 32.6631C135.136 32.8303 134.712 33.0588 134.367 33.3486L133.698 32.1448C134.155 31.777 134.701 31.4983 135.336 31.3088C135.983 31.1082 136.657 31.0079 137.36 31.0079C138.574 31.0079 139.511 31.3033 140.168 31.894C140.826 32.4848 141.155 33.3876 141.155 34.6025V39.9527H139.633ZM136.724 40.053C136.067 40.053 135.487 39.9415 134.985 39.7186C134.495 39.4957 134.116 39.1892 133.848 38.7991C133.581 38.3978 133.447 37.9464 133.447 37.4448C133.447 36.9655 133.559 36.5308 133.782 36.1407C134.016 35.7506 134.389 35.4385 134.902 35.2044C135.426 34.9703 136.128 34.8533 137.008 34.8533H139.817V36.0069H137.075C136.273 36.0069 135.732 36.1407 135.454 36.4082C135.175 36.6757 135.036 36.9989 135.036 37.3779C135.036 37.8126 135.208 38.1637 135.554 38.4312C135.899 38.6876 136.379 38.8158 136.992 38.8158C137.594 38.8158 138.117 38.682 138.563 38.4145C139.02 38.147 139.349 37.7569 139.55 37.2442L139.867 38.3476C139.656 38.8715 139.282 39.2895 138.747 39.6016C138.212 39.9025 137.538 40.053 136.724 40.053ZM144.346 43.2965C143.923 43.2965 143.51 43.2241 143.109 43.0792C142.708 42.9454 142.362 42.7448 142.073 42.4773L142.758 41.2735C142.981 41.4853 143.226 41.6469 143.494 41.7584C143.761 41.8698 144.045 41.9256 144.346 41.9256C144.736 41.9256 145.06 41.8252 145.316 41.6246C145.572 41.424 145.812 41.0673 146.035 40.5546L146.587 39.3341L146.754 39.1334L150.231 31.0915H151.803L147.506 40.8388C147.25 41.463 146.96 41.9534 146.637 42.3101C146.325 42.6668 145.979 42.9176 145.6 43.0625C145.221 43.2185 144.803 43.2965 144.346 43.2965ZM146.453 40.2369L142.407 31.0915H144.079L147.523 38.983L146.453 40.2369Z" fill="#142032"/>
<circle cx="176.683" cy="33.9527" r="13.3754" fill="#480095"/>
</g>
<defs>
<filter id="filter0_d_38_3625" x="0" y="0" width="221.012" height="83.9054" filterUnits="userSpaceOnUse" color-interpolation-filters="sRGB">
<feFlood flood-opacity="0" result="BackgroundImageFix"/>
<feColorMatrix in="SourceAlpha" type="matrix" values="0 0 0 0 0 0 0 0 0 0 0 0 0 0 0 0 0 0 127 0" result="hardAlpha"/>
<feOffset dx="3" dy="8"/>
<feGaussianBlur stdDeviation="8"/>
<feColorMatrix type="matrix" values="0 0 0 0 0.282353 0 0 0 0 0 0 0 0 0 0.584314 0 0 0 0.15 0"/>
<feBlend mode="normal" in2="BackgroundImageFix" result="effect1_dropShadow_38_3625"/>
<feBlend mode="normal" in="SourceGraphic" in2="effect1_dropShadow_38_3625" result="shape"/>
</filter>
</defs>
</svg>
