<svg width="34" height="55" viewBox="0 0 34 55" fill="none" xmlns="http://www.w3.org/2000/svg">
<path d="M0.505737 47C0.505737 51.4183 4.08746 55 8.50574 55C12.924 55 16.5057 51.4183 16.5057 47C16.5057 42.5817 12.924 39 8.50574 39C4.08746 39 0.505737 42.5817 0.505737 47ZM17.3128 8.62512C17.3128 13.0434 20.8945 16.6251 25.3128 16.6251C29.731 16.6251 33.3128 13.0434 33.3128 8.62512C33.3128 4.20684 29.731 0.625122 25.3128 0.625122C20.8945 0.625122 17.3128 4.20684 17.3128 8.62512ZM10.0057 47V44.304H7.00574V47H10.0057ZM10.0057 38.912V36.2161H7.00574V38.912H10.0057ZM10.0057 36.2161C10.0057 35.2772 10.1923 34.3858 10.529 33.5739L7.75781 32.4247C7.27272 33.5945 7.00574 34.876 7.00574 36.2161H10.0057ZM14.2671 29.8358C15.079 29.4991 15.9704 29.3126 16.9092 29.3126V26.3126C15.5692 26.3126 14.2877 26.5795 13.1179 27.0646L14.2671 29.8358ZM16.9092 29.3126C18.2493 29.3126 19.5308 29.0456 20.7006 28.5605L19.5514 25.7893C18.7395 26.126 17.8481 26.3126 16.9092 26.3126V29.3126ZM26.0607 23.2004C26.5458 22.0306 26.8128 20.7491 26.8128 19.4091H23.8128C23.8128 20.3479 23.6262 21.2393 23.2895 22.0512L26.0607 23.2004ZM26.8128 19.4091V16.7131H23.8128V19.4091H26.8128ZM26.8128 11.3211V8.62512H23.8128V11.3211H26.8128Z" fill="#480095"/>
</svg>
