<svg width="48" height="74" viewBox="0 0 48 74" fill="none" xmlns="http://www.w3.org/2000/svg">
<path d="M0.500732 8.69263C0.500732 13.1109 4.08245 16.6926 8.50073 16.6926C12.919 16.6926 16.5007 13.1109 16.5007 8.69263C16.5007 4.27435 12.919 0.692627 8.50073 0.692627C4.08245 0.692627 0.500732 4.27435 0.500732 8.69263ZM32.0001 65.9527C32.0001 70.3709 35.5818 73.9527 40.0001 73.9527C44.4183 73.9527 48.0001 70.3709 48.0001 65.9527C48.0001 61.5344 44.4183 57.9527 40.0001 57.9527C35.5818 57.9527 32.0001 61.5344 32.0001 65.9527ZM7.00073 8.69263V11.4643H10.0007V8.69263H7.00073ZM7.00073 17.0076V22.551H10.0007V17.0076H7.00073ZM7.00073 28.0943V33.6376H10.0007V28.0943H7.00073ZM7.00073 39.181V41.9526H10.0007V39.181H7.00073ZM7.00073 41.9526C7.00073 43.0801 7.074 44.1912 7.21619 45.2813L10.191 44.8933C10.0655 43.9315 10.0007 42.95 10.0007 41.9526H7.00073ZM8.93628 51.7141C9.79629 53.788 10.9217 55.7232 12.2698 57.4775L14.6485 55.6495C13.4584 54.1007 12.4657 52.3934 11.7075 50.565L8.93628 51.7141ZM16.9759 62.1836C18.7302 63.5317 20.6653 64.6571 22.7392 65.5171L23.8884 62.7459C22.06 61.9877 20.3526 60.995 18.8039 59.8049L16.9759 62.1836ZM29.1721 67.2372C30.2622 67.3794 31.3733 67.4527 32.5007 67.4527V64.4527C31.5034 64.4527 30.5219 64.3879 29.5601 64.2624L29.1721 67.2372ZM32.5007 67.4527H34.3756V64.4527H32.5007V67.4527ZM38.1252 67.4527H40.0001V64.4527H38.1252V67.4527Z" fill="#480095"/>
</svg>
