<svg width="60" height="60" viewBox="0 0 60 60" fill="none" xmlns="http://www.w3.org/2000/svg">
<circle cx="30" cy="30" r="30" fill="white"/>
<path d="M24.962 20.8064H8.84931C7.59995 20.8064 6.79982 22.1369 7.38435 23.2431L8.99581 26.3004H6.07415C5.48086 26.3004 5 26.7826 5 27.3769C5 27.5515 5.04234 27.7236 5.12362 27.8781L10.3075 37.7069C10.5854 38.2319 11.2356 38.4323 11.7598 38.1544C11.9501 38.0535 12.1058 37.8975 12.2066 37.7069L13.6146 35.0517L15.3808 38.4016C16.0024 39.58 17.6863 39.5819 18.3103 38.405L26.3866 23.1812C26.958 22.1047 26.1793 20.8064 24.962 20.8064ZM17.7243 27.3111L14.242 33.8768C14.057 34.2263 13.6238 34.3594 13.2749 34.1742C13.1483 34.1069 13.0452 34.0035 12.978 33.8768L9.52924 27.3389C9.34429 26.9893 9.47765 26.5559 9.82661 26.3707C9.9293 26.316 10.0432 26.2878 10.159 26.2873H17.1096C17.4941 26.2873 17.8056 26.5993 17.8056 26.9845C17.8056 27.0981 17.7778 27.2102 17.7243 27.3111ZM42.0997 27.8689H40.3374V33.9197C40.3369 34.0342 40.2444 34.1274 40.1296 34.1278H38.7702C38.6558 34.1274 38.5629 34.0347 38.5624 33.9197V27.8689H36.7893C36.6793 27.8732 36.5864 27.7874 36.582 27.6772C36.582 27.6753 36.582 27.6733 36.582 27.6709V26.6008C36.583 26.4906 36.673 26.4019 36.7835 26.4028C36.7854 26.4028 36.7879 26.4028 36.7898 26.4028H42.0992C42.2136 26.3975 42.3114 26.4857 42.3173 26.6003V27.6709C42.3114 27.7865 42.2141 27.8742 42.0997 27.8689ZM47.7576 34.0845C47.3945 34.1361 46.7837 34.2195 45.6629 34.2195C44.3244 34.2195 43.1418 33.8763 43.1418 31.9851V28.5329C43.1418 26.6412 44.3351 26.3087 45.6731 26.3087C46.793 26.3087 47.3941 26.3921 47.7576 26.4438C47.9027 26.4643 47.9654 26.5169 47.9654 26.652V27.6197C47.965 27.7343 47.8725 27.8274 47.7576 27.8279H45.5699C45.0822 27.8279 44.906 27.9941 44.906 28.5348V29.4806H47.6749C47.7893 29.4806 47.8822 29.5738 47.8827 29.6888V30.6756C47.8827 30.7902 47.7897 30.8833 47.6749 30.8838H44.906V31.9856C44.906 32.5258 45.0822 32.6925 45.5699 32.6925H47.7576C47.872 32.693 47.965 32.7857 47.9654 32.9007V33.8675C47.9654 34.0011 47.9031 34.0635 47.7576 34.0845ZM55.5862 34.1259H53.9368C53.802 34.1259 53.7397 34.0825 53.6671 33.9704L52.2367 31.6955L50.9406 33.9202C50.8676 34.045 50.7956 34.1283 50.6822 34.1283H49.1467C49.043 34.1283 48.9909 34.0659 48.9909 33.9933C48.9929 33.9679 49.0002 33.9431 49.0114 33.9202L51.2589 30.1656L48.988 26.6008C48.9763 26.5818 48.9695 26.5603 48.9676 26.5384C48.9753 26.4589 49.0435 26.3999 49.1228 26.4033H50.7932C50.9071 26.4033 50.9903 26.5072 51.0516 26.6008L52.3788 28.7001L53.6637 26.6008C53.7153 26.5072 53.8088 26.4033 53.9222 26.4033H55.4577C55.537 26.3999 55.6057 26.4589 55.6135 26.5384C55.6115 26.5603 55.6042 26.5818 55.5925 26.6008L53.3328 30.1881L55.6894 33.9206C55.7079 33.9523 55.7186 33.9879 55.7205 34.0245C55.7215 34.0845 55.6694 34.1259 55.5862 34.1259ZM35.5697 26.4228C35.5818 26.4228 35.5935 26.4243 35.6052 26.4267C35.6913 26.4467 35.7454 26.5325 35.7254 26.6188C35.7254 26.6188 33.9266 33.0021 33.8974 33.0884C33.6511 33.8319 33.0208 34.2141 32.2985 34.2141C31.5403 34.2141 30.9445 33.8495 30.6988 33.0865C30.6783 33.0236 28.8391 26.6198 28.8391 26.6198C28.8362 26.6081 28.8352 26.5959 28.8352 26.5837C28.8352 26.495 28.9067 26.4233 28.9953 26.4228H30.4778C30.5542 26.4228 30.6199 26.4774 30.6345 26.5525L32.1423 32.1377C32.1632 32.2503 32.1939 32.2932 32.2874 32.2932C32.3808 32.2932 32.4119 32.2518 32.4324 32.1377L33.9387 26.554C33.9533 26.4789 34.019 26.4248 34.0954 26.4243L35.5697 26.4228Z" fill="#F71963"/>
</svg>
