<svg width="179" height="84" viewBox="0 0 179 84" fill="none" xmlns="http://www.w3.org/2000/svg">
<g filter="url(#filter0_d_1306_2088)">
<rect x="13" y="8" width="146.99" height="51.9054" rx="11.3229" fill="white"/>
<rect x="23.9526" y="19.667" width="40.4286" height="28.5714" rx="4" fill="#B22234"/>
<path d="M23.9526 23.667C23.9526 21.4579 25.7435 19.667 27.9526 19.667H43.0955V35.2384H23.9526V23.667Z" fill="#3C3B6E"/>
<path fill-rule="evenodd" clip-rule="evenodd" d="M26.1253 21.8398L26.3099 21.2384L26.4946 21.8398L27.0957 21.8387L26.6088 22.2092L26.7955 22.8098L26.3099 22.4374L25.8243 22.8098L26.0112 22.2092L25.5243 21.8387L26.1253 21.8398Z" fill="white"/>
<path fill-rule="evenodd" clip-rule="evenodd" d="M26.1253 24.1256L26.3099 23.5242L26.4946 24.1256L27.0957 24.1245L26.6088 24.495L26.7955 25.0956L26.3099 24.7232L25.8243 25.0956L26.0112 24.495L25.5243 24.1245L26.1253 24.1256Z" fill="white"/>
<path fill-rule="evenodd" clip-rule="evenodd" d="M26.1253 26.4112L26.3099 25.8098L26.4946 26.4112L27.0957 26.4101L26.6088 26.7806L26.7955 27.3812L26.3099 27.0088L25.8243 27.3812L26.0112 26.7806L25.5243 26.4101L26.1253 26.4112Z" fill="white"/>
<path fill-rule="evenodd" clip-rule="evenodd" d="M26.1253 28.697L26.3099 28.0956L26.4946 28.697L27.0957 28.6959L26.6088 29.0664L26.7955 29.667L26.3099 29.2946L25.8243 29.667L26.0112 29.0664L25.5243 28.6959L26.1253 28.697Z" fill="white"/>
<path fill-rule="evenodd" clip-rule="evenodd" d="M26.1253 30.9826L26.3099 30.3812L26.4946 30.9826L27.0957 30.9815L26.6088 31.352L26.7955 31.9527L26.3099 31.5802L25.8243 31.9527L26.0112 31.352L25.5243 30.9815L26.1253 30.9826Z" fill="white"/>
<path fill-rule="evenodd" clip-rule="evenodd" d="M26.1253 33.2684L26.3099 32.667L26.4946 33.2684L27.0957 33.2673L26.6088 33.6378L26.7955 34.2384L26.3099 33.866L25.8243 34.2384L26.0112 33.6378L25.5243 33.2673L26.1253 33.2684Z" fill="white"/>
<path fill-rule="evenodd" clip-rule="evenodd" d="M29.1253 21.8398L29.3099 21.2384L29.4946 21.8398L30.0957 21.8387L29.6088 22.2092L29.7955 22.8098L29.3099 22.4374L28.8243 22.8098L29.0112 22.2092L28.5243 21.8387L29.1253 21.8398Z" fill="white"/>
<path fill-rule="evenodd" clip-rule="evenodd" d="M29.1253 24.1256L29.3099 23.5242L29.4946 24.1256L30.0957 24.1245L29.6088 24.495L29.7955 25.0956L29.3099 24.7232L28.8243 25.0956L29.0112 24.495L28.5243 24.1245L29.1253 24.1256Z" fill="white"/>
<path fill-rule="evenodd" clip-rule="evenodd" d="M29.1253 26.4112L29.3099 25.8098L29.4946 26.4112L30.0957 26.4101L29.6088 26.7806L29.7955 27.3812L29.3099 27.0088L28.8243 27.3812L29.0112 26.7806L28.5243 26.4101L29.1253 26.4112Z" fill="white"/>
<path fill-rule="evenodd" clip-rule="evenodd" d="M29.1253 28.697L29.3099 28.0956L29.4946 28.697L30.0957 28.6959L29.6088 29.0664L29.7955 29.667L29.3099 29.2946L28.8243 29.667L29.0112 29.0664L28.5243 28.6959L29.1253 28.697Z" fill="white"/>
<path fill-rule="evenodd" clip-rule="evenodd" d="M29.1253 30.9826L29.3099 30.3812L29.4946 30.9826L30.0957 30.9815L29.6088 31.352L29.7955 31.9527L29.3099 31.5802L28.8243 31.9527L29.0112 31.352L28.5243 30.9815L29.1253 30.9826Z" fill="white"/>
<path fill-rule="evenodd" clip-rule="evenodd" d="M29.1253 33.2684L29.3099 32.667L29.4946 33.2684L30.0957 33.2673L29.6088 33.6378L29.7955 34.2384L29.3099 33.866L28.8243 34.2384L29.0112 33.6378L28.5243 33.2673L29.1253 33.2684Z" fill="white"/>
<path fill-rule="evenodd" clip-rule="evenodd" d="M32.1253 21.8398L32.3099 21.2384L32.4946 21.8398L33.0957 21.8387L32.6088 22.2092L32.7955 22.8098L32.3099 22.4374L31.8243 22.8098L32.0112 22.2092L31.5243 21.8387L32.1253 21.8398Z" fill="white"/>
<path fill-rule="evenodd" clip-rule="evenodd" d="M32.1253 24.1256L32.3099 23.5242L32.4946 24.1256L33.0957 24.1245L32.6088 24.495L32.7955 25.0956L32.3099 24.7232L31.8243 25.0956L32.0112 24.495L31.5243 24.1245L32.1253 24.1256Z" fill="white"/>
<path fill-rule="evenodd" clip-rule="evenodd" d="M32.1253 26.4112L32.3099 25.8098L32.4946 26.4112L33.0957 26.4101L32.6088 26.7806L32.7955 27.3812L32.3099 27.0088L31.8243 27.3812L32.0112 26.7806L31.5243 26.4101L32.1253 26.4112Z" fill="white"/>
<path fill-rule="evenodd" clip-rule="evenodd" d="M32.1253 28.697L32.3099 28.0956L32.4946 28.697L33.0957 28.6959L32.6088 29.0664L32.7955 29.667L32.3099 29.2946L31.8243 29.667L32.0112 29.0664L31.5243 28.6959L32.1253 28.697Z" fill="white"/>
<path fill-rule="evenodd" clip-rule="evenodd" d="M32.1253 30.9826L32.3099 30.3812L32.4946 30.9826L33.0957 30.9815L32.6088 31.352L32.7955 31.9527L32.3099 31.5802L31.8243 31.9527L32.0112 31.352L31.5243 30.9815L32.1253 30.9826Z" fill="white"/>
<path fill-rule="evenodd" clip-rule="evenodd" d="M32.1253 33.2684L32.3099 32.667L32.4946 33.2684L33.0957 33.2673L32.6088 33.6378L32.7955 34.2384L32.3099 33.866L31.8243 34.2384L32.0112 33.6378L31.5243 33.2673L32.1253 33.2684Z" fill="white"/>
<path fill-rule="evenodd" clip-rule="evenodd" d="M35.1253 21.8398L35.3099 21.2384L35.4946 21.8398L36.0957 21.8387L35.6088 22.2092L35.7955 22.8098L35.3099 22.4374L34.8243 22.8098L35.0112 22.2092L34.5243 21.8387L35.1253 21.8398Z" fill="white"/>
<path fill-rule="evenodd" clip-rule="evenodd" d="M35.1253 24.1256L35.3099 23.5242L35.4946 24.1256L36.0957 24.1245L35.6088 24.495L35.7955 25.0956L35.3099 24.7232L34.8243 25.0956L35.0112 24.495L34.5243 24.1245L35.1253 24.1256Z" fill="white"/>
<path fill-rule="evenodd" clip-rule="evenodd" d="M35.1253 26.4112L35.3099 25.8098L35.4946 26.4112L36.0957 26.4101L35.6088 26.7806L35.7955 27.3812L35.3099 27.0088L34.8243 27.3812L35.0112 26.7806L34.5243 26.4101L35.1253 26.4112Z" fill="white"/>
<path fill-rule="evenodd" clip-rule="evenodd" d="M35.1253 28.697L35.3099 28.0956L35.4946 28.697L36.0957 28.6959L35.6088 29.0664L35.7955 29.667L35.3099 29.2946L34.8243 29.667L35.0112 29.0664L34.5243 28.6959L35.1253 28.697Z" fill="white"/>
<path fill-rule="evenodd" clip-rule="evenodd" d="M35.1253 30.9826L35.3099 30.3812L35.4946 30.9826L36.0957 30.9815L35.6088 31.352L35.7955 31.9527L35.3099 31.5802L34.8243 31.9527L35.0112 31.352L34.5243 30.9815L35.1253 30.9826Z" fill="white"/>
<path fill-rule="evenodd" clip-rule="evenodd" d="M35.1253 33.2684L35.3099 32.667L35.4946 33.2684L36.0957 33.2673L35.6088 33.6378L35.7955 34.2384L35.3099 33.866L34.8243 34.2384L35.0112 33.6378L34.5243 33.2673L35.1253 33.2684Z" fill="white"/>
<path fill-rule="evenodd" clip-rule="evenodd" d="M38.1253 21.8398L38.3099 21.2384L38.4946 21.8398L39.0957 21.8387L38.6088 22.2092L38.7955 22.8098L38.3099 22.4374L37.8243 22.8098L38.0112 22.2092L37.5243 21.8387L38.1253 21.8398Z" fill="white"/>
<path fill-rule="evenodd" clip-rule="evenodd" d="M38.1253 24.1256L38.3099 23.5242L38.4946 24.1256L39.0957 24.1245L38.6088 24.495L38.7955 25.0956L38.3099 24.7232L37.8243 25.0956L38.0112 24.495L37.5243 24.1245L38.1253 24.1256Z" fill="white"/>
<path fill-rule="evenodd" clip-rule="evenodd" d="M38.1253 26.4112L38.3099 25.8098L38.4946 26.4112L39.0957 26.4101L38.6088 26.7806L38.7955 27.3812L38.3099 27.0088L37.8243 27.3812L38.0112 26.7806L37.5243 26.4101L38.1253 26.4112Z" fill="white"/>
<path fill-rule="evenodd" clip-rule="evenodd" d="M38.1253 28.697L38.3099 28.0956L38.4946 28.697L39.0957 28.6959L38.6088 29.0664L38.7955 29.667L38.3099 29.2946L37.8243 29.667L38.0112 29.0664L37.5243 28.6959L38.1253 28.697Z" fill="white"/>
<path fill-rule="evenodd" clip-rule="evenodd" d="M38.1253 30.9826L38.3099 30.3812L38.4946 30.9826L39.0957 30.9815L38.6088 31.352L38.7955 31.9527L38.3099 31.5802L37.8243 31.9527L38.0112 31.352L37.5243 30.9815L38.1253 30.9826Z" fill="white"/>
<path fill-rule="evenodd" clip-rule="evenodd" d="M38.1253 33.2684L38.3099 32.667L38.4946 33.2684L39.0957 33.2673L38.6088 33.6378L38.7955 34.2384L38.3099 33.866L37.8243 34.2384L38.0112 33.6378L37.5243 33.2673L38.1253 33.2684Z" fill="white"/>
<path fill-rule="evenodd" clip-rule="evenodd" d="M41.1253 21.8398L41.3099 21.2384L41.4946 21.8398L42.0957 21.8387L41.6088 22.2092L41.7955 22.8098L41.3099 22.4374L40.8243 22.8098L41.0112 22.2092L40.5243 21.8387L41.1253 21.8398Z" fill="white"/>
<path fill-rule="evenodd" clip-rule="evenodd" d="M41.1253 24.1256L41.3099 23.5242L41.4946 24.1256L42.0957 24.1245L41.6088 24.495L41.7955 25.0956L41.3099 24.7232L40.8243 25.0956L41.0112 24.495L40.5243 24.1245L41.1253 24.1256Z" fill="white"/>
<path fill-rule="evenodd" clip-rule="evenodd" d="M41.1253 26.4112L41.3099 25.8098L41.4946 26.4112L42.0957 26.4101L41.6088 26.7806L41.7955 27.3812L41.3099 27.0088L40.8243 27.3812L41.0112 26.7806L40.5243 26.4101L41.1253 26.4112Z" fill="white"/>
<path fill-rule="evenodd" clip-rule="evenodd" d="M41.1253 28.697L41.3099 28.0956L41.4946 28.697L42.0957 28.6959L41.6088 29.0664L41.7955 29.667L41.3099 29.2946L40.8243 29.667L41.0112 29.0664L40.5243 28.6959L41.1253 28.697Z" fill="white"/>
<path fill-rule="evenodd" clip-rule="evenodd" d="M41.1253 30.9826L41.3099 30.3812L41.4946 30.9826L42.0957 30.9815L41.6088 31.352L41.7955 31.9527L41.3099 31.5802L40.8243 31.9527L41.0112 31.352L40.5243 30.9815L41.1253 30.9826Z" fill="white"/>
<path fill-rule="evenodd" clip-rule="evenodd" d="M41.1253 33.2684L41.3099 32.667L41.4946 33.2684L42.0957 33.2673L41.6088 33.6378L41.7955 34.2384L41.3099 33.866L40.8243 34.2384L41.0112 33.6378L40.5243 33.2673L41.1253 33.2684Z" fill="white"/>
<mask id="mask0_1306_2088" style="mask-type:alpha" maskUnits="userSpaceOnUse" x="23" y="19" width="42" height="30">
<rect x="23.9526" y="19.667" width="40.4286" height="28.5714" rx="4" fill="#B22234"/>
</mask>
<g mask="url(#mask0_1306_2088)">
<rect x="43.0955" y="22.3812" width="21.2857" height="1.85714" fill="white"/>
<rect x="43.0955" y="26.667" width="21.2857" height="1.85714" fill="white"/>
<rect x="43.0955" y="30.9526" width="21.2857" height="1.85714" fill="white"/>
<rect x="23.9526" y="35.2384" width="40.4286" height="1.85714" fill="white"/>
<rect x="23.9526" y="39.524" width="40.4286" height="1.85714" fill="white"/>
<rect x="23.9526" y="43.8098" width="40.4286" height="1.85714" fill="white"/>
</g>
<path d="M81.9381 40.0864C80.3999 40.0864 79.1906 39.6461 78.31 38.7656C77.4295 37.885 76.9892 36.5976 76.9892 34.9034V28.2492H78.6611V34.8365C78.6611 36.1406 78.9453 37.0936 79.5138 37.6955C80.0934 38.2974 80.9071 38.5984 81.9548 38.5984C83.0137 38.5984 83.8274 38.2974 84.3958 37.6955C84.9754 37.0936 85.2652 36.1406 85.2652 34.8365V28.2492H86.887V34.9034C86.887 36.5976 86.4467 37.885 85.5662 38.7656C84.6968 39.6461 83.4874 40.0864 81.9381 40.0864ZM93.7254 40.0864C92.8337 40.0864 91.981 39.9526 91.1674 39.6851C90.3537 39.4065 89.7128 39.0498 89.2447 38.6151L89.8633 37.311C90.3091 37.7011 90.8776 38.0244 91.5686 38.2807C92.2597 38.5371 92.9786 38.6653 93.7254 38.6653C94.4053 38.6653 94.9571 38.5872 95.3806 38.4312C95.8042 38.2751 96.1163 38.0634 96.3169 37.7959C96.5175 37.5172 96.6178 37.2051 96.6178 36.8596C96.6178 36.4583 96.4841 36.1351 96.2166 35.8899C95.9602 35.6446 95.6203 35.4496 95.1967 35.3047C94.7843 35.1486 94.3273 35.0149 93.8257 34.9034C93.3242 34.792 92.817 34.6638 92.3043 34.5189C91.8027 34.3628 91.3401 34.1678 90.9166 33.9337C90.5042 33.6996 90.1698 33.3875 89.9134 32.9974C89.6571 32.5962 89.5289 32.0834 89.5289 31.4593C89.5289 30.8574 89.6849 30.3056 89.997 29.8041C90.3203 29.2913 90.8107 28.8845 91.4683 28.5836C92.1371 28.2715 92.9842 28.1154 94.0096 28.1154C94.6896 28.1154 95.3639 28.2046 96.0327 28.3829C96.7014 28.5613 97.281 28.8176 97.7715 29.152L97.2197 30.4895C96.7182 30.1552 96.1887 29.9155 95.6314 29.7706C95.0741 29.6146 94.5335 29.5365 94.0096 29.5365C93.352 29.5365 92.8114 29.6201 92.3879 29.7873C91.9643 29.9545 91.6522 30.1775 91.4516 30.4561C91.2621 30.7348 91.1674 31.0469 91.1674 31.3924C91.1674 31.8048 91.2955 32.1336 91.5519 32.3788C91.8194 32.624 92.1594 32.8191 92.5718 32.964C92.9953 33.1089 93.4579 33.2426 93.9595 33.3653C94.4611 33.4767 94.9626 33.6049 95.4642 33.7498C95.9769 33.8947 96.4395 34.0842 96.8519 34.3183C97.2755 34.5523 97.6154 34.8644 97.8718 35.2545C98.1281 35.6446 98.2563 36.1462 98.2563 36.7593C98.2563 37.35 98.0947 37.9017 97.7715 38.4145C97.4482 38.916 96.9467 39.3229 96.2667 39.635C95.598 39.9359 94.7509 40.0864 93.7254 40.0864ZM98.9267 39.9526L104.227 28.2492H105.882L111.199 39.9526H109.443L104.712 29.1854H105.38L100.649 39.9526H98.9267ZM101.184 37.0268L101.635 35.6892H108.223L108.707 37.0268H101.184Z" fill="#142032"/>
<circle cx="135.662" cy="33.9527" r="13.3754" fill="#480095"/>
</g>
<defs>
<filter id="filter0_d_1306_2088" x="0" y="0" width="178.99" height="83.9054" filterUnits="userSpaceOnUse" color-interpolation-filters="sRGB">
<feFlood flood-opacity="0" result="BackgroundImageFix"/>
<feColorMatrix in="SourceAlpha" type="matrix" values="0 0 0 0 0 0 0 0 0 0 0 0 0 0 0 0 0 0 127 0" result="hardAlpha"/>
<feOffset dx="3" dy="8"/>
<feGaussianBlur stdDeviation="8"/>
<feColorMatrix type="matrix" values="0 0 0 0 0.282353 0 0 0 0 0 0 0 0 0 0.584314 0 0 0 0.15 0"/>
<feBlend mode="normal" in2="BackgroundImageFix" result="effect1_dropShadow_1306_2088"/>
<feBlend mode="normal" in="SourceGraphic" in2="effect1_dropShadow_1306_2088" result="shape"/>
</filter>
</defs>
</svg>
