<svg width="107" height="48" viewBox="0 0 107 48" fill="none" xmlns="http://www.w3.org/2000/svg">
<path d="M91 8C91 12.4183 94.5817 16 99 16C103.418 16 107 12.4183 107 8C107 3.58172 103.418 0 99 0C94.5817 0 91 3.58172 91 8ZM0 40C0 44.4183 3.58172 48 8 48C12.4183 48 16 44.4183 16 40C16 35.5817 12.4183 32 8 32C3.58172 32 0 35.5817 0 40ZM8 41.5H10.6667V38.5H8V41.5ZM16 41.5H21.3333V38.5H16V41.5ZM26.6667 41.5H32V38.5H26.6667V41.5ZM37.3333 41.5H40V38.5H37.3333V41.5ZM40 41.5C41.1668 41.5 42.3084 41.3856 43.4137 41.1669L42.8315 38.224C41.9169 38.4049 40.9703 38.5 40 38.5V41.5ZM49.7243 38.5515C51.6321 37.2743 53.2743 35.6321 54.5515 33.7243L52.0586 32.0554C50.9995 33.6373 49.6373 34.9995 48.0554 36.0586L49.7243 38.5515ZM57.1669 27.4137C57.3856 26.3084 57.5 25.1668 57.5 24H54.5C54.5 24.9703 54.4049 25.9169 54.224 26.8315L57.1669 27.4137ZM57.5 24C57.5 23.0297 57.5951 22.0831 57.776 21.1685L54.8331 20.5863C54.6144 21.6916 54.5 22.8332 54.5 24H57.5ZM59.9414 15.9446C61.0005 14.3627 62.3627 13.0005 63.9446 11.9414L62.2757 9.4485C60.3679 10.7257 58.7257 12.3679 57.4485 14.2757L59.9414 15.9446ZM69.1685 9.77603C70.0831 9.5951 71.0297 9.5 72 9.5V6.5C70.8332 6.5 69.6916 6.6144 68.5863 6.83306L69.1685 9.77603ZM72 9.5H75.375V6.5H72V9.5ZM82.125 9.5H88.875V6.5H82.125V9.5ZM95.625 9.5H99V6.5H95.625V9.5Z" fill="#FA2080"/>
</svg>
