<svg width="57" height="53" viewBox="0 0 57 53" fill="none" xmlns="http://www.w3.org/2000/svg">
<path d="M0 45C0 49.4183 3.58172 53 8 53C12.4183 53 16 49.4183 16 45C16 40.5817 12.4183 37 8 37C3.58172 37 0 40.5817 0 45ZM41 8C41 12.4183 44.5817 16 49 16C53.4183 16 57 12.4183 57 8C57 3.58172 53.4183 0 49 0C44.5817 0 41 3.58172 41 8ZM8 46.5H12.25V43.5H8V46.5ZM20.75 46.5H25V43.5H20.75V46.5ZM25 46.5C26.1275 46.5 27.2386 46.4267 28.3286 46.2845L27.9406 43.3097C26.9788 43.4352 25.9974 43.5 25 43.5V46.5ZM34.7615 44.5645C36.8354 43.7044 38.7706 42.579 40.5248 41.231L38.6968 38.8522C37.1481 40.0424 35.4407 41.0351 33.6123 41.7933L34.7615 44.5645ZM45.231 36.5248C46.579 34.7706 47.7044 32.8354 48.5645 30.7615L45.7933 29.6123C45.0351 31.4407 44.0424 33.1481 42.8522 34.6968L45.231 36.5248ZM50.2845 24.3286C50.4267 23.2386 50.5 22.1275 50.5 21H47.5C47.5 21.9974 47.4352 22.9788 47.3097 23.9406L50.2845 24.3286ZM50.5 21V17.75H47.5V21H50.5ZM50.5 11.25V8H47.5V11.25H50.5Z" fill="#FA2080"/>
</svg>
