<svg width="65" height="28" viewBox="0 0 65 28" fill="none" xmlns="http://www.w3.org/2000/svg">
<path d="M0.960083 20C0.960083 24.4183 4.54181 28 8.96008 28C13.3784 28 16.9601 24.4183 16.9601 20C16.9601 15.5817 13.3784 12 8.96008 12C4.54181 12 0.960083 15.5817 0.960083 20ZM49.0001 8.5C49.0001 12.9183 52.5819 16.5 57.0001 16.5C61.4184 16.5 65.0001 12.9183 65.0001 8.5C65.0001 4.08172 61.4184 0.5 57.0001 0.5C52.5819 0.5 49.0001 4.08172 49.0001 8.5ZM8.96008 21.5H11.3714V18.5H8.96008V21.5ZM16.1939 21.5H21.0164V18.5H16.1939V21.5ZM25.839 21.5H28.2502V18.5H25.839V21.5ZM28.2502 21.5C29.2305 21.5 30.1689 21.3046 31.0258 20.9493L29.8767 18.1781C29.3776 18.385 28.8292 18.5 28.2502 18.5V21.5ZM34.9495 17.0256C35.3048 16.1687 35.5002 15.2303 35.5002 14.25H32.5002C32.5002 14.829 32.3853 15.3774 32.1783 15.8764L34.9495 17.0256ZM35.5002 14.25C35.5002 13.671 35.6152 13.1226 35.8221 12.6236L33.0509 11.4744C32.6956 12.3313 32.5002 13.2697 32.5002 14.25H35.5002ZM38.1238 10.3219C38.6228 10.115 39.1712 10 39.7502 10V7C38.7699 7 37.8315 7.19538 36.9746 7.55072L38.1238 10.3219ZM39.7502 10H44.0627V7H39.7502V10ZM52.6877 10H57.0001V7H52.6877V10Z" fill="#AD1AC7"/>
</svg>
