<svg width="25" height="100" viewBox="0 0 25 100" fill="none" xmlns="http://www.w3.org/2000/svg">
<path d="M0 92C0 96.4183 3.58172 100 8 100C12.4183 100 16 96.4183 16 92C16 87.5817 12.4183 84 8 84C3.58172 84 0 87.5817 0 92ZM9 8C9 12.4183 12.5817 16 17 16C21.4183 16 25 12.4183 25 8C25 3.58172 21.4183 0 17 0C12.5817 0 9 3.58172 9 8ZM9.5 92V88.875H6.5V92H9.5ZM9.5 82.625V76.375H6.5V82.625H9.5ZM9.5 70.125V63.875H6.5V70.125H9.5ZM9.5 57.625V54.5H6.5V57.625H9.5ZM9.5 54.5C9.5 54.0905 9.58123 53.7037 9.72705 53.352L6.95587 52.2029C6.66164 52.9124 6.5 53.6892 6.5 54.5H9.5ZM11.352 51.7271C11.7037 51.5812 12.0905 51.5 12.5 51.5V48.5C11.6892 48.5 10.9124 48.6616 10.2029 48.9559L11.352 51.7271ZM12.5 51.5C13.3108 51.5 14.0876 51.3384 14.7971 51.0441L13.648 48.2729C13.2963 48.4188 12.9095 48.5 12.5 48.5V51.5ZM18.0441 47.7971C18.3384 47.0876 18.5 46.3108 18.5 45.5H15.5C15.5 45.9095 15.4188 46.2963 15.2729 46.648L18.0441 47.7971ZM18.5 45.5V42.375H15.5V45.5H18.5ZM18.5 36.125V29.875H15.5V36.125H18.5ZM18.5 23.625V17.375H15.5V23.625H18.5ZM18.5 11.125V8H15.5V11.125H18.5Z" fill="#FA2080"/>
</svg>
