<svg width="45" height="28" viewBox="0 0 45 28" fill="none" xmlns="http://www.w3.org/2000/svg">
<path d="M29 19.5C29 23.9183 32.5817 27.5 37 27.5C41.4183 27.5 45 23.9183 45 19.5C45 15.0817 41.4183 11.5 37 11.5C32.5817 11.5 29 15.0817 29 19.5ZM0 8C0 12.4183 3.58172 16 8 16C12.4183 16 16 12.4183 16 8C16 3.58172 12.4183 0 8 0C3.58172 0 0 3.58172 0 8ZM8 9.5H10.1875V6.5H8V9.5ZM14.5625 9.5H16.75V6.5H14.5625V9.5ZM16.75 9.5C17.329 9.5 17.8774 9.61496 18.3764 9.8219L19.5256 7.05072C18.6687 6.69538 17.7303 6.5 16.75 6.5V9.5ZM20.6781 12.1236C20.885 12.6226 21 13.171 21 13.75H24C24 12.7697 23.8046 11.8313 23.4493 10.9744L20.6781 12.1236ZM21 13.75C21 14.7303 21.1954 15.6687 21.5507 16.5256L24.3219 15.3764C24.115 14.8774 24 14.329 24 13.75H21ZM25.4744 20.4493C26.3313 20.8046 27.2697 21 28.25 21V18C27.671 18 27.1226 17.885 26.6236 17.6781L25.4744 20.4493ZM28.25 21H30.4375V18H28.25V21ZM34.8125 21H37V18H34.8125V21Z" fill="#FF943F"/>
</svg>
