<svg width="51" height="39" viewBox="0 0 51 39" fill="none" xmlns="http://www.w3.org/2000/svg">
<path d="M34.6971 30.8619C34.6971 35.2801 38.2788 38.8619 42.6971 38.8619C47.1154 38.8619 50.6971 35.2801 50.6971 30.8619C50.6971 26.4436 47.1154 22.8619 42.6971 22.8619C38.2788 22.8619 34.6971 26.4436 34.6971 30.8619ZM0 8C0 12.4183 3.58172 16 8 16C12.4183 16 16 12.4183 16 8C16 3.58172 12.4183 0 8 0C3.58172 0 0 3.58172 0 8ZM8 9.5H9.47941V6.5H8V9.5ZM12.4382 9.5H13.9176V6.5H12.4382V9.5ZM13.9176 9.5C15.2669 9.5 16.5498 9.76827 17.7187 10.253L18.8678 7.4818C17.3411 6.84868 15.6682 6.5 13.9176 6.5V9.5ZM23.0956 15.6299C23.5803 16.7987 23.8486 18.0816 23.8486 19.4309H26.8486C26.8486 17.6804 26.4999 16.0075 25.8668 14.4807L23.0956 15.6299ZM23.8486 19.4309C23.8486 21.1815 24.1972 22.8544 24.8304 24.3811L27.6015 23.232C27.1168 22.0631 26.8486 20.7802 26.8486 19.4309H23.8486ZM31.8293 31.3801C33.356 32.0132 35.0289 32.3619 36.7795 32.3619V29.3619C35.4302 29.3619 34.1473 29.0936 32.9785 28.6089L31.8293 31.3801ZM36.7795 32.3619H38.2589V29.3619H36.7795V32.3619ZM41.2177 32.3619H42.6971V29.3619H41.2177V32.3619Z" fill="#AD1AC7"/>
</svg>
