<svg width="33" height="73" viewBox="0 0 33 73" fill="none" xmlns="http://www.w3.org/2000/svg">
<path d="M17 65C17 69.4183 20.5817 73 25 73C29.4182 73 33 69.4183 33 65C33 60.5817 29.4182 57 25 57C20.5817 57 17 60.5817 17 65ZM0.175781 8.8363C0.175781 13.2546 3.7575 16.8363 8.17578 16.8363C12.5941 16.8363 16.1758 13.2546 16.1758 8.8363C16.1758 4.41803 12.5941 0.836304 8.17578 0.836304C3.7575 0.836304 0.175781 4.41803 0.175781 8.8363ZM6.67578 8.8363V11.295H9.67578V8.8363H6.67578ZM6.67578 16.2125V21.1299H9.67578V16.2125H6.67578ZM6.67578 26.0473V28.5061H9.67578V26.0473H6.67578ZM6.67578 28.5061C6.67578 29.8473 6.943 31.1299 7.42851 32.3007L10.1997 31.1515C9.86258 30.3386 9.67578 29.4461 9.67578 28.5061H6.67578ZM12.7932 37.6654C13.964 38.1509 15.2466 38.4182 16.5879 38.4182V35.4182C15.6479 35.4182 14.7553 35.2313 13.9424 34.8942L12.7932 37.6654ZM16.5879 38.4182C17.5279 38.4182 18.4204 38.605 19.2333 38.9421L20.3825 36.1709C19.2117 35.6854 17.9291 35.4182 16.5879 35.4182V38.4182ZM22.9761 42.6848C23.3132 43.4977 23.5 44.3903 23.5 45.3302H26.5C26.5 43.989 26.2327 42.7064 25.7472 41.5356L22.9761 42.6848ZM23.5 45.3302V47.789H26.5V45.3302H23.5ZM23.5 52.7064V57.6238H26.5V52.7064H23.5ZM23.5 62.5413V65H26.5V62.5413H23.5Z" fill="#480095"/>
</svg>
