<svg width="87" height="34" viewBox="0 0 87 34" fill="none" xmlns="http://www.w3.org/2000/svg">
<path d="M71 26C71 30.4183 74.5817 34 79 34C83.4183 34 87 30.4183 87 26C87 21.5817 83.4183 18 79 18C74.5817 18 71 21.5817 71 26ZM0 8C0 12.4183 3.58172 16 8 16C12.4183 16 16 12.4183 16 8C16 3.58172 12.4183 0 8 0C3.58172 0 0 3.58172 0 8ZM8 9.5H11.3125V6.5H8V9.5ZM17.9375 9.5H24.5625V6.5H17.9375V9.5ZM31.1875 9.5H34.5V6.5H31.1875V9.5ZM34.5 9.5C35.5197 9.5 36.4883 9.70267 37.3705 10.0685L38.5197 7.29734C37.2796 6.78308 35.9209 6.5 34.5 6.5V9.5ZM41.4315 14.1295C41.7973 15.0117 42 15.9803 42 17H45C45 15.5791 44.7169 14.2204 44.2027 12.9803L41.4315 14.1295ZM42 17C42 18.4209 42.2831 19.7796 42.7973 21.0197L45.5685 19.8705C45.2027 18.9883 45 18.0197 45 17H42ZM48.4803 26.7027C49.7204 27.2169 51.0791 27.5 52.5 27.5V24.5C51.4803 24.5 50.5117 24.2973 49.6295 23.9315L48.4803 26.7027ZM52.5 27.5H55.8125V24.5H52.5V27.5ZM62.4375 27.5H69.0625V24.5H62.4375V27.5ZM75.6875 27.5H79V24.5H75.6875V27.5Z" fill="#FF943F"/>
</svg>
