<svg width="127" height="34" viewBox="0 0 127 34" fill="none" xmlns="http://www.w3.org/2000/svg">
<path d="M111 26C111 30.4183 114.582 34 119 34C123.418 34 127 30.4183 127 26C127 21.5817 123.418 18 119 18C114.582 18 111 21.5817 111 26ZM0 8C0 12.4183 3.58172 16 8 16C12.4183 16 16 12.4183 16 8C16 3.58172 12.4183 0 8 0C3.58172 0 0 3.58172 0 8ZM8 9.5H10.9063V6.5H8V9.5ZM16.7188 9.5H22.5313V6.5H16.7188V9.5ZM28.3438 9.5H34.1563V6.5H28.3438V9.5ZM39.9688 9.5H45.7813V6.5H39.9688V9.5ZM51.5938 9.5H54.5V6.5H51.5938V9.5ZM54.5 9.5C55.5197 9.5 56.4883 9.70267 57.3705 10.0685L58.5197 7.29734C57.2796 6.78308 55.9209 6.5 54.5 6.5V9.5ZM61.4315 14.1295C61.7973 15.0117 62 15.9803 62 17H65C65 15.5791 64.7169 14.2204 64.2027 12.9803L61.4315 14.1295ZM62 17C62 18.4209 62.2831 19.7796 62.7973 21.0197L65.5685 19.8705C65.2027 18.9883 65 18.0197 65 17H62ZM68.4803 26.7027C69.7204 27.2169 71.0791 27.5 72.5 27.5V24.5C71.4803 24.5 70.5117 24.2973 69.6295 23.9315L68.4803 26.7027ZM72.5 27.5H75.4063V24.5H72.5V27.5ZM81.2188 27.5H87.0313V24.5H81.2188V27.5ZM92.8438 27.5H98.6563V24.5H92.8438V27.5ZM104.469 27.5H110.281V24.5H104.469V27.5ZM116.094 27.5H119V24.5H116.094V27.5Z" fill="#FF943F"/>
</svg>
