<svg width="50" height="63" viewBox="0 0 50 63" fill="none" xmlns="http://www.w3.org/2000/svg">
<path d="M0.839966 55C0.839966 59.4183 4.42169 63 8.83997 63C13.2582 63 16.84 59.4183 16.84 55C16.84 50.5817 13.2582 47 8.83997 47C4.42169 47 0.839966 50.5817 0.839966 55ZM33.5 8C33.5 12.4183 37.0817 16 41.5 16C45.9182 16 49.5 12.4183 49.5 8C49.5 3.58172 45.9182 0 41.5 0C37.0817 0 33.5 3.58172 33.5 8ZM8.83997 56.5H11.005V53.5H8.83997V56.5ZM15.335 56.5H17.5V53.5H15.335V56.5ZM17.5 56.5C18.6274 56.5 19.7385 56.4267 20.8286 56.2845L20.4406 53.3097C19.4788 53.4352 18.4973 53.5 17.5 53.5V56.5ZM27.2614 54.5645C29.3353 53.7044 31.2705 52.579 33.0248 51.231L31.1968 48.8522C29.648 50.0423 27.9407 51.0351 26.1123 51.7933L27.2614 54.5645ZM37.7309 46.5248C39.079 44.7706 40.2044 42.8354 41.0644 40.7615L38.2932 39.6123C37.535 41.4407 36.5423 43.1481 35.3522 44.6968L37.7309 46.5248ZM42.7845 34.3286C42.9267 33.2386 43 32.1275 43 31H40C40 31.9974 39.9352 32.9788 39.8097 33.9406L42.7845 34.3286ZM43 31V28.125H40V31H43ZM43 22.375V16.625H40V22.375H43ZM43 10.875V8H40V10.875H43Z" fill="#FA2080"/>
</svg>
