<svg width="40" height="177" viewBox="0 0 40 177" fill="none" xmlns="http://www.w3.org/2000/svg">
<path d="M0 169C0 173.418 3.58172 177 8 177C12.4183 177 16 173.418 16 169C16 164.582 12.4183 161 8 161C3.58172 161 0 164.582 0 169ZM25 8C25 12.4183 28.5817 16 33 16C37.4183 16 41 12.4183 41 8C41 3.58172 37.4183 0 33 0C28.5817 0 25 3.58172 25 8ZM9.5 169V166.208H6.5V169H9.5ZM9.5 160.625V155.042H6.5V160.625H9.5ZM9.5 149.458V143.875H6.5V149.458H9.5ZM9.5 138.292V135.5H6.5V138.292H9.5ZM9.5 135.5C9.5 134.763 9.57218 134.045 9.70941 133.352L6.76644 132.769C6.59149 133.654 6.5 134.567 6.5 135.5H9.5ZM11.3519 129.389C12.1554 128.189 13.1891 127.155 14.3893 126.352L12.7203 123.859C11.1943 124.881 9.88066 126.194 8.85898 127.72L11.3519 129.389ZM18.3516 124.709C19.0452 124.572 19.7634 124.5 20.5 124.5V121.5C19.5669 121.5 18.6537 121.591 17.7694 121.766L18.3516 124.709ZM20.5 124.5C21.4331 124.5 22.3463 124.409 23.2306 124.234L22.6484 121.291C21.9548 121.428 21.2366 121.5 20.5 121.5V124.5ZM28.2797 122.141C29.8057 121.119 31.1193 119.806 32.141 118.28L29.6481 116.611C28.8446 117.811 27.8109 118.845 26.6107 119.648L28.2797 122.141ZM34.2336 113.231C34.4085 112.346 34.5 111.433 34.5 110.5H31.5C31.5 111.237 31.4278 111.955 31.2906 112.648L34.2336 113.231ZM34.5 110.5V107.653H31.5V110.5H34.5ZM34.5 101.958V96.2639H31.5V101.958H34.5ZM34.5 90.5694V84.875H31.5V90.5694H34.5ZM34.5 79.1806V73.4861H31.5V79.1806H34.5ZM34.5 67.7917V62.0972H31.5V67.7917H34.5ZM34.5 56.4028V50.7083H31.5V56.4028H34.5ZM34.5 45.0139V39.3195H31.5V45.0139H34.5ZM34.5 33.625V27.9306H31.5V33.625H34.5ZM34.5 22.2361V16.5417H31.5V22.2361H34.5ZM34.5 10.8472V8H31.5V10.8472H34.5Z" fill="#FA2080"/>
</svg>
