<svg width="43" height="44" viewBox="0 0 43 44" fill="none" xmlns="http://www.w3.org/2000/svg">
<path d="M0 36C0 40.4183 3.58172 44 8 44C12.4183 44 16 40.4183 16 36C16 31.5817 12.4183 28 8 28C3.58172 28 0 31.5817 0 36ZM27 8C27 12.4183 30.5817 16 35 16C39.4183 16 43 12.4183 43 8C43 3.58172 39.4183 0 35 0C30.5817 0 27 3.58172 27 8ZM9.5 36V35H6.5V36H9.5ZM9.5 33V32H6.5V33H9.5ZM9.5 32C9.5 31.0026 9.5648 30.0212 9.69025 29.0594L6.71546 28.6714C6.57326 29.7614 6.5 30.8725 6.5 32H9.5ZM11.2067 23.3877C11.9649 21.5593 12.9577 19.8519 14.1478 18.3032L11.769 16.4752C10.421 18.2294 9.29556 20.1646 8.43554 22.2385L11.2067 23.3877ZM18.3032 14.1478C19.8519 12.9576 21.5593 11.9649 23.3877 11.2067L22.2385 8.43554C20.1646 9.29556 18.2294 10.421 16.4752 11.769L18.3032 14.1478ZM29.0594 9.69025C30.0212 9.5648 31.0026 9.5 32 9.5V6.5C30.8725 6.5 29.7614 6.57326 28.6714 6.71546L29.0594 9.69025ZM32 9.5H32.75V6.5H32V9.5ZM34.25 9.5H35V6.5H34.25V9.5Z" fill="#FA2080"/>
</svg>
