<svg width="50" height="59" viewBox="0 0 50 59" fill="none" xmlns="http://www.w3.org/2000/svg">
<path d="M34 51C34 55.4183 37.5817 59 42 59C46.4183 59 50 55.4183 50 51C50 46.5817 46.4183 43 42 43C37.5817 43 34 46.5817 34 51ZM0 8C0 12.4183 3.58172 16 8 16C12.4183 16 16 12.4183 16 8C16 3.58172 12.4183 0 8 0C3.58172 0 0 3.58172 0 8ZM6.5 8V10.375H9.5V8H6.5ZM6.5 15.125V19.875H9.5V15.125H6.5ZM6.5 24.625V27H9.5V24.625H6.5ZM6.5 27C6.5 28.1275 6.57326 29.2386 6.71546 30.3286L9.69025 29.9406C9.5648 28.9788 9.5 27.9974 9.5 27H6.5ZM8.43554 36.7615C9.29556 38.8354 10.421 40.7706 11.769 42.5248L14.1478 40.6968C12.9576 39.1481 11.9649 37.4407 11.2067 35.6123L8.43554 36.7615ZM16.4752 47.231C18.2294 48.579 20.1646 49.7044 22.2385 50.5645L23.3877 47.7933C21.5593 47.0351 19.8519 46.0424 18.3032 44.8522L16.4752 47.231ZM28.6714 52.2845C29.7614 52.4267 30.8725 52.5 32 52.5V49.5C31.0026 49.5 30.0212 49.4352 29.0594 49.3097L28.6714 52.2845ZM32 52.5H34.5V49.5H32V52.5ZM39.5 52.5H42V49.5H39.5V52.5Z" fill="#FA2080"/>
</svg>
