<svg width="82" height="72" viewBox="0 0 82 72" fill="none" xmlns="http://www.w3.org/2000/svg">
<g filter="url(#filter0_d_40_10293)">
<rect x="13" y="8" width="50" height="40" rx="8" fill="white"/>
<rect x="21" y="16" width="34" height="24" rx="4" fill="white"/>
<path fill-rule="evenodd" clip-rule="evenodd" d="M29.4365 21.5291C29.7293 21.3933 30.0083 21.2218 30.2302 20.9859C30.365 20.8423 30.4771 20.6452 30.6136 20.5207C30.8337 20.3212 31.0501 20.3599 31.337 20.3539C31.0668 20.1478 30.7699 20.0263 30.4473 20.1311C30.2451 20.1967 30.0531 20.3402 29.8593 20.4343C29.5879 20.566 29.316 20.6225 29.0208 20.6327L30.3644 18.6569L28.3982 19.9936C28.5109 19.688 28.5885 19.3663 28.5783 19.0393C28.5724 18.8428 28.5115 18.6242 28.5205 18.4395C28.5348 18.1429 28.7841 17.9452 28.9141 17.7831C28.6898 17.8499 28.2843 17.9737 28.1275 18.2817C28.0321 18.4687 27.9975 18.7016 27.9289 18.9029C27.8347 19.1787 27.691 19.4045 27.5001 19.6147L27.0517 17.2L26.5949 19.6606C26.456 19.3538 26.28 19.0608 26.0331 18.8291C25.8894 18.6945 25.692 18.5825 25.5674 18.4461C25.3676 18.2263 25.4064 17.941 25.401 17.6551C25.2448 17.9368 25.0707 18.2835 25.178 18.6123C25.2424 18.8094 25.3808 18.9965 25.4738 19.1847C25.6002 19.4396 25.6598 19.6928 25.6765 19.9691L23.6776 18.5974L25.1148 20.6869C24.7868 20.5594 24.4391 20.4677 24.0849 20.479C23.8881 20.485 23.6693 20.5457 23.4844 20.5368C23.1874 20.5225 23.0336 20.3557 22.8272 20.1574C22.9495 20.5219 23.0181 20.7721 23.3264 20.9293C23.5106 21.0228 23.7402 21.0574 23.9388 21.1241C24.2078 21.2146 24.429 21.3504 24.6365 21.5333L22.3215 21.9675L24.7785 22.4285C24.4463 22.5721 24.1249 22.7555 23.8756 23.0206C23.7408 23.1641 23.6287 23.3613 23.4921 23.4858C23.3484 23.6162 23.1636 23.6412 22.9757 23.6448L22.7575 23.6716C23.0503 23.8444 23.3288 23.9819 23.6579 23.8747C23.8559 23.8104 24.0444 23.671 24.2334 23.5781C24.4916 23.4506 24.7486 23.3917 25.0295 23.3762L23.6621 25.371L25.7386 23.9301C25.6092 24.2601 25.5161 24.6103 25.5269 24.9671C25.5328 25.1637 25.5936 25.3823 25.5847 25.5669C25.5704 25.8636 25.3718 26.0143 25.1732 26.2209C25.5465 26.1352 25.8209 26.0333 25.9777 25.7248C26.0737 25.5372 26.1077 25.3019 26.1775 25.1C26.2735 24.8212 26.4202 24.5925 26.6152 24.3804L27.0529 26.7457L27.5007 24.325C27.6409 24.6389 27.8198 24.9403 28.072 25.1774C28.2157 25.312 28.4131 25.424 28.5378 25.5604C28.7375 25.7802 28.6797 26.0899 28.6857 26.3764C28.886 26.078 29.0345 25.723 28.9278 25.3942C28.8616 25.1917 28.7173 24.9987 28.623 24.8045C28.4913 24.5323 28.4352 24.2595 28.4257 23.9647L30.4049 25.3227L29.0524 23.3434C29.3625 23.459 29.6893 23.5382 30.0215 23.5281C30.2183 23.5221 30.4371 23.4614 30.622 23.4703C30.919 23.4846 31.0752 23.6954 31.2821 23.8938C31.2183 23.571 31.0889 23.2344 30.7806 23.0772C30.5898 22.9801 30.3506 22.9455 30.1455 22.8747C29.8569 22.774 29.6219 22.6179 29.4043 22.413L31.7538 21.9681L29.4376 21.5291H29.4365Z" fill="#231F20"/>
<path d="M23.9627 23.3732C24.3092 23.1165 24.7564 22.7853 25.5388 22.5756L24.8697 22.4547C23.4105 23.0587 23.9072 23.6859 22.9775 23.7044C23.3658 23.8151 23.6114 23.6335 23.9633 23.3732H23.9627Z" fill="#DDE23D"/>
<path d="M23.9889 23.4083C23.6472 23.6615 23.4027 23.8426 23.0336 23.7639C23.8529 24.1076 23.8929 23.3619 25.0713 23.3154L25.5495 22.6185C24.7761 22.8258 24.3318 23.154 23.9889 23.4083Z" fill="#DDE23D"/>
<path d="M25.8369 25.1548C25.9001 24.7295 25.9818 24.1803 26.385 23.4816L25.8268 23.8688C25.2251 25.3227 26.0188 25.4163 25.3748 26.0852C25.7278 25.8892 25.7725 25.5872 25.8369 25.1548Z" fill="#DDE23D"/>
<path d="M26.4572 20.4087L26.5765 19.7648C25.9795 18.3776 25.3677 18.8482 25.3498 17.9321C25.2389 18.3198 25.4208 18.5652 25.6814 18.9167C25.9288 19.2502 26.2467 19.6779 26.4566 20.4087H26.4572Z" fill="#DDE23D"/>
<path d="M25.8806 25.1613C25.8179 25.5818 25.7732 25.882 25.4572 26.0875C26.2873 25.7492 25.7708 25.1863 26.6015 24.3083L26.4453 23.4655C26.0273 24.1749 25.9444 24.7324 25.8806 25.1619V25.1613Z" fill="#DDE23D"/>
<path d="M26.4338 20.4885C26.2263 19.7243 25.8995 19.2841 25.6467 18.9428C25.3932 18.6015 25.2119 18.3573 25.2907 17.9886C24.9478 18.804 25.6878 18.8463 25.7391 20.0114L26.4338 20.4879V20.4885Z" fill="#DDE23D"/>
<path d="M24.7098 21.5201L25.5346 21.3653C24.85 20.9751 24.3103 20.8947 23.8917 20.8328C23.4706 20.7702 23.1701 20.7256 22.9644 20.4099C23.2983 21.2277 23.8511 20.7369 24.7098 21.5201Z" fill="#DDE23D"/>
<path d="M23.8983 20.7893C24.3205 20.8519 24.8649 20.9329 25.5555 21.3266L25.1768 20.7756C23.7295 20.1818 23.6353 20.9698 22.9668 20.3277C23.163 20.6803 23.4653 20.725 23.8983 20.7893Z" fill="#DDE23D"/>
<path d="M30.1438 20.6339C29.8188 20.8745 29.4043 21.1812 28.7084 21.3909L29.3351 21.5094C30.6739 20.9192 30.2213 20.32 31.1295 20.3021C30.7413 20.1913 30.4956 20.373 30.1438 20.6333V20.6339Z" fill="#DDE23D"/>
<path d="M28.6129 21.3731C29.3518 21.1652 29.7823 20.8465 30.1169 20.5987C30.4586 20.3456 30.7031 20.1645 31.0722 20.2431C30.2409 19.8941 30.2123 20.6684 28.9802 20.6934L28.5288 21.3576L28.6129 21.3737V21.3731Z" fill="#DDE23D"/>
<path d="M27.6642 23.4423L27.6588 23.4697C27.8657 24.2643 28.2009 24.7164 28.4591 25.0642C28.7125 25.4055 28.8938 25.6497 28.8151 26.0184C29.1652 25.1863 28.3875 25.1589 28.3643 23.923L27.6636 23.4423H27.6642Z" fill="#DDE23D"/>
<path d="M29.3315 22.4267L28.5288 22.5786L28.5729 22.6429C29.2563 23.0325 29.796 23.1123 30.2141 23.1742C30.6351 23.2368 30.9356 23.2815 31.1414 23.5971C30.7991 22.7591 30.2272 23.2946 29.3315 22.4261V22.4267Z" fill="#DDE23D"/>
<path d="M30.2081 23.2177C29.802 23.1576 29.2826 23.0807 28.6284 22.7239L28.9928 23.257C30.3799 23.8026 30.4812 23.0474 31.1396 23.6793C30.9434 23.3267 30.6417 23.2821 30.2081 23.2177Z" fill="#DDE23D"/>
<path d="M28.2689 18.8523C28.2093 19.2544 28.1329 19.7672 27.7847 20.4123L28.3136 20.0525C28.8491 18.6808 28.1001 18.5777 28.7311 17.9219C28.378 18.1179 28.3333 18.4193 28.2689 18.8523Z" fill="#DDE23D"/>
<path d="M27.6408 23.5698L27.5204 24.2208C28.1203 25.6342 28.7381 25.1542 28.756 26.075C28.8669 25.6873 28.685 25.4419 28.4244 25.0904C28.1734 24.7527 27.8508 24.3179 27.6408 23.5698Z" fill="#DDE23D"/>
<path d="M27.704 20.4665C28.0845 19.7928 28.1638 19.2597 28.2252 18.8457C28.2879 18.4252 28.3326 18.125 28.6486 17.9195C27.8221 18.2561 28.3302 18.816 27.5144 19.6874L27.6641 20.4933L27.7034 20.4665H27.704Z" fill="#DDE23D"/>
<path d="M31.3519 21.9407L28.4108 21.4064L30.1121 18.9512L27.7703 21.2902L27.7375 21.2843L27.7315 21.2509L30.0728 18.9125L27.6153 20.6118L27.0803 17.6741V20.9817L27.0529 21.0008L27.0255 20.9817V17.6741L26.4906 20.6118L24.0325 18.9125L26.3743 21.2509L26.3683 21.2843L26.3349 21.2902L23.9937 18.9512L25.6951 21.4064L22.7539 21.9407H26.0654L26.0845 21.9681L26.0654 21.9955H22.7539L25.6951 22.5298L23.9937 24.985L26.3349 22.6459L26.3683 22.6519L26.3743 22.6846L24.0325 25.0237L26.4906 23.3244L27.0255 26.262V22.9545L27.0529 22.9354L27.0803 22.9545V26.262L27.6153 23.3244L30.0728 25.0237L27.7315 22.6846L27.7375 22.6519L27.7703 22.6459L30.1121 24.985L28.4108 22.5298L31.3519 21.9955H28.0405L28.0214 21.9681L28.0405 21.9407H31.3519Z" fill="#DDE23D"/>
<path d="M27.0529 20.4861C26.2335 20.4861 25.5692 21.1497 25.5692 21.9681C25.5692 22.7865 26.2335 23.45 27.0529 23.45C27.8723 23.45 28.5366 22.7865 28.5366 21.9681C28.5366 21.1497 27.8723 20.4861 27.0529 20.4861Z" fill="#FCCA37"/>
<path fill-rule="evenodd" clip-rule="evenodd" d="M27.0529 20.4153C26.1942 20.4153 25.4983 21.1104 25.4983 21.9681C25.4983 22.8258 26.1942 23.5209 27.0529 23.5209C27.9117 23.5209 28.6076 22.8258 28.6076 21.9681C28.6076 21.1104 27.9117 20.4153 27.0529 20.4153Z" fill="#231F20"/>
<path d="M27.0529 20.4861C26.2335 20.4861 25.5692 21.1497 25.5692 21.9681C25.5692 22.7865 26.2335 23.45 27.0529 23.45C27.8723 23.45 28.5366 22.7865 28.5366 21.9681C28.5366 21.1497 27.8723 20.4861 27.0529 20.4861Z" fill="#DDE23D"/>
<path d="M27.5139 21.488C27.4328 21.5958 27.608 21.7572 27.7027 21.7572C27.7974 21.7572 27.8778 21.5821 27.7837 21.5011L27.5144 21.4874L27.5139 21.488Z" fill="#231F20"/>
<path d="M27.2443 21.4612C27.2979 21.5017 27.3522 21.2998 27.6891 21.2998C28.0261 21.2998 28.0803 21.4886 28.1746 21.3808C28.0529 21.2593 27.7428 21.1521 27.6349 21.1652C27.5269 21.1789 27.19 21.4213 27.2437 21.4612H27.2443Z" fill="#231F20"/>
<path d="M27.7018 21.4344C27.4862 21.4344 27.3516 21.4612 27.3379 21.6232V21.6369C27.4368 21.5472 27.5581 21.5023 27.7018 21.5023C27.7703 21.5023 27.8257 21.516 27.8716 21.5345C27.8966 21.575 27.918 21.6339 27.8877 21.6893C27.8221 21.7245 27.7513 21.7441 27.6476 21.7441C27.4993 21.7441 27.432 21.5827 27.3784 21.6631C27.3379 21.7167 27.5398 21.7977 27.6881 21.7977C27.8364 21.7977 28.0652 21.569 27.9711 21.6363C27.9532 21.6494 27.9353 21.6613 27.9174 21.672C27.9413 21.6292 27.9311 21.5857 27.9085 21.5511C27.9853 21.5898 28.036 21.6363 28.092 21.6363C28.011 21.5958 27.9169 21.4344 27.7012 21.4344H27.7018Z" fill="#231F20"/>
<path d="M27.7161 22.525C27.8239 22.6733 27.8102 22.6465 27.8644 22.7406C27.8507 22.6465 27.8239 22.606 27.7161 22.525Z" fill="#231F20"/>
<path d="M26.3807 21.5017C26.2866 21.5827 26.367 21.7578 26.4617 21.7578C26.5565 21.7578 26.731 21.5964 26.6506 21.4886L26.3813 21.5023L26.3807 21.5017Z" fill="#231F20"/>
<path d="M26.5293 21.1646C26.4214 21.1509 26.1113 21.2587 25.9896 21.3802C26.0838 21.488 26.1381 21.2992 26.475 21.2992C26.812 21.2992 26.8662 21.5011 26.9199 21.4606C26.9736 21.4201 26.6367 21.1777 26.5287 21.1646H26.5293Z" fill="#231F20"/>
<path d="M26.5151 21.7441C26.3668 21.7441 26.2858 21.7036 26.1917 21.6363C26.0976 21.569 26.3263 21.7977 26.4746 21.7977C26.623 21.7977 26.8249 21.7167 26.7844 21.6631C26.7308 21.5821 26.6629 21.7441 26.5151 21.7441Z" fill="#231F20"/>
<path d="M26.4614 21.4344C26.2458 21.4344 26.1517 21.5958 26.0707 21.6363C26.1648 21.6363 26.2458 21.5017 26.4614 21.5017C26.677 21.5017 26.677 21.5017 26.8254 21.6363V21.6226C26.8117 21.4612 26.677 21.4338 26.4614 21.4338V21.4344Z" fill="#231F20"/>
<path d="M26.3271 21.488C26.2598 21.5148 26.152 21.6494 26.3271 21.7441C26.1925 21.65 26.3003 21.5148 26.3271 21.488Z" fill="#231F20"/>
<path d="M26.8531 22.31C26.961 22.31 26.9878 22.3773 27.0821 22.3773C27.1763 22.3773 27.2037 22.31 27.311 22.31C27.4184 22.31 27.5675 22.3505 27.6349 22.4041C27.6486 22.4178 27.5943 22.2963 27.4864 22.2826C27.3784 22.2689 27.419 22.0938 27.2973 22.067C27.2973 22.1206 27.3379 22.1075 27.351 22.1885C27.351 22.2558 27.2293 22.2558 27.2025 22.1885C27.2413 22.3433 26.921 22.3433 26.9598 22.1885C26.933 22.2558 26.8113 22.2558 26.8113 22.1885C26.825 22.1075 26.865 22.1212 26.865 22.067C26.7433 22.0938 26.7839 22.2689 26.6759 22.2826C26.568 22.2963 26.5143 22.4172 26.5275 22.4041C26.5948 22.3505 26.7433 22.31 26.8513 22.31H26.8531Z" fill="#231F20"/>
<path d="M26.2997 22.7406C26.3533 22.6465 26.3402 22.6733 26.448 22.525C26.3402 22.606 26.3134 22.6465 26.2997 22.7406Z" fill="#231F20"/>
<path d="M27.298 22.525C27.1901 22.525 27.1632 22.5518 27.0821 22.5518C27.001 22.5518 26.9742 22.525 26.8663 22.525C26.7583 22.525 26.5484 22.6834 26.4005 22.6298C26.7106 22.7513 26.543 22.6596 27.0821 22.6596C27.6212 22.6596 27.4536 22.7507 27.7637 22.6298C27.6153 22.6834 27.4059 22.525 27.298 22.525Z" fill="#231F20"/>
<path d="M26.4113 22.6715C26.8561 22.8604 26.7446 22.8758 27.0821 22.8758C27.4197 22.8758 27.3076 22.8604 27.753 22.6715C27.4292 22.712 27.4197 22.768 27.0821 22.768C26.7446 22.768 26.7351 22.712 26.4113 22.6715Z" fill="#231F20"/>
<path d="M27.7161 22.525C27.8239 22.6733 27.8102 22.6465 27.8644 22.7406C27.8507 22.6465 27.8239 22.606 27.7161 22.525Z" fill="#231F20"/>
<path d="M27.082 23.0373C27.3244 23.0373 27.1493 22.9968 27.082 22.9968C27.0146 22.9968 26.8395 23.0373 27.082 23.0373Z" fill="#231F20"/>
<mask id="mask0_40_10293" style="mask-type:alpha" maskUnits="userSpaceOnUse" x="21" y="16" width="34" height="24">
<rect x="21" y="16" width="34" height="24" rx="4" fill="white"/>
</mask>
<g mask="url(#mask0_40_10293)">
<rect x="33.0142" y="18.28" width="21.9859" height="3.12" fill="#0038A8"/>
<rect x="33.0142" y="23.68" width="21.9859" height="3.12" fill="#0038A8"/>
<rect x="21" y="29.08" width="34" height="3.12" fill="#0038A8"/>
<rect x="21" y="34.48" width="34" height="3.12" fill="#0038A8"/>
</g>
</g>
<defs>
<filter id="filter0_d_40_10293" x="0" y="0" width="82" height="72" filterUnits="userSpaceOnUse" color-interpolation-filters="sRGB">
<feFlood flood-opacity="0" result="BackgroundImageFix"/>
<feColorMatrix in="SourceAlpha" type="matrix" values="0 0 0 0 0 0 0 0 0 0 0 0 0 0 0 0 0 0 127 0" result="hardAlpha"/>
<feOffset dx="3" dy="8"/>
<feGaussianBlur stdDeviation="8"/>
<feColorMatrix type="matrix" values="0 0 0 0 0.282353 0 0 0 0 0 0 0 0 0 0.584314 0 0 0 0.15 0"/>
<feBlend mode="normal" in2="BackgroundImageFix" result="effect1_dropShadow_40_10293"/>
<feBlend mode="normal" in="SourceGraphic" in2="effect1_dropShadow_40_10293" result="shape"/>
</filter>
</defs>
</svg>
