<svg width="81" height="29" viewBox="0 0 81 29" fill="none" xmlns="http://www.w3.org/2000/svg">
<path d="M65 8C65 12.4183 68.5817 16 73 16C77.4183 16 81 12.4183 81 8C81 3.58172 77.4183 0 73 0C68.5817 0 65 3.58172 65 8ZM3.5 29C3.5 28.1354 3.55617 27.2847 3.6649 26.4512L0.690099 26.0632C0.564634 27.025 0.5 28.0053 0.5 29H3.5ZM4.97908 21.536C5.63614 19.9515 6.49649 18.4718 7.52799 17.1295L5.14923 15.3015C3.95982 16.8493 2.96678 18.5569 2.2079 20.3869L4.97908 21.536ZM11.1295 13.528C12.4718 12.4965 13.9516 11.6361 15.536 10.9791L14.3869 8.2079C12.5569 8.96678 10.8493 9.95982 9.30154 11.1492L11.1295 13.528ZM20.4512 9.6649C21.2847 9.55617 22.1354 9.5 23 9.5V6.5C22.0053 6.5 21.025 6.56463 20.0632 6.6901L20.4512 9.6649ZM23 9.5H26.125V6.5H23V9.5ZM32.375 9.5H38.625V6.5H32.375V9.5ZM44.875 9.5H51.125V6.5H44.875V9.5ZM57.375 9.5H63.625V6.5H57.375V9.5ZM69.875 9.5H73V6.5H69.875V9.5Z" fill="#480095"/>
</svg>
