<svg width="106" height="75" viewBox="0 0 106 75" fill="none" xmlns="http://www.w3.org/2000/svg">
<path d="M0 34C0 38.4183 3.58172 42 8 42C12.4183 42 16 38.4183 16 34C16 29.5817 12.4183 26 8 26C3.58172 26 0 29.5817 0 34ZM90 67C90 71.4183 93.5817 75 98 75C102.418 75 106 71.4183 106 67C106 62.5817 102.418 59 98 59C93.5817 59 90 62.5817 90 67ZM9.5 34V31.9375H6.5V34H9.5ZM9.5 27.8125V25.75H6.5V27.8125H9.5ZM9.5 25.75C9.5 24.7637 9.56408 23.7931 9.68814 22.842L6.71334 22.454C6.57254 23.5334 6.5 24.6336 6.5 25.75H9.5ZM11.1878 17.2334C11.9375 15.4253 12.9192 13.7369 14.0961 12.2054L11.7174 10.3774C10.3826 12.1144 9.26816 14.0306 8.41657 16.0842L11.1878 17.2334ZM18.2054 8.09614C19.7369 6.91922 21.4253 5.93752 23.2334 5.18775L22.0842 2.41657C20.0306 3.26816 18.1144 4.38255 16.3774 5.71738L18.2054 8.09614ZM28.842 3.68814C29.7931 3.56408 30.7637 3.5 31.75 3.5V0.5C30.6336 0.5 29.5334 0.572544 28.454 0.713343L28.842 3.68814ZM31.75 3.5C32.7363 3.5 33.7069 3.56408 34.658 3.68814L35.046 0.713342C33.9666 0.572544 32.8664 0.5 31.75 0.5V3.5ZM40.2666 5.18775C42.0747 5.93752 43.7631 6.91922 45.2946 8.09614L47.1226 5.71738C45.3856 4.38255 43.4694 3.26816 41.4158 2.41657L40.2666 5.18775ZM49.4039 12.2054C50.5808 13.7369 51.5625 15.4253 52.3122 17.2334L55.0834 16.0842C54.2318 14.0306 53.1174 12.1144 51.7826 10.3774L49.4039 12.2054ZM53.8119 22.842C53.9359 23.7931 54 24.7637 54 25.75H57C57 24.6336 56.9275 23.5334 56.7867 22.454L53.8119 22.842ZM54 25.75V30.0625H57V25.75H54ZM54 38.6875V43H57V38.6875H54ZM54 43C54 44.1275 54.0733 45.2386 54.2155 46.3286L57.1903 45.9406C57.0648 44.9788 57 43.9974 57 43H54ZM55.9355 52.7615C56.7956 54.8354 57.921 56.7706 59.269 58.5248L61.6478 56.6968C60.4577 55.1481 59.4649 53.4407 58.7067 51.6123L55.9355 52.7615ZM63.9752 63.231C65.7294 64.579 67.6646 65.7044 69.7385 66.5645L70.8877 63.7933C69.0593 63.0351 67.3519 62.0424 65.8032 60.8522L63.9752 63.231ZM76.1714 68.2845C77.2615 68.4267 78.3725 68.5 79.5 68.5V65.5C78.5026 65.5 77.5212 65.4352 76.5594 65.3097L76.1714 68.2845ZM79.5 68.5H81.8125V65.5H79.5V68.5ZM86.4375 68.5H91.0625V65.5H86.4375V68.5ZM95.6875 68.5H98V65.5H95.6875V68.5Z" fill="#480095"/>
</svg>
