<svg width="82" height="72" viewBox="0 0 82 72" fill="none" xmlns="http://www.w3.org/2000/svg">
<g filter="url(#filter0_d_40_8540)">
<rect x="13" y="8" width="49.96" height="40" rx="8" fill="white"/>
<rect x="21" y="16" width="33.96" height="24" rx="4" fill="#B22234"/>
<path d="M21 20C21 17.7909 22.7909 16 25 16H37.08V29.08H21V20Z" fill="#3C3B6E"/>
<path fill-rule="evenodd" clip-rule="evenodd" d="M22.8249 17.8252L22.98 17.32L23.1351 17.8252L23.64 17.8242L23.231 18.1355L23.3878 18.64L22.98 18.3272L22.5721 18.64L22.729 18.1355L22.32 17.8242L22.8249 17.8252Z" fill="white"/>
<path fill-rule="evenodd" clip-rule="evenodd" d="M22.8249 19.7452L22.98 19.24L23.1351 19.7452L23.64 19.7442L23.231 20.0555L23.3878 20.56L22.98 20.2472L22.5721 20.56L22.729 20.0555L22.32 19.7442L22.8249 19.7452Z" fill="white"/>
<path fill-rule="evenodd" clip-rule="evenodd" d="M22.8249 21.6652L22.98 21.16L23.1351 21.6652L23.64 21.6643L23.231 21.9755L23.3878 22.48L22.98 22.1672L22.5721 22.48L22.729 21.9755L22.32 21.6643L22.8249 21.6652Z" fill="white"/>
<path fill-rule="evenodd" clip-rule="evenodd" d="M22.8249 23.5852L22.98 23.08L23.1351 23.5852L23.64 23.5842L23.231 23.8955L23.3878 24.4L22.98 24.0872L22.5721 24.4L22.729 23.8955L22.32 23.5842L22.8249 23.5852Z" fill="white"/>
<path fill-rule="evenodd" clip-rule="evenodd" d="M22.8249 25.5052L22.98 25L23.1351 25.5052L23.64 25.5043L23.231 25.8155L23.3878 26.32L22.98 26.0072L22.5721 26.32L22.729 25.8155L22.32 25.5043L22.8249 25.5052Z" fill="white"/>
<path fill-rule="evenodd" clip-rule="evenodd" d="M22.8249 27.4252L22.98 26.92L23.1351 27.4252L23.64 27.4243L23.231 27.7355L23.3878 28.24L22.98 27.9272L22.5721 28.24L22.729 27.7355L22.32 27.4243L22.8249 27.4252Z" fill="white"/>
<path fill-rule="evenodd" clip-rule="evenodd" d="M25.3447 17.8252L25.4998 17.32L25.655 17.8252L26.1599 17.8242L25.7509 18.1355L25.9077 18.64L25.4998 18.3272L25.092 18.64L25.2489 18.1355L24.8399 17.8242L25.3447 17.8252Z" fill="white"/>
<path fill-rule="evenodd" clip-rule="evenodd" d="M25.3447 19.7452L25.4998 19.24L25.655 19.7452L26.1599 19.7442L25.7509 20.0555L25.9077 20.56L25.4998 20.2472L25.092 20.56L25.2489 20.0555L24.8399 19.7442L25.3447 19.7452Z" fill="white"/>
<path fill-rule="evenodd" clip-rule="evenodd" d="M25.3447 21.6652L25.4998 21.16L25.655 21.6652L26.1599 21.6643L25.7509 21.9755L25.9077 22.48L25.4998 22.1672L25.092 22.48L25.2489 21.9755L24.8399 21.6643L25.3447 21.6652Z" fill="white"/>
<path fill-rule="evenodd" clip-rule="evenodd" d="M25.3447 23.5852L25.4998 23.08L25.655 23.5852L26.1599 23.5842L25.7509 23.8955L25.9077 24.4L25.4998 24.0872L25.092 24.4L25.2489 23.8955L24.8399 23.5842L25.3447 23.5852Z" fill="white"/>
<path fill-rule="evenodd" clip-rule="evenodd" d="M25.3447 25.5052L25.4998 25L25.655 25.5052L26.1599 25.5043L25.7509 25.8155L25.9077 26.32L25.4998 26.0072L25.092 26.32L25.2489 25.8155L24.8399 25.5043L25.3447 25.5052Z" fill="white"/>
<path fill-rule="evenodd" clip-rule="evenodd" d="M25.3447 27.4252L25.4998 26.92L25.655 27.4252L26.1599 27.4243L25.7509 27.7355L25.9077 28.24L25.4998 27.9272L25.092 28.24L25.2489 27.7355L24.8399 27.4243L25.3447 27.4252Z" fill="white"/>
<path fill-rule="evenodd" clip-rule="evenodd" d="M27.8648 17.8252L28.0199 17.32L28.175 17.8252L28.6799 17.8242L28.2709 18.1355L28.4278 18.64L28.0199 18.3272L27.612 18.64L27.769 18.1355L27.3599 17.8242L27.8648 17.8252Z" fill="white"/>
<path fill-rule="evenodd" clip-rule="evenodd" d="M27.8648 19.7452L28.0199 19.24L28.175 19.7452L28.6799 19.7442L28.2709 20.0555L28.4278 20.56L28.0199 20.2472L27.612 20.56L27.769 20.0555L27.3599 19.7442L27.8648 19.7452Z" fill="white"/>
<path fill-rule="evenodd" clip-rule="evenodd" d="M27.8648 21.6652L28.0199 21.16L28.175 21.6652L28.6799 21.6643L28.2709 21.9755L28.4278 22.48L28.0199 22.1672L27.612 22.48L27.769 21.9755L27.3599 21.6643L27.8648 21.6652Z" fill="white"/>
<path fill-rule="evenodd" clip-rule="evenodd" d="M27.8648 23.5852L28.0199 23.08L28.175 23.5852L28.6799 23.5842L28.2709 23.8955L28.4278 24.4L28.0199 24.0872L27.612 24.4L27.769 23.8955L27.3599 23.5842L27.8648 23.5852Z" fill="white"/>
<path fill-rule="evenodd" clip-rule="evenodd" d="M27.8648 25.5052L28.0199 25L28.175 25.5052L28.6799 25.5043L28.2709 25.8155L28.4278 26.32L28.0199 26.0072L27.612 26.32L27.769 25.8155L27.3599 25.5043L27.8648 25.5052Z" fill="white"/>
<path fill-rule="evenodd" clip-rule="evenodd" d="M27.8648 27.4252L28.0199 26.92L28.175 27.4252L28.6799 27.4243L28.2709 27.7355L28.4278 28.24L28.0199 27.9272L27.612 28.24L27.769 27.7355L27.3599 27.4243L27.8648 27.4252Z" fill="white"/>
<path fill-rule="evenodd" clip-rule="evenodd" d="M30.3848 17.8252L30.5399 17.32L30.695 17.8252L31.2 17.8242L30.7909 18.1355L30.9478 18.64L30.5399 18.3272L30.132 18.64L30.289 18.1355L29.88 17.8242L30.3848 17.8252Z" fill="white"/>
<path fill-rule="evenodd" clip-rule="evenodd" d="M30.3848 19.7452L30.5399 19.24L30.695 19.7452L31.2 19.7442L30.7909 20.0555L30.9478 20.56L30.5399 20.2472L30.132 20.56L30.289 20.0555L29.88 19.7442L30.3848 19.7452Z" fill="white"/>
<path fill-rule="evenodd" clip-rule="evenodd" d="M30.3848 21.6652L30.5399 21.16L30.695 21.6652L31.2 21.6643L30.7909 21.9755L30.9478 22.48L30.5399 22.1672L30.132 22.48L30.289 21.9755L29.88 21.6643L30.3848 21.6652Z" fill="white"/>
<path fill-rule="evenodd" clip-rule="evenodd" d="M30.3848 23.5852L30.5399 23.08L30.695 23.5852L31.2 23.5842L30.7909 23.8955L30.9478 24.4L30.5399 24.0872L30.132 24.4L30.289 23.8955L29.88 23.5842L30.3848 23.5852Z" fill="white"/>
<path fill-rule="evenodd" clip-rule="evenodd" d="M30.3848 25.5052L30.5399 25L30.695 25.5052L31.2 25.5043L30.7909 25.8155L30.9478 26.32L30.5399 26.0072L30.132 26.32L30.289 25.8155L29.88 25.5043L30.3848 25.5052Z" fill="white"/>
<path fill-rule="evenodd" clip-rule="evenodd" d="M30.3848 27.4252L30.5399 26.92L30.695 27.4252L31.2 27.4243L30.7909 27.7355L30.9478 28.24L30.5399 27.9272L30.132 28.24L30.289 27.7355L29.88 27.4243L30.3848 27.4252Z" fill="white"/>
<path fill-rule="evenodd" clip-rule="evenodd" d="M32.9048 17.8252L33.0599 17.32L33.215 17.8252L33.72 17.8242L33.3109 18.1355L33.4678 18.64L33.0599 18.3272L32.652 18.64L32.809 18.1355L32.4 17.8242L32.9048 17.8252Z" fill="white"/>
<path fill-rule="evenodd" clip-rule="evenodd" d="M32.9048 19.7452L33.0599 19.24L33.215 19.7452L33.72 19.7442L33.3109 20.0555L33.4678 20.56L33.0599 20.2472L32.652 20.56L32.809 20.0555L32.4 19.7442L32.9048 19.7452Z" fill="white"/>
<path fill-rule="evenodd" clip-rule="evenodd" d="M32.9048 21.6652L33.0599 21.16L33.215 21.6652L33.72 21.6643L33.3109 21.9755L33.4678 22.48L33.0599 22.1672L32.652 22.48L32.809 21.9755L32.4 21.6643L32.9048 21.6652Z" fill="white"/>
<path fill-rule="evenodd" clip-rule="evenodd" d="M32.9048 23.5852L33.0599 23.08L33.215 23.5852L33.72 23.5842L33.3109 23.8955L33.4678 24.4L33.0599 24.0872L32.652 24.4L32.809 23.8955L32.4 23.5842L32.9048 23.5852Z" fill="white"/>
<path fill-rule="evenodd" clip-rule="evenodd" d="M32.9048 25.5052L33.0599 25L33.215 25.5052L33.72 25.5043L33.3109 25.8155L33.4678 26.32L33.0599 26.0072L32.652 26.32L32.809 25.8155L32.4 25.5043L32.9048 25.5052Z" fill="white"/>
<path fill-rule="evenodd" clip-rule="evenodd" d="M32.9048 27.4252L33.0599 26.92L33.215 27.4252L33.72 27.4243L33.3109 27.7355L33.4678 28.24L33.0599 27.9272L32.652 28.24L32.809 27.7355L32.4 27.4243L32.9048 27.4252Z" fill="white"/>
<path fill-rule="evenodd" clip-rule="evenodd" d="M35.4248 17.8252L35.5799 17.32L35.735 17.8252L36.24 17.8242L35.831 18.1355L35.9878 18.64L35.5799 18.3272L35.172 18.64L35.329 18.1355L34.92 17.8242L35.4248 17.8252Z" fill="white"/>
<path fill-rule="evenodd" clip-rule="evenodd" d="M35.4248 19.7452L35.5799 19.24L35.735 19.7452L36.24 19.7442L35.831 20.0555L35.9878 20.56L35.5799 20.2472L35.172 20.56L35.329 20.0555L34.92 19.7442L35.4248 19.7452Z" fill="white"/>
<path fill-rule="evenodd" clip-rule="evenodd" d="M35.4248 21.6652L35.5799 21.16L35.735 21.6652L36.24 21.6643L35.831 21.9755L35.9878 22.48L35.5799 22.1672L35.172 22.48L35.329 21.9755L34.92 21.6643L35.4248 21.6652Z" fill="white"/>
<path fill-rule="evenodd" clip-rule="evenodd" d="M35.4248 23.5852L35.5799 23.08L35.735 23.5852L36.24 23.5842L35.831 23.8955L35.9878 24.4L35.5799 24.0872L35.172 24.4L35.329 23.8955L34.92 23.5842L35.4248 23.5852Z" fill="white"/>
<path fill-rule="evenodd" clip-rule="evenodd" d="M35.4248 25.5052L35.5799 25L35.735 25.5052L36.24 25.5043L35.831 25.8155L35.9878 26.32L35.5799 26.0072L35.172 26.32L35.329 25.8155L34.92 25.5043L35.4248 25.5052Z" fill="white"/>
<path fill-rule="evenodd" clip-rule="evenodd" d="M35.4248 27.4252L35.5799 26.92L35.735 27.4252L36.24 27.4243L35.831 27.7355L35.9878 28.24L35.5799 27.9272L35.172 28.24L35.329 27.7355L34.92 27.4243L35.4248 27.4252Z" fill="white"/>
<mask id="mask0_40_8540" style="mask-type:alpha" maskUnits="userSpaceOnUse" x="21" y="16" width="34" height="24">
<rect x="21" y="16" width="33.96" height="24" rx="4" fill="#B22234"/>
</mask>
<g mask="url(#mask0_40_8540)">
<rect x="37.08" y="18.28" width="17.88" height="1.56" fill="white"/>
<rect x="37.08" y="21.88" width="17.88" height="1.56" fill="white"/>
<rect x="37.08" y="25.48" width="17.88" height="1.56" fill="white"/>
<rect x="21" y="29.08" width="33.96" height="1.56" fill="white"/>
<rect x="21" y="32.68" width="33.96" height="1.56" fill="white"/>
<rect x="21" y="36.28" width="33.96" height="1.56" fill="white"/>
</g>
</g>
<defs>
<filter id="filter0_d_40_8540" x="0" y="0" width="81.96" height="72" filterUnits="userSpaceOnUse" color-interpolation-filters="sRGB">
<feFlood flood-opacity="0" result="BackgroundImageFix"/>
<feColorMatrix in="SourceAlpha" type="matrix" values="0 0 0 0 0 0 0 0 0 0 0 0 0 0 0 0 0 0 127 0" result="hardAlpha"/>
<feOffset dx="3" dy="8"/>
<feGaussianBlur stdDeviation="8"/>
<feColorMatrix type="matrix" values="0 0 0 0 0.282353 0 0 0 0 0 0 0 0 0 0.584314 0 0 0 0.15 0"/>
<feBlend mode="normal" in2="BackgroundImageFix" result="effect1_dropShadow_40_8540"/>
<feBlend mode="normal" in="SourceGraphic" in2="effect1_dropShadow_40_8540" result="shape"/>
</filter>
</defs>
</svg>
