<svg width="70" height="17" viewBox="0 0 70 17" fill="none" xmlns="http://www.w3.org/2000/svg">
<path d="M53.3177 8.48071C53.3177 12.899 56.8994 16.4807 61.3177 16.4807C65.736 16.4807 69.3177 12.899 69.3177 8.48071C69.3177 4.06243 65.736 0.480713 61.3177 0.480713C56.8994 0.480713 53.3177 4.06243 53.3177 8.48071ZM0.858643 8.48071C0.858643 12.899 4.44036 16.4807 8.85864 16.4807C13.2769 16.4807 16.8586 12.899 16.8586 8.48071C16.8586 4.06243 13.2769 0.480713 8.85864 0.480713C4.44036 0.480713 0.858643 4.06243 0.858643 8.48071ZM8.85864 9.98071H12.1373V6.98071H8.85864V9.98071ZM18.6947 9.98071H25.2521V6.98071H18.6947V9.98071ZM31.8095 9.98071H38.3669V6.98071H31.8095V9.98071ZM44.9242 9.98071H51.4816V6.98071H44.9242V9.98071ZM58.039 9.98071H61.3177V6.98071H58.039V9.98071Z" fill="#FF943F"/>
</svg>
