<svg width="44" height="104" viewBox="0 0 44 104" fill="none" xmlns="http://www.w3.org/2000/svg">
<path d="M27.1027 95.6246C27.1027 100.043 30.6844 103.625 35.1027 103.625C39.521 103.625 43.1027 100.043 43.1027 95.6246C43.1027 91.2064 39.521 87.6246 35.1027 87.6246C30.6844 87.6246 27.1027 91.2064 27.1027 95.6246ZM0.0720253 8.86462C0.0720253 13.2829 3.65375 16.8646 8.07203 16.8646C12.4903 16.8646 16.072 13.2829 16.072 8.86462C16.072 4.44635 12.4903 0.864624 8.07203 0.864624C3.65375 0.864624 0.0720253 4.44635 0.0720253 8.86462ZM6.57203 8.86462L6.57203 12.1663L9.57203 12.1663L9.57203 8.86462L6.57203 8.86462ZM6.57202 18.7696L6.57202 25.373L9.57202 25.373L9.57202 18.7696L6.57202 18.7696ZM6.57202 31.9763L6.57202 38.5797L9.57202 38.5797L9.57202 31.9763L6.57202 31.9763ZM6.57202 45.183L6.57202 48.4847L9.57202 48.4847L9.57202 45.183L6.57202 45.183ZM6.57202 48.4847C6.57202 49.4856 6.67016 50.465 6.85779 51.4135L9.80076 50.8313C9.65085 50.0735 9.57202 49.2891 9.57202 48.4847L6.57202 48.4847ZM9.10202 56.8285C10.1978 58.4653 11.6068 59.8742 13.2435 60.97L14.9125 58.4771C13.6016 57.5995 12.4726 56.4705 11.5949 55.1596L9.10202 56.8285ZM18.6586 63.2143C19.607 63.4019 20.5865 63.5 21.5874 63.5V60.5C20.783 60.5 19.9985 60.4212 19.2408 60.2713L18.6586 63.2143ZM21.5874 63.5C22.3917 63.5 23.1762 63.5789 23.9339 63.7288L24.5161 60.7858C23.5677 60.5982 22.5882 60.5 21.5874 60.5V63.5ZM28.2622 65.5229C29.5731 66.4006 30.7021 67.5296 31.5798 68.8405L34.0727 67.1715C32.9769 65.5347 31.568 64.1258 29.9312 63.03L28.2622 65.5229ZM33.374 73.1688C33.5239 73.9265 33.6027 74.711 33.6027 75.5153H36.6027C36.6027 74.5145 36.5045 73.535 36.3169 72.5866L33.374 73.1688ZM33.6027 75.5153V78.029H36.6027V75.5153H33.6027ZM33.6027 83.0563V88.0837H36.6027V83.0563H33.6027ZM33.6027 93.111V95.6246H36.6027V93.111H33.6027Z" fill="#FA2080"/>
</svg>
