<svg width="101" height="152" viewBox="0 0 101 152" fill="none" xmlns="http://www.w3.org/2000/svg">
<path d="M84.5335 143.577C84.5335 147.996 88.1152 151.577 92.5335 151.577C96.9518 151.577 100.533 147.996 100.533 143.577C100.533 139.159 96.9518 135.577 92.5335 135.577C88.1152 135.577 84.5335 139.159 84.5335 143.577ZM0.867554 8.56848C0.867554 12.9868 4.44928 16.5685 8.86755 16.5685C13.2858 16.5685 16.8676 12.9868 16.8676 8.56848C16.8676 4.1502 13.2858 0.568481 8.86755 0.568481C4.44928 0.568481 0.867554 4.1502 0.867554 8.56848ZM7.36755 8.56848V11.2875H10.3676V8.56848H7.36755ZM7.36755 16.7256V22.1636H10.3676V16.7256H7.36755ZM7.36755 27.6017V33.0397H10.3676V27.6017H7.36755ZM7.36755 38.4778V43.9158H10.3676V38.4778H7.36755ZM7.36755 49.3539V52.0729H10.3676V49.3539H7.36755ZM7.36755 52.0729C7.36755 53.2004 7.44082 54.3114 7.58301 55.4015L10.5578 55.0135C10.4324 54.0517 10.3676 53.0703 10.3676 52.0729H7.36755ZM9.30309 61.8344C10.1631 63.9083 11.2885 65.8435 12.6366 67.5977L15.0153 65.7697C13.8252 64.221 12.8325 62.5136 12.0743 60.6852L9.30309 61.8344ZM17.3427 72.3039C19.097 73.6519 21.0321 74.7773 23.106 75.6374L24.2552 72.8662C22.4268 72.108 20.7195 71.1152 19.1707 69.9251L17.3427 72.3039ZM29.5389 77.3574C30.629 77.4996 31.7401 77.5729 32.8675 77.5729V74.5729C31.8702 74.5729 30.8887 74.5081 29.9269 74.3826L29.5389 77.3574ZM32.8675 77.5729H35.8397V74.5729H32.8675V77.5729ZM41.784 77.5729H47.7284V74.5729H41.784V77.5729ZM53.6727 77.5729H59.617V74.5729H53.6727V77.5729ZM65.5613 77.5729H68.5335V74.5729H65.5613V77.5729ZM68.5335 77.5729C69.5309 77.5729 70.5123 77.6377 71.4741 77.7632L71.8621 74.7884C70.7721 74.6462 69.661 74.5729 68.5335 74.5729V77.5729ZM77.1458 79.2796C78.9742 80.0378 80.6816 81.0306 82.2303 82.2207L84.0583 79.8419C82.3041 78.4939 80.3689 77.3685 78.295 76.5084L77.1458 79.2796ZM86.3857 86.3761C87.5758 87.9248 88.5686 89.6322 89.3268 91.4606L92.098 90.3114C91.2379 88.2375 90.1125 86.3023 88.7645 84.5481L86.3857 86.3761ZM90.8432 97.1323C90.9687 98.0941 91.0335 99.0755 91.0335 100.073H94.0335C94.0335 98.9455 93.9602 97.8344 93.818 96.7443L90.8432 97.1323ZM91.0335 100.073V102.792H94.0335V100.073H91.0335ZM91.0335 108.23V113.668H94.0335V108.23H91.0335ZM91.0335 119.106V124.544H94.0335V119.106H91.0335ZM91.0335 129.982V135.42H94.0335V129.982H91.0335ZM91.0335 140.858V143.577H94.0335V140.858H91.0335Z" fill="#480095"/>
</svg>
