<svg width="228" height="84" viewBox="0 0 228 84" fill="none" xmlns="http://www.w3.org/2000/svg">
<g filter="url(#filter0_d_1474_1795)">
<rect x="13" y="8" width="195.012" height="51.9054" rx="11.3229" fill="white"/>
<path d="M40.6694 22.9261C40.6694 20.7169 42.4603 18.9261 44.6694 18.9261H79.6694C81.8786 18.9261 83.6694 20.7169 83.6694 22.9261V28.9261H40.6694V22.9261Z" fill="#C60B1E"/>
<rect x="40.6528" y="28.9379" width="43" height="10" fill="#FFC400"/>
<path d="M40.7026 38.9793H83.7026V44.9793C83.7026 47.1884 81.9118 48.9793 79.7026 48.9793H44.7026C42.4935 48.9793 40.7026 47.1884 40.7026 44.9793V38.9793Z" fill="#C60B1E"/>
<path d="M99.8215 40.0865C98.9298 40.0865 98.0771 39.9527 97.2635 39.6852C96.4498 39.4065 95.8089 39.0499 95.3408 38.6152L95.9594 37.3111C96.4052 37.7012 96.9737 38.0244 97.6647 38.2808C98.3558 38.5371 99.0747 38.6653 99.8215 38.6653C100.501 38.6653 101.053 38.5873 101.477 38.4312C101.9 38.2752 102.212 38.0634 102.413 37.7959C102.614 37.5173 102.714 37.2052 102.714 36.8596C102.714 36.4584 102.58 36.1351 102.313 35.8899C102.056 35.6447 101.716 35.4496 101.293 35.3047C100.88 35.1487 100.423 35.0149 99.9218 34.9035C99.4203 34.792 98.9131 34.6638 98.4004 34.5189C97.8988 34.3629 97.4362 34.1678 97.0127 33.9338C96.6003 33.6997 96.2659 33.3876 96.0095 32.9975C95.7532 32.5962 95.625 32.0835 95.625 31.4593C95.625 30.8574 95.781 30.3057 96.0931 29.8041C96.4164 29.2914 96.9068 28.8846 97.5644 28.5836C98.2332 28.2715 99.0803 28.1155 100.106 28.1155C100.786 28.1155 101.46 28.2046 102.129 28.383C102.798 28.5613 103.377 28.8177 103.868 29.1521L103.316 30.4896C102.814 30.1552 102.285 29.9156 101.728 29.7707C101.17 29.6146 100.63 29.5366 100.106 29.5366C99.4481 29.5366 98.9075 29.6202 98.484 29.7874C98.0604 29.9546 97.7483 30.1775 97.5477 30.4562C97.3582 30.7348 97.2635 31.0469 97.2635 31.3924C97.2635 31.8049 97.3917 32.1337 97.648 32.3789C97.9155 32.6241 98.2555 32.8192 98.6679 32.9641C99.0914 33.109 99.554 33.2427 100.056 33.3653C100.557 33.4768 101.059 33.605 101.56 33.7499C102.073 33.8948 102.536 34.0842 102.948 34.3183C103.372 34.5524 103.712 34.8645 103.968 35.2546C104.224 35.6447 104.352 36.1463 104.352 36.7593C104.352 37.3501 104.191 37.9018 103.868 38.4145C103.544 38.9161 103.043 39.3229 102.363 39.635C101.694 39.936 100.847 40.0865 99.8215 40.0865ZM111.259 40.053C110.523 40.053 109.849 39.8858 109.236 39.5514C108.634 39.2059 108.149 38.6988 107.781 38.03C107.425 37.3612 107.246 36.5253 107.246 35.5221C107.246 34.5189 107.419 33.683 107.765 33.0142C108.121 32.3454 108.601 31.8439 109.203 31.5095C109.816 31.1751 110.501 31.0079 111.259 31.0079C112.128 31.0079 112.898 31.1974 113.566 31.5764C114.235 31.9553 114.765 32.4848 115.155 33.1647C115.545 33.8335 115.74 34.6193 115.74 35.5221C115.74 36.4249 115.545 37.2163 115.155 37.8962C114.765 38.5761 114.235 39.1056 113.566 39.4846C112.898 39.8635 112.128 40.053 111.259 40.053ZM106.561 43.1962V31.0915H108.099V33.4824L107.999 35.5388L108.166 37.5953V43.1962H106.561ZM111.125 38.6486C111.694 38.6486 112.201 38.5204 112.647 38.2641C113.104 38.0077 113.46 37.6454 113.717 37.1773C113.984 36.698 114.118 36.1463 114.118 35.5221C114.118 34.8868 113.984 34.3406 113.717 33.8836C113.46 33.4155 113.104 33.0532 112.647 32.7969C112.201 32.5405 111.694 32.4123 111.125 32.4123C110.568 32.4123 110.061 32.5405 109.604 32.7969C109.158 33.0532 108.801 33.4155 108.534 33.8836C108.277 34.3406 108.149 34.8868 108.149 35.5221C108.149 36.1463 108.277 36.698 108.534 37.1773C108.801 37.6454 109.158 38.0077 109.604 38.2641C110.061 38.5204 110.568 38.6486 111.125 38.6486ZM123.376 39.9527V38.0801L123.293 37.729V34.5357C123.293 33.8557 123.092 33.3319 122.691 32.9641C122.301 32.5851 121.71 32.3956 120.919 32.3956C120.395 32.3956 119.882 32.4848 119.381 32.6631C118.879 32.8303 118.455 33.0588 118.11 33.3486L117.441 32.1448C117.898 31.777 118.444 31.4983 119.08 31.3088C119.726 31.1082 120.4 31.0079 121.103 31.0079C122.318 31.0079 123.254 31.3033 123.911 31.894C124.569 32.4848 124.898 33.3876 124.898 34.6025V39.9527H123.376ZM120.467 40.053C119.81 40.053 119.23 39.9416 118.728 39.7186C118.238 39.4957 117.859 39.1892 117.592 38.7991C117.324 38.3978 117.19 37.9464 117.19 37.4448C117.19 36.9655 117.302 36.5308 117.525 36.1407C117.759 35.7506 118.132 35.4385 118.645 35.2044C119.169 34.9704 119.871 34.8533 120.752 34.8533H123.56V36.007H120.818C120.016 36.007 119.475 36.1407 119.197 36.4082C118.918 36.6757 118.779 36.999 118.779 37.3779C118.779 37.8126 118.951 38.1637 119.297 38.4312C119.642 38.6876 120.122 38.8158 120.735 38.8158C121.337 38.8158 121.861 38.682 122.306 38.4145C122.763 38.147 123.092 37.7569 123.293 37.2442L123.611 38.3477C123.399 38.8715 123.025 39.2895 122.49 39.6016C121.955 39.9025 121.281 40.053 120.467 40.053ZM127.868 39.9527V31.0915H129.473V39.9527H127.868ZM128.671 29.3861C128.359 29.3861 128.097 29.2858 127.885 29.0852C127.684 28.8846 127.584 28.6393 127.584 28.3495C127.584 28.0486 127.684 27.7978 127.885 27.5972C128.097 27.3965 128.359 27.2962 128.671 27.2962C128.983 27.2962 129.239 27.3965 129.44 27.5972C129.652 27.7867 129.757 28.0263 129.757 28.3161C129.757 28.6171 129.657 28.8734 129.457 29.0852C129.256 29.2858 128.994 29.3861 128.671 29.3861ZM137.269 31.0079C137.994 31.0079 138.629 31.1472 139.175 31.4259C139.733 31.7045 140.167 32.1281 140.479 32.6965C140.792 33.265 140.948 33.9839 140.948 34.8533V39.9527H139.343V35.0372C139.343 34.179 139.131 33.5325 138.707 33.0978C138.295 32.6631 137.71 32.4458 136.952 32.4458C136.383 32.4458 135.887 32.5572 135.464 32.7801C135.04 33.0031 134.711 33.3319 134.477 33.7666C134.254 34.2013 134.143 34.7419 134.143 35.3883V39.9527H132.538V31.0915H134.076V33.4824L133.825 32.847C134.115 32.2674 134.561 31.816 135.163 31.4928C135.765 31.1695 136.467 31.0079 137.269 31.0079Z" fill="#142032"/>
<circle cx="166.983" cy="33.9527" r="13.3754" fill="#FF943F"/>
</g>
<defs>
<filter id="filter0_d_1474_1795" x="0" y="0" width="227.011" height="83.9054" filterUnits="userSpaceOnUse" color-interpolation-filters="sRGB">
<feFlood flood-opacity="0" result="BackgroundImageFix"/>
<feColorMatrix in="SourceAlpha" type="matrix" values="0 0 0 0 0 0 0 0 0 0 0 0 0 0 0 0 0 0 127 0" result="hardAlpha"/>
<feOffset dx="3" dy="8"/>
<feGaussianBlur stdDeviation="8"/>
<feColorMatrix type="matrix" values="0 0 0 0 0.282353 0 0 0 0 0 0 0 0 0 0.584314 0 0 0 0.15 0"/>
<feBlend mode="normal" in2="BackgroundImageFix" result="effect1_dropShadow_1474_1795"/>
<feBlend mode="normal" in="SourceGraphic" in2="effect1_dropShadow_1474_1795" result="shape"/>
</filter>
</defs>
</svg>
