<svg width="209" height="84" viewBox="0 0 209 84" fill="none" xmlns="http://www.w3.org/2000/svg">
<g filter="url(#filter0_d_1474_1779)">
<rect x="13" y="8" width="177" height="52" rx="11.3229" fill="white"/>
<path d="M28.8855 23C28.8855 20.7909 30.6764 19 32.8855 19H42.9855V49H32.8855C30.6764 49 28.8855 47.2091 28.8855 45V23Z" fill="#002654"/>
<rect x="42.9856" y="19" width="14.1" height="30" fill="white"/>
<path d="M57.0854 19H67.1855C69.3946 19 71.1854 20.7909 71.1854 23V45C71.1854 47.2091 69.3946 49 67.1854 49H57.0854V19Z" fill="#CE1126"/>
<path d="M85.3984 33.8306H91.4341V35.2685H85.3984V33.8306ZM85.5656 40H83.8937V28.2965H92.153V29.7511H85.5656V40ZM94.1092 40V31.1388H95.6473V33.5464L95.4969 32.9445C95.7421 32.3314 96.1545 31.8633 96.7341 31.5401C97.3137 31.2168 98.027 31.0552 98.8741 31.0552V32.6101C98.8073 32.5989 98.7404 32.5934 98.6735 32.5934C98.6178 32.5934 98.5621 32.5934 98.5063 32.5934C97.6481 32.5934 96.9682 32.8497 96.4666 33.3625C95.965 33.8752 95.7142 34.6164 95.7142 35.5861V40H94.1092ZM105.7 40V38.1274L105.616 37.7763V34.583C105.616 33.903 105.416 33.3792 105.014 33.0114C104.624 32.6324 104.034 32.4429 103.242 32.4429C102.718 32.4429 102.206 32.5321 101.704 32.7104C101.202 32.8776 100.779 33.1061 100.433 33.3959L99.7646 32.1921C100.222 31.8243 100.768 31.5456 101.403 31.3562C102.05 31.1555 102.724 31.0552 103.426 31.0552C104.641 31.0552 105.577 31.3506 106.235 31.9413C106.893 32.5321 107.221 33.4349 107.221 34.6498V40H105.7ZM102.791 40.1003C102.133 40.1003 101.554 39.9889 101.052 39.7659C100.562 39.543 100.183 39.2365 99.915 38.8464C99.6475 38.4451 99.5138 37.9937 99.5138 37.4921C99.5138 37.0128 99.6252 36.5781 99.8482 36.188C100.082 35.7979 100.456 35.4858 100.968 35.2517C101.492 35.0177 102.194 34.9006 103.075 34.9006H105.884V36.0543H103.142C102.339 36.0543 101.799 36.188 101.52 36.4555C101.241 36.723 101.102 37.0463 101.102 37.4252C101.102 37.8599 101.275 38.211 101.62 38.4785C101.966 38.7349 102.445 38.8631 103.058 38.8631C103.66 38.8631 104.184 38.7293 104.63 38.4618C105.087 38.1943 105.416 37.8042 105.616 37.2915L105.934 38.395C105.722 38.9188 105.349 39.3368 104.814 39.6489C104.279 39.9498 103.604 40.1003 102.791 40.1003ZM114.923 31.0552C115.648 31.0552 116.283 31.1945 116.829 31.4732C117.386 31.7518 117.821 32.1754 118.133 32.7438C118.445 33.3123 118.601 34.0312 118.601 34.9006V40H116.996V35.0845C116.996 34.2263 116.785 33.5798 116.361 33.1451C115.949 32.7104 115.363 32.4931 114.606 32.4931C114.037 32.4931 113.541 32.6045 113.118 32.8274C112.694 33.0504 112.365 33.3792 112.131 33.8139C111.908 34.2486 111.797 34.7892 111.797 35.4356V40H110.192V31.1388H111.73V33.5297L111.479 32.8943C111.769 32.3147 112.215 31.8633 112.817 31.5401C113.418 31.2168 114.121 31.0552 114.923 31.0552ZM125.434 40.1003C124.531 40.1003 123.723 39.9053 123.01 39.5151C122.307 39.125 121.756 38.59 121.354 37.9101C120.953 37.2302 120.753 36.4499 120.753 35.5694C120.753 34.6889 120.953 33.9086 121.354 33.2287C121.756 32.5488 122.307 32.0193 123.01 31.6404C123.723 31.2503 124.531 31.0552 125.434 31.0552C126.236 31.0552 126.95 31.2168 127.574 31.5401C128.209 31.8522 128.7 32.3203 129.045 32.9445L127.825 33.7303C127.535 33.2956 127.178 32.9779 126.755 32.7773C126.342 32.5655 125.897 32.4596 125.417 32.4596C124.838 32.4596 124.319 32.5878 123.862 32.8442C123.405 33.1005 123.043 33.4628 122.776 33.9309C122.508 34.3879 122.374 34.9341 122.374 35.5694C122.374 36.2047 122.508 36.7565 122.776 37.2246C123.043 37.6927 123.405 38.055 123.862 38.3114C124.319 38.5677 124.838 38.6959 125.417 38.6959C125.897 38.6959 126.342 38.5956 126.755 38.395C127.178 38.1832 127.535 37.8599 127.825 37.4252L129.045 38.1943C128.7 38.8074 128.209 39.2811 127.574 39.6155C126.95 39.9387 126.236 40.1003 125.434 40.1003ZM134.938 40.1003C133.991 40.1003 133.155 39.9053 132.431 39.5151C131.717 39.125 131.16 38.59 130.759 37.9101C130.369 37.2302 130.173 36.4499 130.173 35.5694C130.173 34.6889 130.363 33.9086 130.742 33.2287C131.132 32.5488 131.661 32.0193 132.33 31.6404C133.01 31.2503 133.774 31.0552 134.621 31.0552C135.479 31.0552 136.237 31.2447 136.895 31.6237C137.552 32.0026 138.065 32.5376 138.433 33.2287C138.812 33.9086 139.001 34.7056 139.001 35.6196C139.001 35.6864 138.996 35.7645 138.985 35.8536C138.985 35.9428 138.979 36.0264 138.968 36.1044H131.427V34.9508H138.132L137.48 35.3521C137.491 34.7836 137.374 34.2764 137.129 33.8306C136.883 33.3848 136.544 33.0392 136.109 32.794C135.685 32.5376 135.189 32.4095 134.621 32.4095C134.063 32.4095 133.567 32.5376 133.133 32.794C132.698 33.0392 132.358 33.3903 132.113 33.8473C131.868 34.2932 131.745 34.8059 131.745 35.3855V35.653C131.745 36.2437 131.879 36.7732 132.146 37.2413C132.425 37.6983 132.81 38.055 133.3 38.3114C133.79 38.5677 134.353 38.6959 134.989 38.6959C135.512 38.6959 135.986 38.6067 136.41 38.4284C136.844 38.2501 137.223 37.9825 137.547 37.6259L138.433 38.6625C138.032 39.1306 137.53 39.4873 136.928 39.7325C136.337 39.9777 135.674 40.1003 134.938 40.1003Z" fill="#142032"/>
<circle cx="160.739" cy="34" r="13.3754" fill="#FA2080"/>
</g>
<defs>
<filter id="filter0_d_1474_1779" x="0" y="0" width="209" height="84" filterUnits="userSpaceOnUse" color-interpolation-filters="sRGB">
<feFlood flood-opacity="0" result="BackgroundImageFix"/>
<feColorMatrix in="SourceAlpha" type="matrix" values="0 0 0 0 0 0 0 0 0 0 0 0 0 0 0 0 0 0 127 0" result="hardAlpha"/>
<feOffset dx="3" dy="8"/>
<feGaussianBlur stdDeviation="8"/>
<feColorMatrix type="matrix" values="0 0 0 0 0.282353 0 0 0 0 0 0 0 0 0 0.584314 0 0 0 0.15 0"/>
<feBlend mode="normal" in2="BackgroundImageFix" result="effect1_dropShadow_1474_1779"/>
<feBlend mode="normal" in="SourceGraphic" in2="effect1_dropShadow_1474_1779" result="shape"/>
</filter>
</defs>
</svg>
