<svg width="182" height="84" viewBox="0 0 182 84" fill="none" xmlns="http://www.w3.org/2000/svg">
<g filter="url(#filter0_d_1474_1787)">
<rect x="13" y="8" width="149.862" height="51.9054" rx="11.3229" fill="white"/>
<path d="M23.9526 22.9527C23.9526 20.7436 25.7435 18.9527 27.9526 18.9527H38.0526V48.9527H27.9526C25.7435 48.9527 23.9526 47.1618 23.9526 44.9527V22.9527Z" fill="#006843"/>
<rect x="38.0527" y="18.9527" width="14.1" height="30" fill="white"/>
<path d="M52.1526 18.9527H62.2526C64.4617 18.9527 66.2526 20.7436 66.2526 22.9527V44.9527C66.2526 47.1618 64.4617 48.9527 62.2526 48.9527H52.1526V18.9527Z" fill="#EF0922"/>
<path d="M78.9608 39.9527V28.2492H80.6328V39.9527H78.9608ZM86.9455 40.053C86.0538 40.053 85.3627 39.8134 84.8723 39.3341C84.3818 38.8548 84.1366 38.1693 84.1366 37.2776V29.1521H85.7417V37.2107C85.7417 37.69 85.8587 38.0579 86.0928 38.3142C86.338 38.5706 86.6835 38.6988 87.1294 38.6988C87.6309 38.6988 88.0489 38.5594 88.3833 38.2808L88.8849 39.4344C88.6397 39.6462 88.3443 39.8022 87.9988 39.9025C87.6644 40.0029 87.3133 40.053 86.9455 40.053ZM82.6319 32.4123V31.0915H88.283V32.4123H82.6319ZM96.326 39.9527V38.0801L96.2424 37.729V34.5357C96.2424 33.8557 96.0418 33.3319 95.6405 32.9641C95.2504 32.5851 94.6596 32.3956 93.8683 32.3956C93.3444 32.3956 92.8317 32.4848 92.3301 32.6631C91.8285 32.8303 91.405 33.0588 91.0594 33.3486L90.3907 32.1448C90.8477 31.777 91.3938 31.4983 92.0292 31.3088C92.6756 31.1082 93.35 31.0079 94.0522 31.0079C95.2671 31.0079 96.2034 31.3033 96.861 31.894C97.5186 32.4848 97.8474 33.3876 97.8474 34.6025V39.9527H96.326ZM93.4168 40.053C92.7592 40.053 92.1796 39.9416 91.678 39.7186C91.1876 39.4957 90.8086 39.1892 90.5411 38.7991C90.2736 38.3978 90.1399 37.9464 90.1399 37.4448C90.1399 36.9655 90.2513 36.5308 90.4743 36.1407C90.7083 35.7506 91.0817 35.4385 91.5945 35.2044C92.1183 34.9704 92.8205 34.8533 93.7011 34.8533H96.5099V36.007H93.768C92.9654 36.007 92.4248 36.1407 92.1462 36.4082C91.8675 36.6757 91.7282 36.999 91.7282 37.3779C91.7282 37.8126 91.901 38.1637 92.2465 38.4312C92.592 38.6876 93.0713 38.8158 93.6844 38.8158C94.2862 38.8158 94.8101 38.682 95.256 38.4145C95.713 38.147 96.0418 37.7569 96.2424 37.2442L96.5601 38.3477C96.3483 38.8715 95.9749 39.2895 95.4399 39.6016C94.9049 39.9025 94.2305 40.053 93.4168 40.053ZM100.818 39.9527V27.547H102.423V39.9527H100.818ZM105.872 43.2965C105.448 43.2965 105.036 43.2241 104.635 43.0792C104.233 42.9454 103.888 42.7448 103.598 42.4773L104.284 41.2735C104.506 41.4853 104.752 41.6469 105.019 41.7584C105.287 41.8698 105.571 41.9256 105.872 41.9256C106.262 41.9256 106.585 41.8253 106.842 41.6246C107.098 41.424 107.338 41.0673 107.561 40.5546L108.112 39.3341L108.279 39.1335L111.757 31.0915H113.329L109.032 40.8388C108.775 41.463 108.486 41.9534 108.162 42.3101C107.85 42.6668 107.505 42.9176 107.126 43.0625C106.747 43.2185 106.329 43.2965 105.872 43.2965ZM107.979 40.2369L103.932 31.0915H105.604L109.049 38.983L107.979 40.2369Z" fill="#142032"/>
<circle cx="138.533" cy="33.9527" r="13.3754" fill="#480095"/>
</g>
<defs>
<filter id="filter0_d_1474_1787" x="0" y="0" width="181.862" height="83.9054" filterUnits="userSpaceOnUse" color-interpolation-filters="sRGB">
<feFlood flood-opacity="0" result="BackgroundImageFix"/>
<feColorMatrix in="SourceAlpha" type="matrix" values="0 0 0 0 0 0 0 0 0 0 0 0 0 0 0 0 0 0 127 0" result="hardAlpha"/>
<feOffset dx="3" dy="8"/>
<feGaussianBlur stdDeviation="8"/>
<feColorMatrix type="matrix" values="0 0 0 0 0.282353 0 0 0 0 0 0 0 0 0 0.584314 0 0 0 0.15 0"/>
<feBlend mode="normal" in2="BackgroundImageFix" result="effect1_dropShadow_1474_1787"/>
<feBlend mode="normal" in="SourceGraphic" in2="effect1_dropShadow_1474_1787" result="shape"/>
</filter>
</defs>
</svg>
