<svg width="209" height="84" viewBox="0 0 209 84" fill="none" xmlns="http://www.w3.org/2000/svg">
<g filter="url(#filter0_d_1474_1765)">
<rect x="13" y="8" width="177" height="52" rx="11.3229" fill="white"/>
<path d="M24.522 23C24.522 20.7909 26.3128 19 28.522 19H38.622V49H28.522C26.3128 49 24.522 47.2091 24.522 45V23Z" fill="#002654"/>
<rect x="38.6221" y="19" width="14.1" height="30" fill="white"/>
<path d="M52.7219 19H62.8219C65.0311 19 66.8219 20.7909 66.8219 23V45C66.8219 47.2091 65.0311 49 62.8219 49H52.7219V19Z" fill="#CE1126"/>
<path d="M81.0349 33.8306H87.0706V35.2685H81.0349V33.8306ZM81.2021 40H79.5302V28.2965H87.7895V29.7511H81.2021V40ZM89.7456 40V31.1388H91.2838V33.5464L91.1333 32.9445C91.3785 32.3314 91.791 31.8633 92.3706 31.5401C92.9502 31.2168 93.6635 31.0552 94.5106 31.0552V32.6101C94.4437 32.5989 94.3769 32.5934 94.31 32.5934C94.2543 32.5934 94.1985 32.5934 94.1428 32.5934C93.2845 32.5934 92.6046 32.8497 92.103 33.3625C91.6015 33.8752 91.3507 34.6164 91.3507 35.5861V40H89.7456ZM101.336 40V38.1274L101.253 37.7763V34.583C101.253 33.903 101.052 33.3792 100.651 33.0114C100.261 32.6324 99.67 32.4429 98.8787 32.4429C98.3548 32.4429 97.8421 32.5321 97.3405 32.7104C96.8389 32.8776 96.4154 33.1061 96.0698 33.3959L95.401 32.1921C95.858 31.8243 96.4042 31.5456 97.0395 31.3562C97.686 31.1555 98.3604 31.0552 99.0626 31.0552C100.277 31.0552 101.214 31.3506 101.871 31.9413C102.529 32.5321 102.858 33.4349 102.858 34.6498V40H101.336ZM98.4272 40.1003C97.7696 40.1003 97.19 39.9889 96.6884 39.7659C96.198 39.543 95.819 39.2365 95.5515 38.8464C95.284 38.4451 95.1503 37.9937 95.1503 37.4921C95.1503 37.0128 95.2617 36.5781 95.4846 36.188C95.7187 35.7979 96.0921 35.4858 96.6048 35.2517C97.1287 35.0177 97.8309 34.9006 98.7115 34.9006H101.52V36.0543H98.7783C97.9758 36.0543 97.4352 36.188 97.1566 36.4555C96.8779 36.723 96.7386 37.0463 96.7386 37.4252C96.7386 37.8599 96.9114 38.211 97.2569 38.4785C97.6024 38.7349 98.0817 38.8631 98.6947 38.8631C99.2966 38.8631 99.8205 38.7293 100.266 38.4618C100.723 38.1943 101.052 37.8042 101.253 37.2915L101.57 38.395C101.359 38.9188 100.985 39.3368 100.45 39.6489C99.9152 39.9498 99.2409 40.1003 98.4272 40.1003ZM110.56 31.0552C111.284 31.0552 111.919 31.1945 112.466 31.4732C113.023 31.7518 113.458 32.1754 113.77 32.7438C114.082 33.3123 114.238 34.0312 114.238 34.9006V40H112.633V35.0845C112.633 34.2263 112.421 33.5798 111.998 33.1451C111.585 32.7104 111 32.4931 110.242 32.4931C109.674 32.4931 109.178 32.6045 108.754 32.8274C108.33 33.0504 108.002 33.3792 107.768 33.8139C107.545 34.2486 107.433 34.7892 107.433 35.4356V40H105.828V31.1388H107.366V33.5297L107.115 32.8943C107.405 32.3147 107.851 31.8633 108.453 31.5401C109.055 31.2168 109.757 31.0552 110.56 31.0552ZM121.07 40.1003C120.168 40.1003 119.36 39.9053 118.646 39.5151C117.944 39.125 117.392 38.59 116.991 37.9101C116.59 37.2302 116.389 36.4499 116.389 35.5694C116.389 34.6889 116.59 33.9086 116.991 33.2287C117.392 32.5488 117.944 32.0193 118.646 31.6404C119.36 31.2503 120.168 31.0552 121.07 31.0552C121.873 31.0552 122.586 31.2168 123.211 31.5401C123.846 31.8522 124.336 32.3203 124.682 32.9445L123.461 33.7303C123.171 33.2956 122.815 32.9779 122.391 32.7773C121.979 32.5655 121.533 32.4596 121.054 32.4596C120.474 32.4596 119.956 32.5878 119.499 32.8442C119.042 33.1005 118.68 33.4628 118.412 33.9309C118.145 34.3879 118.011 34.9341 118.011 35.5694C118.011 36.2047 118.145 36.7565 118.412 37.2246C118.68 37.6927 119.042 38.055 119.499 38.3114C119.956 38.5677 120.474 38.6959 121.054 38.6959C121.533 38.6959 121.979 38.5956 122.391 38.395C122.815 38.1832 123.171 37.8599 123.461 37.4252L124.682 38.1943C124.336 38.8074 123.846 39.2811 123.211 39.6155C122.586 39.9387 121.873 40.1003 121.07 40.1003ZM126.646 40V31.1388H128.251V40H126.646ZM127.448 29.4334C127.136 29.4334 126.874 29.3331 126.662 29.1325C126.462 28.9319 126.361 28.6866 126.361 28.3968C126.361 28.0959 126.462 27.8451 126.662 27.6445C126.874 27.4438 127.136 27.3435 127.448 27.3435C127.76 27.3435 128.017 27.4438 128.217 27.6445C128.429 27.834 128.535 28.0736 128.535 28.3634C128.535 28.6644 128.434 28.9207 128.234 29.1325C128.033 29.3331 127.771 29.4334 127.448 29.4334ZM136.816 40V38.1274L136.732 37.7763V34.583C136.732 33.903 136.532 33.3792 136.13 33.0114C135.74 32.6324 135.149 32.4429 134.358 32.4429C133.834 32.4429 133.321 32.5321 132.82 32.7104C132.318 32.8776 131.895 33.1061 131.549 33.3959L130.88 32.1921C131.337 31.8243 131.884 31.5456 132.519 31.3562C133.165 31.1555 133.84 31.0552 134.542 31.0552C135.757 31.0552 136.693 31.3506 137.351 31.9413C138.008 32.5321 138.337 33.4349 138.337 34.6498V40H136.816ZM133.907 40.1003C133.249 40.1003 132.669 39.9889 132.168 39.7659C131.677 39.543 131.298 39.2365 131.031 38.8464C130.763 38.4451 130.63 37.9937 130.63 37.4921C130.63 37.0128 130.741 36.5781 130.964 36.188C131.198 35.7979 131.572 35.4858 132.084 35.2517C132.608 35.0177 133.31 34.9006 134.191 34.9006H137V36.0543H134.258C133.455 36.0543 132.915 36.188 132.636 36.4555C132.357 36.723 132.218 37.0463 132.218 37.4252C132.218 37.8599 132.391 38.211 132.736 38.4785C133.082 38.7349 133.561 38.8631 134.174 38.8631C134.776 38.8631 135.3 38.7293 135.746 38.4618C136.203 38.1943 136.532 37.8042 136.732 37.2915L137.05 38.395C136.838 38.9188 136.465 39.3368 135.93 39.6489C135.395 39.9498 134.72 40.1003 133.907 40.1003Z" fill="#142032"/>
<circle cx="165.103" cy="34" r="13.3754" fill="#FA2080"/>
</g>
<defs>
<filter id="filter0_d_1474_1765" x="0" y="0" width="209" height="84" filterUnits="userSpaceOnUse" color-interpolation-filters="sRGB">
<feFlood flood-opacity="0" result="BackgroundImageFix"/>
<feColorMatrix in="SourceAlpha" type="matrix" values="0 0 0 0 0 0 0 0 0 0 0 0 0 0 0 0 0 0 127 0" result="hardAlpha"/>
<feOffset dx="3" dy="8"/>
<feGaussianBlur stdDeviation="8"/>
<feColorMatrix type="matrix" values="0 0 0 0 0.282353 0 0 0 0 0 0 0 0 0 0.584314 0 0 0 0.15 0"/>
<feBlend mode="normal" in2="BackgroundImageFix" result="effect1_dropShadow_1474_1765"/>
<feBlend mode="normal" in="SourceGraphic" in2="effect1_dropShadow_1474_1765" result="shape"/>
</filter>
</defs>
</svg>
