<svg width="187" height="84" viewBox="0 0 187 84" fill="none" xmlns="http://www.w3.org/2000/svg">
<g filter="url(#filter0_d_1474_1006)">
<rect x="13" y="8" width="154.862" height="51.9054" rx="11.3229" fill="white"/>
<path d="M23.9526 22.9527C23.9526 20.7435 25.7435 18.9527 27.9526 18.9527H38.0526V48.9527H27.9526C25.7435 48.9527 23.9526 47.1618 23.9526 44.9527V22.9527Z" fill="#006843"/>
<rect x="38.0526" y="18.9527" width="14.1" height="30" fill="white"/>
<path d="M52.1526 18.9527H62.2526C64.4617 18.9527 66.2526 20.7435 66.2526 22.9527V44.9527C66.2526 47.1618 64.4617 48.9527 62.2526 48.9527H52.1526V18.9527Z" fill="#EF0922"/>
<path d="M78.9608 39.9527V28.2492H80.6328V39.9527H78.9608ZM86.9455 40.053C86.0538 40.053 85.3627 39.8134 84.8723 39.3341C84.3818 38.8548 84.1366 38.1693 84.1366 37.2776V29.1521H85.7417V37.2107C85.7417 37.69 85.8587 38.0578 86.0928 38.3142C86.338 38.5706 86.6835 38.6987 87.1294 38.6987C87.6309 38.6987 88.0489 38.5594 88.3833 38.2808L88.8849 39.4344C88.6397 39.6462 88.3443 39.8022 87.9988 39.9025C87.6644 40.0028 87.3133 40.053 86.9455 40.053ZM82.6319 32.4123V31.0915H88.283V32.4123H82.6319ZM96.326 39.9527V38.0801L96.2424 37.729V34.5356C96.2424 33.8557 96.0418 33.3319 95.6405 32.964C95.2504 32.5851 94.6596 32.3956 93.8683 32.3956C93.3444 32.3956 92.8317 32.4848 92.3301 32.6631C91.8285 32.8303 91.405 33.0588 91.0594 33.3486L90.3907 32.1448C90.8477 31.777 91.3938 31.4983 92.0292 31.3088C92.6756 31.1082 93.35 31.0079 94.0522 31.0079C95.2671 31.0079 96.2034 31.3033 96.861 31.894C97.5186 32.4848 97.8474 33.3876 97.8474 34.6025V39.9527H96.326ZM93.4168 40.053C92.7592 40.053 92.1796 39.9415 91.678 39.7186C91.1876 39.4957 90.8086 39.1892 90.5411 38.7991C90.2736 38.3978 90.1399 37.9464 90.1399 37.4448C90.1399 36.9655 90.2513 36.5308 90.4743 36.1407C90.7083 35.7506 91.0817 35.4385 91.5945 35.2044C92.1183 34.9703 92.8205 34.8533 93.7011 34.8533H96.5099V36.0069H93.768C92.9654 36.0069 92.4248 36.1407 92.1462 36.4082C91.8675 36.6757 91.7282 36.9989 91.7282 37.3779C91.7282 37.8126 91.901 38.1637 92.2465 38.4312C92.592 38.6876 93.0713 38.8158 93.6844 38.8158C94.2862 38.8158 94.8101 38.682 95.256 38.4145C95.713 38.147 96.0418 37.7569 96.2424 37.2442L96.5601 38.3476C96.3483 38.8715 95.9749 39.2895 95.4399 39.6016C94.9049 39.9025 94.2305 40.053 93.4168 40.053ZM100.818 39.9527V27.547H102.423V39.9527H100.818ZM105.487 39.9527V31.0915H107.092V39.9527H105.487ZM106.29 29.3861C105.978 29.3861 105.716 29.2858 105.504 29.0852C105.303 28.8845 105.203 28.6393 105.203 28.3495C105.203 28.0486 105.303 27.7978 105.504 27.5972C105.716 27.3965 105.978 27.2962 106.29 27.2962C106.602 27.2962 106.858 27.3965 107.059 27.5972C107.271 27.7866 107.377 28.0263 107.377 28.3161C107.377 28.617 107.276 28.8734 107.076 29.0852C106.875 29.2858 106.613 29.3861 106.29 29.3861ZM115.658 39.9527V38.0801L115.574 37.729V34.5356C115.574 33.8557 115.373 33.3319 114.972 32.964C114.582 32.5851 113.991 32.3956 113.2 32.3956C112.676 32.3956 112.163 32.4848 111.662 32.6631C111.16 32.8303 110.737 33.0588 110.391 33.3486L109.722 32.1448C110.179 31.777 110.725 31.4983 111.361 31.3088C112.007 31.1082 112.682 31.0079 113.384 31.0079C114.599 31.0079 115.535 31.3033 116.193 31.894C116.85 32.4848 117.179 33.3876 117.179 34.6025V39.9527H115.658ZM112.748 40.053C112.091 40.053 111.511 39.9415 111.01 39.7186C110.519 39.4957 110.14 39.1892 109.873 38.7991C109.605 38.3978 109.471 37.9464 109.471 37.4448C109.471 36.9655 109.583 36.5308 109.806 36.1407C110.04 35.7506 110.413 35.4385 110.926 35.2044C111.45 34.9703 112.152 34.8533 113.033 34.8533H115.842V36.0069H113.1C112.297 36.0069 111.756 36.1407 111.478 36.4082C111.199 36.6757 111.06 36.9989 111.06 37.3779C111.06 37.8126 111.233 38.1637 111.578 38.4312C111.924 38.6876 112.403 38.8158 113.016 38.8158C113.618 38.8158 114.142 38.682 114.588 38.4145C115.045 38.147 115.373 37.7569 115.574 37.2442L115.892 38.3476C115.68 38.8715 115.307 39.2895 114.771 39.6016C114.236 39.9025 113.562 40.053 112.748 40.053Z" fill="#142032"/>
<circle cx="143.533" cy="33.9527" r="13.3754" fill="#480095"/>
</g>
<defs>
<filter id="filter0_d_1474_1006" x="0" y="0" width="186.862" height="83.9054" filterUnits="userSpaceOnUse" color-interpolation-filters="sRGB">
<feFlood flood-opacity="0" result="BackgroundImageFix"/>
<feColorMatrix in="SourceAlpha" type="matrix" values="0 0 0 0 0 0 0 0 0 0 0 0 0 0 0 0 0 0 127 0" result="hardAlpha"/>
<feOffset dx="3" dy="8"/>
<feGaussianBlur stdDeviation="8"/>
<feColorMatrix type="matrix" values="0 0 0 0 0.282353 0 0 0 0 0 0 0 0 0 0.584314 0 0 0 0.15 0"/>
<feBlend mode="normal" in2="BackgroundImageFix" result="effect1_dropShadow_1474_1006"/>
<feBlend mode="normal" in="SourceGraphic" in2="effect1_dropShadow_1474_1006" result="shape"/>
</filter>
</defs>
</svg>
