<svg width="228" height="84" viewBox="0 0 228 84" fill="none" xmlns="http://www.w3.org/2000/svg">
<g filter="url(#filter0_d_1474_985)">
<rect x="13" y="8" width="195.012" height="51.9054" rx="11.3229" fill="white"/>
<path d="M33.1694 22.9261C33.1694 20.7169 34.9603 18.9261 37.1694 18.9261H72.1694C74.3786 18.9261 76.1694 20.7169 76.1694 22.9261V28.9261H33.1694V22.9261Z" fill="#C60B1E"/>
<rect x="33.1528" y="28.9379" width="43" height="10" fill="#FFC400"/>
<path d="M33.2026 38.9793H76.2026V44.9793C76.2026 47.1884 74.4118 48.9793 72.2026 48.9793H37.2026C34.9935 48.9793 33.2026 47.1884 33.2026 44.9793V38.9793Z" fill="#C60B1E"/>
<path d="M90.4322 33.2984H96.4512V34.7196H90.4322V33.2984ZM90.5827 38.4981H97.4042V39.9527H88.9108V28.2492H97.1701V29.7038H90.5827V38.4981ZM102.304 40.053C101.569 40.053 100.866 39.9527 100.198 39.7521C99.5401 39.5514 99.0218 39.3062 98.6428 39.0164L99.3116 37.7457C99.6906 38.0021 100.159 38.2195 100.716 38.3978C101.273 38.5761 101.842 38.6653 102.421 38.6653C103.168 38.6653 103.703 38.5594 104.026 38.3476C104.361 38.1359 104.528 37.8405 104.528 37.4615C104.528 37.1829 104.428 36.9655 104.227 36.8095C104.026 36.6534 103.759 36.5364 103.425 36.4584C103.101 36.3803 102.739 36.3135 102.338 36.2577C101.937 36.1909 101.535 36.1128 101.134 36.0237C100.733 35.9233 100.365 35.7896 100.031 35.6224C99.6961 35.4441 99.4286 35.2044 99.228 34.9035C99.0274 34.5914 98.9271 34.179 98.9271 33.6662C98.9271 33.1312 99.0775 32.6631 99.3785 32.2618C99.6794 31.8606 100.103 31.554 100.649 31.3423C101.206 31.1193 101.864 31.0079 102.622 31.0079C103.202 31.0079 103.787 31.0803 104.378 31.2252C104.979 31.359 105.47 31.554 105.849 31.8104L105.163 33.0811C104.762 32.8136 104.344 32.6297 103.909 32.5293C103.475 32.429 103.04 32.3789 102.605 32.3789C101.903 32.3789 101.379 32.4959 101.034 32.73C100.688 32.9529 100.515 33.2427 100.515 33.5994C100.515 33.9003 100.616 34.1344 100.816 34.3016C101.028 34.4576 101.296 34.5802 101.619 34.6694C101.953 34.7586 102.321 34.8366 102.722 34.9035C103.124 34.9592 103.525 35.0372 103.926 35.1375C104.327 35.2267 104.69 35.3549 105.013 35.5221C105.347 35.6893 105.615 35.9233 105.815 36.2243C106.027 36.5252 106.133 36.9265 106.133 37.4281C106.133 37.9631 105.977 38.4257 105.665 38.8158C105.353 39.2059 104.913 39.5124 104.344 39.7353C103.776 39.9471 103.096 40.053 102.304 40.053ZM112.837 40.053C112.101 40.053 111.427 39.8858 110.814 39.5514C110.212 39.2059 109.727 38.6987 109.359 38.03C109.003 37.3612 108.824 36.5252 108.824 35.5221C108.824 34.5189 108.997 33.683 109.343 33.0142C109.699 32.3454 110.179 31.8438 110.781 31.5095C111.394 31.1751 112.079 31.0079 112.837 31.0079C113.706 31.0079 114.476 31.1974 115.144 31.5763C115.813 31.9553 116.343 32.4848 116.733 33.1647C117.123 33.8334 117.318 34.6192 117.318 35.5221C117.318 36.4249 117.123 37.2163 116.733 37.8962C116.343 38.5761 115.813 39.1056 115.144 39.4845C114.476 39.8635 113.706 40.053 112.837 40.053ZM108.139 43.1962V31.0915H109.677V33.4823L109.577 35.5388L109.744 37.5953V43.1962H108.139ZM112.703 38.6486C113.272 38.6486 113.779 38.5204 114.225 38.264C114.682 38.0077 115.038 37.6454 115.295 37.1773C115.562 36.698 115.696 36.1463 115.696 35.5221C115.696 34.8868 115.562 34.3406 115.295 33.8836C115.038 33.4155 114.682 33.0532 114.225 32.7968C113.779 32.5405 113.272 32.4123 112.703 32.4123C112.146 32.4123 111.639 32.5405 111.182 32.7968C110.736 33.0532 110.379 33.4155 110.112 33.8836C109.855 34.3406 109.727 34.8868 109.727 35.5221C109.727 36.1463 109.855 36.698 110.112 37.1773C110.379 37.6454 110.736 38.0077 111.182 38.264C111.639 38.5204 112.146 38.6486 112.703 38.6486ZM124.954 39.9527V38.0801L124.871 37.729V34.5356C124.871 33.8557 124.67 33.3319 124.269 32.964C123.879 32.5851 123.288 32.3956 122.497 32.3956C121.973 32.3956 121.46 32.4848 120.959 32.6631C120.457 32.8303 120.033 33.0588 119.688 33.3486L119.019 32.1448C119.476 31.777 120.022 31.4983 120.658 31.3088C121.304 31.1082 121.978 31.0079 122.681 31.0079C123.896 31.0079 124.832 31.3033 125.489 31.894C126.147 32.4848 126.476 33.3876 126.476 34.6025V39.9527H124.954ZM122.045 40.053C121.388 40.053 120.808 39.9415 120.307 39.7186C119.816 39.4957 119.437 39.1892 119.17 38.7991C118.902 38.3978 118.768 37.9464 118.768 37.4448C118.768 36.9655 118.88 36.5308 119.103 36.1407C119.337 35.7506 119.71 35.4385 120.223 35.2044C120.747 34.9703 121.449 34.8533 122.33 34.8533H125.138V36.0069H122.396C121.594 36.0069 121.053 36.1407 120.775 36.4082C120.496 36.6757 120.357 36.9989 120.357 37.3779C120.357 37.8126 120.529 38.1637 120.875 38.4312C121.221 38.6876 121.7 38.8158 122.313 38.8158C122.915 38.8158 123.439 38.682 123.884 38.4145C124.341 38.147 124.67 37.7569 124.871 37.2442L125.189 38.3476C124.977 38.8715 124.603 39.2895 124.068 39.6016C123.533 39.9025 122.859 40.053 122.045 40.053ZM134.178 31.0079C134.902 31.0079 135.538 31.1472 136.084 31.4259C136.641 31.7045 137.076 32.1281 137.388 32.6965C137.7 33.265 137.856 33.9839 137.856 34.8533V39.9527H136.251V35.0372C136.251 34.179 136.039 33.5325 135.616 33.0978C135.203 32.6631 134.618 32.4457 133.86 32.4457C133.292 32.4457 132.796 32.5572 132.372 32.7801C131.949 33.0031 131.62 33.3319 131.386 33.7666C131.163 34.2013 131.051 34.7419 131.051 35.3883V39.9527H129.446V31.0915H130.984V33.4823L130.734 32.847C131.023 32.2674 131.469 31.816 132.071 31.4927C132.673 31.1695 133.375 31.0079 134.178 31.0079ZM134.83 29.7539C134.562 29.7539 134.323 29.6982 134.111 29.5868C133.91 29.4753 133.726 29.3471 133.559 29.2022C133.392 29.0462 133.23 28.9124 133.074 28.8009C132.918 28.6895 132.762 28.6338 132.606 28.6338C132.361 28.6338 132.16 28.7285 132.004 28.918C131.859 29.0963 131.776 29.3471 131.753 29.6703H130.851C130.873 29.0462 131.029 28.5502 131.319 28.1823C131.609 27.8145 131.999 27.6306 132.489 27.6306C132.757 27.6306 132.996 27.6919 133.208 27.8145C133.42 27.926 133.609 28.0597 133.776 28.2158C133.944 28.3607 134.1 28.4889 134.245 28.6003C134.401 28.7118 134.557 28.7675 134.713 28.7675C134.958 28.7675 135.159 28.6783 135.315 28.5C135.471 28.3217 135.554 28.0764 135.565 27.7644H136.468C136.457 28.3551 136.301 28.8344 136 29.2022C135.71 29.57 135.32 29.7539 134.83 29.7539ZM146.327 39.9527V38.0801L146.243 37.729V34.5356C146.243 33.8557 146.043 33.3319 145.642 32.964C145.251 32.5851 144.661 32.3956 143.869 32.3956C143.345 32.3956 142.833 32.4848 142.331 32.6631C141.83 32.8303 141.406 33.0588 141.06 33.3486L140.392 32.1448C140.849 31.777 141.395 31.4983 142.03 31.3088C142.677 31.1082 143.351 31.0079 144.053 31.0079C145.268 31.0079 146.204 31.3033 146.862 31.894C147.52 32.4848 147.848 33.3876 147.848 34.6025V39.9527H146.327ZM143.418 40.053C142.76 40.053 142.181 39.9415 141.679 39.7186C141.189 39.4957 140.81 39.1892 140.542 38.7991C140.275 38.3978 140.141 37.9464 140.141 37.4448C140.141 36.9655 140.252 36.5308 140.475 36.1407C140.709 35.7506 141.083 35.4385 141.595 35.2044C142.119 34.9703 142.822 34.8533 143.702 34.8533H146.511V36.0069H143.769C142.966 36.0069 142.426 36.1407 142.147 36.4082C141.869 36.6757 141.729 36.9989 141.729 37.3779C141.729 37.8126 141.902 38.1637 142.248 38.4312C142.593 38.6876 143.072 38.8158 143.685 38.8158C144.287 38.8158 144.811 38.682 145.257 38.4145C145.714 38.147 146.043 37.7569 146.243 37.2442L146.561 38.3476C146.349 38.8715 145.976 39.2895 145.441 39.6016C144.906 39.9025 144.232 40.053 143.418 40.053Z" fill="#142032"/>
<circle cx="174.483" cy="33.9527" r="13.3754" fill="#FF943F"/>
</g>
<defs>
<filter id="filter0_d_1474_985" x="0" y="0" width="227.011" height="83.9054" filterUnits="userSpaceOnUse" color-interpolation-filters="sRGB">
<feFlood flood-opacity="0" result="BackgroundImageFix"/>
<feColorMatrix in="SourceAlpha" type="matrix" values="0 0 0 0 0 0 0 0 0 0 0 0 0 0 0 0 0 0 127 0" result="hardAlpha"/>
<feOffset dx="3" dy="8"/>
<feGaussianBlur stdDeviation="8"/>
<feColorMatrix type="matrix" values="0 0 0 0 0.282353 0 0 0 0 0 0 0 0 0 0.584314 0 0 0 0.15 0"/>
<feBlend mode="normal" in2="BackgroundImageFix" result="effect1_dropShadow_1474_985"/>
<feBlend mode="normal" in="SourceGraphic" in2="effect1_dropShadow_1474_985" result="shape"/>
</filter>
</defs>
</svg>
